<?xml version="1.0" encoding="utf-8"?>
<!-- Generator: Adobe Illustrator 19.1.0, SVG Export Plug-In . SVG Version: 6.00 Build 0)  -->
<svg version="1.1" id="Layer_1" xmlns="http://www.w3.org/2000/svg" xmlns:xlink="http://www.w3.org/1999/xlink" x="0px" y="0px"
	 viewBox="-479 161 320 480" style="enable-background:new -479 161 320 480;" xml:space="preserve">
<style type="text/css">
	.st0{fill:#231F20;}
	.st1{fill:#22D3C5;}
</style>
<g>
	<g>
		<g>
			<path d="M-290,314.9h-3c-0.8,0-1.5-0.7-1.5-1.5c0-0.8,0.7-1.5,1.5-1.5h3c0.8,0,1.5,0.7,1.5,1.5
				C-288.5,314.2-289.2,314.9-290,314.9z"/>
		</g>
		<g>
			<path d="M-299.8,297.9c-0.4,0-0.8-0.1-1.1-0.4c-0.6-0.6-0.6-1.6,0-2.2l3.6-3.6c0.6-0.6,1.6-0.6,2.2,0c0.6,0.6,0.6,1.6,0,2.2
				l-3.6,3.6C-299,297.7-299.4,297.9-299.8,297.9z"/>
		</g>
		<g>
			<path d="M-316,292c-0.8,0-1.5-0.7-1.5-1.5v-6.1c0-0.8,0.7-1.5,1.5-1.5c0.8,0,1.5,0.7,1.5,1.5v6.1C-314.4,291.4-315.1,292-316,292
				z"/>
		</g>
		<g>
			<path d="M-333.1,297.9c-0.4,0-0.8-0.1-1.1-0.4l-3.6-3.6c-0.6-0.6-0.6-1.6,0-2.2s1.6-0.6,2.2,0l3.6,3.6c0.6,0.6,0.6,1.6,0,2.2
				C-332.3,297.7-332.7,297.9-333.1,297.9z"/>
		</g>
		<g>
			<path d="M-338.8,314.9h-6.1c-0.8,0-1.5-0.7-1.5-1.5c0-0.8,0.7-1.5,1.5-1.5h6.1c0.8,0,1.5,0.7,1.5,1.5
				C-337.3,314.2-338,314.9-338.8,314.9z"/>
		</g>
		<g>
			<path d="M-279.4,366.7h-76.2c-0.8,0-1.5-0.7-1.5-1.5v-28.3c0-0.6,0.3-1.1,0.8-1.3c22.1-12.3,59.1-12.3,77.8,0
				c0.4,0.3,0.7,0.8,0.7,1.3v28.3C-277.9,366-278.5,366.7-279.4,366.7z M-354.1,363.7h73.1v-26c-17.5-11-52.5-10.9-73.1,0.1V363.7z"
				/>
		</g>
		<g>
			<path d="M-298.9,365.9c-0.7,0-1.3-0.4-1.5-1.1l-11.1-36.2c-0.2-0.8,0.2-1.7,1-1.9c0.8-0.2,1.7,0.2,1.9,1l11.2,36.2
				c0.2,0.8-0.2,1.7-1,1.9C-298.6,365.8-298.7,365.9-298.9,365.9z"/>
		</g>
		<g>
			<path d="M-279.4,362.4c-0.4,0-0.9-0.2-1.2-0.6l-25.6-32.3c-0.5-0.7-0.4-1.6,0.2-2.1c0.7-0.5,1.6-0.4,2.1,0.2l25.7,32.3
				c0.5,0.7,0.4,1.6-0.2,2.1C-278.7,362.3-279,362.4-279.4,362.4z"/>
		</g>
		<g>
			<path d="M-334,365.8c-0.1,0-0.3,0-0.4-0.1c-0.8-0.2-1.3-1.1-1-1.9l11.1-36.1c0.2-0.8,1.1-1.3,1.9-1c0.8,0.2,1.3,1.1,1,1.9
				l-11.1,36.1C-332.7,365.4-333.3,365.8-334,365.8z"/>
		</g>
		<g>
			<path d="M-355.6,362.4c-0.4,0-0.7-0.1-1-0.4c-0.6-0.6-0.7-1.5-0.2-2.2l28.1-32.3c0.6-0.6,1.5-0.7,2.2-0.2
				c0.6,0.6,0.7,1.5,0.2,2.2l-28.1,32.3C-354.7,362.2-355.2,362.4-355.6,362.4z"/>
		</g>
		<g>
			<path d="M-316,366.7c-0.8,0-1.5-0.7-1.5-1.5v-37.3c0-0.8,0.7-1.5,1.5-1.5c0.8,0,1.5,0.7,1.5,1.5v37.3
				C-314.4,366-315.1,366.7-316,366.7z"/>
		</g>
		<g>
			<path d="M-324.2,329.8c-0.2,0-0.5-0.1-0.7-0.2c-6.3-3.2-10.1-9.6-10.1-16.6c0-10.3,8.4-18.6,18.6-18.6c10.3,0,18.6,8.4,18.6,18.6
				c0,7-3.9,13.3-10.1,16.6c-0.7,0.4-1.7,0.1-2.1-0.7c-0.4-0.8,0-1.6,0.7-2c5.2-2.7,8.4-8,8.4-13.8c0-8.6-7-15.6-15.6-15.6
				s-15.6,7-15.6,15.6c0,5.9,3.3,11.2,8.5,13.9c0.8,0.4,1,1.3,0.7,2.1C-323.1,329.5-323.7,329.8-324.2,329.8z"/>
		</g>
	</g>
	<g>
		<g>
			<g>
				<path d="M-344.3,205.6c-0.4,0-0.9,0-1.3-0.1c-1.9-0.4-4.6-1.8-6.5-6.2c-3.5-2.5-4.2-5.1-4.2-6.9c0-2.7,1.7-5.4,4.6-7.3l0,0
					c2.6-1.7,5.2-2.4,7.7-3c2.9-0.8,5.7-1.5,8.8-3.8c0.4-0.3,0.8-0.4,1.3-0.3c0.4,0.1,0.8,0.4,1,0.8c3.1,6.7,0.8,18.5-3.2,22.8
					C-338.7,204.1-341.6,205.6-344.3,205.6z M-350.1,187.5c-2,1.4-3.2,3.1-3.2,4.8c0,2,1.8,3.6,3.3,4.6c0.3,0.2,0.4,0.4,0.6,0.7
					c1.1,2.8,2.6,4.5,4.4,4.8c2.3,0.5,4.9-1.3,6.6-3c2.9-3.1,4.8-11.9,3.3-17.7c-2.9,1.8-5.7,2.5-8.1,3.1
					C-345.7,185.5-347.9,186.1-350.1,187.5L-350.1,187.5z"/>
			</g>
			<g>
				<path d="M-374.3,199.1c-3.4,0-7.1-2.2-10.5-6.3c-5.1-6-7.3-22.2-2.6-31c0.2-0.4,0.6-0.7,1.1-0.8s0.9,0,1.3,0.3
					c3.6,3.1,7.7,4.3,11.7,5.5c4.5,1.3,8.7,2.6,11.8,6.3l0,0c3.4,4,4.7,7.7,3.9,11c-0.7,3.2-3.3,5.8-7.7,7.8c-2,4.2-4.6,6.6-7.8,7.1
					C-373.6,199.1-373.9,199.1-374.3,199.1z M-385.5,164.9c-3.1,8-1.1,21.1,3,25.9c3.1,3.6,6.3,5.5,8.8,5.2c2.2-0.3,4.1-2.3,5.7-5.8
					c0.2-0.3,0.4-0.6,0.8-0.8c3.8-1.6,5.9-3.6,6.5-5.9c0.7-2.9-1.4-6.2-3.2-8.3l0,0c-2.6-3-6.2-4.1-10.4-5.4
					C-377.9,168.7-381.8,167.5-385.5,164.9z"/>
			</g>
			<g>
				<path d="M-357.7,211.7h-0.1c-0.7,0-1.2-0.5-1.4-1.2c0-0.2-4.4-19.8-20.9-34.6c-0.6-0.6-0.7-1.5-0.1-2.2c0.6-0.6,1.5-0.7,2.2-0.1
					c12.8,11.5,18.5,25.4,20.7,32.1c2.4-4.6,7.1-12.1,14.4-15.8c0.8-0.4,1.7-0.1,2,0.7c0.4,0.8,0.1,1.7-0.7,2
					c-9.6,4.8-14.6,17.8-14.6,18C-356.5,211.3-357.1,211.7-357.7,211.7z"/>
			</g>
			<g>
				<path d="M-387.6,237.2c0,0.8-0.7,1.5-1.5,1.5h-12.2c-0.8,0-1.5-0.7-1.5-1.5v-27.4c0-0.8,0.7-1.5,1.5-1.5h12.2
					c0.8,0,1.5,0.7,1.5,1.5V237.2z M-399.8,235.7h9.1v-24.4h-9.1V235.7z"/>
			</g>
			<g>
				<path d="M-360.4,242.5c-4.3,0-8.9-1.6-17.4-4.6c-3.1-1.1-6.8-2.4-11.2-3.9c-0.8-0.3-1.2-1.1-1-1.9c0.3-0.8,1.1-1.2,1.9-1
					c4.4,1.5,8.1,2.8,11.3,3.9c17.5,6.2,17.5,6.2,34.4-2.9c4.2-2.3,9.4-5.1,16.1-8.4c-2.7-2.2-4.8-2.3-7.2-1.6l-15.1,5
					c-0.8,0.3-1.7-0.2-1.9-1c-0.3-0.8,0.2-1.7,1-1.9l15.2-5c4.4-1.3,7.9-0.2,11.8,3.8c0.3,0.3,0.5,0.8,0.4,1.3s-0.4,0.9-0.8,1.1
					c-7.6,3.8-13.4,6.9-18,9.4C-350.7,240.1-355.2,242.5-360.4,242.5z"/>
			</g>
			<g>
				<path d="M-352.5,229.6h-19.8c-0.8,0-1.5-0.7-1.5-1.5s0.7-1.5,1.5-1.5h19.8c1.1,0,2-0.2,2.5-0.6c0.3-0.3,0.5-0.6,0.5-0.9
					c0-0.7-1.1-1.5-3-1.5h-10.3c-0.6,0-1.1-0.3-1.3-0.8c-1.3-2.3-6.4-8.4-14.1-8.4h-9.3c-0.8,0-1.5-0.7-1.5-1.5s0.7-1.5,1.5-1.5h9.3
					c7.7,0,13.7,5.2,16.2,9.1h9.5c4,0,6.1,2.3,6.1,4.6C-346.4,227.3-348.5,229.6-352.5,229.6z"/>
			</g>
		</g>
		<g>
			<g>
				<g>
					<path d="M-279.4,209.8c-0.8,0-1.5-0.7-1.5-1.5v-3c0-0.8,0.7-1.5,1.5-1.5c0.8,0,1.5,0.7,1.5,1.5v3
						C-277.9,209.1-278.5,209.8-279.4,209.8z"/>
				</g>
				<g>
					<path d="M-279.4,176.2c-0.8,0-1.5-0.7-1.5-1.5v-3c0-0.8,0.7-1.5,1.5-1.5c0.8,0,1.5,0.7,1.5,1.5v3
						C-277.9,175.5-278.5,176.2-279.4,176.2z"/>
				</g>
				<g>
					<path d="M-278.1,205.3c-4.8,0-8.6-3.9-8.6-8.6c0-0.8,0.7-1.5,1.5-1.5c0.8,0,1.5,0.7,1.5,1.5c0,3.1,2.5,5.6,5.6,5.6
						s5.6-2.5,5.6-5.6s-2.5-5.6-5.6-5.6c-4.8,0-8.6-3.9-8.6-8.6c0-4.8,3.9-8.6,8.6-8.6c4.8,0,8.6,3.9,8.6,8.6c0,0.8-0.7,1.5-1.5,1.5
						c-0.8,0-1.5-0.7-1.5-1.5c0-3.1-2.5-5.6-5.6-5.6s-5.6,2.5-5.6,5.6s2.5,5.6,5.6,5.6c4.8,0,8.6,3.9,8.6,8.6
						S-273.4,205.3-278.1,205.3z"/>
				</g>
			</g>
			<g>
				<g>
					<path d="M-229.1,234.1c0,0.8-0.7,1.5-1.5,1.5h-12.2c-0.8,0-1.5-0.7-1.5-1.5v-24.4c0-0.8,0.7-1.5,1.5-1.5h12.2
						c0.8,0,1.5,0.7,1.5,1.5V234.1z M-241.3,232.6h9.1v-21.3h-9.1V232.6z"/>
				</g>
				<g>
					<path d="M-272.1,239.3c-5.1,0-9.6-2.1-19.3-6.8c-4.6-2.2-10.3-5-17.9-8.4c-0.5-0.2-0.8-0.6-0.9-1.2c-0.1-0.5,0.1-1,0.5-1.4
						c3.9-3.5,7.3-4.5,11.6-3.4l15.1,4.5c0.8,0.2,1.3,1.1,1,1.9c-0.2,0.8-1.1,1.3-1.9,1l-15-4.5c-2.6-0.7-4.6-0.3-6.8,1.2
						c6.5,3,11.5,5.4,15.7,7.4c16.8,8.1,16.8,8.1,34.3,2.6c3.1-1,6.8-2.1,11.2-3.5c0.8-0.2,1.7,0.2,1.9,1s-0.2,1.7-1,1.9
						c-4.4,1.3-8,2.5-11.2,3.5C-263.2,237.8-267.9,239.3-272.1,239.3z"/>
				</g>
				<g>
					<path d="M-262.6,226.5h-16.8c-4,0-6.1-2.3-6.1-4.6c0-2.3,2.1-4.6,6.1-4.6h9.7c0.2-0.1,1.1-0.7,1.9-1.2
						c2.8-1.8,7.5-4.9,13.4-4.9h10c0.8,0,1.5,0.7,1.5,1.5s-0.7,1.5-1.5,1.5h-10c-5,0-9,2.7-11.7,4.4c-1.6,1.1-2.6,1.7-3.6,1.7h-9.7
						c-2,0-3,0.8-3,1.5s1.1,1.5,3,1.5h16.8c0.8,0,1.5,0.7,1.5,1.5C-261.1,225.8-261.8,226.5-262.6,226.5z"/>
				</g>
			</g>
		</g>
	</g>
	<g>
		<g>
			<path d="M-334.2,456c-0.3,0-0.5-0.1-0.8-0.2c-0.5-0.3-0.8-0.8-0.8-1.3v-5.2c-4.1-2.2-6.5-3.7-7.7-4.5l-9.7,6.9
				c-0.5,0.6-1.5,0.8-2.4,0.3c-0.8-0.4-1.3-1.2-1.3-2.1c0-0.3,0.1-0.5,0.2-0.7l0.8-1.5c0.5-0.9,1-2,1.5-3.5c0.5-1.4,0.7-2.5,0.7-3.4
				s-0.3-2.1-0.8-3.6c-0.7-2-1.1-2.9-1.3-3.3c-0.4-0.7-0.7-1.2-0.9-1.7c-0.1-0.2-0.2-0.5-0.2-0.8c0-1.2,0.7-1.8,1.1-2.1
				c0.4-0.2,1.4-0.6,2.6,0.3l9.7,6.9c4.6-3.3,8.9-5.4,13.8-6.8v-6c0-0.5,0.3-1,0.7-1.3c0.5-0.3,1-0.3,1.5-0.1l12.8,6.5
				c3.6,0.6,7.1,1.7,10.5,3.3s6,3.1,7.8,4.6c2.3,1.8,3.1,2.9,3.1,3.9s-0.7,2.2-3.9,4.7c-2.3,1.8-5.6,3.5-10,5.2
				c-4.4,1.7-8.9,2.5-13.3,2.5c-2.1,0-4.3-0.3-6.6-0.7l-6.3,3.5C-333.7,455.9-334,456-334.2,456z M-343.5,441.5
				c0.3,0,0.6,0.1,0.9,0.3c0.3,0.2,3,1.9,9.1,5.3c0.5,0.3,0.8,0.8,0.8,1.3v3.4l4.5-2.5c0.3-0.2,0.7-0.2,1.1-0.2
				c2.3,0.5,4.5,0.8,6.5,0.8c4.1,0,8.2-0.8,12.2-2.3c4.1-1.6,7.2-3.2,9.3-4.7c1.5-1.2,2.2-1.9,2.5-2.2c-0.3-0.3-0.8-0.8-1.8-1.6
				c-1.2-1-3-2.1-5.2-3.2c0.2,0.1,0.3,0.3,0.4,0.4c0.9,0.9,1.4,2,1.4,3.2c0,1.2-0.5,2.3-1.4,3.2c-1.8,1.8-4.7,1.8-6.5,0
				c-0.9-0.9-1.4-2-1.4-3.2c0-1.2,0.5-2.3,1.3-3.2l0,0c1.2-1.2,2.9-1.6,4.4-1.2c-0.1-0.1-0.3-0.1-0.4-0.2c-3.1-1.5-6.5-2.5-9.9-3.1
				c-0.2,0-0.3-0.1-0.4-0.1l-10.8-5.4v4.6c0,0.7-0.5,1.3-1.1,1.5c-5.4,1.4-9.8,3.6-14.8,7.3c-0.5,0.4-1.3,0.4-1.8,0l-8-5.7
				c0.2,0.6,0.5,1.4,0.8,2.3c0.6,1.9,0.9,3.4,0.9,4.6c0,1.2-0.3,2.7-0.8,4.4c-0.3,0.8-0.5,1.5-0.8,2.2l7.9-5.6
				C-344.2,441.6-343.9,441.5-343.5,441.5z M-307.4,438.4c-0.3,0.3-0.5,0.7-0.5,1.1s0.1,0.8,0.5,1.1c0.6,0.6,1.5,0.6,2.2,0
				c0.3-0.3,0.5-0.7,0.5-1.1s-0.1-0.8-0.5-1.1C-305.9,437.8-306.8,437.8-307.4,438.4z"/>
		</g>
		<g>
			<path d="M-306.8,494c-0.2,0-0.5-0.1-0.7-0.2l-6.8-3.6c-2.2,0.5-4.7,0.8-6.9,0.8c-4.5,0-9.1-0.9-13.5-2.5c-4.3-1.7-7.7-3.4-10-5.1
				c-3.2-2.4-3.9-3.6-3.9-4.6c0-1.1,0.8-2.2,3.1-4c1.7-1.4,4.3-2.8,8-4.5c3.3-1.5,7-2.6,10.7-3.2l13.2-6.5c0.5-0.2,1-0.2,1.5,0.1
				c0.4,0.3,0.7,0.8,0.7,1.3v5.9c5.2,1.4,9.1,3.7,13.3,6.7l9.3-6.9c1.2-0.9,2.2-0.5,2.6-0.3c0.5,0.3,1.1,0.9,1.1,2.2
				c0,0.3-0.1,0.5-0.2,0.7l-0.8,1.5c-0.5,0.9-1,2.2-1.5,3.6c-0.4,1.3-0.7,2.5-0.7,3.5c0,2.1,1,4.9,3,8.3c0.1,0.2,0.2,0.5,0.2,0.8
				c0,1.3-0.8,1.9-1.2,2.1c-0.8,0.4-1.5,0.3-2.3-0.2l-9.5-7c-1.3,0.9-3.6,2.4-7.3,4.4v5.2c0,0.5-0.3,1-0.7,1.3
				C-306.3,493.9-306.5,494-306.8,494z M-314.1,487c0.2,0,0.5,0.1,0.7,0.2l5.1,2.7v-3.6c0-0.6,0.3-1.1,0.8-1.3
				c6.5-3.5,8.4-5.2,8.4-5.2c0.5-0.5,1.4-0.6,2-0.1l7.4,5.5c-1.1-2.4-1.6-4.5-1.6-6.4c0-1.3,0.3-2.8,0.8-4.5l0,0
				c0.3-0.9,0.6-1.7,0.9-2.4l-7.6,5.6c-0.5,0.4-1.3,0.4-1.8,0c-4.7-3.5-8.5-5.7-14.3-7.1c-0.7-0.2-1.2-0.8-1.2-1.5v-4.7l-11.2,5.5
				c-0.1,0.1-0.3,0.1-0.4,0.1c-2,0.3-3.9,0.8-5.8,1.4c0.6,0.2,1.1,0.6,1.5,1c0.9,0.9,1.4,2,1.4,3.2c0,1.2-0.5,2.4-1.4,3.2l0,0
				c-1.8,1.8-4.7,1.8-6.5,0c-0.9-0.9-1.4-2-1.4-3.2c0-0.7,0.1-1.3,0.4-1.9c-2.6,1.3-4.5,2.4-5.8,3.4c-1.1,0.9-1.6,1.4-1.9,1.7
				c0.3,0.3,0.9,1,2.5,2.2c2.1,1.5,5.2,3.1,9.3,4.7c4,1.6,8.2,2.3,12.4,2.3c2.2,0,4.7-0.3,6.8-0.8C-314.4,487-314.2,487-314.1,487z
				 M-333.6,473.8c-0.4,0-0.8,0.1-1.1,0.5c-0.3,0.3-0.5,0.7-0.5,1.1c0,0.4,0.1,0.8,0.5,1.1c0.6,0.6,1.5,0.6,2.2,0
				c0.3-0.3,0.5-0.7,0.5-1.1s-0.1-0.8-0.5-1.1C-332.8,474-333.1,473.8-333.6,473.8z"/>
		</g>
	</g>
	<g>
		<g>
			<path d="M-225.3,494.7h-13.5c-4.6,0-8.5-3.9-8.5-8.7v-0.1l-0.1-0.2l-0.1-0.5c-0.1-3.7,2.6-7.6,3.5-8.7l-1-9.8
				c-5.8-3.9-9.3-10.1-9.3-16.9c0-0.6,0-1.2,0.1-1.9c-2.1,1-4.1,1.5-6.1,1.5c-7,0-12.4-2.9-12.4-6.6c0-3.7,5.4-6.6,12.4-6.6
				c3.5,0,6.7,1.7,8.9,3.2c0.6-1,1.4-2,2.2-2.9c-2.2-1.9-4.8-4.7-5.6-8.3c-0.2-0.8-0.8-3.8,0.8-5.4c0.5-0.5,1.1-0.8,1.8-0.8
				s1.8,0.3,2.4,2.3c0.1,0.3,1,4.5,9.4,6.3c5.2-1.9,10.9-1.8,15.9,0c8.5-1.8,9.4-6.1,9.4-6.2c0.7-2.1,1.8-2.4,2.5-2.4
				s1.4,0.3,1.9,0.9c1.5,1.6,0.9,4.5,0.7,5.4c-0.8,3.5-3.4,6.3-5.6,8.2c0.8,0.9,1.5,1.9,2.2,2.9c2.2-1.6,5.4-3.2,8.9-3.2
				c7,0,12.4,2.9,12.4,6.6c0,3.7-5.4,6.6-12.4,6.6c-2,0-4-0.5-6.1-1.5c0.1,0.6,0.1,1.2,0.1,1.9c0,6.3-3,12.2-8.2,16.1l-1.1,10.6
				c0.6,0.8,3.6,5,3.5,8.8v0.5C-216.7,490.8-220.7,494.7-225.3,494.7z M-244.6,485.8c0.2,3.2,2.8,5.8,5.8,5.8h13.5
				c3,0,5.6-2.7,5.8-5.8v-0.5c0.1-3.1-3-7.1-3-7.1l-0.3-0.4c-0.2-0.3-0.3-0.6-0.3-1l1.2-11.8c0-0.4,0.3-0.8,0.6-1.1l0.3-0.2
				c4.6-3.4,7.3-8.4,7.3-13.9c0-0.9-0.1-1.8-0.2-2.7l-0.3-1.8c-0.1-0.6,0.2-1.2,0.6-1.5c0.5-0.3,1.1-0.4,1.6-0.1l1.6,0.9
				c2,1.2,3.9,1.7,5.7,1.7c6,0,9.3-2.3,9.3-3.6c0-1.2-3.3-3.6-9.3-3.6c-3,0-5.8,1.7-7.6,3l-0.8,0.6c-0.4,0.3-0.8,0.4-1.2,0.3
				s-0.8-0.4-1-0.7l-0.5-0.9c-0.7-1.2-1.6-2.4-2.6-3.5l-0.7-0.7c-0.3-0.3-0.4-0.7-0.4-1.2c0-0.4,0.2-0.8,0.6-1.1l0.7-0.6
				c1.9-1.5,4.4-4,5.1-7c0.1-0.2,0.1-0.4,0.1-0.7c-1.2,2-4.1,5.2-11.2,6.6c-0.3,0.1-0.8,0.1-1.1,0c-4.7-1.8-9.9-1.8-14.4-0.1
				c-0.3,0.1-0.8,0.2-1.1,0.2c-7.3-1.5-10.2-4.6-11.4-6.7c0,0.2,0.1,0.4,0.1,0.6c0.7,3,3.2,5.5,5.1,7l0.7,0.6
				c0.3,0.3,0.5,0.7,0.6,1.1c0,0.4-0.1,0.8-0.4,1.2l-0.7,0.7c-1,1-1.9,2.2-2.6,3.5l-0.5,0.9c-0.2,0.4-0.6,0.7-1,0.7s-0.9,0-1.2-0.3
				l-0.8-0.6c-1.8-1.4-4.6-3-7.6-3c-6,0-9.3,2.3-9.3,3.6c0,1.2,3.3,3.6,9.3,3.6c1.8,0,3.7-0.6,5.7-1.7l1.6-0.9
				c0.5-0.3,1.1-0.3,1.6,0.1c0.5,0.3,0.7,0.9,0.6,1.5l-0.3,1.8c-0.1,0.9-0.2,1.8-0.2,2.6c0,5.8,3,11.2,8.1,14.5l0.4,0.2
				c0.4,0.3,0.6,0.7,0.7,1.1l1.1,11.1c0,0.4-0.1,0.8-0.3,1.1l-0.2,0.3c-1.1,1.5-3.1,4.6-3,7v0.6l-1.5,0.2L-244.6,485.8z"/>
		</g>
		<g>
			<path d="M-237.5,490.4c-2.2-0.3-3.6-1.2-4.3-2.6c-1.4-2.7,0.3-6.2,0.4-6.3c0.6-1.3,1.8-4.2,2.9-7.4c0.5-1.5,2.3-6.1,3-7
				c0.1-0.1,0.2-0.2,0.3-0.3v-8.1c0-1.1-1-3.9-3.6-6.5c-5-3.3-7.5-6.1-7.5-8.6c0-6.4,6.9-9.3,13.7-9.3s13.7,2.9,13.7,9.3
				c0,2.9-2.8,6.3-7.6,9.3c-2.2,2.6-2.5,5.5-2.5,6.4v7.8c0.2,0.3,0.5,1.2,1.3,3.5c1.2,3.3,3.3,8.9,4.3,10.9c0.1,0.2,1.7,3.7,0.3,6.3
				c-0.5,0.9-1.6,2.1-3.9,2.5L-237.5,490.4z M-233.2,469.2c-0.4,0.9-1.5,3.5-2.4,5.9c-0.9,2.7-2.2,6.1-3.1,7.8
				c-0.3,0.7-0.9,2.6-0.4,3.5c0.3,0.5,0.9,0.8,1.8,1h10.1c0.3-0.1,1.1-0.3,1.5-0.9c0.5-0.9,0-2.8-0.4-3.6c-1.1-2.2-3.1-7.6-4.5-11.2
				c-0.5-1.3-1-2.6-1.2-3.1l-0.1-0.1c-0.4-0.4-0.5-1-0.3-1.6v-7.7c0-1.4,0.5-5.1,3.4-8.4c0.1-0.1,0.3-0.3,0.4-0.3
				c4.7-3,6.3-5.5,6.3-6.9c0-4.3-5.4-6.2-10.7-6.2s-10.7,1.9-10.7,6.2c0,0.4,0.3,2.3,6.2,6.2c0.1,0.1,0.2,0.1,0.2,0.2
				c3.2,3.1,4.6,6.7,4.6,8.8v9.1c0,0.6-0.4,1.2-1,1.4L-233.2,469.2z"/>
		</g>
		<g>
			<path d="M-223.7,462.9c-2.6,0-4.8-2.1-4.8-4.8c0-2.6,2.2-4.8,4.8-4.8s4.8,2.2,4.8,4.8C-218.9,460.7-221,462.9-223.7,462.9z
				 M-223.7,456.3c-1,0-1.8,0.8-1.8,1.8s0.8,1.8,1.8,1.8s1.8-0.8,1.8-1.8S-222.7,456.3-223.7,456.3z"/>
		</g>
		<g>
			<path d="M-241.5,462.9c-2.6,0-4.8-2.1-4.8-4.8c0-2.6,2.2-4.8,4.8-4.8s4.8,2.2,4.8,4.8S-238.8,462.9-241.5,462.9z M-241.5,456.3
				c-1,0-1.8,0.8-1.8,1.8s0.8,1.8,1.8,1.8s1.8-0.8,1.8-1.8S-240.5,456.3-241.5,456.3z"/>
		</g>
	</g>
	<g>
		<g>
			<g>
				<g>
					<path class="st0" d="M-395.4,472.6c2.6,0.7,5.1,1.1,6.8,1.1c5.8,0,10.5-4.7,10.5-10.5c0-5.8-4.7-10.5-10.5-10.5
						c-2.5,0-6.8,0.9-10.5,2.2l1.5,2.8c3.2-1.1,6.7-1.9,9-1.9c4.1,0,7.4,3.3,7.4,7.4s-3.3,7.4-7.4,7.4c-1.6,0-3.8-0.4-6.1-1
						L-395.4,472.6z"/>
				</g>
			</g>
		</g>
		<g>
			<g>
				<g>
					<path class="st0" d="M-425.9,469.7c-2.1,0.5-4.1,0.8-5.6,0.8c-4.1,0-7.4-3.3-7.4-7.4s3.3-7.4,7.4-7.4c2.2,0,5.4,0.7,8.5,1.7
						l1.3-2.8c-3.5-1.2-7.4-2-9.8-2c-5.8,0-10.5,4.7-10.5,10.5c0,5.8,4.7,10.5,10.5,10.5c1.7,0,4.2-0.4,6.8-1.1L-425.9,469.7z"/>
				</g>
			</g>
		</g>
		<g>
			<g>
				<g>
					<path class="st0" d="M-410.1,495.7c2.6,0,4.9-5.4,6-9.8c0.4-1.7-2.7,1.9-6.3,1.9c-3.7,0-6.1-3.5-5.7-1.9
						C-415,490.3-412.7,495.7-410.1,495.7z"/>
				</g>
			</g>
		</g>
		<g>
			<g>
				<g>
					<path class="st0" d="M-401.7,451.8c2.3-2.2,3.7-5.3,3.7-8.7c0-6.8-5.5-12.3-12.3-12.3c-6.8,0-12.3,5.5-12.3,12.3
						c0,3.6,1.6,6.9,4.1,9.2l1.8-2.6c-1.7-1.7-2.8-4-2.8-6.6c0-5.1,4.1-9.2,9.2-9.2c5,0,9.2,4.1,9.2,9.2c0,2.8-1.2,5.2-3.2,6.9
						L-401.7,451.8z"/>
				</g>
			</g>
		</g>
		<g>
			<g>
				<path class="st0" d="M-410.3,447.2c-9.3,0-16.9,9.4-16.9,20.9s7.6,20.9,16.9,20.9c9.3,0,16.9-9.4,16.9-20.9
					S-401,447.2-410.3,447.2z M-410.3,485.9c-7.6,0-13.8-8-13.8-17.8c0-9.8,6.2-17.8,13.8-17.8s13.8,8,13.8,17.8
					C-396.5,477.9-402.7,485.9-410.3,485.9z"/>
			</g>
		</g>
		<g>
			<path class="st0" d="M-425.3,464.3h29.8c-0.2-1.1-0.6-2.1-0.9-3h-28.1C-424.8,462.2-425.1,463.2-425.3,464.3z"/>
		</g>
		<g>
			<path class="st0" d="M-422.8,458.1h24.8c-0.5-1.1-0.7-2.1-1.5-3h-21.2L-422.8,458.1z"/>
		</g>
		<g>
			<path class="st0" d="M-425,470.3h29.7c0.1-0.7,0-2.7,0-3h-29.8C-425.1,467.6-425.1,469.6-425,470.3z"/>
		</g>
		<g>
			<path class="st0" d="M-422.1,479.4h24.3c0.6-0.9,1.4-3.1,1.4-3.1h-27.3C-423.7,476.3-422.7,478.5-422.1,479.4z"/>
		</g>
		<g>
			<g>
				<g>
					<path class="st0" d="M-414.4,426.4c-1.6,0-3-1.3-3-3c0-1.6,1.3-3,3-3c1.6,0,3,1.3,3,3C-411.5,425.1-412.8,426.4-414.4,426.4z
						 M-414.4,422c-0.8,0-1.4,0.6-1.4,1.4c0,0.8,0.6,1.4,1.4,1.4c0.8,0,1.4-0.6,1.4-1.4C-413,422.7-413.7,422-414.4,422z"/>
				</g>
			</g>
		</g>
		<g>
			<g>
				<g>
					<path class="st0" d="M-405.7,426.4c-1.6,0-3-1.3-3-3c0-1.6,1.3-3,3-3c1.6,0,3,1.3,3,3C-402.8,425.1-404.1,426.4-405.7,426.4z
						 M-405.7,422c-0.8,0-1.4,0.6-1.4,1.4c0,0.8,0.6,1.4,1.4,1.4c0.8,0,1.4-0.6,1.4-1.4C-404.3,422.7-405,422-405.7,422z"/>
				</g>
			</g>
		</g>
		<g>
			<g>
				<rect x="-415" y="424.6" class="st0" width="0" height="9.1"/>
			</g>
		</g>
		<g>
			<g>
				<rect x="-405.9" y="424.6" class="st0" width="0" height="9.1"/>
			</g>
		</g>
	</g>
	<g>
		<g>
			<path d="M-309,641h-15.7c-0.9,0-1.8-0.5-2.4-1.3c-0.7-0.9-1-2.2-0.7-3.2l4.5-25.7l-9.9-1.7c-0.8,0.1-1.7,0.2-2.5,0.2
				c-7.6,0-13.8-6.1-13.8-13.7c0-4.3,2-8.3,5.4-10.9c-0.9-1.1-1.4-2.5-1.4-4c0-3.6,3-6.6,6.7-6.5c1.2-9.7,9.5-17,19.5-17
				c5.7,0,11,2.4,14.8,6.6c0.9-0.4,1.8-0.6,2.8-0.6c3.5,0,6.3,2.8,6.3,6.3c0,0.4,0,0.8-0.1,1.2c5.6,1.5,9.6,6.6,9.6,12.5
				c0,1.2-0.2,2.4-0.5,3.6c1.6,2.2,2.5,4.9,2.5,7.7c0,7.3-6,13.2-13.3,13.2c-1.6,0-3-0.2-4.3-0.7l-8.6,3.6l4.6,25.8
				c0.2,1,0,2.2-0.8,3.1C-307.2,640.6-308.1,641-309,641z M-333.4,606.1c0.1,0,0.2,0,0.3,0l11.7,2c0.4,0.1,0.8,0.3,1,0.6
				c0.2,0.3,0.3,0.7,0.3,1.1l-4.8,27.3c-0.1,0.3,0.1,0.7,0.3,0.8h15.6c0.1-0.1,0.3-0.5,0.2-0.7l-4.9-27.2c-0.1-0.7,0.3-1.4,0.9-1.7
				l10.3-4.3c0.4-0.2,0.8-0.2,1.2,0c1.1,0.4,2.4,0.7,3.8,0.7c5.7,0,10.3-4.6,10.3-10.2c0-2.3-0.8-4.6-2.3-6.4
				c-0.3-0.4-0.4-1-0.3-1.5c0.4-1.1,0.6-2.2,0.6-3.4c0-5-3.8-9.2-8.7-9.8c-0.5-0.1-0.9-0.4-1.2-0.8c-0.2-0.5-0.2-1,0-1.4
				c0.3-0.5,0.4-1.1,0.4-1.6c0-1.8-1.5-3.3-3.3-3.3c-0.8,0-1.5,0.3-2.1,0.8c-0.3,0.3-0.7,0.4-1.1,0.3c-0.4,0-0.8-0.3-1-0.6
				c-3.2-4.1-8-6.5-13.2-6.5c-9,0-16.3,6.9-16.6,15.8c0,0.5-0.3,0.9-0.6,1.2c-0.4,0.3-0.9,0.3-1.3,0.2c-2.2-0.7-4.5,1-4.5,3.3
				c0,1.2,0.6,2.3,1.6,2.9c0.5,0.3,0.7,0.8,0.7,1.3s-0.3,1-0.8,1.3c-3.5,1.9-5.6,5.5-5.6,9.3c0,5.9,4.8,10.6,10.8,10.6
				c0.7,0,1.5-0.1,2.2-0.2C-333.6,606.2-333.5,606.1-333.4,606.1z"/>
		</g>
	</g>
	<g>
		<path class="st1" d="M-357.1,613.6h-72c-21.1,0-40.8-18.8-40.8-40v-320c0-20.2,19-36.2,40.8-36.2h11v3h-11
			c-20.2,0-37.8,14.7-37.8,33.2v320c0,19.5,18.3,36.9,37.8,36.9h72V613.6z"/>
	</g>
	<g>
		<path class="st1" d="M-208,613.6h-72.9v-3h72.9c19.8,0,36.9-14.9,36.9-33.9v-320c0-19-17.1-36.2-36.9-36.2h-8.9v-3h8.9
			c21.5,0,39.9,18.6,39.9,39.3v320C-168.1,597.3-186.6,613.6-208,613.6z"/>
	</g>
	<g>
		<g>
			<rect x="-317.5" y="522.2" class="st1" width="3" height="15.2"/>
		</g>
		<g>
			<rect x="-323.6" y="528.3" class="st1" width="15.2" height="3"/>
		</g>
	</g>
	<g>
		<g>
			<rect x="-317.5" y="388.1" class="st1" width="3" height="15.2"/>
		</g>
		<g>
			<rect x="-323.6" y="394.1" class="st1" width="15.2" height="3"/>
		</g>
	</g>
	<g>
		<g>
			<rect x="-317.5" y="244.8" class="st1" width="3" height="15.2"/>
		</g>
		<g>
			<rect x="-323.6" y="250.9" class="st1" width="15.2" height="3"/>
		</g>
	</g>
</g>
</svg>
