<?xml version="1.0" encoding="utf-8"?>
<!-- Generator: Adobe Illustrator 19.1.0, SVG Export Plug-In . SVG Version: 6.00 Build 0)  -->
<svg version="1.1" id="Layer_1" xmlns="http://www.w3.org/2000/svg" xmlns:xlink="http://www.w3.org/1999/xlink" x="0px" y="0px"
	 viewBox="32 -170.3 320 480" enable-background="new 32 -170.3 320 480" xml:space="preserve">
<g>
	<g>
		<g>
			<path d="M234.7-90.5c0,0.8-0.7,1.5-1.5,1.5H221c-0.8,0-1.5-0.7-1.5-1.5v-24.4c0-0.8,0.7-1.5,1.5-1.5h12.2c0.8,0,1.5,0.7,1.5,1.5
				V-90.5z M222.5-92h9.1v-21.3h-9.1V-92z"/>
		</g>
		<g>
			<path d="M194-84.9c-4.9,0-9.3-2.1-18.7-6.8c-4.4-2.2-9.9-5-17.2-8.4c-0.5-0.2-0.8-0.6-0.9-1.1s0.1-1,0.5-1.4
				c3.8-3.5,7-4.5,11.2-3.4l14.5,4.5c0.8,0.2,1.3,1.1,1,1.9c-0.2,0.8-1.1,1.3-1.9,1l-14.5-4.5c-2.5-0.7-4.3-0.3-6.5,1.2
				c6.3,3,11.1,5.4,15.1,7.4c16.1,8.1,16.1,8.1,32.9,2.6c3-1,6.6-2.1,10.8-3.5c0.8-0.2,1.7,0.2,1.9,1s-0.2,1.7-1,1.9
				c-4.2,1.3-7.7,2.5-10.7,3.5C202.5-86.3,198-84.9,194-84.9z"/>
		</g>
		<g>
			<path d="M204.5-98.1h-18c-3.6,0-5.4-2.3-5.4-4.6s1.9-4.6,5.4-4.6h9.2c2.4,0,7.9-6.1,15.3-6.1h9.8c0.8,0,1.5,0.7,1.5,1.5
				s-0.7,1.5-1.5,1.5H211c-6.8,0-11.8,4-13.7,5.7c-0.3,0.3-0.7,0.4-1,0.4h-9.8c-1.6,0-2.4,0.8-2.4,1.5s0.7,1.5,2.4,1.5h18
				c0.8,0,1.5,0.7,1.5,1.5S205.4-98.1,204.5-98.1z"/>
		</g>
		<g>
			<path d="M176.5-109.1c-0.3,0-0.5-0.1-0.7-0.2c-8.4-4.7-13.6-13.2-13.6-22.3c0-14.3,12.4-25.9,27.7-25.9s27.7,11.6,27.7,25.9
				c0,4.1-1,8-3,11.7c-0.4,0.7-1.3,1-2.1,0.6c-0.7-0.4-1-1.3-0.6-2.1c1.7-3.2,2.6-6.6,2.6-10.2c0-12.6-11-22.9-24.6-22.9
				s-24.6,10.3-24.6,22.9c0,8,4.6,15.5,12,19.6c0.7,0.4,1,1.3,0.6,2.1C177.5-109.4,177-109.1,176.5-109.1z"/>
		</g>
		<g>
			<path d="M192-113.1c-4.8,0-7.8-2.1-8.3-5.8c-0.8-0.4-1.9-1-3-2c-0.7-0.7-1.1-1.4-1-2.1c0-1.1,0.8-1.7,1.3-2.2
				c-0.2-0.2-0.5-0.5-0.7-0.7c-1.8-1.8-4.1-4-4.1-6.3c0-1,0.4-1.8,1.1-2.5c0.5-0.4,1.1-0.5,1.7-0.3c0.5,0.2,1.1,0.3,1.5,0.3
				c0.4-1.5,0.9-2.5,1.3-3.2c-1.2-0.6-3.3-1.2-5.4-0.7c-0.3,0.1-0.7,0-1-0.1c-5.2-2.4-6.5-8.8-6.5-9c-0.2-0.8,0.4-1.6,1.2-1.8
				c0.8-0.2,1.6,0.4,1.8,1.2c0,0,1,4.7,4.4,6.6c4-0.7,8,1.2,9,2.5c0.4,0.5,0.5,1.3,0.3,1.8c-0.2,0.4-0.6,0.7-1.1,0.9
				c-0.3,0.5-0.9,1.9-1.3,3.2c-0.1,0.3-0.2,0.5-0.4,0.7c-1,1-2.4,1-3.5,0.8c0.4,1.1,2.2,2.8,3,3.6c1.3,1.3,2,2,2,2.9
				c0,1.1-0.8,1.8-1.4,2.2l0,0c1.4,1.2,2.6,1.6,2.6,1.6c0.6,0.2,1.1,0.8,1.1,1.5c0,0.9,0,3.7,5,3.8c0.7-0.6,2.1-3.1,2.2-3.8
				c0-0.1-0.2-0.5-0.4-0.8c-0.3-0.6-0.8-1.4-0.8-2.3c0-1.3,1.2-2.7,2.3-3.9c0.1-1.3,0.5-2.3,1.3-3c1.4-1.3,3.4-1.2,5.4-1.1
				c0.5,0,1.1,0.1,1.7,0.1c1.8,0,1.9-2.4,1.9-2.7c0-0.2-0.1-6.2-4.4-7c-2.7-0.5-3.7-0.2-3.9,0c-0.1,0.3-0.2,0.5-0.4,0.7
				c-2.2,2-5.5,1.3-7.9,0.8c-0.9-0.2-1.7-0.4-2.2-0.4c-0.8,0-1.4-0.5-1.5-1.3c-0.6-4.2-0.3-6.8,0.9-7.8c0.7-0.5,1.5-0.6,2.3-0.2
				c0.7,0.3,1.4,0.4,1.9,0.2c0.4-0.2,0.5-0.7,0.5-1.1c0.1-0.8-3.6-2.7-8.7-3.7c-0.8-0.2-1.4-1-1.2-1.8c0.2-0.8,0.9-1.4,1.8-1.2
				c3.5,0.7,11.6,2.7,11.1,6.9c-0.2,1.5-0.9,2.7-2.1,3.4c-1.1,0.6-2.5,0.7-3.9,0.3c-0.1,0.8-0.1,2,0.1,3.3c0.5,0.1,1,0.2,1.5,0.3
				c1.7,0.4,3.8,0.8,4.9,0.2c0.1-0.3,0.4-0.7,0.8-1c1.2-1,3.4-1.2,6.5-0.6c5.5,1,6.9,7,6.9,10c0,2-1,5.8-4.9,5.8
				c-0.6,0-1.2,0-1.8-0.1c-1.3-0.1-2.7-0.1-3.1,0.3c-0.2,0.2-0.3,0.7-0.3,1.4c0,0.4-0.2,0.8-0.5,1.1c-0.8,0.8-1.7,1.8-1.8,2.2
				c0,0,0.3,0.5,0.4,0.7c0.3,0.6,0.7,1.4,0.7,2.3C197-118.5,194.5-113.1,192-113.1z"/>
		</g>
	</g>
	<g>
		<g>
			<path d="M202.2,267.1c-2.3,0-4.8-1.2-7.8-3.5c-4.6,0.9-8,0.4-10-1.7c-2-2-2.5-5.1-1.5-9.1l0,0c1-4.2,3.9-7,6.9-9.9
				c2.7-2.5,5.4-5.1,7-9c0.2-0.4,0.5-0.7,1-0.9c0.4-0.1,0.9,0,1.3,0.2c7.3,5.2,12.1,19,10.5,25.9c-1,4.2-2.8,6.7-5.4,7.6
				C203.5,267,202.9,267.1,202.2,267.1z M194.8,260.4c0.4,0,0.7,0.1,1,0.4c3.1,2.6,5.7,3.7,7.4,3.1c1.9-0.6,2.9-3.3,3.4-5.4
				c1.3-5.3-2.4-16.4-7.8-21.5c-1.9,3.5-4.5,6-6.9,8.2c-2.8,2.7-5.2,5-6.1,8.4c-0.4,1.7-0.8,4.7,0.7,6.2c1.3,1.3,4.1,1.6,7.9,0.7
				C194.5,260.4,194.7,260.4,194.8,260.4z"/>
		</g>
		<g>
			<path d="M204,289h-15.2c-0.8,0-1.5-0.7-1.5-1.5s0.7-1.5,1.5-1.5H204c0.8,0,1.5,0.7,1.5,1.5S204.9,289,204,289z"/>
		</g>
		<g>
			<path d="M204,295.1h-15.2c-0.8,0-1.5-0.7-1.5-1.5s0.7-1.5,1.5-1.5H204c0.8,0,1.5,0.7,1.5,1.5S204.9,295.1,204,295.1z"/>
		</g>
		<g>
			<path d="M196.4,297c-0.8,0-1.5-0.7-1.5-1.5v-3c0-0.8,0.7-1.5,1.5-1.5s1.5,0.7,1.5,1.5v3C197.9,296.3,197.2,297,196.4,297z"/>
		</g>
		<g>
			<path d="M196.4,281.7c-0.7,0-1.3-0.5-1.5-1.2c-0.2-1-4.8-24.7,1.8-35.1c0.4-0.7,1.4-0.9,2.1-0.5c0.7,0.4,0.9,1.4,0.5,2.1
				c-5.9,9.5-1.4,32.7-1.4,32.9c0.2,0.8-0.4,1.6-1.2,1.8C196.5,281.7,196.5,281.7,196.4,281.7z"/>
		</g>
		<g>
			<path d="M204,282.9h-15.2c-0.8,0-2.9-1.8-2.9-2.7v-2.9c-9.1-3.7-19.1-14.2-19.1-26c0-15.1,13.3-27.4,29.3-27.4
				s28.5,12.3,28.5,27.4c0,11.8-8.1,22.3-20.3,26v2.9C204.2,281,204.9,282.9,204,282.9z M189,279.8h12.2v-3.7c0-0.7,1.1-1.3,1.8-1.5
				c11-3,19-12.6,19-23.4c0-13.4-11.5-24.4-25.7-24.4c-14.3,0-25.8,10.9-25.8,24.4c0,10.8,7.1,20.4,18.1,23.4
				c0.7,0.2,0.5,0.8,0.5,1.5L189,279.8L189,279.8z"/>
		</g>
	</g>
	<g>
		<g>
			<path d="M188.8-22.3c-0.8,0-1.5-0.7-1.5-1.5v-3c0-0.8,0.7-1.5,1.5-1.5s1.5,0.7,1.5,1.5v3C190.2-22.9,189.5-22.3,188.8-22.3z"/>
		</g>
		<g>
			<path d="M170.5-16.2c-0.4,0-0.8-0.1-1.1-0.4l-3-3c-0.6-0.6-0.6-1.6,0-2.2s1.6-0.6,2.2,0l3,3c0.6,0.6,0.6,1.6,0,2.2
				C171.2-16.4,170.8-16.2,170.5-16.2z"/>
		</g>
		<g>
			<path d="M207-16.2c-0.4,0-0.8-0.1-1.1-0.4c-0.6-0.6-0.6-1.6,0-2.2l3-3c0.6-0.6,1.6-0.6,2.2,0s0.6,1.6,0,2.2l-3,3
				C207.8-16.4,207.4-16.2,207-16.2z"/>
		</g>
		<g>
			<path d="M164.3,2.1h-3c-0.8,0-1.5-0.7-1.5-1.5s0.7-1.5,1.5-1.5h3c0.8,0,1.5,0.7,1.5,1.5S165.2,2.1,164.3,2.1z"/>
		</g>
		<g>
			<path d="M171.5,8c-0.6,0-1.2-0.4-1.4-1c-0.7-2.1-1.1-4.3-1.1-6.5c0-10.9,8.9-19.8,19.8-19.8c5.6,0,11,2.4,14.8,6.7
				c0.6,0.6,0.5,1.6-0.1,2.2c-0.6,0.6-1.6,0.5-2.2-0.1c-3.2-3.6-7.8-5.7-12.5-5.7c-9.2,0-16.8,7.5-16.8,16.8c0,1.9,0.3,3.7,0.9,5.5
				c0.3,0.8-0.1,1.7-0.9,1.9C171.8,8,171.7,8,171.5,8z"/>
		</g>
		<g>
			<path d="M231.4,29.9h-64c-0.5,0-1-0.5-1.3-0.9c-0.3-0.5-0.3-1.1,0-1.6l15.2-27.3c0.3-0.5,0.8-0.7,1.3-0.7h33.5
				c0.6,0,1.1,0.1,1.3,0.6l15.2,27.3c0.3,0.5,0.3,1.2,0,1.6C232.5,29.5,232,29.9,231.4,29.9z M170,26.8h58.8L215.2,2.5h-31.7
				L170,26.8z"/>
		</g>
		<g>
			<path d="M204.2,43.6c0,0.8-0.7,1.5-1.5,1.5h-9.1c-0.8,0-1.5-0.7-1.5-1.5V28.4c0-0.8,0.7-1.5,1.5-1.5h9.1c0.8,0,1.5,0.7,1.5,1.5
				V43.6z M195,42.1h6.1V29.9H195V42.1z"/>
		</g>
		<g>
			<path d="M187.2,29.6c-0.1,0-0.2,0-0.3,0c-0.8-0.2-1.3-1-1.2-1.8l6.1-27.4c0.2-0.8,1-1.3,1.8-1.2c0.8,0.2,1.3,1,1.2,1.8l-6.1,27.4
				C188.5,29.1,187.8,29.6,187.2,29.6z"/>
		</g>
		<g>
			<path d="M211.5,29.6c-0.7,0-1.3-0.5-1.5-1.2l-6-27.5c-0.2-0.8,0.3-1.6,1.2-1.8c0.8-0.2,1.6,0.3,1.8,1.2l6.1,27.4
				c0.2,0.8-0.3,1.6-1.2,1.8C211.9,29.5,211.7,29.6,211.5,29.6z"/>
		</g>
		<g>
			<rect x="176.8" y="8.6" width="45.7" height="3"/>
		</g>
		<g>
			<rect x="173.7" y="17.7" width="51.8" height="3"/>
		</g>
	</g>
	<g>
		<g>
			<path d="M164.2,154.9c-0.8,0-1.5-0.3-2.1-0.9c-0.7-0.8-0.7-1.7-0.7-2.3c0-6.5,2.1-11.3,6.2-14.4c6.7-5,17.1-4.5,24.6-2.4
				l-0.8,2.9c-6.5-1.9-16.2-2.5-21.9,1.9c-3.3,2.5-5,6.4-5,11.7v0.4l26.6-9.9l1.1,2.9l-27,10C164.8,154.8,164.5,154.9,164.2,154.9z"
				/>
		</g>
		<g>
			<path d="M202.2,135.6l-2.7-1.5c1.6-2.8,6.5-12.4,3.6-19.9c-1.4-3.6-4.4-6.3-9.1-7.9l-0.4-0.2c0,0-0.8,0-0.8-0.1
				c-0.1,0.1-1,0.2-1,0.2v30.2h-3v-30.5c0-1.4,2.1-2.5,2.9-2.8c1-0.4,2.2-0.1,2.7,0.1c5.8,2,9.6,5.3,11.3,9.8
				C209,121.7,204.5,131.7,202.2,135.6z"/>
		</g>
		<g>
			<path d="M217.5,157.6c-0.2,0-0.4,0-0.6,0c-7.7-0.3-14-6.5-17.1-10.2l2.3-2c2.8,3.3,8.4,8.8,14.9,9.1c3.6,0.2,7.1-1.4,10.3-4.7
				l0.3-0.3l-27.2-12.4l1.3-2.8l27.5,12.6c1.1,0.5,1.7,1.5,1.7,2.7c0,1.1-0.7,1.7-1.1,2.1C225.8,155.8,221.7,157.6,217.5,157.6z"/>
		</g>
		<g>
			<path d="M231.4,176.2h-70c-0.8,0-1.5-0.7-1.5-1.5c0-0.8,0.7-1.5,1.5-1.5h70c0.8,0,1.5,0.7,1.5,1.5
				C232.9,175.5,232.2,176.2,231.4,176.2z"/>
		</g>
		<g>
			<path d="M200.9,176.2h-9.1c-0.8,0-2.8-0.9-2.8-1.7v-39.4c0-3.4,2.7-6.1,6.1-6.1c3.4,0,6.1,2.7,6.1,6.1v39.4
				C201,175.3,201.8,176.2,200.9,176.2z M192,173.1h6.1V135c0-1.7-1.4-3-3-3s-3,1.4-3,3L192,173.1L192,173.1z"/>
		</g>
	</g>
	<g>
		<path fill="#22D3C5" d="M146.2,270.7H98.6c-21.4,0-40.8-19-40.8-40v-320c0-20,18.3-36.2,40.8-36.2h41.5v3H98.6
			c-23.3,0-37.8,17.2-37.8,33.2v320c0,19,18.4,36.9,37.8,36.9h47.6V270.7z"/>
	</g>
	<g>
		<path fill="#22D3C5" d="M292.2,270.7h-48.4v-3h48.4c20.2,0,30.8-18.6,30.8-36.9v-320c0-20.2-12.1-33.2-30.8-33.2H250v-3h42.3
			c20.2,0,33.9,14.6,33.9,36.2v320C326,250.6,314.5,270.7,292.2,270.7z"/>
	</g>
	<g>
		<g>
			<rect x="195" y="191.4" fill="#22D3C5" width="3" height="15.2"/>
		</g>
		<g>
			<rect x="189" y="197.5" fill="#22D3C5" width="15.2" height="3"/>
		</g>
	</g>
	<g>
		<g>
			<rect x="195" y="60.4" fill="#22D3C5" width="3" height="15.2"/>
		</g>
		<g>
			<rect x="189" y="66.5" fill="#22D3C5" width="15.2" height="3"/>
		</g>
	</g>
	<g>
		<g>
			<rect x="195" y="-64.6" fill="#22D3C5" width="3" height="15.2"/>
		</g>
		<g>
			<rect x="189" y="-58.5" fill="#22D3C5" width="15.2" height="3"/>
		</g>
	</g>
</g>
</svg>
