<?xml version="1.0" encoding="utf-8"?>
<!-- Generator: Adobe Illustrator 19.1.0, SVG Export Plug-In . SVG Version: 6.00 Build 0)  -->
<svg version="1.1" id="Layer_1" xmlns="http://www.w3.org/2000/svg" xmlns:xlink="http://www.w3.org/1999/xlink" x="0px" y="0px"
	 viewBox="-479 161 320 480" style="enable-background:new -479 161 320 480;" xml:space="preserve">
<style type="text/css">
	.st0{fill:#22D3C5;}
</style>
<g>
	<g>
		<path d="M-276.3,240.8c0,0.8-0.7,1.5-1.5,1.5H-290c-0.8,0-1.5-0.7-1.5-1.5v-24.4c0-0.8,0.7-1.5,1.5-1.5h12.2
			c0.8,0,1.5,0.7,1.5,1.5V240.8z M-288.5,239.2h9.1v-21.3h-9.1V239.2z"/>
	</g>
	<g>
		<path d="M-317,246.3c-4.9,0-9.3-2.1-18.7-6.8c-4.4-2.2-9.9-5-17.2-8.4c-0.5-0.2-0.8-0.6-0.9-1.1c-0.1-0.5,0.1-1,0.5-1.4
			c3.8-3.5,7-4.5,11.2-3.4l14.5,4.5c0.8,0.2,1.3,1.1,1,1.9c-0.2,0.8-1.1,1.3-1.9,1l-14.5-4.5c-2.5-0.7-4.3-0.3-6.5,1.2
			c6.3,3,11.1,5.4,15.1,7.4c16.1,8.1,16.1,8.1,32.9,2.6c3-1,6.6-2.1,10.8-3.5c0.8-0.2,1.7,0.2,1.9,1c0.2,0.8-0.2,1.7-1,1.9
			c-4.2,1.3-7.7,2.5-10.7,3.5C-308.5,244.9-313,246.3-317,246.3z"/>
	</g>
	<g>
		<path d="M-306.5,233.1h-18c-3.6,0-5.4-2.3-5.4-4.6c0-2.3,1.9-4.6,5.4-4.6h9.2c2.4,0,7.9-6.1,15.3-6.1h9.8c0.8,0,1.5,0.7,1.5,1.5
			c0,0.8-0.7,1.5-1.5,1.5h-9.8c-6.8,0-11.8,4-13.7,5.7c-0.3,0.3-0.7,0.4-1,0.4h-9.8c-1.6,0-2.4,0.8-2.4,1.5s0.7,1.5,2.4,1.5h18
			c0.8,0,1.5,0.7,1.5,1.5S-305.6,233.1-306.5,233.1z"/>
	</g>
	<g>
		<path d="M-334.5,222.1c-0.3,0-0.5-0.1-0.7-0.2c-8.4-4.7-13.6-13.2-13.6-22.3c0-14.3,12.4-25.9,27.7-25.9
			c15.3,0,27.7,11.6,27.7,25.9c0,4.1-1,8-3,11.7c-0.4,0.7-1.3,1-2.1,0.6c-0.7-0.4-1-1.3-0.6-2.1c1.7-3.2,2.6-6.6,2.6-10.2
			c0-12.6-11-22.9-24.6-22.9s-24.6,10.3-24.6,22.9c0,8,4.6,15.5,12,19.6c0.7,0.4,1,1.3,0.6,2.1C-333.5,221.8-334,222.1-334.5,222.1z
			"/>
	</g>
	<g>
		<path d="M-319,218.1c-4.8,0-7.8-2.1-8.3-5.8c-0.8-0.4-1.9-1-3-2c-0.7-0.7-1.1-1.4-1-2.1c0-1.1,0.8-1.7,1.3-2.2
			c-0.2-0.2-0.5-0.5-0.7-0.7c-1.8-1.8-4.1-4-4.1-6.3c0-1,0.4-1.8,1.1-2.5c0.5-0.4,1.1-0.5,1.7-0.3c0.5,0.2,1.1,0.3,1.5,0.3
			c0.4-1.5,0.9-2.5,1.3-3.2c-1.2-0.6-3.3-1.2-5.4-0.7c-0.3,0.1-0.7,0-1-0.1c-5.2-2.4-6.5-8.8-6.5-9c-0.2-0.8,0.4-1.6,1.2-1.8
			c0.8-0.2,1.6,0.4,1.8,1.2c0,0,1,4.7,4.4,6.6c4-0.7,8,1.2,9,2.5c0.4,0.5,0.5,1.3,0.3,1.8c-0.2,0.4-0.6,0.7-1.1,0.9
			c-0.3,0.5-0.9,1.9-1.3,3.2c-0.1,0.3-0.2,0.5-0.4,0.7c-1,1-2.4,1-3.5,0.8c0.4,1.1,2.2,2.8,3,3.6c1.3,1.3,2,2,2,2.9
			c0,1.1-0.8,1.8-1.4,2.2l0,0c1.4,1.2,2.6,1.6,2.6,1.6c0.6,0.2,1.1,0.8,1.1,1.5c0,0.9,0,3.7,5,3.8c0.7-0.6,2.1-3.1,2.2-3.8
			c0-0.1-0.2-0.5-0.4-0.8c-0.3-0.6-0.8-1.4-0.8-2.3c0-1.3,1.2-2.7,2.3-3.9c0.1-1.3,0.5-2.3,1.3-3c1.4-1.3,3.4-1.2,5.4-1.1
			c0.5,0,1.1,0.1,1.7,0.1c1.8,0,1.9-2.4,1.9-2.7c0-0.2-0.1-6.2-4.4-7c-2.7-0.5-3.7-0.2-3.9,0c-0.1,0.3-0.2,0.5-0.4,0.7
			c-2.2,2-5.5,1.3-7.9,0.8c-0.9-0.2-1.7-0.4-2.2-0.4c-0.8,0-1.4-0.5-1.5-1.3c-0.6-4.2-0.3-6.8,0.9-7.8c0.7-0.5,1.5-0.6,2.3-0.2
			c0.7,0.3,1.4,0.4,1.9,0.2c0.4-0.2,0.5-0.7,0.5-1.1c0.1-0.8-3.6-2.7-8.7-3.7c-0.8-0.2-1.4-1-1.2-1.8c0.2-0.8,0.9-1.4,1.8-1.2
			c3.5,0.7,11.6,2.7,11.1,6.9c-0.2,1.5-0.9,2.7-2.1,3.4c-1.1,0.6-2.5,0.7-3.9,0.3c-0.1,0.8-0.1,2,0.1,3.3c0.5,0.1,1,0.2,1.5,0.3
			c1.7,0.4,3.8,0.8,4.9,0.2c0.1-0.3,0.4-0.7,0.8-1c1.2-1,3.4-1.2,6.5-0.6c5.5,1,6.9,7,6.9,10c0,2-1,5.8-4.9,5.8
			c-0.6,0-1.2,0-1.8-0.1c-1.3-0.1-2.7-0.1-3.1,0.3c-0.2,0.2-0.3,0.7-0.3,1.4c0,0.4-0.2,0.8-0.5,1.1c-0.8,0.8-1.7,1.8-1.8,2.2
			c0,0,0.3,0.5,0.4,0.7c0.3,0.6,0.7,1.4,0.7,2.3C-314,212.8-316.5,218.1-319,218.1z"/>
	</g>
</g>
<g>
	<g>
		<path d="M-308.8,598.3c-2.3,0-4.8-1.2-7.8-3.5c-4.6,0.9-8,0.4-10-1.7c-2-2-2.5-5.1-1.5-9.1l0,0c1-4.2,3.9-7,6.9-9.9
			c2.7-2.5,5.4-5.1,7-9c0.2-0.4,0.5-0.7,1-0.9c0.4-0.1,0.9,0,1.3,0.2c7.3,5.2,12.1,19,10.5,25.9c-1,4.2-2.8,6.7-5.4,7.6
			C-307.5,598.2-308.1,598.3-308.8,598.3z M-316.2,591.6c0.4,0,0.7,0.1,1,0.4c3.1,2.6,5.7,3.7,7.4,3.1c1.9-0.6,2.9-3.3,3.4-5.4
			c1.3-5.3-2.4-16.4-7.8-21.5c-1.9,3.5-4.5,6-6.9,8.2c-2.8,2.7-5.2,5-6.1,8.4c-0.4,1.7-0.8,4.7,0.7,6.2c1.3,1.3,4.1,1.6,7.9,0.7
			C-316.5,591.6-316.3,591.6-316.2,591.6z"/>
	</g>
	<g>
		<path d="M-307,620.2h-15.2c-0.8,0-1.5-0.7-1.5-1.5s0.7-1.5,1.5-1.5h15.2c0.8,0,1.5,0.7,1.5,1.5S-306.1,620.2-307,620.2z"/>
	</g>
	<g>
		<path d="M-307,626.3h-15.2c-0.8,0-1.5-0.7-1.5-1.5s0.7-1.5,1.5-1.5h15.2c0.8,0,1.5,0.7,1.5,1.5S-306.1,626.3-307,626.3z"/>
	</g>
	<g>
		<path d="M-314.6,628.2c-0.8,0-1.5-0.7-1.5-1.5v-3c0-0.8,0.7-1.5,1.5-1.5c0.8,0,1.5,0.7,1.5,1.5v3
			C-313.1,627.5-313.8,628.2-314.6,628.2z"/>
	</g>
	<g>
		<path d="M-314.6,613c-0.7,0-1.3-0.5-1.5-1.2c-0.2-1-4.8-24.7,1.8-35.1c0.4-0.7,1.4-0.9,2.1-0.5c0.7,0.4,0.9,1.4,0.5,2.1
			c-5.9,9.5-1.4,32.7-1.4,32.9c0.2,0.8-0.4,1.6-1.2,1.8C-314.5,613-314.5,613-314.6,613z"/>
	</g>
	<g>
		<path d="M-307,614.1h-15.2c-0.8,0-2.9-1.8-2.9-2.7v-2.9c-9.1-3.7-19.1-14.2-19.1-26c0-15.1,13.3-27.4,29.3-27.4
			s28.5,12.3,28.5,27.4c0,11.8-8.1,22.3-20.3,26v2.9C-306.8,612.2-306.1,614.1-307,614.1z M-322,611h12.2v-3.7
			c0-0.7,1.1-1.3,1.8-1.5c11-3,19-12.6,19-23.4c0-13.4-11.5-24.4-25.7-24.4c-14.3,0-25.8,10.9-25.8,24.4c0,10.8,7.1,20.4,18.1,23.4
			c0.7,0.2,0.5,0.8,0.5,1.5L-322,611L-322,611z"/>
	</g>
</g>
<g>
	<g>
		<path d="M-322.2,308.9c-0.8,0-1.5-0.7-1.5-1.5v-3c0-0.8,0.7-1.5,1.5-1.5c0.8,0,1.5,0.7,1.5,1.5v3
			C-320.8,308.4-321.5,308.9-322.2,308.9z"/>
	</g>
	<g>
		<path d="M-340.5,315c-0.4,0-0.8-0.1-1.1-0.4l-3-3c-0.6-0.6-0.6-1.6,0-2.2s1.6-0.6,2.2,0l3,3c0.6,0.6,0.6,1.6,0,2.2
			C-339.8,314.9-340.2,315-340.5,315z"/>
	</g>
	<g>
		<path d="M-304,315c-0.4,0-0.8-0.1-1.1-0.4c-0.6-0.6-0.6-1.6,0-2.2l3-3c0.6-0.6,1.6-0.6,2.2,0c0.6,0.6,0.6,1.6,0,2.2l-3,3
			C-303.2,314.9-303.6,315-304,315z"/>
	</g>
	<g>
		<path d="M-346.7,333.4h-3c-0.8,0-1.5-0.7-1.5-1.5c0-0.8,0.7-1.5,1.5-1.5h3c0.8,0,1.5,0.7,1.5,1.5
			C-345.2,332.6-345.8,333.4-346.7,333.4z"/>
	</g>
	<g>
		<path d="M-339.5,339.2c-0.6,0-1.2-0.4-1.4-1c-0.7-2.1-1.1-4.3-1.1-6.5c0-10.9,8.9-19.8,19.8-19.8c5.6,0,11,2.4,14.8,6.7
			c0.6,0.6,0.5,1.6-0.1,2.2c-0.6,0.6-1.6,0.5-2.2-0.1c-3.2-3.6-7.8-5.7-12.5-5.7c-9.2,0-16.8,7.5-16.8,16.8c0,1.9,0.3,3.7,0.9,5.5
			c0.3,0.8-0.1,1.7-0.9,1.9C-339.2,339.2-339.3,339.2-339.5,339.2z"/>
	</g>
	<g>
		<path d="M-279.6,361.1h-64c-0.5,0-1-0.5-1.3-0.9c-0.3-0.5-0.3-1.1,0-1.6l15.2-27.3c0.3-0.5,0.8-0.7,1.3-0.7h33.5
			c0.6,0,1.1,0.1,1.3,0.6l15.2,27.3c0.3,0.5,0.3,1.2,0,1.6C-278.5,360.8-279,361.1-279.6,361.1z M-341,358h58.8l-13.6-24.3h-31.7
			L-341,358z"/>
	</g>
	<g>
		<path d="M-306.8,374.8c0,0.8-0.7,1.5-1.5,1.5h-9.1c-0.8,0-1.5-0.7-1.5-1.5v-15.2c0-0.8,0.7-1.5,1.5-1.5h9.1c0.8,0,1.5,0.7,1.5,1.5
			V374.8z M-316,373.3h6.1v-12.2h-6.1V373.3z"/>
	</g>
	<g>
		<path d="M-323.8,360.9c-0.1,0-0.2,0-0.3,0c-0.8-0.2-1.3-1-1.2-1.8l6.1-27.4c0.2-0.8,1-1.3,1.8-1.2c0.8,0.2,1.3,1,1.2,1.8
			l-6.1,27.4C-322.5,360.4-323.2,360.9-323.8,360.9z"/>
	</g>
	<g>
		<path d="M-299.5,360.9c-0.7,0-1.3-0.5-1.5-1.2l-6-27.5c-0.2-0.8,0.3-1.6,1.2-1.8c0.8-0.2,1.6,0.3,1.8,1.2l6.1,27.4
			c0.2,0.8-0.3,1.6-1.2,1.8C-299.1,360.8-299.3,360.9-299.5,360.9z"/>
	</g>
	<g>
		<rect x="-334.2" y="339.9" width="45.7" height="3"/>
	</g>
	<g>
		<rect x="-337.3" y="348.9" width="51.8" height="3"/>
	</g>
</g>
<g>
	<g>
		<path d="M-346.8,486.1c-0.8,0-1.5-0.3-2.1-0.9c-0.7-0.8-0.7-1.7-0.7-2.3c0-6.5,2.1-11.3,6.2-14.4c6.7-5,17.1-4.5,24.6-2.4
			l-0.8,2.9c-6.5-1.9-16.2-2.5-21.9,1.9c-3.3,2.5-5,6.4-5,11.7v0.4l26.6-9.9l1.1,2.9l-27,10C-346.2,486-346.5,486.1-346.8,486.1z"/>
	</g>
	<g>
		<path d="M-308.8,466.9l-2.7-1.5c1.6-2.8,6.5-12.4,3.6-19.9c-1.4-3.6-4.4-6.3-9.1-7.9l-0.4-0.2c0,0-0.8,0-0.8-0.1
			c-0.1,0.1-1,0.2-1,0.2v30.2h-3v-30.5c0-1.4,2.1-2.5,2.9-2.8c1-0.4,2.2-0.1,2.7,0.1c5.8,2,9.6,5.3,11.3,9.8
			C-302,452.9-306.5,462.9-308.8,466.9z"/>
	</g>
	<g>
		<path d="M-293.5,488.9c-0.2,0-0.4,0-0.6,0c-7.7-0.3-14-6.5-17.1-10.2l2.3-2c2.8,3.3,8.4,8.8,14.9,9.1c3.6,0.2,7.1-1.4,10.3-4.7
			l0.3-0.3l-27.2-12.4l1.3-2.8l27.5,12.6c1.1,0.5,1.7,1.5,1.7,2.7c0,1.1-0.7,1.7-1.1,2.1C-285.2,487-289.3,488.9-293.5,488.9z"/>
	</g>
	<g>
		<path d="M-279.6,507.4h-70c-0.8,0-1.5-0.7-1.5-1.5c0-0.8,0.7-1.5,1.5-1.5h70c0.8,0,1.5,0.7,1.5,1.5
			C-278.1,506.8-278.8,507.4-279.6,507.4z"/>
	</g>
	<g>
		<path d="M-310.1,507.4h-9.1c-0.8,0-2.8-0.9-2.8-1.7v-39.4c0-3.4,2.7-6.1,6.1-6.1c3.4,0,6.1,2.7,6.1,6.1v39.4
			C-310,506.5-309.2,507.4-310.1,507.4z M-319,504.4h6.1v-38.1c0-1.7-1.4-3-3-3s-3,1.4-3,3L-319,504.4L-319,504.4z"/>
	</g>
</g>
<g>
	<path class="st0" d="M-370.9,602h-58.2c-21.4,0-40.8-19-40.8-40V242c0-20,18.3-36.2,40.8-36.2h58.2v3h-58.2
		c-23.3,0-37.8,17.2-37.8,33.2v320c0,19,18.4,36.9,37.8,36.9h58.2V602z"/>
</g>
<g>
	<path class="st0" d="M-202.1,602H-261v-3h58.9c20.2,0,30.8-18.6,30.8-36.9v-320c0-20.2-12.1-33.2-30.8-33.2H-261v-3h59
		c20.2,0,33.9,14.6,33.9,36.2v320C-168.3,581.8-179.8,602-202.1,602z"/>
</g>
<g>
	<g>
		<rect x="-316" y="522.6" class="st0" width="3" height="15.2"/>
	</g>
	<g>
		<rect x="-322" y="528.8" class="st0" width="15.2" height="3"/>
	</g>
</g>
<g>
	<g>
		<rect x="-316" y="391.6" class="st0" width="3" height="15.2"/>
	</g>
	<g>
		<rect x="-322" y="397.8" class="st0" width="15.2" height="3"/>
	</g>
</g>
<g>
	<g>
		<rect x="-316" y="266.6" class="st0" width="3" height="15.2"/>
	</g>
	<g>
		<rect x="-322" y="272.8" class="st0" width="15.2" height="3"/>
	</g>
</g>
</svg>
