<?xml version="1.0" encoding="utf-8"?>
<!-- Generator: Adobe Illustrator 19.1.0, SVG Export Plug-In . SVG Version: 6.00 Build 0)  -->
<svg version="1.1" id="Layer_1" xmlns="http://www.w3.org/2000/svg" xmlns:xlink="http://www.w3.org/1999/xlink" x="0px" y="0px"
	 viewBox="0 0 500 405" enable-background="new 0 0 500 405" xml:space="preserve">
<g>
	<g>
		<path fill="#8AC340" d="M170.8,146.8H77.1c-5.6,0-10.1,4.5-10.1,10.1v61.7c5.1,0,7.6,2.2,10.1,4.3c2.3,2,4.5,3.8,8.9,3.8
			c4.4,0,6.6-1.9,8.9-3.8c2.5-2.1,5-4.3,10.1-4.3c5.1,0,7.6,2.2,10.1,4.3c2.3,2,4.5,3.8,8.9,3.8c4.4,0,6.6-1.9,8.9-3.8
			c2.5-2.1,5-4.3,10.1-4.3c5.1,0,7.6,2.2,10.1,4.3c2.3,2,4.5,3.8,8.9,3.8c4.4,0,6.6-1.9,8.9-3.8c2.5-2.1,5-4.3,10.1-4.3V157
			C180.9,151.4,176.4,146.8,170.8,146.8z"/>
		<path fill="#5FB8E3" d="M161.9,241c-5.1,0-7.6-2.2-10.1-4.3c-2.3-2-4.5-3.8-8.9-3.8c-4.4,0-6.6,1.9-8.9,3.8
			c-2.5,2.1-5,4.3-10.1,4.3c-5.1,0-7.6-2.2-10.1-4.3c-2.3-2-4.5-3.8-8.9-3.8c-4.4,0-6.6,1.9-8.9,3.8c-2.5,2.1-5,4.3-10.1,4.3
			c-5.1,0-7.6-2.2-10.1-4.3c-2.3-2-4.5-3.8-8.9-3.8v10.4c5.1,0,7.6,2.2,10.1,4.3c2.3,2,4.5,3.8,8.9,3.8c4.4,0,6.6-1.9,8.9-3.8
			c2.5-2.1,5-4.3,10.1-4.3c5.1,0,7.6,2.2,10.1,4.3c2.3,2,4.5,3.8,8.9,3.8c4.4,0,6.6-1.9,8.9-3.8c2.5-2.1,5-4.3,10.1-4.3
			c5.1,0,7.6,2.2,10.1,4.3c2.3,2,4.5,3.8,8.9,3.8c4.4,0,6.6-1.9,8.9-3.8c2.5-2.1,5-4.3,10.1-4.3v-10.4c-4.4,0-6.6,1.9-8.9,3.8
			C169.5,238.8,167,241,161.9,241z"/>
		<path fill="#85C8E7" d="M170.8,224.8c-2.3,1.9-4.5,3.6-8.9,3.6c-4.4,0-6.6-1.8-8.9-3.6c-2.5-2-5-4-10.1-4c-5.1,0-7.6,2.1-10.1,4
			c-2.3,1.9-4.5,3.6-8.9,3.6c-4.4,0-6.6-1.8-8.9-3.6c-2.5-2-5-4-10.1-4c-5.1,0-7.6,2.1-10.1,4c-2.3,1.9-4.5,3.6-8.9,3.6
			c-4.4,0-6.6-1.8-8.9-3.6c-2.5-2-5-4-10.1-4v1.8v8.8c5.1,0,7.6,2.1,10.1,4c2.3,1.9,4.5,3.6,8.9,3.6c4.4,0,6.6-1.8,8.9-3.6
			c2.5-2,5-4,10.1-4c5.1,0,7.6,2.1,10.1,4c2.3,1.9,4.5,3.6,8.9,3.6c4.4,0,6.6-1.8,8.9-3.6c2.5-2,5-4,10.1-4c5.1,0,7.6,2.1,10.1,4
			c2.3,1.9,4.5,3.6,8.9,3.6c4.4,0,6.6-1.8,8.9-3.6c2.5-2,5-4,10.1-4v-8.8v-1.8C175.8,220.8,173.2,222.8,170.8,224.8z"/>
		<g>
			<path fill="#FFFFFF" d="M129.6,167.2l-0.3-0.3c-1.2-1.1-3.3-3.2-4.7-4.1l-0.8-0.5l-0.8,0.5c-1.4,0.9-3.5,3-4.7,4.2l-0.3,0.3
				c-3.9,3.9-6.1,8.9-6.4,15c-0.2,4.1,0.8,7.8,3.4,12c1.3,2.1,3.3,4.1,5.3,5.9c0.8,0.8,1.8,1.7,2.6,2.6c0.2,0.3,0.5,0.5,0.8,0.6
				c0.1,0,0.3,0.1,0.4,0.1c0.2,0,0.5-0.1,0.7-0.2c0.2-0.1,0.4-0.3,0.5-0.4c0.8-0.9,1.7-1.7,2.6-2.7c1.9-1.9,3.9-3.8,5.2-6
				c2.5-4.2,3.5-7.9,3.3-12C135.8,176.1,133.6,171.1,129.6,167.2z M130.4,192.6c-1.1,1.8-2.9,3.6-4.7,5.4c-0.3,0.3-0.5,0.5-0.8,0.8
				V183H123v15.7c-0.2-0.2-0.4-0.4-0.7-0.6c-1.8-1.7-3.7-3.5-4.8-5.3c-2.2-3.6-3.1-6.7-2.9-10.2c0.3-5.3,2.2-9.7,5.6-13.1l0.3-0.3
				c0.7-0.7,2.2-2.2,3.4-3.2c1.2,0.9,2.7,2.4,3.4,3.1l0.3,0.3c3.4,3.3,5.3,7.7,5.7,13C133.5,185.8,132.6,189,130.4,192.6z"/>
			<path fill="#FFFFFF" d="M168.4,182.2c-0.4-6.1-2.7-11.1-6.6-15l-0.3-0.3c-1.2-1.1-3.3-3.3-4.7-4.1l-0.8-0.5l-0.8,0.5
				c-1.4,0.9-3.5,3-4.7,4.2l-0.3,0.3c-3.9,3.9-6.1,8.9-6.4,15c-0.2,4.1,0.8,7.8,3.4,12c1.3,2.1,3.3,4.1,5.3,5.9
				c0.9,0.9,1.8,1.7,2.5,2.5c0.2,0.3,0.5,0.5,0.8,0.6c0.1,0,0.3,0,0.4,0c0.2,0,0.5-0.1,0.7-0.2c0.2-0.1,0.4-0.3,0.5-0.4
				c0.8-0.8,1.6-1.7,2.6-2.6l0,0c1.9-1.9,3.9-3.8,5.2-6C167.7,190,168.7,186.3,168.4,182.2z M162.6,192.6c-1.1,1.8-2.9,3.6-4.7,5.4
				c-0.3,0.3-0.6,0.5-0.8,0.8V183h-1.9v15.7c-0.2-0.2-0.5-0.4-0.7-0.7c-1.8-1.7-3.6-3.5-4.8-5.3c-2.2-3.6-3.1-6.8-2.9-10.2
				c0.3-5.3,2.2-9.7,5.6-13.1l0.3-0.3c0.7-0.7,2.2-2.2,3.4-3.2c1.1,0.9,2.6,2.4,3.4,3.1l0.3,0.3c3.4,3.3,5.3,7.7,5.7,13
				C165.6,185.8,164.8,189,162.6,192.6z"/>
			<path fill="#FFFFFF" d="M97.6,167.2l-0.3-0.3c-1.2-1.1-3.3-3.2-4.7-4.1l-0.8-0.5l-0.8,0.5c-1.4,0.9-3.5,3-4.7,4.2l-0.3,0.3
				c-3.9,3.9-6.1,8.9-6.4,15c-0.2,4.1,0.8,7.8,3.4,12c1.3,2.1,3.3,4.1,5.3,5.9c0.8,0.8,1.8,1.7,2.6,2.6c0.2,0.3,0.5,0.5,0.8,0.6
				c0.1,0,0.3,0.1,0.4,0.1c0.2,0,0.5-0.1,0.7-0.2c0.2-0.1,0.4-0.3,0.5-0.4c0.8-0.9,1.7-1.8,2.6-2.7c1.9-1.9,3.9-3.8,5.2-6
				c2.5-4.2,3.5-7.9,3.3-12C103.7,176.1,101.5,171.1,97.6,167.2z M98.3,192.6c-1.1,1.8-2.9,3.6-4.7,5.4c-0.2,0.2-0.5,0.5-0.7,0.7
				V183H91v15.8c-0.3-0.2-0.5-0.5-0.8-0.7c-1.8-1.7-3.7-3.5-4.8-5.3c-2.2-3.6-3.1-6.7-2.9-10.2c0.3-5.3,2.2-9.7,5.6-13.1l0.3-0.3
				c0.7-0.7,2.2-2.2,3.4-3.2c1.2,0.9,2.7,2.4,3.4,3.1l0.3,0.3c3.4,3.3,5.3,7.7,5.7,13C101.4,185.8,100.5,189,98.3,192.6z"/>
		</g>
		<path fill="#34A5DD" d="M161.9,253.3c-5.1,0-7.6-2.2-10.1-4.3c-2.3-2-4.5-3.8-8.9-3.8c-4.4,0-6.6,1.9-8.9,3.8
			c-2.5,2.1-5,4.3-10.1,4.3c-5.1,0-7.6-2.2-10.1-4.3c-2.3-2-4.5-3.8-8.9-3.8c-4.4,0-6.6,1.9-8.9,3.8c-2.5,2.1-5,4.3-10.1,4.3
			c-5.1,0-7.6-2.2-10.1-4.3c-2.3-2-4.5-3.8-8.9-3.8v2.8c0,5.6,4.5,10.1,10.1,10.1h93.7c5.6,0,10.1-4.5,10.1-10.1v-2.8
			c-4.4,0-6.6,1.9-8.9,3.8C169.5,251.1,167,253.3,161.9,253.3z"/>
		<g>
			<path fill="#FFFFFF" d="M180.9,218.4c-5.2,0-7.8,2.2-10.3,4.3c-2.3,1.9-4.4,3.7-8.7,3.7c-4.3,0-6.4-1.8-8.7-3.7
				c-2.5-2.1-5.1-4.3-10.3-4.3c-5.2,0-7.8,2.2-10.3,4.3c-2.3,1.9-4.4,3.7-8.7,3.7c-4.3,0-6.4-1.8-8.7-3.7c-2.5-2.1-5.1-4.3-10.3-4.3
				c-5.2,0-7.8,2.2-10.3,4.3c-2.3,1.9-4.4,3.7-8.7,3.7c-4.3,0-6.4-1.8-8.7-3.7c-2.5-2.1-5.1-4.3-10.3-4.3h-0.3v2.5H67
				c4.3,0,6.4,1.8,8.7,3.7c2.5,2.1,5.1,4.3,10.3,4.3c5.2,0,7.8-2.2,10.3-4.3c2.3-1.9,4.4-3.7,8.7-3.7c4.3,0,6.4,1.8,8.7,3.7
				c2.5,2.1,5.1,4.3,10.3,4.3c5.2,0,7.8-2.2,10.3-4.3c2.3-1.9,4.4-3.7,8.7-3.7c4.3,0,6.4,1.8,8.7,3.7c2.5,2.1,5.1,4.3,10.3,4.3
				c5.2,0,7.8-2.2,10.3-4.3c2.3-1.9,4.4-3.7,8.7-3.7h0.3v-2.5H180.9z"/>
			<path fill="#FFFFFF" d="M170.6,235c-2.3,1.9-4.4,3.7-8.7,3.7c-4.3,0-6.4-1.8-8.7-3.7c-2.5-2.1-5.1-4.3-10.3-4.3
				c-5.2,0-7.8,2.2-10.3,4.3c-2.3,1.9-4.4,3.7-8.7,3.7c-4.3,0-6.4-1.8-8.7-3.7c-2.5-2.1-5.1-4.3-10.3-4.3c-5.2,0-7.8,2.2-10.3,4.3
				c-2.3,1.9-4.4,3.7-8.7,3.7c-4.3,0-6.4-1.8-8.7-3.7c-2.5-2.1-5.1-4.3-10.3-4.3h-0.3v2.5H67c4.3,0,6.4,1.8,8.7,3.7
				c2.5,2.1,5.1,4.3,10.3,4.3c5.2,0,7.8-2.2,10.3-4.3c2.3-1.9,4.4-3.7,8.7-3.7c4.3,0,6.4,1.8,8.7,3.7c2.5,2.1,5.1,4.3,10.3,4.3
				c5.2,0,7.8-2.2,10.3-4.3c2.3-1.9,4.4-3.7,8.7-3.7c4.3,0,6.4,1.8,8.7,3.7c2.5,2.1,5.1,4.3,10.3,4.3c5.2,0,7.8-2.2,10.3-4.3
				c2.3-1.9,4.4-3.7,8.7-3.7h0.3v-2.5h-0.3C175.7,230.7,173.1,232.9,170.6,235z"/>
			<path fill="#FFFFFF" d="M170.6,247.4c-2.3,1.9-4.4,3.7-8.7,3.7c-4.3,0-6.4-1.8-8.7-3.7c-2.5-2.1-5.1-4.3-10.3-4.3
				c-5.2,0-7.8,2.2-10.3,4.3c-2.3,1.9-4.4,3.7-8.7,3.7c-4.3,0-6.4-1.8-8.7-3.7c-2.5-2.1-5.1-4.3-10.3-4.3c-5.2,0-7.8,2.2-10.3,4.3
				c-2.3,1.9-4.4,3.7-8.7,3.7c-4.3,0-6.4-1.8-8.7-3.7c-2.5-2.1-5.1-4.3-10.3-4.3h-0.3v2.5H67c4.3,0,6.4,1.8,8.7,3.7
				c2.5,2.1,5.1,4.3,10.3,4.3c5.2,0,7.8-2.2,10.3-4.3c2.3-1.9,4.4-3.7,8.7-3.7c4.3,0,6.4,1.8,8.7,3.7c2.5,2.1,5.1,4.3,10.3,4.3
				c5.2,0,7.8-2.2,10.3-4.3c2.3-1.9,4.4-3.7,8.7-3.7c4.3,0,6.4,1.8,8.7,3.7c2.5,2.1,5.1,4.3,10.3,4.3c5.2,0,7.8-2.2,10.3-4.3
				c2.3-1.9,4.4-3.7,8.7-3.7h0.3v-2.5h-0.3C175.7,243.1,173.1,245.3,170.6,247.4z"/>
		</g>
	</g>
	<g>
		<g>
			<path fill="#6E6F71" d="M198.2,211.5v-63.3h45.6v11.5h-33.6V177H242V188h-31.8v23.5H198.2z"/>
			<path fill="#6E6F71" d="M307.9,203.5c-6.5,6.4-14.9,9.4-24.1,9.4c-23.6,0-33.5-16.2-33.6-32.7c-0.1-16.6,10.7-33.4,33.6-33.4
				c8.6,0,16.8,3.3,23.3,9.7l-8,7.7c-4.2-4.1-9.8-6-15.3-6c-15.3,0-21.9,11.4-21.8,22c0.1,10.5,6.2,21.5,21.8,21.5
				c5.5,0,11.8-2.3,15.9-6.4L307.9,203.5z"/>
			<path fill="#6E6F71" d="M343.6,192.8h-17.9v18.7h-12v-63.4c10,0,19.9-0.1,29.9-0.1C374.6,148,374.7,192.8,343.6,192.8z
				 M325.7,181.9h17.9c15.3,0,15.2-22.5,0-22.5h-17.9V181.9z"/>
			<path fill="#6E6F71" d="M400.8,174.3l16.8-26.2H432v0.5l-25.3,36.7v26.2h-12v-26.2l-24.4-36.7v-0.5h14.2L400.8,174.3z"/>
		</g>
		<g>
			<g>
				<g>
					<path fill="#6E6F71" d="M198.4,224.8h8.7v0.8h-7.8v5.1h7v0.8h-7v5.6h-0.9V224.8z"/>
				</g>
				<g>
					<path fill="#6E6F71" d="M215.6,237.3c-0.9,0-1.8-0.2-2.5-0.5c-0.8-0.3-1.4-0.8-1.9-1.4c-0.5-0.6-1-1.3-1.2-2
						c-0.3-0.8-0.4-1.6-0.4-2.4v0c0-0.8,0.1-1.7,0.4-2.4c0.3-0.8,0.7-1.4,1.3-2c0.5-0.6,1.2-1.1,2-1.4c0.8-0.3,1.6-0.5,2.6-0.5
						c0.9,0,1.8,0.2,2.5,0.5c0.8,0.3,1.4,0.8,2,1.4c0.5,0.6,1,1.3,1.2,2c0.3,0.8,0.4,1.6,0.4,2.4c0,0,0,0,0,0c0,0.8-0.1,1.7-0.4,2.4
						c-0.3,0.8-0.7,1.4-1.3,2c-0.5,0.6-1.2,1.1-2,1.4C217.4,237.2,216.5,237.3,215.6,237.3z M215.6,236.5c0.8,0,1.5-0.1,2.1-0.4
						c0.6-0.3,1.2-0.7,1.7-1.2c0.5-0.5,0.8-1.1,1.1-1.8c0.3-0.7,0.4-1.4,0.4-2.1v0c0-0.8-0.1-1.5-0.4-2.2c-0.3-0.7-0.6-1.3-1.1-1.8
						c-0.5-0.5-1-0.9-1.7-1.2c-0.6-0.3-1.3-0.4-2.1-0.4c-0.8,0-1.5,0.1-2.1,0.4c-0.6,0.3-1.2,0.7-1.7,1.2c-0.5,0.5-0.8,1.1-1.1,1.8
						c-0.3,0.7-0.4,1.4-0.4,2.1v0c0,0.8,0.1,1.5,0.4,2.2c0.3,0.7,0.6,1.3,1.1,1.8c0.5,0.5,1,0.9,1.7,1.2
						C214.2,236.4,214.9,236.5,215.6,236.5z"/>
				</g>
				<g>
					<path fill="#6E6F71" d="M224.9,224.8h0.9l8.5,10.7v-10.7h0.9v12.3h-0.7l-8.7-11v11h-0.9V224.8z"/>
				</g>
				<g>
					<path fill="#6E6F71" d="M238.8,224.8h4.1c1,0,1.8,0.2,2.6,0.5c0.8,0.3,1.5,0.7,2.1,1.3c0.6,0.6,1,1.2,1.3,1.9
						c0.3,0.7,0.5,1.6,0.5,2.4v0c0,0.9-0.2,1.7-0.5,2.4c-0.3,0.8-0.8,1.4-1.3,2c-0.6,0.6-1.3,1-2.1,1.3c-0.8,0.3-1.7,0.5-2.6,0.5
						h-4.1V224.8z M243,236.3c0.9,0,1.6-0.1,2.3-0.4c0.7-0.3,1.3-0.7,1.8-1.1c0.5-0.5,0.9-1,1.1-1.7c0.3-0.6,0.4-1.3,0.4-2.1v0
						c0-0.7-0.1-1.4-0.4-2.1c-0.3-0.6-0.6-1.2-1.1-1.7c-0.5-0.5-1.1-0.9-1.8-1.1c-0.7-0.3-1.5-0.4-2.3-0.4h-3.2v10.7H243z"/>
				</g>
				<g>
					<path fill="#6E6F71" d="M258.3,237.3c-0.9,0-1.8-0.2-2.5-0.5c-0.8-0.3-1.4-0.8-1.9-1.4c-0.5-0.6-1-1.3-1.2-2
						c-0.3-0.8-0.4-1.6-0.4-2.4v0c0-0.8,0.2-1.7,0.4-2.4c0.3-0.8,0.7-1.4,1.3-2c0.5-0.6,1.2-1.1,2-1.4c0.8-0.3,1.6-0.5,2.6-0.5
						c0.9,0,1.8,0.2,2.5,0.5c0.8,0.3,1.4,0.8,2,1.4c0.5,0.6,1,1.3,1.2,2c0.3,0.8,0.4,1.6,0.4,2.4c0,0,0,0,0,0c0,0.8-0.1,1.7-0.5,2.4
						c-0.3,0.8-0.7,1.4-1.3,2c-0.5,0.6-1.2,1.1-2,1.4C260,237.2,259.2,237.3,258.3,237.3z M258.3,236.5c0.8,0,1.5-0.1,2.1-0.4
						c0.6-0.3,1.2-0.7,1.7-1.2c0.5-0.5,0.8-1.1,1.1-1.8c0.3-0.7,0.4-1.4,0.4-2.1v0c0-0.8-0.1-1.5-0.4-2.2c-0.3-0.7-0.6-1.3-1.1-1.8
						c-0.5-0.5-1-0.9-1.7-1.2c-0.6-0.3-1.4-0.4-2.1-0.4c-0.8,0-1.5,0.1-2.1,0.4c-0.6,0.3-1.2,0.7-1.7,1.2c-0.5,0.5-0.8,1.1-1.1,1.8
						c-0.3,0.7-0.4,1.4-0.4,2.1v0c0,0.8,0.1,1.5,0.4,2.2c0.3,0.7,0.6,1.3,1.1,1.8c0.5,0.5,1,0.9,1.7,1.2
						C256.8,236.4,257.5,236.5,258.3,236.5z"/>
				</g>
				<g>
					<path fill="#6E6F71" d="M278.5,237.3c-0.9,0-1.7-0.2-2.4-0.5c-0.8-0.3-1.4-0.8-1.9-1.3c-0.5-0.6-1-1.2-1.3-2
						c-0.3-0.8-0.5-1.6-0.5-2.5v0c0-0.9,0.2-1.7,0.5-2.5c0.3-0.8,0.7-1.5,1.3-2c0.5-0.6,1.2-1,1.9-1.4c0.7-0.3,1.6-0.5,2.5-0.5
						c0.6,0,1.1,0,1.5,0.1c0.4,0.1,0.9,0.2,1.2,0.4c0.4,0.2,0.7,0.4,1.1,0.6c0.3,0.2,0.7,0.5,1,0.8l-0.7,0.7
						c-0.3-0.3-0.6-0.5-0.8-0.7c-0.3-0.2-0.6-0.4-0.9-0.6c-0.3-0.2-0.7-0.3-1.1-0.4c-0.4-0.1-0.8-0.1-1.3-0.1
						c-0.7,0-1.4,0.1-2.1,0.4c-0.6,0.3-1.2,0.7-1.6,1.2c-0.5,0.5-0.8,1.1-1.1,1.8c-0.3,0.7-0.4,1.4-0.4,2.2v0c0,0.8,0.1,1.5,0.4,2.2
						c0.3,0.7,0.6,1.3,1.1,1.8c0.5,0.5,1,0.9,1.6,1.2c0.6,0.3,1.3,0.4,2.1,0.4c0.9,0,1.7-0.2,2.3-0.5c0.7-0.3,1.3-0.8,1.9-1.4
						l0.6,0.6c-0.3,0.3-0.7,0.6-1,0.9c-0.3,0.3-0.7,0.5-1.1,0.7c-0.4,0.2-0.8,0.3-1.3,0.4C279.5,237.3,279,237.3,278.5,237.3z"/>
				</g>
				<g>
					<path fill="#6E6F71" d="M285.9,224.8h0.9v11.5h7.2v0.8h-8.2V224.8z"/>
				</g>
				<g>
					<path fill="#6E6F71" d="M296.9,224.8h0.9v12.3h-0.9V224.8z"/>
				</g>
				<g>
					<path fill="#6E6F71" d="M301.6,224.8h0.9l4.9,7.3l4.9-7.3h0.9v12.3h-0.9v-10.7l-4.9,7.1h-0.1l-4.9-7.1v10.7h-0.9V224.8z"/>
				</g>
				<g>
					<path fill="#6E6F71" d="M321.6,224.7h0.9l5.7,12.4h-1l-1.6-3.5h-7.3l-1.6,3.5h-1L321.6,224.7z M325.2,232.8l-3.2-7.1l-3.3,7.1
						H325.2z M323.2,221.3l1.1,0.5l-1.9,1.8h-0.7L323.2,221.3z"/>
				</g>
				<g>
					<path fill="#6E6F71" d="M334.2,225.6h-4.3v-0.8h9.5v0.8h-4.3v11.5h-0.9V225.6z"/>
				</g>
				<g>
					<path fill="#6E6F71" d="M342.3,224.8h0.9v12.3h-0.9V224.8z"/>
				</g>
				<g>
					<path fill="#6E6F71" d="M352.6,237.3c-0.9,0-1.7-0.2-2.4-0.5c-0.8-0.3-1.4-0.8-1.9-1.3c-0.5-0.6-1-1.2-1.3-2
						c-0.3-0.8-0.5-1.6-0.5-2.5v0c0-0.9,0.2-1.7,0.5-2.5c0.3-0.8,0.7-1.5,1.3-2c0.5-0.6,1.2-1,1.9-1.4c0.8-0.3,1.6-0.5,2.5-0.5
						c0.6,0,1.1,0,1.5,0.1c0.4,0.1,0.9,0.2,1.2,0.4c0.4,0.2,0.7,0.4,1.1,0.6c0.3,0.2,0.7,0.5,1,0.8l-0.7,0.7
						c-0.3-0.3-0.6-0.5-0.8-0.7c-0.3-0.2-0.6-0.4-0.9-0.6c-0.3-0.2-0.7-0.3-1.1-0.4c-0.4-0.1-0.8-0.1-1.3-0.1
						c-0.7,0-1.4,0.1-2.1,0.4c-0.6,0.3-1.2,0.7-1.6,1.2c-0.5,0.5-0.8,1.1-1.1,1.8c-0.3,0.7-0.4,1.4-0.4,2.2v0c0,0.8,0.1,1.5,0.4,2.2
						c0.3,0.7,0.6,1.3,1.1,1.8c0.5,0.5,1,0.9,1.6,1.2c0.6,0.3,1.3,0.4,2.1,0.4c0.9,0,1.7-0.2,2.3-0.5c0.7-0.3,1.3-0.8,1.9-1.4
						l0.6,0.6c-0.3,0.3-0.7,0.6-1,0.9c-0.3,0.3-0.7,0.5-1.1,0.7c-0.4,0.2-0.8,0.3-1.3,0.4C353.6,237.3,353.1,237.3,352.6,237.3z"/>
				</g>
				<g>
					<path fill="#6E6F71" d="M365.6,237.3c-0.9,0-1.8-0.2-2.5-0.5c-0.8-0.3-1.4-0.8-1.9-1.4c-0.5-0.6-1-1.3-1.2-2
						c-0.3-0.8-0.4-1.6-0.4-2.4v0c0-0.8,0.2-1.7,0.4-2.4c0.3-0.8,0.7-1.4,1.3-2c0.5-0.6,1.2-1.1,2-1.4c0.8-0.3,1.6-0.5,2.6-0.5
						c0.9,0,1.8,0.2,2.5,0.5c0.8,0.3,1.4,0.8,2,1.4c0.5,0.6,1,1.3,1.2,2c0.3,0.8,0.4,1.6,0.4,2.4c0,0,0,0,0,0c0,0.8-0.2,1.7-0.4,2.4
						c-0.3,0.8-0.7,1.4-1.3,2c-0.5,0.6-1.2,1.1-2,1.4C367.4,237.2,366.6,237.3,365.6,237.3z M365.7,236.5c0.8,0,1.5-0.1,2.1-0.4
						c0.6-0.3,1.2-0.7,1.7-1.2c0.5-0.5,0.8-1.1,1.1-1.8c0.3-0.7,0.4-1.4,0.4-2.1v0c0-0.8-0.1-1.5-0.4-2.2c-0.3-0.7-0.6-1.3-1.1-1.8
						c-0.5-0.5-1-0.9-1.7-1.2c-0.6-0.3-1.4-0.4-2.1-0.4c-0.8,0-1.5,0.1-2.1,0.4c-0.6,0.3-1.2,0.7-1.7,1.2c-0.5,0.5-0.8,1.1-1.1,1.8
						c-0.3,0.7-0.4,1.4-0.4,2.1v0c0,0.8,0.1,1.5,0.4,2.2c0.3,0.7,0.6,1.3,1.1,1.8c0.5,0.5,1,0.9,1.7,1.2
						C364.2,236.4,364.9,236.5,365.7,236.5z"/>
				</g>
				<g>
					<path fill="#6E6F71" d="M380.3,224.8h4.1c1,0,1.8,0.2,2.6,0.5c0.8,0.3,1.5,0.7,2.1,1.3c0.6,0.6,1,1.2,1.3,1.9
						c0.3,0.7,0.5,1.6,0.5,2.4v0c0,0.9-0.2,1.7-0.5,2.4c-0.3,0.8-0.8,1.4-1.3,2c-0.6,0.6-1.3,1-2.1,1.3c-0.8,0.3-1.7,0.5-2.6,0.5
						h-4.1V224.8z M384.4,236.3c0.9,0,1.6-0.1,2.3-0.4c0.7-0.3,1.3-0.7,1.8-1.1c0.5-0.5,0.9-1,1.1-1.7c0.3-0.6,0.4-1.3,0.4-2.1v0
						c0-0.7-0.1-1.4-0.4-2.1c-0.3-0.6-0.6-1.2-1.1-1.7c-0.5-0.5-1.1-0.9-1.8-1.1c-0.7-0.3-1.5-0.4-2.3-0.4h-3.2v10.7H384.4z"/>
				</g>
				<g>
					<path fill="#6E6F71" d="M394,224.8h8.8v0.8H395v4.9h7.1v0.8H395v5h7.9v0.8H394V224.8z"/>
				</g>
				<g>
					<path fill="#6E6F71" d="M411.1,224.8h0.9v11.5h7.2v0.8h-8.2V224.8z"/>
				</g>
				<g>
					<path fill="#6E6F71" d="M426.7,224.7h0.9l5.7,12.4h-1l-1.6-3.5h-7.3l-1.6,3.5h-1L426.7,224.7z M430.4,232.8l-3.2-7.1l-3.3,7.1
						H430.4z"/>
				</g>
			</g>
			<g>
				<g>
					<path fill="#6E6F71" d="M198.2,245.3h5c3,0,4.8,1.7,4.8,4.2v0c0,2.8-2.3,4.3-5.1,4.3h-2.5v4.1h-2.2V245.3z M203,251.9
						c1.7,0,2.7-0.9,2.7-2.3v0c0-1.5-1.1-2.3-2.7-2.3h-2.6v4.5H203z"/>
				</g>
				<g>
					<path fill="#6E6F71" d="M210.3,245.3h9.4v2h-7.1v3.3h6.3v2h-6.3v3.4h7.2v2h-9.5V245.3z"/>
				</g>
				<g>
					<path fill="#6E6F71" d="M222.4,245.3h2.1l6.8,8.7v-8.7h2.2v12.6h-1.9l-7-9v9h-2.2V245.3z"/>
				</g>
				<g>
					<path fill="#6E6F71" d="M236.8,245.3h2.2v12.6h-2.2V245.3z M239,241.6l2,0.9l-2.3,1.8H237L239,241.6z"/>
				</g>
				<g>
					<path fill="#6E6F71" d="M242.4,245.3h2.1l6.8,8.7v-8.7h2.2v12.6h-1.9l-7-9v9h-2.2V245.3z"/>
				</g>
				<g>
					<path fill="#6E6F71" d="M255.8,256.1l1.3-1.6c1.2,1,2.4,1.6,4,1.6c1.4,0,2.2-0.6,2.2-1.6v0c0-0.9-0.5-1.4-2.9-1.9
						c-2.7-0.6-4.2-1.4-4.2-3.8v0c0-2.2,1.8-3.7,4.3-3.7c1.8,0,3.3,0.6,4.6,1.6l-1.2,1.7c-1.1-0.8-2.3-1.3-3.4-1.3
						c-1.3,0-2.1,0.7-2.1,1.5v0c0,1,0.6,1.4,3,2c2.7,0.6,4,1.6,4,3.7v0c0,2.4-1.9,3.8-4.5,3.8C259.1,258.1,257.3,257.5,255.8,256.1z
						"/>
				</g>
				<g>
					<path fill="#6E6F71" d="M268,252.6v-7.3h2.2v7.2c0,2.3,1.2,3.6,3.2,3.6c2,0,3.2-1.2,3.2-3.5v-7.3h2.2v7.2
						c0,3.8-2.1,5.7-5.4,5.7C270.1,258.1,268,256.3,268,252.6z"/>
				</g>
				<g>
					<path fill="#6E6F71" d="M281.8,245.3h2.2v10.6h6.6v2h-8.9V245.3z"/>
				</g>
				<g>
					<path fill="#6E6F71" d="M297.5,245.2h2.1l5.6,12.7h-2.3l-1.3-3.1h-6l-1.3,3.1h-2.3L297.5,245.2z M300.7,252.9l-2.2-5.1
						l-2.2,5.1H300.7z"/>
				</g>
				<g>
					<path fill="#6E6F71" d="M312.7,245.3h4.7c4,0,6.7,2.7,6.7,6.3v0c0,3.6-2.7,6.3-6.7,6.3h-4.7V245.3z M314.9,247.3v8.6h2.5
						c2.7,0,4.4-1.8,4.4-4.3v0c0-2.5-1.7-4.3-4.4-4.3H314.9z"/>
				</g>
				<g>
					<path fill="#6E6F71" d="M326.8,245.3h9.4v2H329v3.3h6.3v2H329v3.4h7.2v2h-9.5V245.3z"/>
				</g>
				<g>
					<path fill="#6E6F71" d="M348,253l-5-7.7h2.6l3.5,5.6l3.6-5.6h2.5l-5,7.6v5H348V253z"/>
				</g>
				<g>
					<path fill="#6E6F71" d="M357,252.6v-7.3h2.2v7.2c0,2.3,1.2,3.6,3.2,3.6c2,0,3.2-1.2,3.2-3.5v-7.3h2.2v7.2
						c0,3.8-2.1,5.7-5.4,5.7C359.1,258.1,357,256.3,357,252.6z"/>
				</g>
				<g>
					<path fill="#6E6F71" d="M370.3,251.7L370.3,251.7c0-3.6,2.7-6.6,6.5-6.6c2.3,0,3.7,0.8,4.9,2l-1.4,1.6c-1-0.9-2.1-1.6-3.5-1.6
						c-2.4,0-4.2,2-4.2,4.5v0c0,2.5,1.8,4.5,4.2,4.5c1.6,0,2.5-0.6,3.6-1.6l1.4,1.4c-1.3,1.4-2.8,2.2-5.1,2.2
						C373.1,258.2,370.3,255.3,370.3,251.7z"/>
				</g>
				<g>
					<path fill="#6E6F71" d="M388.7,245.2h2.1l5.6,12.7H394l-1.3-3.1h-6l-1.3,3.1h-2.3L388.7,245.2z M391.9,252.9l-2.2-5.1l-2.2,5.1
						H391.9z"/>
				</g>
				<g>
					<path fill="#6E6F71" d="M400,247.4h-4v-2.1h10.3v2.1h-4v10.6H400V247.4z"/>
				</g>
				<g>
					<path fill="#6E6F71" d="M411.4,245.2h2.1l5.6,12.7h-2.3l-1.3-3.1h-6l-1.3,3.1h-2.3L411.4,245.2z M414.6,252.9l-2.2-5.1
						l-2.2,5.1H414.6z M413.6,241.5l2,0.9l-2.3,1.8h-1.7L413.6,241.5z"/>
				</g>
				<g>
					<path fill="#6E6F71" d="M421.2,245.3h2.1l6.8,8.7v-8.7h2.2v12.6h-1.9l-7-9v9h-2.2V245.3z"/>
				</g>
			</g>
		</g>
	</g>
</g>
</svg>
