<?xml version="1.0" encoding="utf-8"?>
<!-- Generator: Adobe Illustrator 19.1.0, SVG Export Plug-In . SVG Version: 6.00 Build 0)  -->
<svg version="1.1" id="Layer_1" xmlns="http://www.w3.org/2000/svg" xmlns:xlink="http://www.w3.org/1999/xlink" x="0px" y="0px"
	 viewBox="244 179 1100 436" style="enable-background:new 244 179 1100 436;" xml:space="preserve">
<style type="text/css">
	.st0{fill:#41B5AD;}
	.st1{fill:none;stroke:#A7A9AC;}
	.st2{fill:none;stroke:#A7A9AC;stroke-width:0.5;stroke-miterlimit:2;}
	.st3{font-family:'Lato-Light';}
	.st4{font-size:28px;}
	.st5{fill:none;stroke:#000000;stroke-width:1.7;stroke-miterlimit:10;}
</style>
<g>
	<g>
		<g>
			<polyline class="st0" points="994.7,462.2 993.4,472.3 995.2,483.9 990.4,489.2 990.4,496.4 988.8,500.1 979.1,507.9 976,511 
				979.6,514.7 979.3,515.9 974.1,519.8 967,521.1 966.2,519.5 963.3,518.5 964.5,516 963.1,515.2 952.7,517 955,519.6 959.3,519.7 
				959.6,519.7 961,524 962,528 967.7,532 972,531.6 974.3,528.8 979.1,529.6 986.9,530.7 987.7,533.8 1026.6,530.4 1025.2,510.3 
				1024.3,484.1 1005.1,472 1002.8,471.4 996.9,469.3 994.7,462.2 			"/>
			<polyline class="st0" points="994.7,462.2 997.6,457.3 1008.7,451.2 1010.9,450.9 1031.8,445.4 1036.3,442.1 1056.6,442.9 
				1056.8,454.6 1051.3,463.4 1024.3,484.1 1005.1,472 1002.8,471.4 996.9,469.3 994.7,462.2 			"/>
			<polyline class="st0" points="1056.6,442.9 1061.8,442.8 1063.2,441.6 1063.8,441 1062.6,439.9 1065.7,438.7 1068.9,440.4 
				1072.6,444.9 1071.8,447.4 1072.6,450.1 1070.7,456.4 1062.2,467.6 1060.1,476.7 1060.1,481.6 1057.5,483.9 1056,484 
				1055.6,485.4 1057.5,487.3 1061.3,486.1 1062.4,486.7 1061.6,488.8 1058.2,491.4 1057.1,493.8 1057.6,494.5 1061,492.4 
				1061.4,493.9 1060,498.5 1055.3,516.3 1055,521.7 1054.1,521.6 1054.3,516.4 1050.6,512.3 1051.2,506.9 1050.3,505.4 1049.7,506 
				1048.9,508 1045.2,511.7 1040.5,515.3 1039.9,517.8 1034.6,527.8 1029.9,526 1027.7,527.9 1027.5,531.4 1026.6,530.4 
				1025.2,510.3 1024.3,484.1 1051.3,463.4 1056.8,454.6 1056.6,442.9 			"/>
			<polygon class="st0" points="920.1,577.2 920.9,575 918.9,570.2 920.2,564.1 922.8,560.3 923.9,554.6 934.1,541.4 936.9,533.4 
				943.2,535.7 942.7,540.8 948.4,547 956,539.2 961.4,536.9 964.3,534.2 966.5,534.2 970,535.9 970.3,537.9 972.2,539.4 973.8,543 
				975.6,543 979.9,547.6 979.3,548.4 987.4,555.4 995.1,560 997.1,564.2 1001.8,566.5 1002.1,574.2 972.9,576.5 962.8,595.7 
				966.3,600.5 965.4,602.6 965,613.4 952.5,602.9 950,599.6 924.6,579.8 			"/>
			<polygon class="st0" points="636.2,358.3 644,356.9 647.7,353.3 648.5,349 650.4,347.5 649.9,342.4 653.9,339.4 656.4,332.3 
				658.4,330.9 664.1,335.2 665.8,334.4 673,339.3 677.2,338.4 686.1,340.9 689.3,342.5 697,332.8 707.8,334.9 715.7,344.3 714,350 
				714,357.5 711.1,364.1 711.6,369.2 715.9,373.7 715.9,376.1 724.6,380.5 728.2,373.1 731.4,382.1 730.8,387 714.6,388 
				703.3,396.5 702.8,406.2 697.9,411.4 696,417.7 694.9,419.3 692.7,435.4 690.4,434 688.2,434.9 684.7,431.5 684.7,430.3 
				681.6,429.7 679,430.3 677.9,429.8 679.7,424 676.4,420.8 668.6,418.7 662.8,412.3 662.2,407.1 659.2,400.9 658.4,393.7 
				651.7,387.8 648,390 645.4,388.4 643.6,382.1 637.3,375.9 634.5,366.8 			"/>
			<polygon class="st0" points="684.7,510.7 688.3,507 690.5,507 695.9,502.6 698.3,504.3 701.5,505.2 705.2,503 708.3,506.3 
				709.1,516.3 710.7,515.7 713.4,513.4 714.6,514.2 718,514.7 720.9,510.7 728,508.6 729.1,504.9 728.3,503.8 725.8,503.5 
				723.6,498.6 725.3,494.7 724.7,493.5 721,493.3 719,492.3 718.8,490.7 720.3,488.4 724.3,488.4 727.2,486.4 732.1,484.6 
				740.1,482 742.1,478.9 740.2,472.8 745.3,464.9 748.6,462.7 751,460.4 750.1,456.7 751.5,454.7 751.1,449.8 752.4,448.2 
				752.3,448.2 744.6,444.5 744.1,445.1 737,453.2 732.6,452 729.1,450.9 728.5,444.7 726.6,444.9 724.2,447.2 726.1,453.5 
				728.2,455.8 727.6,458.4 723.9,461.5 719,461.8 718.5,466.4 716.8,466.4 704.7,462.8 704.9,456.5 708.4,455.3 709.5,452.4 
				708.9,449.9 718.2,440.1 717.9,438 713.9,434.2 712.2,437.1 707.7,442.8 706.3,442 706.5,432.4 705.3,431.4 702.4,438 
				701.3,436.6 702.7,428.9 700.3,427.2 698.8,431.1 700.2,434.3 692.4,437.2 690.9,442.4 692.6,446 695.7,449.7 694.7,455.4 
				699,459.7 694.7,463.8 693.5,464 692.2,473.5 692,474 685.9,469.3 681.6,467 674,469.7 671.4,475.2 670.2,478 666,479.2 
				662.1,480.7 662.9,483.3 665.5,490.7 677.4,507.1 			"/>
			<polygon class="st0" points="823.4,539.8 822.7,549.4 825.3,554.7 826.5,557 830.2,559.6 828.9,567.9 825.4,569.6 824.6,572.7 
				825,574.1 819.5,577 826.5,579.4 832.2,582.9 837,584.6 851.9,585.1 853.1,587.1 857.3,589 864.6,591.9 869.1,591.1 889.4,583.3 
				899.2,573.4 901.7,572.3 904.4,573.4 904,574.4 907.8,576.5 912.1,576.7 913.2,575.1 920.1,577.2 920.9,575 918.9,570.2 
				920.2,564.1 922.8,560.3 923.9,554.6 924.6,553.8 906.7,553.9 898.5,552.9 897.6,549.7 893.5,547 893.8,543.8 892.7,542.7 
				881.9,547.3 878.6,544.2 878.1,542 879.7,537.4 877.9,533.4 871.4,532 864.1,523.3 860.4,522.1 860.2,523.8 858.4,525.8 
				857.1,529.8 851.7,533.6 846.9,533.4 842.8,536.9 840.8,536 838.5,531.5 837.9,530.3 836.5,530.7 835.7,534.4 836,537.4 
				834,538.3 831.1,536.9 			"/>
			<polygon class="st0" points="802.8,500.7 800.9,508.2 802.3,510.4 805.8,512.3 808.9,512.3 808,505.4 806.5,502.3 			"/>
		</g>
		<g>
			<g>
				<polyline class="st1" points="994.2,462 992.9,472.1 994.7,483.6 990,489 990,496.1 988.3,499.8 978.7,507.6 975.6,510.7 
					979.1,514.4 978.8,515.6 973.7,519.5 966.5,520.8 965.7,519.2 962.8,518.2 964,515.7 962.6,514.9 952.3,516.7 954.5,519.3 
					958.8,519.4 959.2,519.4 960.6,523.7 961.5,527.7 967.2,531.7 971.5,531.3 973.8,528.4 978.7,529.3 986.4,530.4 987.2,533.4 
					1026.1,530.1 1024.7,510 1023.8,483.8 1004.6,471.7 1002.3,471.1 996.4,469.1 994.2,462 				"/>
				<polyline class="st1" points="994.2,462 997.1,457.1 1008.2,451 1010.4,450.7 1031.2,445.2 1035.8,441.8 1056.1,442.7 
					1056.2,454.3 1050.8,463.1 1023.8,483.8 1004.6,471.7 1002.3,471.1 996.4,469.1 994.2,462 				"/>
				<polyline class="st1" points="1056.1,442.7 1061.2,442.6 1062.6,441.4 1063.2,440.8 1062.1,439.7 1065.1,438.5 1068.4,440.2 
					1072,444.7 1071.2,447.2 1072,449.8 1070.1,456.1 1061.7,467.3 1059.6,476.5 1059.6,481.3 1056.9,483.6 1055.5,483.7 
					1055,485.1 1056.9,487.1 1060.7,485.9 1061.8,486.5 1061.1,488.5 1057.6,491.1 1056.6,493.5 1057.1,494.2 1060.5,492.2 
					1060.9,493.6 1059.4,498.2 1054.8,516 1054.4,521.4 1053.6,521.3 1053.7,516.1 1050,512 1050.6,506.6 1049.8,505.1 
					1049.2,505.7 1048.4,507.8 1044.7,511.4 1039.9,515 1039.3,517.5 1034.1,527.5 1029.3,525.7 1027.2,527.6 1027,531.1 
					1026.1,530.1 1024.7,510 1023.8,483.8 1050.8,463.1 1056.2,454.3 1056.1,442.7 				"/>
			</g>
			<polyline class="st1" points="536.2,382.1 529.5,377 527.7,373.8 536.2,382.1 			"/>
			<polyline class="st1" points="521,294.9 521,296.4 522.8,303.1 528.1,308.7 529.5,313.4 533.5,317.3 535,317.9 535,321.3 
				536.4,324.4 537.3,328.7 539.4,330.7 539.4,327.3 538.4,324.8 539,323.8 543.4,328.4 543.7,331.5 545.1,332.9 544.5,334.7 
				546.5,339 547,343.2 545.6,346.1 549.4,354.1 552.5,356.2 553.3,361.7 557.2,369.3 558.6,373.1 557.3,380.2 558.8,385 
				564.5,388.8 565.9,387.5 566.1,384.6 568.4,385.2 573.4,391.8 575.6,392.6 576.5,396.9 578.3,401 583.3,407.4 581.2,413.3 
				576.2,416.6 573.6,419.1 572,419.5 568.5,415.8 565.8,404 562,400.7 557.9,398.2 546.1,386.3 537.2,377.6 536,377.6 535.4,374.6 
				534,375.6 532,372.1 530.3,371.5 528.3,365.8 530.9,350.1 525.9,337.8 522.8,336.3 506.2,322.2 504.4,323 501.3,323.1 497,317.7 
				494.4,316.8 491.2,314 485.5,311 484.3,308.6 475.4,297.3 476.2,296.8 482.5,298.4 487.6,297 489.9,299.7 492.5,300.3 
				495.9,301.7 496.5,299.9 495.6,299.1 493.1,298.5 490.2,295.4 492.7,293.2 521,294.9 			"/>
			<polyline class="st1" points="489.9,204.6 489.3,203.2 484.2,199.1 483.6,196.2 485.2,189.9 488.8,186.7 492.6,188.6 
				563.2,220.3 605.9,222.4 604.4,226.4 606.3,227.2 607.1,239.3 609.2,251.5 607.9,266.6 605.9,268.9 606.3,283.8 607.3,294.3 
				606.1,295.5 598.7,293 596.1,295.9 598.8,303.6 603.1,310.6 604.6,313.1 604.7,321.7 607.8,325.5 600.5,332.8 590.6,339.8 
				590.2,334.7 586.5,330 583.4,330.9 579.7,329.4 577.8,322.5 573.3,319.8 570.1,318.7 566,314.4 564.6,306.8 565.4,301.8 
				560.4,300.5 559.4,301.1 558.8,301.7 555.5,299.7 551.9,296.1 548.8,289.5 541.7,283.5 539.5,281 539.5,278.2 534.8,272 
				534.3,266.7 531.4,264.8 531.5,262 524.9,249.5 524.6,243.8 522.5,238.3 519.3,231.2 520.3,224.4 520.3,221.5 516.6,218.9 
				514,218.7 507.4,211.3 504.5,209.9 501.1,211.8 494.3,206.9 489.9,204.6 			"/>
			<polyline class="st1" points="716.3,281 702.2,306.6 707.6,334.8 696.7,332.6 689.1,342.4 685.9,340.7 677,338.2 672.8,339.2 
				665.6,334.3 663.9,335 658.2,330.7 656.2,332.2 653.7,339.3 651.2,340.9 649.8,342.3 650.2,347.4 648.3,348.8 647.5,353.1 
				643.8,356.8 636.1,358.1 630,346.1 626.6,345.4 621.4,343.4 620.5,335 617.9,330.7 617.6,327.7 616.3,325.9 611.5,323.7 
				607.8,325.5 604.7,321.7 604.6,313.1 603.1,310.6 598.8,303.6 596.1,295.9 598.7,293 606.1,295.5 607.3,294.3 606.3,283.8 
				605.9,268.9 607.9,266.6 609.2,251.5 607.1,239.3 606.3,227.2 604.4,226.4 605.9,222.4 618.4,222.8 618.2,220.6 618.5,213.1 
				652.3,213.8 657.6,219.9 662.2,224.2 669.7,231.8 674.9,236.6 683.3,242.8 685.6,249.6 687.9,253.1 688.3,260.2 692.9,267.6 
				696.4,269.2 700.9,273.3 704.4,273.6 708.8,277.1 711.4,277.7 716.3,281 			"/>
			<polyline class="st1" points="787.6,309.8 782.4,301.5 778,298.5 777.2,295.9 769.5,279.1 761.8,270.7 752.5,263.1 745.4,262.8 
				736.8,260.6 734.2,262.9 731.4,263.2 727.8,265.6 725.2,272.5 719.3,280.7 716.3,281 702.2,306.6 707.6,334.8 715.4,344.2 
				713.6,350.5 713.8,357.4 710.9,363.9 711.4,369 715.7,373.6 715.7,375.9 724.3,380.3 727.9,373 732.4,371.1 741.6,372.4 
				749.4,377.8 750,379.5 754.8,379.4 758.6,379.7 764.5,385.1 766.8,384.7 767.6,378.7 768.7,375.8 767,374.2 767.5,371.9 
				774.4,369.3 775.6,367.3 773.7,363.9 767.4,357.6 766.6,352.2 763,347.8 761.1,346.6 759.1,342.6 766.7,335.6 768.4,336.5 
				771.4,333 772.6,328.7 771.2,326.8 768.9,326.8 767.4,324.2 768,321.9 774.5,318.3 776.1,313 779.5,310.4 783.2,313.3 
				787.6,309.8 			"/>
			<polyline class="st1" points="443.5,180.5 491.2,181.8 488.8,186.7 485.2,189.9 483.6,196.2 484.2,199.1 489.3,203.2 
				489.9,204.6 489.4,204.3 487.4,203.9 484.6,218.7 485.2,222.1 486.7,224.8 488,243.9 491.2,250 494.2,252.8 502.4,261.9 
				507.4,270.4 507.7,273 512,274.5 514.6,283.8 519.3,286.6 520.2,291.5 521,293.5 521,294.9 492.7,293.2 493.3,290.5 494,286.3 
				496.1,282 490.2,274.2 486,269.2 476.7,258.7 472.8,255.7 465.1,248.8 465.1,246.5 463.5,244.1 463.6,236.3 459.7,232.4 
				459,222.4 455.5,219.5 455.1,213.8 451.7,208.1 450.3,205.4 450,202.5 451.8,198.9 450.4,196.2 447.9,194.8 446.3,189.1 
				443.1,183.4 443.7,181.1 443.4,180.4 443.5,180.5 			"/>
			<polyline class="st1" points="766.8,384.7 767.6,378.7 768.7,375.8 767,374.2 767.5,371.9 774.4,369.3 775.6,367.3 773.7,363.9 
				767.4,357.6 766.6,352.2 763,347.8 761.1,346.6 759.1,342.6 766.7,335.6 768.4,336.5 771.4,333 772.6,328.7 771.2,326.8 
				768.9,326.8 767.4,324.2 768,321.9 774.5,318.3 776.1,313 779.5,310.4 783.2,313.3 787.6,309.8 788.9,311.8 785.6,316.1 
				786.2,318.4 789.1,319.6 789.4,324.3 789.5,330 792.4,331.7 792.9,335.1 796.7,336.6 797,341.9 800.5,343.7 802.1,348 
				804.2,348.3 807.8,350.7 812.1,349.5 813.6,351 813.7,358.3 816.3,363.2 814.2,366.7 807,372.6 805,371.8 803,372.3 801.9,379 
				799,379.6 792.5,383.3 791.1,385.5 793.3,387.6 793,394.5 795.5,399.4 791.7,403.4 788.2,404 786.8,406 786.8,411.4 783.9,411.4 
				782.6,415.7 779.8,415.4 776.9,416.7 775.1,415.6 775.4,404.4 772.4,400.4 772.6,393.9 766.8,384.7 			"/>
			<polyline class="st1" points="833.1,387.8 832,393 831.9,407 832.6,419 832.6,424.1 829.9,430.1 831.4,436 822.4,433.4 
				820.1,434.8 815.6,434.6 809,436 801.3,433 798.4,428.8 796.2,428.2 793.6,429.8 783.7,425.2 786.3,421.4 786.3,419.7 
				782.6,415.7 783.9,411.4 786.8,411.4 786.8,406 788.2,404 791.7,403.4 795.5,399.4 793,394.5 793.3,387.6 791.1,385.5 
				792.5,383.3 799,379.6 801.9,379 803,372.3 805,371.8 807,372.6 814.2,366.7 816.3,363.2 813.7,358.3 813.6,351 812.1,349.5 
				807.8,350.7 804.2,348.3 802.1,348 800.5,343.7 797,341.9 796.7,336.6 792.9,335.1 792.4,331.7 789.5,330 789.4,324.3 
				789.1,319.6 786.2,318.4 785.6,316.1 788.9,311.8 792.4,313.1 793.9,315.6 793.1,318.8 795.4,323.1 795.1,326 800,334.8 
				802.7,341.3 808.7,342.6 812.1,345.5 818.4,346.6 823,349.7 833.3,350.5 837.9,353 842.1,350.8 			"/>
			<polyline class="st1" points="841.6,351.1 843.2,353.9 839.6,366.4 836.2,373.2 833,388 			"/>
			<polyline class="st1" points="833.9,445.5 831.4,436 822.4,433.4 820.1,434.8 815.6,434.6 819.5,438.8 819.4,440.5 816.3,444.6 
				817.7,448.5 815.2,452.3 816.9,454.3 817.2,458.3 819.3,462.8 820.7,463.6 822.6,463 825.1,465 823.7,471 819.6,471 817.6,473 
				818.4,475.6 817.5,479.1 818.1,481 818.9,481.9 824.9,477.3 826.8,475.3 828.2,476.7 827.7,479.9 829.7,478.7 831.3,472.3 
				833.1,471.5 834.5,472.9 834.7,474.7 838.9,477.2 838.1,479.4 834.6,480 834.6,484.1 838.1,486.6 842.3,484.3 846.9,486.5 
				847.7,487.4 844.7,491.7 844.7,496.8 841.9,499.8 845.1,504.5 849.7,507.4 850.2,508.2 846.3,510.2 848.1,516.4 845.2,517 
				845.2,519.9 849.8,522.1 850.3,524.5 854.6,523.9 855.8,523.5 858,525.5 859.8,523.5 860.1,521.8 863.8,523 871,531.7 
				877.6,533.1 879.3,537.1 877.7,541.7 878.3,543.9 881.5,547 892.3,542.4 893.4,543.4 893.1,546.6 897.2,549.4 898.1,552.6 
				906.3,553.5 924.2,553.4 928,549.1 929.2,547.5 928,545.7 928,545.2 924.3,540.3 921,538.6 918.1,536.2 918.5,533.8 916.8,529.5 
							"/>
			<polyline class="st1" points="916.8,529.5 910.7,532.5 906.1,530.7 901.2,523.5 897.8,522.6 892.9,519.5 879.5,518.8 876,516 
				869.3,508 864.1,496.3 856.6,486.1 845.6,470.8 840.7,459 839.7,457.8 836.4,454.1 833.9,445.5 			"/>
			<polyline class="st1" points="782.6,415.7 786.3,419.7 786.3,421.4 783.7,425.2 793.6,429.8 796.2,428.2 798.4,428.8 801.3,433 
				809,436 815.6,434.6 819.5,438.8 819.4,440.5 816.3,444.6 817.7,448.5 815.2,452.3 816.9,454.3 817.2,458.3 815,462.9 
				810.7,463.5 808.7,461.7 805.2,460.3 803.6,456.1 800.9,453.3 796.1,457.3 791.5,455.4 789.3,457.4 775.8,452.7 771.6,456.4 
				768.9,455.3 763.1,450.5 760,450.5 757.2,448.3 752.2,447.8 755.4,443.6 755.3,439.3 756.5,433.4 755.3,430.5 752.2,430.3 
				748.1,433.8 747.1,433.8 737.5,423.9 737.2,419.4 735.8,416.5 738.3,412.8 739.9,412.5 748.3,406 757.5,397.7 760.6,393.1 
				766.8,384.7 772.6,393.9 772.4,400.4 775.4,404.4 775.1,415.6 776.9,416.7 779.8,415.4 782.6,415.7 			"/>
			<polyline class="st1" points="727.9,373 731.1,381.9 730.5,386.8 714.3,387.8 703,396.3 702.6,406 697.7,411.2 695.8,417.5 
				694.7,419.1 692.5,435.2 692.2,436.9 700,434 698.5,430.8 700.1,426.9 702.5,428.5 701,436.3 702.2,437.7 705.1,431 706.3,432.1 
				706,441.6 707.4,442.4 712,436.7 713.6,433.9 717.7,437.7 717.9,439.7 708.6,449.6 709.2,452.1 708.2,454.9 704.7,456.1 
				704.5,462.4 716.6,466 718.3,466 718.7,461.5 723.6,461.1 727.3,458 727.9,455.4 725.9,453.1 724,446.8 726.4,444.6 728.3,444.3 
				728.9,442.6 727.8,439.7 728.1,438 731.6,436.7 734.5,433.9 740.2,438.5 740.9,440.8 743.8,444.7 744.3,444.1 752.1,447.8 
				752.2,447.8 755.4,443.6 755.3,439.3 756.5,433.4 755.3,430.5 752.2,430.3 748.1,433.8 747.1,433.8 737.5,423.9 737.2,419.4 
				735.8,416.5 738.3,412.8 739.9,412.5 748.3,406 757.5,397.7 760.6,393.1 766.8,384.7 764.5,385.1 758.6,379.7 754.8,379.4 
				750,379.5 749.4,377.8 741.6,372.4 732.4,371.1 727.9,373 			"/>
			<polyline class="st1" points="636.1,358.1 643.8,356.8 647.5,353.1 648.3,348.8 650.2,347.4 649.8,342.3 651.2,340.9 
				653.7,339.3 656.2,332.2 658.2,330.7 663.9,335 665.6,334.3 672.8,339.2 677,338.2 685.9,340.7 689.1,342.4 696.7,332.6 
				707.6,334.8 715.4,344.2 713.6,350.5 713.8,357.4 710.9,363.9 711.4,369 715.7,373.6 715.7,375.9 724.3,380.3 727.9,373 
				731.1,381.9 730.5,386.8 714.3,387.8 703,396.3 702.6,406 697.7,411.2 695.8,417.5 694.7,419.1 692.5,435.2 690.2,433.8 
				687.9,434.7 684.5,431.3 684.5,430.1 681.4,429.5 678.8,430.1 677.7,429.6 678.4,427.1 679.5,423.8 676.2,420.6 668.4,418.5 
				662.6,412.1 662,406.9 659,400.7 658.2,393.5 651.5,387.6 647.9,389.9 645.2,388.2 643.5,381.9 637.1,375.7 634.3,366.7 
				636.1,358.1 			"/>
			<polyline class="st1" points="664.3,431.5 661.4,430.9 657.6,425.2 655.2,422.9 655.8,421.5 642.6,407.6 636.2,397.5 
				633.9,393.4 627.9,390.5 624.4,383.6 620.6,383.6 616.3,379 616,375.8 614.3,372.6 614.3,370.8 608.6,367.1 604.4,364 
				600.4,360.1 598.5,358.1 597.1,360.1 589.6,356 588.5,355.7 588.5,353.7 586.4,349.4 587.8,345.4 590.9,341.6 590.6,339.8 
				600.5,332.8 607.8,325.5 611.5,323.7 616.3,325.9 617.6,327.7 617.9,330.7 620.5,335 621.4,343.4 626.6,345.4 630,346.1 
				636.1,358.1 634.3,366.7 637.1,375.7 643.5,381.9 645.2,388.2 647.9,389.9 651.5,387.6 658.2,393.5 659,400.7 662,406.9 
				662.6,412.1 668.4,418.5 667.2,420 667.6,422.5 665,425.2 667.1,428.8 666.5,430.5 664.3,431.5 			"/>
			<polyline class="st1" points="664.3,431.5 666.5,430.5 667.1,428.8 665,425.2 667.6,422.5 667.2,420 668.4,418.5 676.2,420.6 
				679.5,423.8 678.4,427.1 677.7,429.6 678.8,430.1 681.4,429.5 684.5,430.1 684.5,431.3 687.9,434.7 690.2,433.8 692.5,435.2 
				692.2,436.9 690.7,442.1 692.3,445.7 695.4,449.3 694.5,455.1 698.8,459.3 694.5,463.4 693.3,463.6 692,473.1 691.7,473.6 
				685.7,469 681.4,466.6 673.8,469.3 671.2,474.8 666.9,471.9 665.2,471.5 666.3,469.2 670.3,465.9 671.6,462 672.5,456.2 
				667.6,452.4 663.2,442.1 663.7,439.7 666.4,442.2 667.2,441.4 663.9,436.4 664.3,431.5 			"/>
			<polyline class="st1" points="684.5,510.2 688.1,506.6 690.3,506.6 695.7,502.2 698.1,503.9 701.3,504.8 705,502.6 708,505.8 
				708.9,515.8 710.4,515.2 713.2,513 714.3,513.8 717.8,514.3 720.7,510.2 727.8,508.2 728.9,504.5 728,503.3 725.5,503.1 
				723.4,498.2 725.1,494.3 724.5,493.1 720.8,492.9 718.7,491.9 718.5,490.3 720.1,488 724.1,488 727,486 731.8,484.2 739.8,481.6 
				741.8,478.5 739.9,472.4 745,464.6 748.4,462.3 750.7,460 749.8,456.4 751.2,454.3 750.9,449.5 752.2,447.8 752.1,447.8 
				744.3,444.1 743.8,444.7 736.7,452.8 732.3,451.6 728.9,450.5 728.3,444.3 726.4,444.6 724,446.8 725.9,453.1 727.9,455.4 
				727.3,458 723.6,461.1 718.7,461.5 718.3,466 716.6,466 704.5,462.4 704.7,456.1 708.2,454.9 709.2,452.1 708.6,449.6 
				717.9,439.7 717.7,437.7 713.6,433.9 712,436.7 707.4,442.4 706,441.6 706.3,432.1 705.1,431 702.2,437.7 701,436.3 702.5,428.5 
				700.1,426.9 698.5,430.8 700,434 692.2,436.9 690.7,442.1 692.3,445.7 695.4,449.3 694.5,455.1 698.8,459.3 694.5,463.4 
				693.3,463.6 692,473.1 691.7,473.6 685.7,469 681.4,466.6 673.8,469.3 671.2,474.8 670,477.7 665.8,478.8 661.9,480.3 
				662.7,482.9 665.3,490.3 677.2,506.7 684.5,510.2 			"/>
			<polyline class="st1" points="739.8,481.6 741.8,478.5 739.9,472.4 745,464.6 748.4,462.3 750.7,460 749.8,456.4 751.2,454.3 
				750.9,449.5 752.2,447.8 757.2,448.3 760,450.5 763.1,450.5 768.9,455.3 771.6,456.4 775.8,452.7 789.3,457.4 791,461.1 
				789.8,463.1 785.5,463.7 784.5,465.4 781.9,468.8 775.4,469.6 772.3,474.9 774.3,477.5 778.3,487.5 776.4,491.2 773.9,493.2 
				770.5,491.8 767,493 764.8,490.7 761.2,489.1 756.5,490.5 754.9,489.7 753.5,485.1 751.2,483.5 748.6,485.7 744.9,486.3 
				742.7,485.5 742.4,483.5 739.8,481.6 			"/>
			<polyline class="st1" points="743.8,444.7 736.7,452.8 732.3,451.6 728.9,450.5 728.3,444.3 728.9,442.6 727.8,439.7 728.1,438 
				731.6,436.7 734.5,433.9 740.2,438.5 740.9,440.8 743.8,444.7 			"/>
			<polyline class="st1" points="782.6,492.4 786.1,488 786.3,486.2 788.9,485.4 789.5,482.8 789.5,479.4 793.9,476.9 794.8,475.9 
				794.8,472.7 799.4,468.1 800.4,463.9 805.8,463.1 805.2,460.3 803.6,456.1 800.9,453.3 796.1,457.3 791.5,455.4 789.3,457.4 
				791,461.1 789.8,463.1 785.5,463.7 784.5,465.4 781.9,468.8 775.4,469.6 772.3,474.9 774.3,477.5 778.3,487.5 782.6,492.4 			"/>
			<polyline class="st1" points="817.2,458.3 819.3,462.8 820.7,463.6 822.6,463 825.1,465 823.7,471 819.6,471 817.6,473 
				818.4,475.6 817.5,479.1 818.1,481 818.9,481.9 824.9,477.3 826.8,475.3 828.2,476.7 827.7,479.9 825.7,483.4 826.9,487.9 
				824.4,492.2 825.3,497.6 821.9,498.1 821,499.3 815.5,499.7 815.6,498 814.2,494.9 810.1,494.9 808.2,494.3 808.2,490.9 
				806.8,490 801.9,491.2 800.1,495.1 788.9,485.4 789.5,482.8 789.5,479.4 793.9,476.9 794.8,475.9 794.8,472.7 799.4,468.1 
				800.4,463.9 805.8,463.1 805.2,460.3 808.7,461.7 810.7,463.5 815,462.9 817.2,458.3 			"/>
			<polyline class="st1" points="858,525.5 856.7,529.5 851.4,533.3 846.5,533.1 842.5,536.5 840.4,535.7 838.2,531.2 837.6,530 
				836.2,530.4 835.3,534 835.7,537.1 833.7,538 830.8,536.5 823.1,539.5 820.5,537.6 813.9,537.4 807.6,531.7 807.4,529.4 
				810.1,526.8 815,525.9 814.2,522 815.2,520.2 814.6,518 815.3,515.2 815.5,514.5 815.7,503.7 818.8,504.4 822.8,509.3 
				825.9,511.6 829.1,509.3 831.4,508.9 837.9,506.1 836.9,504.9 832.8,503.2 832.7,500.9 831,499.2 825.3,497.6 824.4,492.2 
				826.9,487.9 825.7,483.4 827.7,479.9 829.7,478.7 831.3,472.3 833.1,471.5 834.5,472.9 834.7,474.7 838.9,477.2 838.1,479.4 
				834.6,480 834.6,484.1 838.1,486.6 842.3,484.3 846.9,486.5 847.7,487.4 844.7,491.7 844.7,496.8 841.9,499.8 845.1,504.5 
				849.7,507.4 850.2,508.2 846.3,510.2 848.1,516.4 845.2,517 845.2,519.9 849.8,522.1 850.3,524.5 854.6,523.9 855.8,523.5 
				858,525.5 			"/>
			<polyline class="st1" points="815.5,499.7 821,499.3 821.9,498.1 825.3,497.6 831,499.2 832.7,500.9 832.8,503.2 836.9,504.9 
				837.9,506.1 831.4,508.9 829.1,509.3 825.9,511.6 822.8,509.3 818.8,504.4 815.7,503.7 815.1,502.9 815.5,499.7 			"/>
			<polyline class="st1" points="802.5,500.4 800.6,507.9 802,510.1 805.5,512 808.6,512 807.7,505.1 806.2,502 802.5,500.4 			"/>
			<polyline class="st1" points="796.1,521.2 798.4,525 800.7,526.4 802.7,524.6 804.2,525 807.4,529.4 810.1,526.8 815,525.9 
				814.2,522 815.2,520.2 814.6,518 815.3,515.2 810.6,513.7 808.6,512 805.5,512 802,510.1 800,512.6 800.1,515.8 796.1,521.2 			
				"/>
			<polyline class="st1" points="808.6,512 807.7,505.1 806.2,502 802.5,500.4 800.6,507.9 802,510.1 800,512.6 800.1,515.8 
				796.1,521.2 792.4,520.4 788.9,523.3 785.2,523.3 780,528 778.2,527.7 774.2,518.3 773,517.7 780.2,506.2 782.3,503.7 
				782.7,495.6 783.9,494 782.6,492.4 786.1,488 786.3,486.2 788.9,485.4 800.1,495.1 801.9,491.2 806.8,490 808.2,490.9 
				808.2,494.3 810.1,494.9 814.2,494.9 815.6,498 815.5,499.7 815.1,502.9 815.7,503.7 815.5,514.5 815.3,515.2 810.6,513.7 
				808.6,512 			"/>
			<polyline class="st1" points="738.3,539.2 739.7,533.6 745.4,531.2 744.4,526.9 747.1,525.1 753.6,527.7 761,525.8 764.8,527.9 
				765.9,527.3 771.1,528.1 768.7,520.6 769.3,517.7 769.9,518.3 771,519.2 773,517.7 774.2,518.3 778.2,527.7 780,528 785.2,523.3 
				788.9,523.3 792.4,520.4 796.1,521.2 798.4,525 800.7,526.4 802.7,524.6 804.2,525 807.4,529.4 807.6,531.7 813.9,537.4 
				820.5,537.6 823.1,539.5 822.4,549 825,554.4 826.2,556.6 829.9,559.3 828.5,567.6 825.1,569.3 824.3,572.3 824.6,573.8 
				819.1,576.6 813.4,571.6 809.2,571.6 800.8,569.5 791.2,567 786.2,562.5 781.1,561.9 761.7,554.4 749,545.1 743.1,539.2 
				740,538.4 738.3,539.2 			"/>
			<polyline class="st1" points="738.3,539.2 739.7,533.6 745.4,531.2 744.4,526.9 747.1,525.1 753.6,527.7 761,525.8 764.8,527.9 
				765.9,527.3 771.1,528.1 768.7,520.6 769.3,517.7 769.9,518.3 771,519.2 773,517.7 780.2,506.2 782.3,503.7 782.7,495.6 
				783.9,494 782.6,492.4 778.3,487.5 776.4,491.2 773.9,493.2 770.5,491.8 767,493 764.8,490.7 761.2,489.1 756.5,490.5 
				754.9,489.7 753.5,485.1 751.2,483.5 748.6,485.7 744.9,486.3 742.7,485.5 742.4,483.5 739.8,481.6 731.8,484.2 727,486 
				724.1,488 720.1,488 718.5,490.3 718.7,491.9 720.8,492.9 724.5,493.1 725.1,494.3 723.4,498.2 725.5,503.1 728,503.3 
				728.9,504.5 727.8,508.2 720.7,510.2 717.8,514.3 714.3,513.8 713.2,513 710.4,515.2 708.9,515.8 706.5,516.7 702.6,522.4 
				708.9,530.1 736.2,539.9 738.3,539.2 			"/>
			<polyline class="st1" points="708.9,515.8 708,505.8 705,502.6 701.3,504.8 698.1,503.9 695.7,502.2 690.3,506.6 688.1,506.6 
				684.5,510.2 688.1,512 700,519.1 702.6,522.4 706.5,516.7 708.9,515.8 			"/>
			<polyline class="st1" points="823.1,539.5 822.4,549 825,554.4 826.2,556.6 829.9,559.3 828.5,567.6 825.1,569.3 824.3,572.3 
				824.6,573.8 819.1,576.6 826.2,579 831.9,582.6 836.6,584.2 851.5,584.7 852.7,586.7 857,588.6 864.2,591.5 868.8,590.8 
				889,582.9 898.8,573.1 901.3,572 904,573.1 903.6,574 907.4,576.2 911.7,576.4 912.8,574.7 919.7,576.9 920.5,574.6 918.5,569.8 
				919.8,563.8 922.4,560 923.5,554.3 924.2,553.4 906.3,553.5 898.1,552.6 897.2,549.4 893.1,546.6 893.4,543.4 892.3,542.4 
				881.5,547 878.3,543.9 877.7,541.7 879.3,537.1 877.6,533.1 871,531.7 863.8,523 860.1,521.8 859.8,523.5 858,525.5 856.7,529.5 
				851.4,533.3 846.5,533.1 842.5,536.5 840.4,535.7 838.2,531.2 837.6,530 836.2,530.4 835.3,534 835.7,537.1 833.7,538 
				830.8,536.5 823.1,539.5 			"/>
			<polyline class="st1" points="916.8,529.5 926.9,524.6 936,522.7 937.7,523.7 941.4,521.9 948.3,519.3 952.3,516.7 954.5,519.3 
				958.8,519.4 959.2,519.4 960.6,523.7 961.5,527.7 967.2,531.7 971.5,531.3 973.8,528.4 978.7,529.3 986.4,530.4 987.2,533.4 
				987.6,546.1 979.4,547.2 975.1,542.7 973.3,542.7 971.8,539 969.9,537.6 969.5,535.6 966.1,533.9 963.8,533.9 960.9,536.5 
				955.6,538.9 948,546.6 942.3,540.5 942.7,535.3 936.4,533.1 933.7,541.1 929.2,547.5 928,545.7 928,545.2 924.3,540.3 921,538.6 
				918.1,536.2 918.5,533.8 916.8,529.5 			"/>
			<polyline class="st1" points="979.4,547.2 978.8,548.1 986.9,555.1 994.6,559.6 996.6,563.9 1001.3,566.2 1001.6,573.9 
				972.5,576.2 962.4,595.3 965.8,600.2 965,602.2 964.5,608.5 964.5,613 952,602.6 949.5,599.2 933.2,587 924.7,579.7 919.7,576.9 
				920.5,574.6 918.5,569.8 919.8,563.8 922.4,560 923.5,554.3 924.2,553.4 928,549.1 929.2,547.5 933.7,541.1 936.4,533.1 
				942.7,535.3 942.3,540.5 948,546.6 955.6,538.9 960.9,536.5 963.8,533.9 966.1,533.9 969.5,535.6 969.9,537.6 971.8,539 
				973.3,542.7 975.1,542.7 979.4,547.2 			"/>
			<path class="st2" d="M979.4,547.2l-0.6,0.8l8.1,7l7.7,4.5l2,4.3l4.6,2.3l0.4,7.7l-29.1,2.3l-10.1,19.2l3.4,4.9l-0.8,2l-0.5,6.3
				v4.5L952,602.5l-2.5-3.3L933.2,587l-8.6-7.3l-5-2.9l0.8-2.3l-2-4.8l1.3-6.1l2.6-3.8l1.1-5.7l0.7-0.8l3.8-4.3l1.2-1.7l4.5-6.4
				l2.7-8l6.3,2.3l-0.5,5.1l5.7,6.2l7.6-7.7l5.4-2.4l2.9-2.6h2.3l3.5,1.7l0.4,2l1.9,1.4l1.5,3.7h1.8L979.4,547.2z M916.8,529.5
				l10.1-4.9l9-1.9l1.8,1l3.7-1.8l6.9-2.6l3.9-2.6l2.3,2.6l4.3,0.1h0.4l1.4,4.3l1,4l5.7,3.9l4.3-0.4l2.3-2.9l4.9,0.8l7.7,1.1
				l0.8,3.1l0.4,12.6l-8.2,1.2l-4.3-4.5h-1.8l-1.5-3.7l-1.9-1.4l-0.4-2l-3.5-1.7h-2.3l-2.9,2.6l-5.4,2.4l-7.6,7.7l-5.7-6.2l0.5-5.1
				l-6.3-2.3l-2.7,8l-4.5,6.4l-1.2-1.8V545l-3.7-4.9l-3.3-1.8l-2.9-2.4l0.4-2.4L916.8,529.5z M823.1,539.5l-0.7,9.5l2.6,5.4l1.2,2.3
				l3.7,2.6l-1.3,8.3l-3.5,1.7l-0.8,3.1l0.4,1.4l-5.5,2.9l7,2.4l5.7,3.6l4.8,1.7l14.9,0.5l1.2,2l4.3,1.9l7.3,2.9l4.5-0.7l20.2-7.9
				l9.9-9.9l2.5-1.1l2.6,1.1l-0.4,1l3.8,2.1l4.3,0.2l1.1-1.7l6.9,2.1l0.8-2.3l-2-4.8l1.3-6.1l2.6-3.8l1.1-5.7l0.7-0.8l-17.8,0.1
				l-8.2-0.9l-0.9-3.2l-4-2.7l0.2-3.2l-1.1-1.1l-10.8,4.6l-3.2-3.1l-0.6-2.3l1.7-4.5l-1.8-4l-6.5-1.4L864,523l-3.7-1.2l-0.2,1.7
				l-1.8,2l-1.3,4l-5.4,3.8l-4.9-0.2l-4,3.5l-2-0.8l-2.3-4.5l-0.8-1.3l-1.4,0.4l-0.8,3.7l0.4,3.1l-2,0.8l-2.9-1.4L823.1,539.5z
				 M708.9,515.8l-0.8-10l-3.1-3.2l-3.7,2.1l-3.2-0.8l-2.4-1.8l-5.4,4.4H688l-3.6,3.7l3.6,1.8l11.9,7l2.6,3.3l3.9-5.7L708.9,515.8z
				 M738.3,539.2l1.4-5.6l5.7-2.4l-1-4.3l2.6-1.8l6.5,2.6l7.4-1.9l3.8,2l1.1-0.6l5.2,0.8l-2.4-7.5l0.6-2.9l0.6,0.6l1.1,0.8l2-1.4
				l7.3-11.5l2-2.5l0.5-8.1l1.2-1.7l-1.3-1.5l-4.3-4.9l-1.9,3.7l-2.5,2l-3.5-1.4l-3.4,1.2l-2.3-2.3l-3.6-1.7l-4.8,1.4l-1.5-0.8
				l-1.4-4.5l-2.3-1.7l-2.6,2.3l-3.7,0.6l-2.3-0.8l-0.2-2l-2.6-1.9l-8,2.6l-4.9,1.8l-2.9,2h-4l-1.5,2.3l0.2,1.7l2,1l3.7,0.2l0.6,1.2
				l-1.7,3.9l2.1,4.9l2.5,0.2l0.8,1.2l-1.1,3.7l-7.1,2l-2.9,4l-3.4-0.5l-1.2-0.8l-2.7,2.3l-1.5,0.6l-2.4,0.8l-3.9,5.7l6.3,7.7
				l27.4,9.8L738.3,539.2z M738.3,539.2l1.4-5.6l5.7-2.4l-1-4.3l2.6-1.8l6.5,2.6l7.4-1.9l3.8,2l1.1-0.6l5.2,0.8l-2.4-7.5l0.6-2.9
				l0.6,0.6l1.1,0.8l2-1.4l1.2,0.6l4,9.4l1.8,0.2l5.2-4.6h3.7l3.4-3l3.7,0.8l2.4,3.8l2.3,1.4l2-1.8l1.4,0.4l3.2,4.4l0.2,2.3l6.3,5.7
				l6.5,0.2l2.6,1.9l-0.7,9.5l2.6,5.4l1.2,2.3l3.7,2.6l-1.3,8.3l-3.5,1.7l-0.8,3.1l0.4,1.4l-5.5,2.9l-5.7-5h-4.3l-8.3-2.1l-9.6-2.5
				l-5-4.5l-5.1-0.6l-19.4-7.5l-12.7-9.3l-5.8-5.9l-3.1-0.7L738.3,539.2z M808.6,512l-0.8-6.9l-1.5-3.1l-3.7-1.7l-1.9,7.5l1.4,2.3
				l-2,2.5l0.1,3.2l-4,5.4l-3.7-0.8l-3.4,3h-3.7l-5.2,4.6l-1.8-0.2l-4-9.4l-1.2-0.6l7.3-11.5l2-2.5l0.5-8.1l1.2-1.7l-1.3-1.5
				l3.4-4.4l0.2-1.8l2.6-0.8l11.2,9.8l1.8-3.9l4.9-1.2l1.4,0.8v3.4l1.9,0.6h4l1.4,3.1l-0.1,1.7l-0.4,3.2l0.6,0.8l-0.2,10.8l-0.1,0.7
				l-4.8-1.5L808.6,512z M796.1,521.2l2.4,3.8l2.3,1.4l2-1.8l1.4,0.4l3.2,4.4l2.7-2.6l4.9-0.8l-0.8-3.9l1.1-1.8l-0.7-2.3l0.7-2.7
				l-4.8-1.5l-2-1.7h-3.1l-3.4-1.9l-2,2.5l0.1,3.2L796.1,521.2z M802.5,500.4l-1.9,7.5l1.4,2.3l3.4,1.9h3.1l-0.8-6.9l-1.5-3.1
				L802.5,500.4z M815.5,499.7l5.6-0.4l0.8-1.2l3.5-0.5l5.7,1.5l1.7,1.7l0.1,2.4l4,1.7l1.1,1.2l-6.5,2.9l-2.3,0.4l-3.2,2.3l-3.1-2.3
				l-4-4.9l-3.1-0.7l-0.6-0.8L815.5,499.7z M858,525.5l-1.3,4l-5.4,3.8l-4.9-0.2l-4,3.5l-2-0.8l-2.3-4.5l-0.5-1.3l-1.4,0.4l-0.8,3.7
				l0.4,3.1l-2,0.8l-2.9-1.4l-7.7,3l-2.6-1.9l-6.5-0.2l-6.3-5.7l-0.2-2.3l2.7-2.6l4.9-0.8l-0.8-3.9l1.1-1.8l-0.9-2.4l0.7-2.7
				l0.1-0.7l0.2-10.8l3.1,0.7l4,4.9l3.1,2.3l3.2-2.3l2.3-0.4l6.5-2.9l-1.1-1.2l-4-1.7l-0.1-2.4l-1.7-1.7l-5.7-1.5l-1-5.5l2.5-4.3
				l-1.2-4.5l2-3.5l2-1.2l1.5-6.4l1.8-0.8l1.4,1.4l0.2,1.8l4.2,2.5l-0.8,2.3l-3.2,0.6v4l3.4,2.5l4.3-2.3l4.5,2.1l0.8,1l-3,4.3v5.1
				l-2.9,3l3.2,4.8l4.6,2.9l0.5,0.8l-3.9,2l1.8,6.2L845,517v2.9l4.6,2.3l0.5,2.4l4.3-0.6l1.2-0.5L858,525.5z M817.2,458.3l2,4.5
				l1.4,0.8l1.9-0.6l2.5,2l-1.4,6h-4l-2,2l0.8,2.6l-1,3.4l0.6,1.9l0.8,1l5.9-4.6l1.9-2l1.4,1.4l-0.5,3.2l-2,3.5l1.2,4.5l-2.5,4.3
				l1,5.5l-3.5,0.5l-0.8,1.2l-5.6,0.4l0.1-1.7L814,495h-4l-1.9-0.6V491l-1.4-0.8l-4.9,1.2l-1.8,3.9l-11.2-9.8l0.6-2.6v-3.3l4.4-2.5
				l0.8-1.1v-3.2l4.6-4.5l1-4.3l5.5-0.7l-0.6-2.9l3.5,1.4l2,1.8l4.3-0.6L817.2,458.3z M782.6,492.4l3.4-4.4l0.2-1.8l2.6-0.8l0.6-2.6
				v-3.3l4.4-2.5l0.8-1.1v-3.2l4.6-4.5l1-4.3l5.5-0.7l-0.6-2.9l-1.7-4.2l-2.6-2.9l-4.9,4l-4.5-1.9l-2.3,2l1.7,3.7l-1.2,2l-4.3,0.6
				l-1,1.7l-2.6,3.4l-6.5,0.7l-3.1,5.4l2,2.6l4,10L782.6,492.4z M743.8,444.7l-7.1,8.1l-4.4-1.2l-3.5-1.1l-0.6-6.2l0.6-1.8l-1.1-2.9
				l0.4-1.7l3.5-1.3l2.9-2.9l5.7,4.6l0.7,2.3L743.8,444.7z M739.8,481.6l2-3.1l-1.9-6.1l5.1-7.8l3.3-2.3l2.4-2.3l-0.9-3.7l1.4-2
				l-0.4-4.9l1.3-1.7l5,0.5l2.9,2.3h3.1l5.8,4.8l2.6,1.1l4.3-3.7l13.4,4.8l1.7,3.7l-1.2,2l-4.3,0.6l-1,1.7l-2.6,3.4l-6.5,0.7
				l-3.1,5.4l2,2.6l4,10l-1.9,3.7l-2.5,2l-3.5-1.4l-3.4,1.2l-2.3-2.3l-3.6-1.7l-4.8,1.4l-1.5-0.8l-1.4-4.5l-2.3-1.7l-2.6,2.3
				l-3.7,0.6l-2.3-0.8l-0.2-2L739.8,481.6z M684.5,510.2l3.6-3.7h2.3l5.4-4.4l2.4,1.8l3.2,0.8l3.7-2.1l3.1,3.2l0.8,10l1.5-0.6
				l2.7-2.3l1.2,0.8l3.4,0.5l2.9-4l7.1-2l1.1-3.7l-0.8-1.2l-2.5-0.2l-2.1-4.9l1.7-3.9l-0.6-1.2l-3.7-0.2l-2-1l-0.2-1.7l1.5-2.3h4
				l2.9-2l4.9-1.8l8-2.6l2-3.1l-1.9-6.1l5.1-7.8l3.3-2.3l2.4-2.3l-0.9-3.7l1.4-2l-0.4-4.9l1.3-1.7h-0.1l-7.7-3.7l-0.5,0.6l-7.1,8.1
				l-4.4-1.2l-3.5-1.1l-0.6-6.2l-1.9,0.2l-2.4,2.3l1.9,6.3l2,2.3l-0.6,2.6l-3.7,3.1l-4.9,0.4l-0.5,4.5h-1.7l-12.1-3.6l0.2-6.3
				l3.4-1.2l1.1-2.9l-0.6-2.5l9.3-9.9l-0.2-2l-4-3.8l-1.7,2.9l-4.5,5.7l-1.4-0.8l0.2-9.5l-1.2-1.1l-2.9,6.7l-1.2-1.4l1.4-7.7
				l-2.4-1.7l-1.5,3.9l1.4,3.2l-7.7,2.9l-1.5,5.2l1.7,3.6l3.1,3.7l-1,5.7l4.3,4.3l-4.3,4l-1.2,0.2l-1.3,9.5l-0.2,0.5l-6.1-4.6
				l-4.3-2.4l-7.6,2.7l-2.6,5.5l-1.2,2.9l-4.2,1.2l-3.9,1.4l0.8,2.6l2.6,7.4l11.9,16.4L684.5,510.2z M664.3,431.5l2.3-0.9l0.6-1.8
				l-2.1-3.6l2.6-2.7l-0.4-2.5l1.2-1.4l7.7,2l3.3,3.2l-1.1,3.3l-0.7,2.5l1.1,0.5l2.6-0.6l3.1,0.6v1.2l3.4,3.5l2.3-1l2.3,1.4
				l-0.2,1.7l-1.5,5.2l1.7,3.6l3.1,3.7l-1,5.7l4.3,4.3l-4.3,4l-1.2,0.2l-1.3,9.5l-0.2,0.5l-6.1-4.6l-4.3-2.4l-7.6,2.7l-2.6,5.5
				l-4.3-2.9l-1.7-0.5l1.1-2.3l4-3.3l1.3-3.9l0.8-5.7l-4.9-3.8l-4.4-10.3l0.5-2.4l2.7,2.5l0.8-0.8l-3.3-5L664.3,431.5z M664.3,431.5
				l-2.9-0.6l-3.8-5.7l-2.4-2.3l0.6-1.4l-13.2-13.9l-6.4-10.1l-2.3-4l-6.1-3l-3.5-6.9h-3.7l-4.3-4.5l-0.4-3.2l-1.7-3.2v-1.8
				l-5.7-3.7l-4.2-3.1l-4-3.9l-1.9-2l-1.4,2l-7.4-4.2l-1.1-0.2v-2l-2.1-4.3l1.4-4l3.1-3.8l-0.2-1.8l9.9-7l7.3-7.3l3.7-1.8l4.9,2.1
				l1.3,1.8l0.2,3.1l2.6,4.3l1,8.3l5.1,2l3.4,0.7l6.1,12l-1.8,8.6l2.9,9l6.3,6.2l1.8,6.3l2.6,1.7l3.7-2.3l6.7,5.9l0.8,7.1l3,6.2
				l0.6,5.2l5.8,6.4l-1.2,1.4l0.4,2.5l-2.6,2.7l2.1,3.6l-0.6,1.8L664.3,431.5z M636.1,358.1l7.7-1.3l3.7-3.7l0.8-4.3l1.9-1.4
				l-0.5-5.1l1.4-1.4l2.5-1.5l2.5-7.1l2-1.4l5.7,4.3l1.7-0.7l7.3,4.9l4.2-1l8.9,2.5l3.2,1.7l7.6-9.8l10.8,2.1l7.8,9.4l-1.8,6.3
				l0.1,6.9l-2.9,6.5l0.5,5.1l4.3,4.5v2.4l8.7,4.4l3.6-7.4l3.2,8.9l-0.6,4.9l-16.2,1.1l-11.3,8.4l-0.3,9.7l-4.9,5.1l-1.9,6.3
				l-1.1,1.7l-2.3,16.1l-2.3-1.4l-2.3,1l-3.4-3.5v-1.2l-3.1-0.6l-2.6,0.6l-1.1-0.5l0.7-2.5l1.1-3.3l-3.3-3.2l-7.7-2l-5.8-6.4
				L662,407l-3-6.2l-0.8-7.1l-6.7-5.9l-3.7,2.3l-2.6-1.7l-1.8-6.3l-6.3-6.2l-2.9-9L636.1,358.1z M727.9,373l3.2,8.9l-0.6,4.9
				l-16.2,1.1l-11.3,8.4l-0.4,9.7l-4.9,5.1l-1.9,6.3l-1.1,1.7l-2.3,16.1l-0.2,1.7l7.7-2.9l-1.4-3.2l1.5-3.9l2.4,1.7l-1.4,7.7
				l1.2,1.4l2.9-6.7l1.2,1.1l-0.2,9.5l1.4,0.8l4.5-5.7l1.7-2.9l4,3.8l0.2,2l-9.3,9.9l0.6,2.5l-1.1,2.9l-3.4,1.2l-0.2,6.3l12.1,3.6
				h1.7l0.5-4.5l4.9-0.4l3.7-3.1l0.6-2.6l-2-2.3l-1.9-6.3l2.4-2.3l1.9-0.2l0.6-1.8l-1.1-2.9l0.4-1.7l3.5-1.3l2.9-2.9l5.7,4.6
				l0.7,2.3l3,3.9l0.5-0.6l7.7,3.7h0.1l3.2-4.2l-0.1-4.3l1.2-5.9l-1.2-2.9l-3.1-0.2l-4,3.4h-1.1l-9.5-9.9l-0.4-4.5l-1.4-2.9l2.5-3.7
				l1.7-0.4l8.3-6.4l9.3-8.3l3.1-4.6l6.2-8.3l-2.3,0.4l-5.9-5.4l-3.8-0.4l-4.8,0.1l-0.6-1.7l-7.9-5.5l-9.2-1.3L727.9,373z
				 M782.6,415.7l3.7,4v1.7l-2.6,3.8l9.9,4.6l2.6-1.7l2.3,0.6l2.9,4.3l7.7,3l6.5-1.4l3.9,4.2l-0.1,1.8l-3.1,4l1.4,3.9l-2.5,3.8
				l1.7,2l0.4,3.9l-2.3,4.6l-4.3,0.6l-2-1.8l-3.5-1.4l-1.7-4.2l-2.6-2.9l-4.9,4l-4.5-1.9l-2.3,2l-13.4-4.8l-4.3,3.7l-2.6-1.1
				l-5.8-4.8H760l-2.9-2.3l-5-0.5l3.2-4.2l-0.1-4.3l1.2-5.9l-1.2-2.9l-3.1-0.2l-4,3.4H747l-9.5-9.9l-0.4-4.5l-1.4-2.9l2.5-3.7
				l1.7-0.4l8.3-6.4l9.3-8.3l3.1-4.6l6.2-8.3l5.8,9.2l-0.2,6.5l3,3.9l-0.2,11.2l1.8,1.2l2.9-1.3L782.6,415.7z M766.8,384.7l0.8-6.1
				l1.1-2.9L767,374l0.5-2.3l6.9-2.6l1.2-2l-1.9-3.3l-6.3-6.3l-0.8-5.5l-3.6-4.4l-1.9-1.2l-2-3.9l7.6-7l1.7,0.8l3.1-3.4l1.2-4.3
				l-1.4-1.9H769l-1.5-2.6l0.6-2.3l6.5-3.7l1.5-5.2l3.5-2.6l3.7,2.9l4.4-3.5l1.3,2l-3.3,4.3l0.6,2.3l2.9,1.2l0.4,4.8l0.1,5.7
				l2.9,1.7l0.5,3.4l3.8,1.4l0.4,5.4l3.4,1.8l1.7,4.3l2,0.4l3.7,2.4l4.3-1.2l1.4,1.4l0.1,7.4l2.6,4.9l-2.1,3.4l-7.1,5.9l-2-0.8
				l-2,0.5l-1.1,6.8l-2.9,0.6l-6.5,3.7l-1.4,2.1l2.3,2.1l-0.4,6.9l2.5,4.9l-3.8,4l-3.4,0.6l-1.4,2v5.4h-2.9l-1.3,4.3l-2.9-0.2
				l-2.9,1.3l-1.8-1.2l0.2-11.2l-3-3.9l0.2-6.5L766.8,384.7z M443.5,180.5l47.7,1.3l-2.4,4.9l-3.6,3.2l-1.7,6.3l0.6,2.9l5.1,4.2
				l0.6,1.4l-0.5-0.4l-2-0.4l-2.7,14.8l0.6,3.5l1.4,2.6l1.3,19.2l3.2,6.1l3,2.9l8.2,9l5,8.6l0.4,2.6l4.3,1.4l2.6,9.3l4.6,2.9l1,4.9
				l0.8,2v1.4l-28.3-1.8l0.6-2.6l0.7-4.3l2-4.3l-5.8-7.7l-4.3-5l-9.3-10.6l-3.9-3l-7.6-6.9v-2.3l-1.7-2.4l0.1-7.9l-3.9-3.9l-0.7-10
				l-3.4-2.9l-0.4-5.7l-3.5-5.7l-1.4-2.7l-0.2-2.9l1.8-3.6l-1.4-2.7l-2.5-1.4l-1.5-5.7l-3.2-5.7l0.6-2.3L443.5,180.5L443.5,180.5z
				 M787.6,309.8l-5.2-8.3l-4.4-3l-0.8-2.6l-7.6-16.8l-7.7-8.4l-9.3-7.6l-7.1-0.2l-8.6-2.3l-2.6,2.4l-2.9,0.2l-3.6,2.4l-2.6,6.9
				l-5.8,8.2l-3.1,0.4l-14,25.6l5.4,28.2l7.8,9.4l-1.8,6.3l0.1,6.9l-2.9,6.5l0.5,5.1l4.3,4.5v2.4l8.7,4.4l3.6-7.4l4.5-1.9l9.2,1.3
				l7.9,5.5l0.6,1.7l4.8-0.1l3.8,0.4l5.9,5.4l2.3-0.4l0.8-6.1l1.1-2.9l-1.7-1.7l0.5-2.3l6.9-2.6l1.2-2l-1.9-3.3l-6.3-6.3l-0.8-5.5
				l-3.6-4.4l-1.9-1.2l-2-3.9l7.6-7l1.7,0.8l3.1-3.4l1.2-4.3l-1.4-1.9h-2.3l-1.5-2.6l0.6-2.3l6.5-3.7l1.5-5.2l3.5-2.6l3.7,2.9
				L787.6,309.8z M716.3,281l-14,25.6l5.4,28.2l-10.8-2.1l-7.6,9.8l-3.2-1.7l-8.9-2.5l-4.2,1l-7.3-4.9l-1.7,0.7l-5.7-4.3l-2,1.4
				l-2.5,7.1l-2.5,1.5l-1.4,1.4l0.5,5.1l-1.9,1.4l-0.8,4.3l-3.7,3.7l-7.7,1.3l-6.1-12l-3.4-0.7l-5.1-2l-1-8.3l-2.6-4.3l-0.2-3.1
				l-1.3-1.8l-4.9-2.1l-3.7,1.8l-3.1-3.8l-0.1-8.6l-1.4-2.5l-4.3-7l-2.7-7.7l2.6-2.9l7.4,2.5l1.2-1.2l-1-10.6l-0.5-14.9l2-2.3
				l1.3-15.1l-2.1-12.3l-0.7-12l-1.9-0.8l1.4-4l12.6,0.5l-0.2-2.3l0.2-7.5l33.8,0.7l5.4,6.1l4.6,4.3l7.5,7.6l5.1,4.9l8.4,6.2
				l2.3,6.8l2.4,3.4l0.4,7.1l4.6,7.4l3.4,1.7l4.5,4l3.4,0.4l4.4,3.4l2.6,0.6L716.3,281z M489.9,204.6l-0.6-1.4l-5.1-4.2l-0.6-2.9
				l1.7-6.3l3.6-3.2l3.8,1.9l70.5,31.8l42.7,2l-1.4,4l1.9,0.8l0.7,12l2.1,12.3l-1.3,15.1l-2,2.3l0.5,14.9l1,10.6l-1.2,1.2l-7.4-2.5
				l-2.6,2.9l2.7,7.7l4.3,7l1.4,2.5l0.1,8.6l3.1,3.8l-7.3,7.3l-9.9,7l-0.5-5.1l-3.7-4.6l-3.1,0.8l-3.7-1.4l-1.9-6.9l-4.5-2.7
				l-3.2-1.1l-4-4.3l-1.4-7.6l0.8-5l-5-1.3l-1.1,0.6l-0.6,0.6l-3.2-2l-3.7-3.6l-3.1-6.7l-7-5.9l-2.3-2.5v-2.9l-4.6-6.2l-0.6-5.2
				l-2.9-1.9l0.1-2.9l-6.7-12.5l-0.2-5.7l-2.1-5.5l-3.2-7.1l1.1-6.8v-2.9l-3.7-2.6l-2.6-0.2l-6.7-7.4l-2.9-1.4l-3.4,1.9l-6.8-4.9
				L489.9,204.6z M521,294.9v1.4l1.8,6.8l5.2,5.6l1.4,4.6l4,3.9l1.4,0.6v3.5l1.4,3.1l1,4.3l2,2v-3.4l-1-2.5l0.6-1l4.4,4.5l0.2,3.1
				l1.4,1.4l-0.6,1.8l2,4.3l0.5,4.3l-1.4,2.9l3.8,8l3.1,2.1l0.8,5.5l3.9,7.6l1.4,3.8l-1.3,7.1l1.4,4.8l5.7,3.8l1.4-1.3l0.2-2.9
				l2.3,0.6l5,6.5l2.3,0.8l0.8,4.3l1.8,4.2l5,6.3l-2,5.9l-5,3.3l-2.6,2.5l-1.7,0.4l-3.5-3.7l-2.7-11.8l-3.8-3.3l-4-2.5l-11.8-11.9
				l-8.9-8.7h-1.2l-0.6-3l-1.4,0.9l-2-3.4l-1.7-0.6l-2-5.7l2.6-15.7l-5-12.4l-3.1-1.4L505.8,322l-1.8,0.8l-3.1,0.1l-4.3-5.5
				l-2.6-0.8l-3.2-2.9l-5.7-3l-1.2-2.4L475,297l0.8-0.5l6.3,1.5l5.1-1.4l2.3,2.7l2.6,0.6l3.4,1.4l0.6-1.8l-1-0.8l-2.5-0.6l-2.9-3.1
				l2.5-2.3L521,294.9z M529.5,377l-1.8-3.2"/>
		</g>
	</g>
	<text transform="matrix(1 0 0 1 540.7302 447.7663)" class="st3 st4">Durango</text>
	<g>
		<text transform="matrix(1 0 0 1 460.3276 492.4667)" class="st3 st4">Guadalajara</text>
	</g>
	<g>
		<text transform="matrix(1 0 0 1 501.3105 554.6382)" class="st3 st4">Ciudad de México</text>
	</g>
	<g>
		<text transform="matrix(1 0 0 1 677.3112 594.3997)" class="st3 st4">Oaxaca</text>
	</g>
	<g>
		<text transform="matrix(1 0 0 1 1035.0291 577.9163)" class="st3 st4">Chiapas</text>
	</g>
	<g>
		<text transform="matrix(1 0 0 1 980.4005 327.2341)" class="st3 st4">Quintana Roo</text>
	</g>
	<g>
		<text transform="matrix(1 0 0 1 932.6937 370.6667)" class="st3 st4">Yucatán</text>
	</g>
	<g>
		<text transform="matrix(1 0 0 1 843.2186 433.667)" class="st3 st4">Campeche</text>
	</g>
	<polyline class="st5" points="682.6,379.6 593.5,379.6 593.5,421.2 	"/>
	<line class="st5" x1="702.2" y1="483.9" x2="609.5" y2="483.7"/>
	<polyline class="st5" points="804.6,506.5 804.6,544.9 721.1,544.9 	"/>
	<polyline class="st5" points="863.6,561 863.6,587.6 772.1,587.6 	"/>
	<line class="st5" x1="952.7" y1="568.1" x2="1026.1" y2="568.1"/>
	<polyline class="st5" points="1007.9,506.9 905.3,506.7 905.3,445.5 	"/>
	<polyline class="st5" points="1024.8,460 981.2,460 981.2,388 	"/>
	<polyline class="st5" points="1043.9,492 1062.9,492 1062.9,339.8 	"/>
</g>
</svg>
