<?xml version="1.0" encoding="utf-8"?>
<!-- Generator: Adobe Illustrator 19.1.0, SVG Export Plug-In . SVG Version: 6.00 Build 0)  -->
<svg version="1.1" id="Layer_1" xmlns="http://www.w3.org/2000/svg" xmlns:xlink="http://www.w3.org/1999/xlink" x="0px" y="0px"
	 viewBox="-189 181.8 1100 436" style="enable-background:new -189 181.8 1100 436;" xml:space="preserve">
<style type="text/css">
	.st0{fill:#41B5AD;}
	.st1{fill:none;stroke:#A7A9AC;}
	.st2{fill:none;stroke:#A7A9AC;stroke-width:0.5;stroke-miterlimit:2;}
	.st3{font-family:'Lato-Light';}
	.st4{font-size:28px;}
	.st5{fill:none;stroke:#000000;stroke-width:1.7;stroke-miterlimit:10;}
</style>
<g>
	<g>
		<g>
			<polyline class="st0" points="561.7,465.2 560.4,475.3 562.2,486.9 557.4,492.2 557.4,499.4 555.8,503.1 546.1,510.9 543,514
				546.6,517.7 546.3,518.9 541.1,522.8 534,524.1 533.2,522.5 530.3,521.5 531.5,519 530.1,518.2 519.7,520 522,522.6 526.3,522.7
				526.6,522.7 528,527 529,531 534.7,535 539,534.6 541.3,531.8 546.1,532.6 553.9,533.7 554.7,536.8 593.6,533.4 592.2,513.3
				591.3,487.1 572.1,475 569.8,474.4 563.9,472.3 561.7,465.2 			"/>
			<polyline class="st0" points="561.7,465.2 564.6,460.3 575.7,454.2 577.9,453.9 598.8,448.4 603.3,445.1 623.6,445.9
				623.8,457.6 618.3,466.4 591.3,487.1 572.1,475 569.8,474.4 563.9,472.3 561.7,465.2 			"/>
			<polyline class="st0" points="623.6,445.9 628.8,445.8 630.2,444.6 630.8,444 629.6,442.9 632.7,441.7 635.9,443.4 639.6,447.9
				638.8,450.4 639.6,453.1 637.7,459.4 629.2,470.6 627.1,479.7 627.1,484.6 624.5,486.9 623,487 622.6,488.4 624.5,490.3
				628.3,489.1 629.4,489.7 628.6,491.8 625.2,494.4 624.1,496.8 624.6,497.5 628,495.4 628.4,496.9 627,501.5 622.3,519.3
				622,524.7 621.1,524.6 621.3,519.4 617.6,515.3 618.2,509.9 617.3,508.4 616.7,509 615.9,511 612.2,514.7 607.5,518.3
				606.9,520.8 601.6,530.8 596.9,529 594.7,530.9 594.5,534.4 593.6,533.4 592.2,513.3 591.3,487.1 618.3,466.4 623.8,457.6
				623.6,445.9 			"/>
			<polygon class="st0" points="487.1,580.2 487.9,578 485.9,573.2 487.2,567.1 489.8,563.3 490.9,557.6 501.1,544.4 503.9,536.4
				510.2,538.7 509.7,543.8 515.4,550 523,542.2 528.4,539.9 531.3,537.2 533.5,537.2 537,538.9 537.3,540.9 539.2,542.4 540.8,546
				542.6,546 546.9,550.6 546.3,551.4 554.4,558.4 562.1,563 564.1,567.2 568.8,569.5 569.1,577.2 539.9,579.5 529.8,598.7
				533.3,603.5 532.4,605.6 532,616.4 519.5,605.9 517,602.6 491.6,582.8 			"/>
			<polygon class="st0" points="203.2,361.3 211,359.9 214.7,356.3 215.5,352 217.4,350.5 216.9,345.4 220.9,342.4 223.4,335.3
				225.4,333.9 231.1,338.2 232.8,337.4 240,342.3 244.2,341.4 253.1,343.9 256.3,345.5 264,335.8 274.8,337.9 282.7,347.3 281,353
				281,360.5 278.1,367.1 278.6,372.2 282.9,376.7 282.9,379.1 291.6,383.5 295.2,376.1 298.4,385.1 297.8,390 281.6,391
				270.3,399.5 269.8,409.2 264.9,414.4 263,420.7 261.9,422.3 259.7,438.4 257.4,437 255.2,437.9 251.7,434.5 251.7,433.3
				248.6,432.7 246,433.3 244.9,432.8 246.7,427 243.4,423.8 235.6,421.7 229.8,415.3 229.2,410.1 226.2,403.9 225.4,396.7
				218.7,390.8 215,393 212.4,391.4 210.6,385.1 204.3,378.9 201.5,369.8 			"/>
			<polygon class="st0" points="251.7,513.7 255.3,510 257.5,510 262.9,505.6 265.3,507.3 268.5,508.2 272.2,506 275.3,509.3
				276.1,519.3 277.7,518.7 280.4,516.4 281.6,517.2 285,517.7 287.9,513.7 295,511.6 296.1,507.9 295.3,506.8 292.8,506.5
				290.6,501.6 292.3,497.7 291.7,496.5 288,496.3 286,495.3 285.8,493.7 287.3,491.4 291.3,491.4 294.2,489.4 299.1,487.6
				307.1,485 309.1,481.9 307.2,475.8 312.3,467.9 315.6,465.7 318,463.4 317.1,459.7 318.5,457.7 318.1,452.8 319.4,451.2
				319.3,451.2 311.6,447.5 311.1,448.1 304,456.2 299.6,455 296.1,453.9 295.5,447.7 293.6,447.9 291.2,450.2 293.1,456.5
				295.2,458.8 294.6,461.4 290.9,464.5 286,464.8 285.5,469.4 283.8,469.4 271.7,465.8 271.9,459.5 275.4,458.3 276.5,455.4
				275.9,452.9 285.2,443.1 284.9,441 280.9,437.2 279.2,440.1 274.7,445.8 273.3,445 273.5,435.4 272.3,434.4 269.4,441
				268.3,439.6 269.7,431.9 267.3,430.2 265.8,434.1 267.2,437.3 259.4,440.2 257.9,445.4 259.6,449 262.7,452.7 261.7,458.4
				266,462.7 261.7,466.8 260.5,467 259.2,476.5 259,477 252.9,472.3 248.6,470 241,472.7 238.4,478.2 237.2,481 233,482.2
				229.1,483.7 229.9,486.3 232.5,493.7 244.4,510.1 			"/>
			<polygon class="st0" points="390.4,542.8 389.7,552.4 392.3,557.7 393.5,560 397.2,562.6 395.9,570.9 392.4,572.6 391.6,575.7
				392,577.1 386.5,580 393.5,582.4 399.2,585.9 404,587.6 418.9,588.1 420.1,590.1 424.3,592 431.6,594.9 436.1,594.1 456.4,586.3
				466.2,576.4 468.7,575.3 471.4,576.4 471,577.4 474.8,579.5 479.1,579.7 480.2,578.1 487.1,580.2 487.9,578 485.9,573.2
				487.2,567.1 489.8,563.3 490.9,557.6 491.6,556.8 473.7,556.9 465.5,555.9 464.6,552.7 460.5,550 460.8,546.8 459.7,545.7
				448.9,550.3 445.6,547.2 445.1,545 446.7,540.4 444.9,536.4 438.4,535 431.1,526.3 427.4,525.1 427.2,526.8 425.4,528.8
				424.1,532.8 418.7,536.6 413.9,536.4 409.8,539.9 407.8,539 405.5,534.5 404.9,533.3 403.5,533.7 402.7,537.4 403,540.4
				401,541.3 398.1,539.9 			"/>
			<polygon class="st0" points="369.8,503.7 367.9,511.2 369.3,513.4 372.8,515.3 375.9,515.3 375,508.4 373.5,505.3 			"/>
		</g>
		<g>
			<g>
				<polyline class="st1" points="561.2,465 559.9,475.1 561.7,486.6 557,492 557,499.1 555.3,502.8 545.7,510.6 542.6,513.7
					546.1,517.4 545.8,518.6 540.7,522.5 533.5,523.8 532.7,522.2 529.8,521.2 531,518.7 529.6,517.9 519.3,519.7 521.5,522.3
					525.8,522.4 526.2,522.4 527.6,526.7 528.5,530.7 534.2,534.7 538.5,534.3 540.8,531.4 545.7,532.3 553.4,533.4 554.2,536.4
					593.1,533.1 591.7,513 590.8,486.8 571.6,474.7 569.3,474.1 563.4,472.1 561.2,465 				"/>
				<polyline class="st1" points="561.2,465 564.1,460.1 575.2,454 577.4,453.7 598.2,448.2 602.8,444.8 623.1,445.7 623.2,457.3
					617.8,466.1 590.8,486.8 571.6,474.7 569.3,474.1 563.4,472.1 561.2,465 				"/>
				<polyline class="st1" points="623.1,445.7 628.2,445.6 629.6,444.4 630.2,443.8 629.1,442.7 632.1,441.5 635.4,443.2 639,447.7
					638.2,450.2 639,452.8 637.1,459.1 628.7,470.3 626.6,479.5 626.6,484.3 623.9,486.6 622.5,486.7 622,488.1 623.9,490.1
					627.7,488.9 628.8,489.5 628.1,491.5 624.6,494.1 623.6,496.5 624.1,497.2 627.5,495.2 627.9,496.6 626.4,501.2 621.8,519
					621.4,524.4 620.6,524.3 620.7,519.1 617,515 617.6,509.6 616.8,508.1 616.2,508.7 615.4,510.8 611.7,514.4 606.9,518
					606.3,520.5 601.1,530.5 596.3,528.7 594.2,530.6 594,534.1 593.1,533.1 591.7,513 590.8,486.8 617.8,466.1 623.2,457.3
					623.1,445.7 				"/>
			</g>
			<polyline class="st1" points="103.2,385.1 96.5,380 94.7,376.8 103.2,385.1 			"/>
			<polyline class="st1" points="88,297.9 88,299.4 89.8,306.1 95.1,311.7 96.5,316.4 100.5,320.3 102,320.9 102,324.3 103.4,327.4
				104.3,331.7 106.4,333.7 106.4,330.3 105.4,327.8 106,326.8 110.4,331.4 110.7,334.5 112.1,335.9 111.5,337.7 113.5,342
				114,346.2 112.6,349.1 116.4,357.1 119.5,359.2 120.3,364.7 124.2,372.3 125.6,376.1 124.3,383.2 125.8,388 131.5,391.8
				132.9,390.5 133.1,387.6 135.4,388.2 140.4,394.8 142.6,395.6 143.5,399.9 145.3,404 150.3,410.4 148.2,416.3 143.2,419.6
				140.6,422.1 139,422.5 135.5,418.8 132.8,407 129,403.7 124.9,401.2 113.1,389.3 104.2,380.6 103,380.6 102.4,377.6 101,378.6
				99,375.1 97.3,374.5 95.3,368.8 97.9,353.1 92.9,340.8 89.8,339.3 73.2,325.2 71.4,326 68.3,326.1 64,320.7 61.4,319.8 58.2,317
				52.5,314 51.3,311.6 42.4,300.3 43.2,299.8 49.5,301.4 54.6,300 56.9,302.7 59.5,303.3 62.9,304.7 63.5,302.9 62.6,302.1
				60.1,301.5 57.2,298.4 59.7,296.2 88,297.9 			"/>
			<polyline class="st1" points="56.9,207.6 56.3,206.2 51.2,202.1 50.6,199.2 52.2,192.9 55.8,189.7 59.6,191.6 130.2,223.3
				172.9,225.4 171.4,229.4 173.3,230.2 174.1,242.3 176.2,254.5 174.9,269.6 172.9,271.9 173.3,286.8 174.3,297.3 173.1,298.5
				165.7,296 163.1,298.9 165.8,306.6 170.1,313.6 171.6,316.1 171.7,324.7 174.8,328.5 167.5,335.8 157.6,342.8 157.2,337.7
				153.5,333 150.4,333.9 146.7,332.4 144.8,325.5 140.3,322.8 137.1,321.7 133,317.4 131.6,309.8 132.4,304.8 127.4,303.5
				126.4,304.1 125.8,304.7 122.5,302.7 118.9,299.1 115.8,292.5 108.7,286.5 106.5,284 106.5,281.2 101.8,275 101.3,269.7
				98.4,267.8 98.5,265 91.9,252.5 91.6,246.8 89.5,241.3 86.3,234.2 87.3,227.4 87.3,224.5 83.6,221.9 81,221.7 74.4,214.3
				71.5,212.9 68.1,214.8 61.3,209.9 56.9,207.6 			"/>
			<polyline class="st1" points="283.3,284 269.2,309.6 274.6,337.8 263.7,335.6 256.1,345.4 252.9,343.7 244,341.2 239.8,342.2
				232.6,337.3 230.9,338 225.2,333.7 223.2,335.2 220.7,342.3 218.2,343.9 216.8,345.3 217.2,350.4 215.3,351.8 214.5,356.1
				210.8,359.8 203.1,361.1 197,349.1 193.6,348.4 188.4,346.4 187.5,338 184.9,333.7 184.6,330.7 183.3,328.9 178.5,326.7
				174.8,328.5 171.7,324.7 171.6,316.1 170.1,313.6 165.8,306.6 163.1,298.9 165.7,296 173.1,298.5 174.3,297.3 173.3,286.8
				172.9,271.9 174.9,269.6 176.2,254.5 174.1,242.3 173.3,230.2 171.4,229.4 172.9,225.4 185.4,225.8 185.2,223.6 185.5,216.1
				219.3,216.8 224.6,222.9 229.2,227.2 236.7,234.8 241.9,239.6 250.3,245.8 252.6,252.6 254.9,256.1 255.3,263.2 259.9,270.6
				263.4,272.2 267.9,276.3 271.4,276.6 275.8,280.1 278.4,280.7 283.3,284 			"/>
			<polyline class="st1" points="354.6,312.8 349.4,304.5 345,301.5 344.2,298.9 336.5,282.1 328.8,273.7 319.5,266.1 312.4,265.8
				303.8,263.6 301.2,265.9 298.4,266.2 294.8,268.6 292.2,275.5 286.3,283.7 283.3,284 269.2,309.6 274.6,337.8 282.4,347.2
				280.6,353.5 280.8,360.4 277.9,366.9 278.4,372 282.7,376.6 282.7,378.9 291.3,383.3 294.9,376 299.4,374.1 308.6,375.4
				316.4,380.8 317,382.5 321.8,382.4 325.6,382.7 331.5,388.1 333.8,387.7 334.6,381.7 335.7,378.8 334,377.2 334.5,374.9
				341.4,372.3 342.6,370.3 340.7,366.9 334.4,360.6 333.6,355.2 330,350.8 328.1,349.6 326.1,345.6 333.7,338.6 335.4,339.5
				338.4,336 339.6,331.7 338.2,329.8 335.9,329.8 334.4,327.2 335,324.9 341.5,321.3 343.1,316 346.5,313.4 350.2,316.3
				354.6,312.8 			"/>
			<polyline class="st1" points="10.5,183.5 58.2,184.8 55.8,189.7 52.2,192.9 50.6,199.2 51.2,202.1 56.3,206.2 56.9,207.6
				56.4,207.3 54.4,206.9 51.6,221.7 52.2,225.1 53.7,227.8 55,246.9 58.2,253 61.2,255.8 69.4,264.9 74.4,273.4 74.7,276 79,277.5
				81.6,286.8 86.3,289.6 87.2,294.5 88,296.5 88,297.9 59.7,296.2 60.3,293.5 61,289.3 63.1,285 57.2,277.2 53,272.2 43.7,261.7
				39.8,258.7 32.1,251.8 32.1,249.5 30.5,247.1 30.6,239.3 26.7,235.4 26,225.4 22.5,222.5 22.1,216.8 18.7,211.1 17.3,208.4
				17,205.5 18.8,201.9 17.4,199.2 14.9,197.8 13.3,192.1 10.1,186.4 10.7,184.1 10.4,183.4 10.5,183.5 			"/>
			<polyline class="st1" points="333.8,387.7 334.6,381.7 335.7,378.8 334,377.2 334.5,374.9 341.4,372.3 342.6,370.3 340.7,366.9
				334.4,360.6 333.6,355.2 330,350.8 328.1,349.6 326.1,345.6 333.7,338.6 335.4,339.5 338.4,336 339.6,331.7 338.2,329.8
				335.9,329.8 334.4,327.2 335,324.9 341.5,321.3 343.1,316 346.5,313.4 350.2,316.3 354.6,312.8 355.9,314.8 352.6,319.1
				353.2,321.4 356.1,322.6 356.4,327.3 356.5,333 359.4,334.7 359.9,338.1 363.7,339.6 364,344.9 367.5,346.7 369.1,351
				371.2,351.3 374.8,353.7 379.1,352.5 380.6,354 380.7,361.3 383.3,366.2 381.2,369.7 374,375.6 372,374.8 370,375.3 368.9,382
				366,382.6 359.5,386.3 358.1,388.5 360.3,390.6 360,397.5 362.5,402.4 358.7,406.4 355.2,407 353.8,409 353.8,414.4 350.9,414.4
				349.6,418.7 346.8,418.4 343.9,419.7 342.1,418.6 342.4,407.4 339.4,403.4 339.6,396.9 333.8,387.7 			"/>
			<polyline class="st1" points="400.1,390.8 399,396 398.9,410 399.6,422 399.6,427.1 396.9,433.1 398.4,439 389.4,436.4
				387.1,437.8 382.6,437.6 376,439 368.3,436 365.4,431.8 363.2,431.2 360.6,432.8 350.7,428.2 353.3,424.4 353.3,422.7
				349.6,418.7 350.9,414.4 353.8,414.4 353.8,409 355.2,407 358.7,406.4 362.5,402.4 360,397.5 360.3,390.6 358.1,388.5
				359.5,386.3 366,382.6 368.9,382 370,375.3 372,374.8 374,375.6 381.2,369.7 383.3,366.2 380.7,361.3 380.6,354 379.1,352.5
				374.8,353.7 371.2,351.3 369.1,351 367.5,346.7 364,344.9 363.7,339.6 359.9,338.1 359.4,334.7 356.5,333 356.4,327.3
				356.1,322.6 353.2,321.4 352.6,319.1 355.9,314.8 359.4,316.1 360.9,318.6 360.1,321.8 362.4,326.1 362.1,329 367,337.8
				369.7,344.3 375.7,345.6 379.1,348.5 385.4,349.6 390,352.7 400.3,353.5 404.9,356 409.1,353.8 			"/>
			<polyline class="st1" points="408.6,354.1 410.2,356.9 406.6,369.4 403.2,376.2 400,391 			"/>
			<polyline class="st1" points="400.9,448.5 398.4,439 389.4,436.4 387.1,437.8 382.6,437.6 386.5,441.8 386.4,443.5 383.3,447.6
				384.7,451.5 382.2,455.3 383.9,457.3 384.2,461.3 386.3,465.8 387.7,466.6 389.6,466 392.1,468 390.7,474 386.6,474 384.6,476
				385.4,478.6 384.5,482.1 385.1,484 385.9,484.9 391.9,480.3 393.8,478.3 395.2,479.7 394.7,482.9 396.7,481.7 398.3,475.3
				400.1,474.5 401.5,475.9 401.7,477.7 405.9,480.2 405.1,482.4 401.6,483 401.6,487.1 405.1,489.6 409.3,487.3 413.9,489.5
				414.7,490.4 411.7,494.7 411.7,499.8 408.9,502.8 412.1,507.5 416.7,510.4 417.2,511.2 413.3,513.2 415.1,519.4 412.2,520
				412.2,522.9 416.8,525.1 417.3,527.5 421.6,526.9 422.8,526.5 425,528.5 426.8,526.5 427.1,524.8 430.8,526 438,534.7
				444.6,536.1 446.3,540.1 444.7,544.7 445.3,546.9 448.5,550 459.3,545.4 460.4,546.4 460.1,549.6 464.2,552.4 465.1,555.6
				473.3,556.5 491.2,556.4 495,552.1 496.2,550.5 495,548.7 495,548.2 491.3,543.3 488,541.6 485.1,539.2 485.5,536.8 483.8,532.5
							"/>
			<polyline class="st1" points="483.8,532.5 477.7,535.5 473.1,533.7 468.2,526.5 464.8,525.6 459.9,522.5 446.5,521.8 443,519
				436.3,511 431.1,499.3 423.6,489.1 412.6,473.8 407.7,462 406.7,460.8 403.4,457.1 400.9,448.5 			"/>
			<polyline class="st1" points="349.6,418.7 353.3,422.7 353.3,424.4 350.7,428.2 360.6,432.8 363.2,431.2 365.4,431.8 368.3,436
				376,439 382.6,437.6 386.5,441.8 386.4,443.5 383.3,447.6 384.7,451.5 382.2,455.3 383.9,457.3 384.2,461.3 382,465.9
				377.7,466.5 375.7,464.7 372.2,463.3 370.6,459.1 367.9,456.3 363.1,460.3 358.5,458.4 356.3,460.4 342.8,455.7 338.6,459.4
				335.9,458.3 330.1,453.5 327,453.5 324.2,451.3 319.2,450.8 322.4,446.6 322.3,442.3 323.5,436.4 322.3,433.5 319.2,433.3
				315.1,436.8 314.1,436.8 304.5,426.9 304.2,422.4 302.8,419.5 305.3,415.8 306.9,415.5 315.3,409 324.5,400.7 327.6,396.1
				333.8,387.7 339.6,396.9 339.4,403.4 342.4,407.4 342.1,418.6 343.9,419.7 346.8,418.4 349.6,418.7 			"/>
			<polyline class="st1" points="294.9,376 298.1,384.9 297.5,389.8 281.3,390.8 270,399.3 269.6,409 264.7,414.2 262.8,420.5
				261.7,422.1 259.5,438.2 259.2,439.9 267,437 265.5,433.8 267.1,429.9 269.5,431.5 268,439.3 269.2,440.7 272.1,434 273.3,435.1
				273,444.6 274.4,445.4 279,439.7 280.6,436.9 284.7,440.7 284.9,442.7 275.6,452.6 276.2,455.1 275.2,457.9 271.7,459.1
				271.5,465.4 283.6,469 285.3,469 285.7,464.5 290.6,464.1 294.3,461 294.9,458.4 292.9,456.1 291,449.8 293.4,447.6 295.3,447.3
				295.9,445.6 294.8,442.7 295.1,441 298.6,439.7 301.5,436.9 307.2,441.5 307.9,443.8 310.8,447.7 311.3,447.1 319.1,450.8
				319.2,450.8 322.4,446.6 322.3,442.3 323.5,436.4 322.3,433.5 319.2,433.3 315.1,436.8 314.1,436.8 304.5,426.9 304.2,422.4
				302.8,419.5 305.3,415.8 306.9,415.5 315.3,409 324.5,400.7 327.6,396.1 333.8,387.7 331.5,388.1 325.6,382.7 321.8,382.4
				317,382.5 316.4,380.8 308.6,375.4 299.4,374.1 294.9,376 			"/>
			<polyline class="st1" points="203.1,361.1 210.8,359.8 214.5,356.1 215.3,351.8 217.2,350.4 216.8,345.3 218.2,343.9
				220.7,342.3 223.2,335.2 225.2,333.7 230.9,338 232.6,337.3 239.8,342.2 244,341.2 252.9,343.7 256.1,345.4 263.7,335.6
				274.6,337.8 282.4,347.2 280.6,353.5 280.8,360.4 277.9,366.9 278.4,372 282.7,376.6 282.7,378.9 291.3,383.3 294.9,376
				298.1,384.9 297.5,389.8 281.3,390.8 270,399.3 269.6,409 264.7,414.2 262.8,420.5 261.7,422.1 259.5,438.2 257.2,436.8
				254.9,437.7 251.5,434.3 251.5,433.1 248.4,432.5 245.8,433.1 244.7,432.6 245.4,430.1 246.5,426.8 243.2,423.6 235.4,421.5
				229.6,415.1 229,409.9 226,403.7 225.2,396.5 218.5,390.6 214.9,392.9 212.2,391.2 210.5,384.9 204.1,378.7 201.3,369.7
				203.1,361.1 			"/>
			<polyline class="st1" points="231.3,434.5 228.4,433.9 224.6,428.2 222.2,425.9 222.8,424.5 209.6,410.6 203.2,400.5
				200.9,396.4 194.9,393.5 191.4,386.6 187.6,386.6 183.3,382 183,378.8 181.3,375.6 181.3,373.8 175.6,370.1 171.4,367
				167.4,363.1 165.5,361.1 164.1,363.1 156.6,359 155.5,358.7 155.5,356.7 153.4,352.4 154.8,348.4 157.9,344.6 157.6,342.8
				167.5,335.8 174.8,328.5 178.5,326.7 183.3,328.9 184.6,330.7 184.9,333.7 187.5,338 188.4,346.4 193.6,348.4 197,349.1
				203.1,361.1 201.3,369.7 204.1,378.7 210.5,384.9 212.2,391.2 214.9,392.9 218.5,390.6 225.2,396.5 226,403.7 229,409.9
				229.6,415.1 235.4,421.5 234.2,423 234.6,425.5 232,428.2 234.1,431.8 233.5,433.5 231.3,434.5 			"/>
			<polyline class="st1" points="231.3,434.5 233.5,433.5 234.1,431.8 232,428.2 234.6,425.5 234.2,423 235.4,421.5 243.2,423.6
				246.5,426.8 245.4,430.1 244.7,432.6 245.8,433.1 248.4,432.5 251.5,433.1 251.5,434.3 254.9,437.7 257.2,436.8 259.5,438.2
				259.2,439.9 257.7,445.1 259.3,448.7 262.4,452.3 261.5,458.1 265.8,462.3 261.5,466.4 260.3,466.6 259,476.1 258.7,476.6
				252.7,472 248.4,469.6 240.8,472.3 238.2,477.8 233.9,474.9 232.2,474.5 233.3,472.2 237.3,468.9 238.6,465 239.5,459.2
				234.6,455.4 230.2,445.1 230.7,442.7 233.4,445.2 234.2,444.4 230.9,439.4 231.3,434.5 			"/>
			<polyline class="st1" points="251.5,513.2 255.1,509.6 257.3,509.6 262.7,505.2 265.1,506.9 268.3,507.8 272,505.6 275,508.8
				275.9,518.8 277.4,518.2 280.2,516 281.3,516.8 284.8,517.3 287.7,513.2 294.8,511.2 295.9,507.5 295,506.3 292.5,506.1
				290.4,501.2 292.1,497.3 291.5,496.1 287.8,495.9 285.7,494.9 285.5,493.3 287.1,491 291.1,491 294,489 298.8,487.2 306.8,484.6
				308.8,481.5 306.9,475.4 312,467.6 315.4,465.3 317.7,463 316.8,459.4 318.2,457.3 317.9,452.5 319.2,450.8 319.1,450.8
				311.3,447.1 310.8,447.7 303.7,455.8 299.3,454.6 295.9,453.5 295.3,447.3 293.4,447.6 291,449.8 292.9,456.1 294.9,458.4
				294.3,461 290.6,464.1 285.7,464.5 285.3,469 283.6,469 271.5,465.4 271.7,459.1 275.2,457.9 276.2,455.1 275.6,452.6
				284.9,442.7 284.7,440.7 280.6,436.9 279,439.7 274.4,445.4 273,444.6 273.3,435.1 272.1,434 269.2,440.7 268,439.3 269.5,431.5
				267.1,429.9 265.5,433.8 267,437 259.2,439.9 257.7,445.1 259.3,448.7 262.4,452.3 261.5,458.1 265.8,462.3 261.5,466.4
				260.3,466.6 259,476.1 258.7,476.6 252.7,472 248.4,469.6 240.8,472.3 238.2,477.8 237,480.7 232.8,481.8 228.9,483.3
				229.7,485.9 232.3,493.3 244.2,509.7 251.5,513.2 			"/>
			<polyline class="st1" points="306.8,484.6 308.8,481.5 306.9,475.4 312,467.6 315.4,465.3 317.7,463 316.8,459.4 318.2,457.3
				317.9,452.5 319.2,450.8 324.2,451.3 327,453.5 330.1,453.5 335.9,458.3 338.6,459.4 342.8,455.7 356.3,460.4 358,464.1
				356.8,466.1 352.5,466.7 351.5,468.4 348.9,471.8 342.4,472.6 339.3,477.9 341.3,480.5 345.3,490.5 343.4,494.2 340.9,496.2
				337.5,494.8 334,496 331.8,493.7 328.2,492.1 323.5,493.5 321.9,492.7 320.5,488.1 318.2,486.5 315.6,488.7 311.9,489.3
				309.7,488.5 309.4,486.5 306.8,484.6 			"/>
			<polyline class="st1" points="310.8,447.7 303.7,455.8 299.3,454.6 295.9,453.5 295.3,447.3 295.9,445.6 294.8,442.7 295.1,441
				298.6,439.7 301.5,436.9 307.2,441.5 307.9,443.8 310.8,447.7 			"/>
			<polyline class="st1" points="349.6,495.4 353.1,491 353.3,489.2 355.9,488.4 356.5,485.8 356.5,482.4 360.9,479.9 361.8,478.9
				361.8,475.7 366.4,471.1 367.4,466.9 372.8,466.1 372.2,463.3 370.6,459.1 367.9,456.3 363.1,460.3 358.5,458.4 356.3,460.4
				358,464.1 356.8,466.1 352.5,466.7 351.5,468.4 348.9,471.8 342.4,472.6 339.3,477.9 341.3,480.5 345.3,490.5 349.6,495.4 			"/>
			<polyline class="st1" points="384.2,461.3 386.3,465.8 387.7,466.6 389.6,466 392.1,468 390.7,474 386.6,474 384.6,476
				385.4,478.6 384.5,482.1 385.1,484 385.9,484.9 391.9,480.3 393.8,478.3 395.2,479.7 394.7,482.9 392.7,486.4 393.9,490.9
				391.4,495.2 392.3,500.6 388.9,501.1 388,502.3 382.5,502.7 382.6,501 381.2,497.9 377.1,497.9 375.2,497.3 375.2,493.9
				373.8,493 368.9,494.2 367.1,498.1 355.9,488.4 356.5,485.8 356.5,482.4 360.9,479.9 361.8,478.9 361.8,475.7 366.4,471.1
				367.4,466.9 372.8,466.1 372.2,463.3 375.7,464.7 377.7,466.5 382,465.9 384.2,461.3 			"/>
			<polyline class="st1" points="425,528.5 423.7,532.5 418.4,536.3 413.5,536.1 409.5,539.5 407.4,538.7 405.2,534.2 404.6,533
				403.2,533.4 402.3,537 402.7,540.1 400.7,541 397.8,539.5 390.1,542.5 387.5,540.6 380.9,540.4 374.6,534.7 374.4,532.4
				377.1,529.8 382,528.9 381.2,525 382.2,523.2 381.6,521 382.3,518.2 382.5,517.5 382.7,506.7 385.8,507.4 389.8,512.3
				392.9,514.6 396.1,512.3 398.4,511.9 404.9,509.1 403.9,507.9 399.8,506.2 399.7,503.9 398,502.2 392.3,500.6 391.4,495.2
				393.9,490.9 392.7,486.4 394.7,482.9 396.7,481.7 398.3,475.3 400.1,474.5 401.5,475.9 401.7,477.7 405.9,480.2 405.1,482.4
				401.6,483 401.6,487.1 405.1,489.6 409.3,487.3 413.9,489.5 414.7,490.4 411.7,494.7 411.7,499.8 408.9,502.8 412.1,507.5
				416.7,510.4 417.2,511.2 413.3,513.2 415.1,519.4 412.2,520 412.2,522.9 416.8,525.1 417.3,527.5 421.6,526.9 422.8,526.5
				425,528.5 			"/>
			<polyline class="st1" points="382.5,502.7 388,502.3 388.9,501.1 392.3,500.6 398,502.2 399.7,503.9 399.8,506.2 403.9,507.9
				404.9,509.1 398.4,511.9 396.1,512.3 392.9,514.6 389.8,512.3 385.8,507.4 382.7,506.7 382.1,505.9 382.5,502.7 			"/>
			<polyline class="st1" points="369.5,503.4 367.6,510.9 369,513.1 372.5,515 375.6,515 374.7,508.1 373.2,505 369.5,503.4 			"/>
			<polyline class="st1" points="363.1,524.2 365.4,528 367.7,529.4 369.7,527.6 371.2,528 374.4,532.4 377.1,529.8 382,528.9
				381.2,525 382.2,523.2 381.6,521 382.3,518.2 377.6,516.7 375.6,515 372.5,515 369,513.1 367,515.6 367.1,518.8 363.1,524.2
				"/>
			<polyline class="st1" points="375.6,515 374.7,508.1 373.2,505 369.5,503.4 367.6,510.9 369,513.1 367,515.6 367.1,518.8
				363.1,524.2 359.4,523.4 355.9,526.3 352.2,526.3 347,531 345.2,530.7 341.2,521.3 340,520.7 347.2,509.2 349.3,506.7
				349.7,498.6 350.9,497 349.6,495.4 353.1,491 353.3,489.2 355.9,488.4 367.1,498.1 368.9,494.2 373.8,493 375.2,493.9
				375.2,497.3 377.1,497.9 381.2,497.9 382.6,501 382.5,502.7 382.1,505.9 382.7,506.7 382.5,517.5 382.3,518.2 377.6,516.7
				375.6,515 			"/>
			<polyline class="st1" points="305.3,542.2 306.7,536.6 312.4,534.2 311.4,529.9 314.1,528.1 320.6,530.7 328,528.8 331.8,530.9
				332.9,530.3 338.1,531.1 335.7,523.6 336.3,520.7 336.9,521.3 338,522.2 340,520.7 341.2,521.3 345.2,530.7 347,531 352.2,526.3
				355.9,526.3 359.4,523.4 363.1,524.2 365.4,528 367.7,529.4 369.7,527.6 371.2,528 374.4,532.4 374.6,534.7 380.9,540.4
				387.5,540.6 390.1,542.5 389.4,552 392,557.4 393.2,559.6 396.9,562.3 395.5,570.6 392.1,572.3 391.3,575.3 391.6,576.8
				386.1,579.6 380.4,574.6 376.2,574.6 367.8,572.5 358.2,570 353.2,565.5 348.1,564.9 328.7,557.4 316,548.1 310.1,542.2
				307,541.4 305.3,542.2 			"/>
			<polyline class="st1" points="305.3,542.2 306.7,536.6 312.4,534.2 311.4,529.9 314.1,528.1 320.6,530.7 328,528.8 331.8,530.9
				332.9,530.3 338.1,531.1 335.7,523.6 336.3,520.7 336.9,521.3 338,522.2 340,520.7 347.2,509.2 349.3,506.7 349.7,498.6
				350.9,497 349.6,495.4 345.3,490.5 343.4,494.2 340.9,496.2 337.5,494.8 334,496 331.8,493.7 328.2,492.1 323.5,493.5
				321.9,492.7 320.5,488.1 318.2,486.5 315.6,488.7 311.9,489.3 309.7,488.5 309.4,486.5 306.8,484.6 298.8,487.2 294,489
				291.1,491 287.1,491 285.5,493.3 285.7,494.9 287.8,495.9 291.5,496.1 292.1,497.3 290.4,501.2 292.5,506.1 295,506.3
				295.9,507.5 294.8,511.2 287.7,513.2 284.8,517.3 281.3,516.8 280.2,516 277.4,518.2 275.9,518.8 273.5,519.7 269.6,525.4
				275.9,533.1 303.2,542.9 305.3,542.2 			"/>
			<polyline class="st1" points="275.9,518.8 275,508.8 272,505.6 268.3,507.8 265.1,506.9 262.7,505.2 257.3,509.6 255.1,509.6
				251.5,513.2 255.1,515 267,522.1 269.6,525.4 273.5,519.7 275.9,518.8 			"/>
			<polyline class="st1" points="390.1,542.5 389.4,552 392,557.4 393.2,559.6 396.9,562.3 395.5,570.6 392.1,572.3 391.3,575.3
				391.6,576.8 386.1,579.6 393.2,582 398.9,585.6 403.6,587.2 418.5,587.7 419.7,589.7 424,591.6 431.2,594.5 435.8,593.8
				456,585.9 465.8,576.1 468.3,575 471,576.1 470.6,577 474.4,579.2 478.7,579.4 479.8,577.7 486.7,579.9 487.5,577.6 485.5,572.8
				486.8,566.8 489.4,563 490.5,557.3 491.2,556.4 473.3,556.5 465.1,555.6 464.2,552.4 460.1,549.6 460.4,546.4 459.3,545.4
				448.5,550 445.3,546.9 444.7,544.7 446.3,540.1 444.6,536.1 438,534.7 430.8,526 427.1,524.8 426.8,526.5 425,528.5 423.7,532.5
				418.4,536.3 413.5,536.1 409.5,539.5 407.4,538.7 405.2,534.2 404.6,533 403.2,533.4 402.3,537 402.7,540.1 400.7,541
				397.8,539.5 390.1,542.5 			"/>
			<polyline class="st1" points="483.8,532.5 493.9,527.6 503,525.7 504.7,526.7 508.4,524.9 515.3,522.3 519.3,519.7 521.5,522.3
				525.8,522.4 526.2,522.4 527.6,526.7 528.5,530.7 534.2,534.7 538.5,534.3 540.8,531.4 545.7,532.3 553.4,533.4 554.2,536.4
				554.6,549.1 546.4,550.2 542.1,545.7 540.3,545.7 538.8,542 536.9,540.6 536.5,538.6 533.1,536.9 530.8,536.9 527.9,539.5
				522.6,541.9 515,549.6 509.3,543.5 509.7,538.3 503.4,536.1 500.7,544.1 496.2,550.5 495,548.7 495,548.2 491.3,543.3 488,541.6
				485.1,539.2 485.5,536.8 483.8,532.5 			"/>
			<polyline class="st1" points="546.4,550.2 545.8,551.1 553.9,558.1 561.6,562.6 563.6,566.9 568.3,569.2 568.6,576.9
				539.5,579.2 529.4,598.3 532.8,603.2 532,605.2 531.5,611.5 531.5,616 519,605.6 516.5,602.2 500.2,590 491.7,582.7 486.7,579.9
				487.5,577.6 485.5,572.8 486.8,566.8 489.4,563 490.5,557.3 491.2,556.4 495,552.1 496.2,550.5 500.7,544.1 503.4,536.1
				509.7,538.3 509.3,543.5 515,549.6 522.6,541.9 527.9,539.5 530.8,536.9 533.1,536.9 536.5,538.6 536.9,540.6 538.8,542
				540.3,545.7 542.1,545.7 546.4,550.2 			"/>
			<path class="st2" d="M546.4,550.2l-0.6,0.8l8.1,7l7.7,4.5l2,4.3l4.6,2.3l0.4,7.7l-29.1,2.3l-10.1,19.2l3.4,4.9l-0.8,2l-0.5,6.3
				v4.5L519,605.5l-2.5-3.3L500.2,590l-8.6-7.3l-5-2.9l0.8-2.3l-2-4.8l1.3-6.1l2.6-3.8l1.1-5.7l0.7-0.8l3.8-4.3l1.2-1.7l4.5-6.4
				l2.7-8l6.3,2.3l-0.5,5.1l5.7,6.2l7.6-7.7l5.4-2.4l2.9-2.6h2.3l3.5,1.7l0.4,2l1.9,1.4l1.5,3.7h1.8L546.4,550.2z M483.8,532.5
				l10.1-4.9l9-1.9l1.8,1l3.7-1.8l6.9-2.6l3.9-2.6l2.3,2.6l4.3,0.1h0.4l1.4,4.3l1,4l5.7,3.9l4.3-0.4l2.3-2.9l4.9,0.8l7.7,1.1
				l0.8,3.1l0.4,12.6l-8.2,1.2l-4.3-4.5h-1.8l-1.5-3.7l-1.9-1.4l-0.4-2l-3.5-1.7h-2.3l-2.9,2.6l-5.4,2.4l-7.6,7.7l-5.7-6.2l0.5-5.1
				l-6.3-2.3l-2.7,8l-4.5,6.4l-1.2-1.8V548l-3.7-4.9l-3.3-1.8l-2.9-2.4l0.4-2.4L483.8,532.5z M390.1,542.5l-0.7,9.5l2.6,5.4l1.2,2.3
				l3.7,2.6l-1.3,8.3l-3.5,1.7l-0.8,3.1l0.4,1.4l-5.5,2.9l7,2.4l5.7,3.6l4.8,1.7l14.9,0.5l1.2,2l4.3,1.9l7.3,2.9l4.5-0.7l20.2-7.9
				l9.9-9.9l2.5-1.1l2.6,1.1l-0.4,1l3.8,2.1l4.3,0.2l1.1-1.7l6.9,2.1l0.8-2.3l-2-4.8l1.3-6.1l2.6-3.8l1.1-5.7l0.7-0.8l-17.8,0.1
				l-8.2-0.9l-0.9-3.2l-4-2.7l0.2-3.2l-1.1-1.1l-10.8,4.6l-3.2-3.1l-0.6-2.3l1.7-4.5l-1.8-4l-6.5-1.4L431,526l-3.7-1.2l-0.2,1.7
				l-1.8,2l-1.3,4l-5.4,3.8l-4.9-0.2l-4,3.5l-2-0.8l-2.3-4.5l-0.8-1.3l-1.4,0.4l-0.8,3.7l0.4,3.1l-2,0.8l-2.9-1.4L390.1,542.5z
				 M275.9,518.8l-0.8-10l-3.1-3.2l-3.7,2.1l-3.2-0.8l-2.4-1.8l-5.4,4.4H255l-3.6,3.7l3.6,1.8l11.9,7l2.6,3.3l3.9-5.7L275.9,518.8z
				 M305.3,542.2l1.4-5.6l5.7-2.4l-1-4.3l2.6-1.8l6.5,2.6l7.4-1.9l3.8,2l1.1-0.6l5.2,0.8l-2.4-7.5l0.6-2.9l0.6,0.6l1.1,0.8l2-1.4
				l7.3-11.5l2-2.5l0.5-8.1l1.2-1.7l-1.3-1.5l-4.3-4.9l-1.9,3.7l-2.5,2l-3.5-1.4l-3.4,1.2l-2.3-2.3l-3.6-1.7l-4.8,1.4l-1.5-0.8
				l-1.4-4.5l-2.3-1.7l-2.6,2.3l-3.7,0.6l-2.3-0.8l-0.2-2l-2.6-1.9l-8,2.6l-4.9,1.8l-2.9,2h-4l-1.5,2.3l0.2,1.7l2,1l3.7,0.2l0.6,1.2
				l-1.7,3.9l2.1,4.9l2.5,0.2l0.8,1.2l-1.1,3.7l-7.1,2l-2.9,4l-3.4-0.5l-1.2-0.8l-2.7,2.3l-1.5,0.6l-2.4,0.8l-3.9,5.7l6.3,7.7
				l27.4,9.8L305.3,542.2z M305.3,542.2l1.4-5.6l5.7-2.4l-1-4.3l2.6-1.8l6.5,2.6l7.4-1.9l3.8,2l1.1-0.6l5.2,0.8l-2.4-7.5l0.6-2.9
				l0.6,0.6l1.1,0.8l2-1.4l1.2,0.6l4,9.4l1.8,0.2l5.2-4.6h3.7l3.4-3l3.7,0.8l2.4,3.8l2.3,1.4l2-1.8l1.4,0.4l3.2,4.4l0.2,2.3l6.3,5.7
				l6.5,0.2l2.6,1.9l-0.7,9.5l2.6,5.4l1.2,2.3l3.7,2.6l-1.3,8.3l-3.5,1.7l-0.8,3.1l0.4,1.4l-5.5,2.9l-5.7-5h-4.3l-8.3-2.1l-9.6-2.5
				l-5-4.5l-5.1-0.6l-19.4-7.5l-12.7-9.3l-5.8-5.9l-3.1-0.7L305.3,542.2z M375.6,515l-0.8-6.9l-1.5-3.1l-3.7-1.7l-1.9,7.5l1.4,2.3
				l-2,2.5l0.1,3.2l-4,5.4l-3.7-0.8l-3.4,3h-3.7l-5.2,4.6l-1.8-0.2l-4-9.4l-1.2-0.6l7.3-11.5l2-2.5l0.5-8.1l1.2-1.7l-1.3-1.5
				l3.4-4.4l0.2-1.8l2.6-0.8l11.2,9.8l1.8-3.9l4.9-1.2l1.4,0.8v3.4l1.9,0.6h4l1.4,3.1l-0.1,1.7l-0.4,3.2l0.6,0.8l-0.2,10.8l-0.1,0.7
				l-4.8-1.5L375.6,515z M363.1,524.2l2.4,3.8l2.3,1.4l2-1.8l1.4,0.4l3.2,4.4l2.7-2.6l4.9-0.8l-0.8-3.9l1.1-1.8l-0.7-2.3l0.7-2.7
				l-4.8-1.5l-2-1.7h-3.1l-3.4-1.9l-2,2.5l0.1,3.2L363.1,524.2z M369.5,503.4l-1.9,7.5l1.4,2.3l3.4,1.9h3.1l-0.8-6.9l-1.5-3.1
				L369.5,503.4z M382.5,502.7l5.6-0.4l0.8-1.2l3.5-0.5l5.7,1.5l1.7,1.7l0.1,2.4l4,1.7l1.1,1.2l-6.5,2.9l-2.3,0.4l-3.2,2.3l-3.1-2.3
				l-4-4.9l-3.1-0.7l-0.6-0.8L382.5,502.7z M425,528.5l-1.3,4l-5.4,3.8l-4.9-0.2l-4,3.5l-2-0.8l-2.3-4.5l-0.5-1.3l-1.4,0.4l-0.8,3.7
				l0.4,3.1l-2,0.8l-2.9-1.4l-7.7,3l-2.6-1.9l-6.5-0.2l-6.3-5.7l-0.2-2.3l2.7-2.6l4.9-0.8l-0.8-3.9l1.1-1.8l-0.9-2.4l0.7-2.7
				l0.1-0.7l0.2-10.8l3.1,0.7l4,4.9l3.1,2.3l3.2-2.3l2.3-0.4l6.5-2.9l-1.1-1.2l-4-1.7l-0.1-2.4l-1.7-1.7l-5.7-1.5l-1-5.5l2.5-4.3
				l-1.2-4.5l2-3.5l2-1.2l1.5-6.4l1.8-0.8l1.4,1.4l0.2,1.8l4.2,2.5l-0.8,2.3l-3.2,0.6v4l3.4,2.5l4.3-2.3l4.5,2.1l0.8,1l-3,4.3v5.1
				l-2.9,3l3.2,4.8l4.6,2.9l0.5,0.8l-3.9,2l1.8,6.2L412,520v2.9l4.6,2.3l0.5,2.4l4.3-0.6l1.2-0.5L425,528.5z M384.2,461.3l2,4.5
				l1.4,0.8l1.9-0.6l2.5,2l-1.4,6h-4l-2,2l0.8,2.6l-1,3.4l0.6,1.9l0.8,1l5.9-4.6l1.9-2l1.4,1.4l-0.5,3.2l-2,3.5l1.2,4.5l-2.5,4.3
				l1,5.5l-3.5,0.5l-0.8,1.2l-5.6,0.4l0.1-1.7L381,498h-4l-1.9-0.6V494l-1.4-0.8l-4.9,1.2l-1.8,3.9l-11.2-9.8l0.6-2.6v-3.3l4.4-2.5
				l0.8-1.1v-3.2l4.6-4.5l1-4.3l5.5-0.7l-0.6-2.9l3.5,1.4l2,1.8l4.3-0.6L384.2,461.3z M349.6,495.4l3.4-4.4l0.2-1.8l2.6-0.8l0.6-2.6
				v-3.3l4.4-2.5l0.8-1.1v-3.2l4.6-4.5l1-4.3l5.5-0.7l-0.6-2.9l-1.7-4.2l-2.6-2.9l-4.9,4l-4.5-1.9l-2.3,2l1.7,3.7l-1.2,2l-4.3,0.6
				l-1,1.7l-2.6,3.4l-6.5,0.7l-3.1,5.4l2,2.6l4,10L349.6,495.4z M310.8,447.7l-7.1,8.1l-4.4-1.2l-3.5-1.1l-0.6-6.2l0.6-1.8l-1.1-2.9
				l0.4-1.7l3.5-1.3l2.9-2.9l5.7,4.6l0.7,2.3L310.8,447.7z M306.8,484.6l2-3.1l-1.9-6.1l5.1-7.8l3.3-2.3l2.4-2.3l-0.9-3.7l1.4-2
				l-0.4-4.9l1.3-1.7l5,0.5l2.9,2.3h3.1l5.8,4.8l2.6,1.1l4.3-3.7l13.4,4.8l1.7,3.7l-1.2,2l-4.3,0.6l-1,1.7l-2.6,3.4l-6.5,0.7
				l-3.1,5.4l2,2.6l4,10l-1.9,3.7l-2.5,2l-3.5-1.4l-3.4,1.2l-2.3-2.3l-3.6-1.7l-4.8,1.4l-1.5-0.8l-1.4-4.5l-2.3-1.7l-2.6,2.3
				l-3.7,0.6l-2.3-0.8l-0.2-2L306.8,484.6z M251.5,513.2l3.6-3.7h2.3l5.4-4.4l2.4,1.8l3.2,0.8l3.7-2.1l3.1,3.2l0.8,10l1.5-0.6
				l2.7-2.3l1.2,0.8l3.4,0.5l2.9-4l7.1-2l1.1-3.7l-0.8-1.2l-2.5-0.2l-2.1-4.9l1.7-3.9l-0.6-1.2l-3.7-0.2l-2-1l-0.2-1.7l1.5-2.3h4
				l2.9-2l4.9-1.8l8-2.6l2-3.1l-1.9-6.1l5.1-7.8l3.3-2.3l2.4-2.3l-0.9-3.7l1.4-2l-0.4-4.9l1.3-1.7h-0.1l-7.7-3.7l-0.5,0.6l-7.1,8.1
				l-4.4-1.2l-3.5-1.1l-0.6-6.2l-1.9,0.2l-2.4,2.3l1.9,6.3l2,2.3l-0.6,2.6l-3.7,3.1l-4.9,0.4l-0.5,4.5h-1.7l-12.1-3.6l0.2-6.3
				l3.4-1.2l1.1-2.9l-0.6-2.5l9.3-9.9l-0.2-2l-4-3.8l-1.7,2.9l-4.5,5.7l-1.4-0.8l0.2-9.5l-1.2-1.1l-2.9,6.7l-1.2-1.4l1.4-7.7
				l-2.4-1.7l-1.5,3.9l1.4,3.2l-7.7,2.9l-1.5,5.2l1.7,3.6l3.1,3.7l-1,5.7l4.3,4.3l-4.3,4l-1.2,0.2l-1.3,9.5l-0.2,0.5l-6.1-4.6
				l-4.3-2.4l-7.6,2.7l-2.6,5.5l-1.2,2.9l-4.2,1.2l-3.9,1.4l0.8,2.6l2.6,7.4l11.9,16.4L251.5,513.2z M231.3,434.5l2.3-0.9l0.6-1.8
				l-2.1-3.6l2.6-2.7l-0.4-2.5l1.2-1.4l7.7,2l3.3,3.2l-1.1,3.3l-0.7,2.5l1.1,0.5l2.6-0.6l3.1,0.6v1.2l3.4,3.5l2.3-1l2.3,1.4
				l-0.2,1.7l-1.5,5.2l1.7,3.6l3.1,3.7l-1,5.7l4.3,4.3l-4.3,4l-1.2,0.2l-1.3,9.5l-0.2,0.5l-6.1-4.6l-4.3-2.4l-7.6,2.7l-2.6,5.5
				l-4.3-2.9l-1.7-0.5l1.1-2.3l4-3.3l1.3-3.9l0.8-5.7l-4.9-3.8l-4.4-10.3l0.5-2.4l2.7,2.5l0.8-0.8l-3.3-5L231.3,434.5z M231.3,434.5
				l-2.9-0.6l-3.8-5.7l-2.4-2.3l0.6-1.4l-13.2-13.9l-6.4-10.1l-2.3-4l-6.1-3l-3.5-6.9h-3.7l-4.3-4.5l-0.4-3.2l-1.7-3.2v-1.8
				l-5.7-3.7l-4.2-3.1l-4-3.9l-1.9-2l-1.4,2l-7.4-4.2l-1.1-0.2v-2l-2.1-4.3l1.4-4l3.1-3.8l-0.2-1.8l9.9-7l7.3-7.3l3.7-1.8l4.9,2.1
				l1.3,1.8l0.2,3.1l2.6,4.3l1,8.3l5.1,2l3.4,0.7l6.1,12l-1.8,8.6l2.9,9l6.3,6.2l1.8,6.3l2.6,1.7l3.7-2.3l6.7,5.9l0.8,7.1l3,6.2
				l0.6,5.2l5.8,6.4l-1.2,1.4l0.4,2.5l-2.6,2.7l2.1,3.6l-0.6,1.8L231.3,434.5z M203.1,361.1l7.7-1.3l3.7-3.7l0.8-4.3l1.9-1.4
				l-0.5-5.1l1.4-1.4l2.5-1.5l2.5-7.1l2-1.4l5.7,4.3l1.7-0.7l7.3,4.9l4.2-1l8.9,2.5l3.2,1.7l7.6-9.8l10.8,2.1l7.8,9.4l-1.8,6.3
				l0.1,6.9l-2.9,6.5l0.5,5.1l4.3,4.5v2.4l8.7,4.4l3.6-7.4l3.2,8.9l-0.6,4.9l-16.2,1.1l-11.3,8.4l-0.3,9.7l-4.9,5.1l-1.9,6.3
				l-1.1,1.7l-2.3,16.1l-2.3-1.4l-2.3,1l-3.4-3.5v-1.2l-3.1-0.6l-2.6,0.6l-1.1-0.5l0.7-2.5l1.1-3.3l-3.3-3.2l-7.7-2l-5.8-6.4
				L229,410l-3-6.2l-0.8-7.1l-6.7-5.9l-3.7,2.3l-2.6-1.7l-1.8-6.3l-6.3-6.2l-2.9-9L203.1,361.1z M294.9,376l3.2,8.9l-0.6,4.9
				l-16.2,1.1l-11.3,8.4l-0.4,9.7l-4.9,5.1l-1.9,6.3l-1.1,1.7l-2.3,16.1l-0.2,1.7l7.7-2.9l-1.4-3.2l1.5-3.9l2.4,1.7l-1.4,7.7
				l1.2,1.4l2.9-6.7l1.2,1.1l-0.2,9.5l1.4,0.8l4.5-5.7l1.7-2.9l4,3.8l0.2,2l-9.3,9.9l0.6,2.5l-1.1,2.9l-3.4,1.2l-0.2,6.3l12.1,3.6
				h1.7l0.5-4.5l4.9-0.4l3.7-3.1l0.6-2.6l-2-2.3l-1.9-6.3l2.4-2.3l1.9-0.2l0.6-1.8l-1.1-2.9l0.4-1.7l3.5-1.3l2.9-2.9l5.7,4.6
				l0.7,2.3l3,3.9l0.5-0.6l7.7,3.7h0.1l3.2-4.2l-0.1-4.3l1.2-5.9l-1.2-2.9l-3.1-0.2l-4,3.4h-1.1l-9.5-9.9l-0.4-4.5l-1.4-2.9l2.5-3.7
				l1.7-0.4l8.3-6.4l9.3-8.3l3.1-4.6l6.2-8.3l-2.3,0.4l-5.9-5.4l-3.8-0.4l-4.8,0.1l-0.6-1.7l-7.9-5.5l-9.2-1.3L294.9,376z
				 M349.6,418.7l3.7,4v1.7l-2.6,3.8l9.9,4.6l2.6-1.7l2.3,0.6l2.9,4.3l7.7,3l6.5-1.4l3.9,4.2l-0.1,1.8l-3.1,4l1.4,3.9l-2.5,3.8
				l1.7,2l0.4,3.9l-2.3,4.6l-4.3,0.6l-2-1.8l-3.5-1.4l-1.7-4.2l-2.6-2.9l-4.9,4l-4.5-1.9l-2.3,2l-13.4-4.8l-4.3,3.7l-2.6-1.1
				l-5.8-4.8H327l-2.9-2.3l-5-0.5l3.2-4.2l-0.1-4.3l1.2-5.9l-1.2-2.9l-3.1-0.2l-4,3.4H314l-9.5-9.9l-0.4-4.5l-1.4-2.9l2.5-3.7
				l1.7-0.4l8.3-6.4l9.3-8.3l3.1-4.6l6.2-8.3l5.8,9.2l-0.2,6.5l3,3.9l-0.2,11.2l1.8,1.2l2.9-1.3L349.6,418.7z M333.8,387.7l0.8-6.1
				l1.1-2.9L334,377l0.5-2.3l6.9-2.6l1.2-2l-1.9-3.3l-6.3-6.3l-0.8-5.5l-3.6-4.4l-1.9-1.2l-2-3.9l7.6-7l1.7,0.8l3.1-3.4l1.2-4.3
				l-1.4-1.9H336l-1.5-2.6l0.6-2.3l6.5-3.7l1.5-5.2l3.5-2.6l3.7,2.9l4.4-3.5l1.3,2l-3.3,4.3l0.6,2.3l2.9,1.2l0.4,4.8l0.1,5.7
				l2.9,1.7l0.5,3.4l3.8,1.4l0.4,5.4l3.4,1.8l1.7,4.3l2,0.4l3.7,2.4l4.3-1.2l1.4,1.4l0.1,7.4l2.6,4.9l-2.1,3.4l-7.1,5.9l-2-0.8
				l-2,0.5l-1.1,6.8l-2.9,0.6l-6.5,3.7l-1.4,2.1l2.3,2.1l-0.4,6.9l2.5,4.9l-3.8,4l-3.4,0.6l-1.4,2v5.4h-2.9l-1.3,4.3l-2.9-0.2
				l-2.9,1.3l-1.8-1.2l0.2-11.2l-3-3.9l0.2-6.5L333.8,387.7z M10.5,183.5l47.7,1.3l-2.4,4.9l-3.6,3.2l-1.7,6.3l0.6,2.9l5.1,4.2
				l0.6,1.4l-0.5-0.4l-2-0.4l-2.7,14.8l0.6,3.5l1.4,2.6l1.3,19.2l3.2,6.1l3,2.9l8.2,9l5,8.6l0.4,2.6l4.3,1.4l2.6,9.3l4.6,2.9l1,4.9
				l0.8,2v1.4l-28.3-1.8l0.6-2.6l0.7-4.3l2-4.3l-5.8-7.7l-4.3-5l-9.3-10.6l-3.9-3l-7.6-6.9v-2.3l-1.7-2.4l0.1-7.9l-3.9-3.9l-0.7-10
				l-3.4-2.9l-0.4-5.7l-3.5-5.7l-1.4-2.7l-0.2-2.9l1.8-3.6l-1.4-2.7l-2.5-1.4l-1.5-5.7l-3.2-5.7l0.6-2.3l-0.4-0.7L10.5,183.5z
				 M354.6,312.8l-5.2-8.3l-4.4-3l-0.8-2.6l-7.6-16.8l-7.7-8.4l-9.3-7.6l-7.1-0.2l-8.6-2.3l-2.6,2.4l-2.9,0.2l-3.6,2.4l-2.6,6.9
				l-5.8,8.2l-3.1,0.4l-14,25.6l5.4,28.2l7.8,9.4l-1.8,6.3l0.1,6.9l-2.9,6.5l0.5,5.1l4.3,4.5v2.4l8.7,4.4l3.6-7.4l4.5-1.9l9.2,1.3
				l7.9,5.5l0.6,1.7l4.8-0.1l3.8,0.4l5.9,5.4l2.3-0.4l0.8-6.1l1.1-2.9l-1.7-1.7l0.5-2.3l6.9-2.6l1.2-2l-1.9-3.3l-6.3-6.3l-0.8-5.5
				l-3.6-4.4l-1.9-1.2l-2-3.9l7.6-7l1.7,0.8l3.1-3.4l1.2-4.3l-1.4-1.9h-2.3l-1.5-2.6l0.6-2.3l6.5-3.7l1.5-5.2l3.5-2.6l3.7,2.9
				L354.6,312.8z M283.3,284l-14,25.6l5.4,28.2l-10.8-2.1l-7.6,9.8l-3.2-1.7l-8.9-2.5l-4.2,1l-7.3-4.9l-1.7,0.7l-5.7-4.3l-2,1.4
				l-2.5,7.1l-2.5,1.5l-1.4,1.4l0.5,5.1l-1.9,1.4l-0.8,4.3l-3.7,3.7l-7.7,1.3l-6.1-12l-3.4-0.7l-5.1-2l-1-8.3l-2.6-4.3l-0.2-3.1
				l-1.3-1.8l-4.9-2.1l-3.7,1.8l-3.1-3.8l-0.1-8.6l-1.4-2.5l-4.3-7l-2.7-7.7l2.6-2.9l7.4,2.5l1.2-1.2l-1-10.6l-0.5-14.9l2-2.3
				l1.3-15.1l-2.1-12.3l-0.7-12l-1.9-0.8l1.4-4l12.6,0.5l-0.2-2.3l0.2-7.5l33.8,0.7l5.4,6.1l4.6,4.3l7.5,7.6l5.1,4.9l8.4,6.2
				l2.3,6.8l2.4,3.4l0.4,7.1l4.6,7.4l3.4,1.7l4.5,4l3.4,0.4l4.4,3.4l2.6,0.6L283.3,284z M56.9,207.6l-0.6-1.4l-5.1-4.2l-0.6-2.9
				l1.7-6.3l3.6-3.2l3.8,1.9l70.5,31.8l42.7,2l-1.4,4l1.9,0.8l0.7,12l2.1,12.3l-1.3,15.1l-2,2.3l0.5,14.9l1,10.6l-1.2,1.2l-7.4-2.5
				l-2.6,2.9l2.7,7.7l4.3,7l1.4,2.5l0.1,8.6l3.1,3.8l-7.3,7.3l-9.9,7l-0.5-5.1l-3.7-4.6l-3.1,0.8l-3.7-1.4l-1.9-6.9l-4.5-2.7
				l-3.2-1.1l-4-4.3l-1.4-7.6l0.8-5l-5-1.3l-1.1,0.6l-0.6,0.6l-3.2-2l-3.7-3.6l-3.1-6.7l-7-5.9l-2.3-2.5v-2.9l-4.6-6.2l-0.6-5.2
				l-2.9-1.9l0.1-2.9l-6.7-12.5l-0.2-5.7l-2.1-5.5l-3.2-7.1l1.1-6.8v-2.9l-3.7-2.6l-2.6-0.2l-6.7-7.4l-2.9-1.4l-3.4,1.9l-6.8-4.9
				L56.9,207.6z M88,297.9v1.4l1.8,6.8l5.2,5.6l1.4,4.6l4,3.9l1.4,0.6v3.5l1.4,3.1l1,4.3l2,2v-3.4l-1-2.5l0.6-1l4.4,4.5l0.2,3.1
				l1.4,1.4l-0.6,1.8l2,4.3l0.5,4.3l-1.4,2.9l3.8,8l3.1,2.1l0.8,5.5l3.9,7.6l1.4,3.8l-1.3,7.1l1.4,4.8l5.7,3.8l1.4-1.3l0.2-2.9
				l2.3,0.6l5,6.5l2.3,0.8l0.8,4.3l1.8,4.2l5,6.3l-2,5.9l-5,3.3l-2.6,2.5l-1.7,0.4l-3.5-3.7l-2.7-11.8l-3.8-3.3l-4-2.5l-11.8-11.9
				l-8.9-8.7h-1.2l-0.6-3l-1.4,0.9l-2-3.4l-1.7-0.6l-2-5.7l2.6-15.7l-5-12.4l-3.1-1.4L72.8,325l-1.8,0.8l-3.1,0.1l-4.3-5.5l-2.6-0.8
				l-3.2-2.9l-5.7-3l-1.2-2.4L42,300l0.8-0.5l6.3,1.5l5.1-1.4l2.3,2.7l2.6,0.6l3.4,1.4l0.6-1.8l-1-0.8l-2.5-0.6l-2.9-3.1l2.5-2.3
				L88,297.9z M96.5,380l-1.8-3.2"/>
		</g>
	</g>
	<text transform="matrix(1 0 0 1 127.376 447.3503)" class="st3 st4">Durango</text>
	<g>
		<text transform="matrix(1 0 0 1 27.3085 495.5)" class="st3 st4">Guadalajara</text>
	</g>
	<g>
		<text transform="matrix(1 0 0 1 68.2914 557.6716)" class="st3 st4">Ciudad de México</text>
	</g>
	<g>
		<text transform="matrix(1 0 0 1 244.292 590.433)" class="st3 st4">Oaxaca</text>
	</g>
	<g>
		<text transform="matrix(1 0 0 1 591.01 580.9496)" class="st3 st4">Chiapas</text>
	</g>
	<g>
		<text transform="matrix(1 0 0 1 547.3814 386.9341)" class="st3 st4">Quintana Roo</text>
	</g>
	<g>
		<text transform="matrix(1 0 0 1 499.6746 434.5)" class="st3 st4">Yucatán</text>
	</g>
	<g>
		<text transform="matrix(1 0 0 1 453.9804 488.725)" class="st3 st4">Campeche</text>
	</g>
	<polyline class="st5" points="249.6,382.6 180.2,382.6 180.2,424.2 	"/>
	<line class="st5" x1="269.2" y1="486.9" x2="176.5" y2="486.7"/>
	<polyline class="st5" points="371.6,509.5 371.6,547.9 288.1,547.9 	"/>
	<polyline class="st5" points="430.6,564 430.6,581.5 339.1,581.5 	"/>
	<line class="st5" x1="519.7" y1="571.1" x2="586.2" y2="571.1"/>
	<polyline class="st5" points="574.9,509.9 517.5,509.7 517.5,495.1 	"/>
	<polyline class="st5" points="591.8,463 548.2,463 548.2,439.5 	"/>
	<polyline class="st5" points="610.9,495 629.9,495 629.9,393.5 	"/>
</g>
</svg>
