<?xml version="1.0" encoding="utf-8"?>
<!-- Generator: Adobe Illustrator 19.1.0, SVG Export Plug-In . SVG Version: 6.00 Build 0)  -->
<svg version="1.1" id="Layer_1" xmlns="http://www.w3.org/2000/svg" xmlns:xlink="http://www.w3.org/1999/xlink" x="0px" y="0px"
	 viewBox="0 0 1000 445" enable-background="new 0 0 1000 445" xml:space="preserve">
<g>
	<g>
		<polyline fill="#41B5AD" points="737.1,287.2 735.8,297.3 737.6,308.9 732.8,314.2 732.8,321.4 731.2,325.1 721.5,332.9
			718.4,336 722,339.7 721.7,340.9 716.5,344.8 709.4,346.1 708.6,344.5 705.7,343.5 706.9,341 705.5,340.2 695.1,342 697.4,344.6
			701.7,344.7 702,344.7 703.4,349 704.4,353 710.1,357 714.4,356.6 716.7,353.8 721.5,354.6 729.3,355.7 730.1,358.8 769,355.4
			767.6,335.3 766.7,309.1 747.5,297 745.2,296.4 739.3,294.3 737.1,287.2 		"/>
		<polyline fill="#41B5AD" points="737.1,287.2 740,282.3 751.1,276.2 753.3,275.9 774.2,270.4 778.7,267.1 799,267.9 799.2,279.6
			793.7,288.4 766.7,309.1 747.5,297 745.2,296.4 739.3,294.3 737.1,287.2 		"/>
		<polyline fill="#41B5AD" points="799,267.9 804.2,267.8 805.6,266.6 806.2,266 805,264.9 808.1,263.7 811.3,265.4 815,269.9
			814.2,272.4 815,275.1 813.1,281.4 804.6,292.6 802.5,301.7 802.5,306.6 799.9,308.9 798.4,309 798,310.4 799.9,312.3
			803.7,311.1 804.8,311.7 804,313.8 800.6,316.4 799.5,318.8 800,319.5 803.4,317.4 803.8,318.9 802.4,323.5 797.7,341.3
			797.4,346.7 796.5,346.6 796.7,341.4 793,337.3 793.6,331.9 792.7,330.4 792.1,331 791.3,333 787.6,336.7 782.9,340.3
			782.3,342.8 777,352.8 772.3,351 770.1,352.9 769.9,356.4 769,355.4 767.6,335.3 766.7,309.1 793.7,288.4 799.2,279.6 799,267.9
					"/>
		<polygon fill="#41B5AD" points="662.5,402.2 663.3,400 661.3,395.2 662.6,389.1 665.2,385.3 666.3,379.6 676.5,366.4 679.3,358.4
			685.6,360.7 685.1,365.8 690.8,372 698.4,364.2 703.8,361.9 706.7,359.2 708.9,359.2 712.4,360.9 712.7,362.9 714.6,364.4
			716.2,368 718,368 722.3,372.6 721.7,373.4 729.8,380.4 737.5,385 739.5,389.2 744.2,391.5 744.5,399.2 715.3,401.5 705.2,420.7
			708.7,425.5 707.8,427.6 707.4,438.4 694.9,427.9 692.4,424.6 667,404.8 		"/>
		<polygon fill="#41B5AD" points="378.6,183.3 386.4,181.9 390.1,178.3 390.9,174 392.8,172.5 392.3,167.4 396.3,164.4 398.8,157.3
			400.8,155.9 406.5,160.2 408.2,159.4 415.4,164.3 419.6,163.4 428.5,165.9 431.7,167.5 439.4,157.8 450.2,159.9 458.1,169.3
			456.4,175 456.4,182.5 453.5,189.1 454,194.2 458.3,198.7 458.3,201.1 467,205.5 470.6,198.1 473.8,207.1 473.2,212 457,213
			445.7,221.5 445.2,231.2 440.3,236.4 438.4,242.7 437.3,244.3 435.1,260.4 432.8,259 430.6,259.9 427.1,256.5 427.1,255.3
			424,254.7 421.4,255.3 420.3,254.8 422.1,249 418.8,245.8 411,243.7 405.2,237.3 404.6,232.1 401.6,225.9 400.8,218.7
			394.1,212.8 390.4,215 387.8,213.4 386,207.1 379.7,200.9 376.9,191.8 		"/>
		<polygon fill="#41B5AD" points="427.1,335.7 430.7,332 432.9,332 438.3,327.6 440.7,329.3 443.9,330.2 447.6,328 450.7,331.3
			451.5,341.3 453.1,340.7 455.8,338.4 457,339.2 460.4,339.7 463.3,335.7 470.4,333.6 471.5,329.9 470.7,328.8 468.2,328.5
			466,323.6 467.7,319.7 467.1,318.5 463.4,318.3 461.4,317.3 461.2,315.7 462.7,313.4 466.7,313.4 469.6,311.4 474.5,309.6
			482.5,307 484.5,303.9 482.6,297.8 487.7,289.9 491,287.7 493.4,285.4 492.5,281.7 493.9,279.7 493.5,274.8 494.8,273.2
			494.7,273.2 487,269.5 486.5,270.1 479.4,278.2 475,277 471.5,275.9 470.9,269.7 469,269.9 466.6,272.2 468.5,278.5 470.6,280.8
			470,283.4 466.3,286.5 461.4,286.8 460.9,291.4 459.2,291.4 447.1,287.8 447.3,281.5 450.8,280.3 451.9,277.4 451.3,274.9
			460.6,265.1 460.3,263 456.3,259.2 454.6,262.1 450.1,267.8 448.7,267 448.9,257.4 447.7,256.4 444.8,263 443.7,261.6
			445.1,253.9 442.7,252.2 441.2,256.1 442.6,259.3 434.8,262.2 433.3,267.4 435,271 438.1,274.7 437.1,280.4 441.4,284.7
			437.1,288.8 435.9,289 434.6,298.5 434.4,299 428.3,294.3 424,292 416.4,294.7 413.8,300.2 412.6,303 408.4,304.2 404.5,305.7
			405.3,308.3 407.9,315.7 419.8,332.1 		"/>
		<polygon fill="#41B5AD" points="565.8,364.8 565.1,374.4 567.7,379.7 568.9,382 572.6,384.6 571.3,392.9 567.8,394.6 567,397.7
			567.4,399.1 561.9,402 568.9,404.4 574.6,407.9 579.4,409.6 594.3,410.1 595.5,412.1 599.7,414 607,416.9 611.5,416.1
			631.8,408.3 641.6,398.4 644.1,397.3 646.8,398.4 646.4,399.4 650.2,401.5 654.5,401.7 655.6,400.1 662.5,402.2 663.3,400
			661.3,395.2 662.6,389.1 665.2,385.3 666.3,379.6 667,378.8 649.1,378.9 640.9,377.9 640,374.7 635.9,372 636.2,368.8
			635.1,367.7 624.3,372.3 621,369.2 620.5,367 622.1,362.4 620.3,358.4 613.8,357 606.5,348.3 602.8,347.1 602.6,348.8
			600.8,350.8 599.5,354.8 594.1,358.6 589.3,358.4 585.2,361.9 583.2,361 580.9,356.5 580.3,355.3 578.9,355.7 578.1,359.4
			578.4,362.4 576.4,363.3 573.5,361.9 		"/>
		<polygon fill="#41B5AD" points="545.2,325.7 543.3,333.2 544.7,335.4 548.2,337.3 551.3,337.3 550.4,330.4 548.9,327.3 		"/>
	</g>
	<g>
		<g>
			<polyline fill="none" stroke="#A7A9AC" points="736.6,287 735.3,297.1 737.1,308.6 732.4,314 732.4,321.1 730.7,324.8 
				721.1,332.6 718,335.7 721.5,339.4 721.2,340.6 716.1,344.5 708.9,345.8 708.1,344.2 705.2,343.2 706.4,340.7 705,339.9
				694.7,341.7 696.9,344.3 701.2,344.4 701.6,344.4 703,348.7 703.9,352.7 709.6,356.7 713.9,356.3 716.2,353.4 721.1,354.3
				728.8,355.4 729.6,358.4 768.5,355.1 767.1,335 766.2,308.8 747,296.7 744.7,296.1 738.8,294.1 736.6,287 			"/>
			<polyline fill="none" stroke="#A7A9AC" points="736.6,287 739.5,282.1 750.6,276 752.8,275.7 773.6,270.2 778.2,266.8
				798.5,267.7 798.6,279.3 793.2,288.1 766.2,308.8 747,296.7 744.7,296.1 738.8,294.1 736.6,287 			"/>
			<polyline fill="none" stroke="#A7A9AC" points="798.5,267.7 803.6,267.6 805,266.4 805.6,265.8 804.5,264.7 807.5,263.5
				810.8,265.2 814.4,269.7 813.6,272.2 814.4,274.8 812.5,281.1 804.1,292.3 802,301.5 802,306.3 799.3,308.6 797.9,308.7
				797.4,310.1 799.3,312.1 803.1,310.9 804.2,311.5 803.5,313.5 800,316.1 799,318.5 799.5,319.2 802.9,317.2 803.3,318.6
				801.8,323.2 797.2,341 796.8,346.4 796,346.3 796.1,341.1 792.4,337 793,331.6 792.2,330.1 791.6,330.7 790.8,332.8 787.1,336.4
				782.3,340 781.7,342.5 776.5,352.5 771.7,350.7 769.6,352.6 769.4,356.1 768.5,355.1 767.1,335 766.2,308.8 793.2,288.1
				798.6,279.3 798.5,267.7 			"/>
		</g>
		<polyline fill="none" stroke="#A7A9AC" points="278.6,207.1 271.9,202 270.1,198.8 278.6,207.1 		"/>
		<polyline fill="none" stroke="#A7A9AC" points="263.4,119.9 263.4,121.4 265.2,128.1 270.5,133.7 271.9,138.4 275.9,142.3
			277.4,142.9 277.4,146.3 278.8,149.4 279.7,153.7 281.8,155.7 281.8,152.3 280.8,149.8 281.4,148.8 285.8,153.4 286.1,156.5
			287.5,157.9 286.9,159.7 288.9,164 289.4,168.2 288,171.1 291.8,179.1 294.9,181.2 295.7,186.7 299.6,194.3 301,198.1
			299.7,205.2 301.2,210 306.9,213.8 308.3,212.5 308.5,209.6 310.8,210.2 315.8,216.8 318,217.6 318.9,221.9 320.7,226
			325.7,232.4 323.6,238.3 318.6,241.6 316,244.1 314.4,244.5 310.9,240.8 308.2,229 304.4,225.7 300.3,223.2 288.5,211.3
			279.6,202.6 278.4,202.6 277.8,199.6 276.4,200.6 274.4,197.1 272.7,196.5 270.7,190.8 273.3,175.1 268.3,162.8 265.2,161.3
			248.6,147.2 246.8,148 243.7,148.1 239.4,142.7 236.8,141.8 233.6,139 227.9,136 226.7,133.6 217.8,122.3 218.6,121.8
			224.9,123.4 230,122 232.3,124.7 234.9,125.3 238.3,126.7 238.9,124.9 238,124.1 235.5,123.5 232.6,120.4 235.1,118.2
			263.4,119.9 		"/>
		<polyline fill="none" stroke="#A7A9AC" points="232.3,29.6 231.7,28.2 226.6,24.1 226,21.2 227.6,14.9 231.2,11.7 235,13.6
			305.6,45.3 348.3,47.4 346.8,51.4 348.7,52.2 349.5,64.3 351.6,76.5 350.3,91.6 348.3,93.9 348.7,108.8 349.7,119.3 348.5,120.5
			341.1,118 338.5,120.9 341.2,128.6 345.5,135.6 347,138.1 347.1,146.7 350.2,150.5 342.9,157.8 333,164.8 332.6,159.7 328.9,155
			325.8,155.9 322.1,154.4 320.2,147.5 315.7,144.8 312.5,143.7 308.4,139.4 307,131.8 307.8,126.8 302.8,125.5 301.8,126.1
			301.2,126.7 297.9,124.7 294.3,121.1 291.2,114.5 284.1,108.5 281.9,106 281.9,103.2 277.2,97 276.7,91.7 273.8,89.8 273.9,87
			267.3,74.5 267,68.8 264.9,63.3 261.7,56.2 262.7,49.4 262.7,46.5 259,43.9 256.4,43.7 249.8,36.3 246.9,34.9 243.5,36.8
			236.7,31.9 232.3,29.6 		"/>
		<polyline fill="none" stroke="#A7A9AC" points="458.7,106 444.6,131.6 450,159.8 439.1,157.6 431.5,167.4 428.3,165.7
			419.4,163.2 415.2,164.2 408,159.3 406.3,160 400.6,155.7 398.6,157.2 396.1,164.3 393.6,165.9 392.2,167.3 392.6,172.4
			390.7,173.8 389.9,178.1 386.2,181.8 378.5,183.1 372.4,171.1 369,170.4 363.8,168.4 362.9,160 360.3,155.7 360,152.7
			358.7,150.9 353.9,148.7 350.2,150.5 347.1,146.7 347,138.1 345.5,135.6 341.2,128.6 338.5,120.9 341.1,118 348.5,120.5
			349.7,119.3 348.7,108.8 348.3,93.9 350.3,91.6 351.6,76.5 349.5,64.3 348.7,52.2 346.8,51.4 348.3,47.4 360.8,47.8 360.6,45.6
			360.9,38.1 394.7,38.8 400,44.9 404.6,49.2 412.1,56.8 417.3,61.6 425.7,67.8 428,74.6 430.3,78.1 430.7,85.2 435.3,92.6
			438.8,94.2 443.3,98.3 446.8,98.6 451.2,102.1 453.8,102.7 458.7,106 		"/>
		<polyline fill="none" stroke="#A7A9AC" points="530,134.8 524.8,126.5 520.4,123.5 519.6,120.9 511.9,104.1 504.2,95.7
			494.9,88.1 487.8,87.8 479.2,85.6 476.6,87.9 473.8,88.2 470.2,90.6 467.6,97.5 461.7,105.7 458.7,106 444.6,131.6 450,159.8
			457.8,169.2 456,175.5 456.2,182.4 453.3,188.9 453.8,194 458.1,198.6 458.1,200.9 466.7,205.3 470.3,198 474.8,196.1 484,197.4
			491.8,202.8 492.4,204.5 497.2,204.4 501,204.7 506.9,210.1 509.2,209.7 510,203.7 511.1,200.8 509.4,199.2 509.9,196.9
			516.8,194.3 518,192.3 516.1,188.9 509.8,182.6 509,177.2 505.4,172.8 503.5,171.6 501.5,167.6 509.1,160.6 510.8,161.5
			513.8,158 515,153.7 513.6,151.8 511.3,151.8 509.8,149.2 510.4,146.9 516.9,143.3 518.5,138 521.9,135.4 525.6,138.3 530,134.8
					"/>
		<polyline fill="none" stroke="#A7A9AC" points="185.9,5.5 233.6,6.8 231.2,11.7 227.6,14.9 226,21.2 226.6,24.1 231.7,28.2
			232.3,29.6 231.8,29.3 229.8,28.9 227,43.7 227.6,47.1 229.1,49.8 230.4,68.9 233.6,75 236.6,77.8 244.8,86.9 249.8,95.4
			250.1,98 254.4,99.5 257,108.8 261.7,111.6 262.6,116.5 263.4,118.5 263.4,119.9 235.1,118.2 235.7,115.5 236.4,111.3 238.5,107
			232.6,99.2 228.4,94.2 219.1,83.7 215.2,80.7 207.5,73.8 207.5,71.5 205.9,69.1 206,61.3 202.1,57.4 201.4,47.4 197.9,44.5
			197.5,38.8 194.1,33.1 192.7,30.4 192.4,27.5 194.2,23.9 192.8,21.2 190.3,19.8 188.7,14.1 185.5,8.4 186.1,6.1 185.8,5.4
			185.9,5.5 		"/>
		<polyline fill="none" stroke="#A7A9AC" points="509.2,209.7 510,203.7 511.1,200.8 509.4,199.2 509.9,196.9 516.8,194.3
			518,192.3 516.1,188.9 509.8,182.6 509,177.2 505.4,172.8 503.5,171.6 501.5,167.6 509.1,160.6 510.8,161.5 513.8,158 515,153.7
			513.6,151.8 511.3,151.8 509.8,149.2 510.4,146.9 516.9,143.3 518.5,138 521.9,135.4 525.6,138.3 530,134.8 531.3,136.8
			528,141.1 528.6,143.4 531.5,144.6 531.8,149.3 531.9,155 534.8,156.7 535.3,160.1 539.1,161.6 539.4,166.9 542.9,168.7
			544.5,173 546.6,173.3 550.2,175.7 554.5,174.5 556,176 556.1,183.3 558.7,188.2 556.6,191.7 549.4,197.6 547.4,196.8
			545.4,197.3 544.3,204 541.4,204.6 534.9,208.3 533.5,210.5 535.7,212.6 535.4,219.5 537.9,224.4 534.1,228.4 530.6,229
			529.2,231 529.2,236.4 526.3,236.4 525,240.7 522.2,240.4 519.3,241.7 517.5,240.6 517.8,229.4 514.8,225.4 515,218.9
			509.2,209.7 		"/>
		<polyline fill="none" stroke="#A7A9AC" points="575.5,212.8 574.4,218 574.3,232 575,244 575,249.1 572.3,255.1 573.8,261
			564.8,258.4 562.5,259.8 558,259.6 551.4,261 543.7,258 540.8,253.8 538.6,253.2 536,254.8 526.1,250.2 528.7,246.4 528.7,244.7
			525,240.7 526.3,236.4 529.2,236.4 529.2,231 530.6,229 534.1,228.4 537.9,224.4 535.4,219.5 535.7,212.6 533.5,210.5
			534.9,208.3 541.4,204.6 544.3,204 545.4,197.3 547.4,196.8 549.4,197.6 556.6,191.7 558.7,188.2 556.1,183.3 556,176
			554.5,174.5 550.2,175.7 546.6,173.3 544.5,173 542.9,168.7 539.4,166.9 539.1,161.6 535.3,160.1 534.8,156.7 531.9,155
			531.8,149.3 531.5,144.6 528.6,143.4 528,141.1 531.3,136.8 534.8,138.1 536.3,140.6 535.5,143.8 537.8,148.1 537.5,151
			542.4,159.8 545.1,166.3 551.1,167.6 554.5,170.5 560.8,171.6 565.4,174.7 575.7,175.5 580.3,178 584.5,175.8 		"/>
		<polyline fill="none" stroke="#A7A9AC" points="584,176.1 585.6,178.9 582,191.4 578.6,198.2 575.4,213 		"/>
		<polyline fill="none" stroke="#A7A9AC" points="576.3,270.5 573.8,261 564.8,258.4 562.5,259.8 558,259.6 561.9,263.8
			561.8,265.5 558.7,269.6 560.1,273.5 557.6,277.3 559.3,279.3 559.6,283.3 561.7,287.8 563.1,288.6 565,288 567.5,290 566.1,296
			562,296 560,298 560.8,300.6 559.9,304.1 560.5,306 561.3,306.9 567.3,302.3 569.2,300.3 570.6,301.7 570.1,304.9 572.1,303.7
			573.7,297.3 575.5,296.5 576.9,297.9 577.1,299.7 581.3,302.2 580.5,304.4 577,305 577,309.1 580.5,311.6 584.7,309.3
			589.3,311.5 590.1,312.4 587.1,316.7 587.1,321.8 584.3,324.8 587.5,329.5 592.1,332.4 592.6,333.2 588.7,335.2 590.5,341.4
			587.6,342 587.6,344.9 592.2,347.1 592.7,349.5 597,348.9 598.2,348.5 600.4,350.5 602.2,348.5 602.5,346.8 606.2,348
			613.4,356.7 620,358.1 621.7,362.1 620.1,366.7 620.7,368.9 623.9,372 634.7,367.4 635.8,368.4 635.5,371.6 639.6,374.4
			640.5,377.6 648.7,378.5 666.6,378.4 670.4,374.1 671.6,372.5 670.4,370.7 670.4,370.2 666.7,365.3 663.4,363.6 660.5,361.2
			660.9,358.8 659.2,354.5 		"/>
		<polyline fill="none" stroke="#A7A9AC" points="659.2,354.5 653.1,357.5 648.5,355.7 643.6,348.5 640.2,347.6 635.3,344.5
			621.9,343.8 618.4,341 611.7,333 606.5,321.3 599,311.1 588,295.8 583.1,284 582.1,282.8 578.8,279.1 576.3,270.5 		"/>
		<polyline fill="none" stroke="#A7A9AC" points="525,240.7 528.7,244.7 528.7,246.4 526.1,250.2 536,254.8 538.6,253.2
			540.8,253.8 543.7,258 551.4,261 558,259.6 561.9,263.8 561.8,265.5 558.7,269.6 560.1,273.5 557.6,277.3 559.3,279.3
			559.6,283.3 557.4,287.9 553.1,288.5 551.1,286.7 547.6,285.3 546,281.1 543.3,278.3 538.5,282.3 533.9,280.4 531.7,282.4
			518.2,277.7 514,281.4 511.3,280.3 505.5,275.5 502.4,275.5 499.6,273.3 494.6,272.8 497.8,268.6 497.7,264.3 498.9,258.4
			497.7,255.5 494.6,255.3 490.5,258.8 489.5,258.8 479.9,248.9 479.6,244.4 478.2,241.5 480.7,237.8 482.3,237.5 490.7,231
			499.9,222.7 503,218.1 509.2,209.7 515,218.9 514.8,225.4 517.8,229.4 517.5,240.6 519.3,241.7 522.2,240.4 525,240.7 		"/>
		<polyline fill="none" stroke="#A7A9AC" points="470.3,198 473.5,206.9 472.9,211.8 456.7,212.8 445.4,221.3 445,231 440.1,236.2
			438.2,242.5 437.1,244.1 434.9,260.2 434.6,261.9 442.4,259 440.9,255.8 442.5,251.9 444.9,253.5 443.4,261.3 444.6,262.7
			447.5,256 448.7,257.1 448.4,266.6 449.8,267.4 454.4,261.7 456,258.9 460.1,262.7 460.3,264.7 451,274.6 451.6,277.1
			450.6,279.9 447.1,281.1 446.9,287.4 459,291 460.7,291 461.1,286.5 466,286.1 469.7,283 470.3,280.4 468.3,278.1 466.4,271.8
			468.8,269.6 470.7,269.3 471.3,267.6 470.2,264.7 470.5,263 474,261.7 476.9,258.9 482.6,263.5 483.3,265.8 486.2,269.7
			486.7,269.1 494.5,272.8 494.6,272.8 497.8,268.6 497.7,264.3 498.9,258.4 497.7,255.5 494.6,255.3 490.5,258.8 489.5,258.8
			479.9,248.9 479.6,244.4 478.2,241.5 480.7,237.8 482.3,237.5 490.7,231 499.9,222.7 503,218.1 509.2,209.7 506.9,210.1
			501,204.7 497.2,204.4 492.4,204.5 491.8,202.8 484,197.4 474.8,196.1 470.3,198 		"/>
		<polyline fill="none" stroke="#A7A9AC" points="378.5,183.1 386.2,181.8 389.9,178.1 390.7,173.8 392.6,172.4 392.2,167.3
			393.6,165.9 396.1,164.3 398.6,157.2 400.6,155.7 406.3,160 408,159.3 415.2,164.2 419.4,163.2 428.3,165.7 431.5,167.4
			439.1,157.6 450,159.8 457.8,169.2 456,175.5 456.2,182.4 453.3,188.9 453.8,194 458.1,198.6 458.1,200.9 466.7,205.3 470.3,198
			473.5,206.9 472.9,211.8 456.7,212.8 445.4,221.3 445,231 440.1,236.2 438.2,242.5 437.1,244.1 434.9,260.2 432.6,258.8
			430.3,259.7 426.9,256.3 426.9,255.1 423.8,254.5 421.2,255.1 420.1,254.6 420.8,252.1 421.9,248.8 418.6,245.6 410.8,243.5
			405,237.1 404.4,231.9 401.4,225.7 400.6,218.5 393.9,212.6 390.3,214.9 387.6,213.2 385.9,206.9 379.5,200.7 376.7,191.7
			378.5,183.1 		"/>
		<polyline fill="none" stroke="#A7A9AC" points="406.7,256.5 403.8,255.9 400,250.2 397.6,247.9 398.2,246.5 385,232.6
			378.6,222.5 376.3,218.4 370.3,215.5 366.8,208.6 363,208.6 358.7,204 358.4,200.8 356.7,197.6 356.7,195.8 351,192.1 346.8,189
			342.8,185.1 340.9,183.1 339.5,185.1 332,181 330.9,180.7 330.9,178.7 328.8,174.4 330.2,170.4 333.3,166.6 333,164.8
			342.9,157.8 350.2,150.5 353.9,148.7 358.7,150.9 360,152.7 360.3,155.7 362.9,160 363.8,168.4 369,170.4 372.4,171.1
			378.5,183.1 376.7,191.7 379.5,200.7 385.9,206.9 387.6,213.2 390.3,214.9 393.9,212.6 400.6,218.5 401.4,225.7 404.4,231.9
			405,237.1 410.8,243.5 409.6,245 410,247.5 407.4,250.2 409.5,253.8 408.9,255.5 406.7,256.5 		"/>
		<polyline fill="none" stroke="#A7A9AC" points="406.7,256.5 408.9,255.5 409.5,253.8 407.4,250.2 410,247.5 409.6,245
			410.8,243.5 418.6,245.6 421.9,248.8 420.8,252.1 420.1,254.6 421.2,255.1 423.8,254.5 426.9,255.1 426.9,256.3 430.3,259.7
			432.6,258.8 434.9,260.2 434.6,261.9 433.1,267.1 434.7,270.7 437.8,274.3 436.9,280.1 441.2,284.3 436.9,288.4 435.7,288.6
			434.4,298.1 434.1,298.6 428.1,294 423.8,291.6 416.2,294.3 413.6,299.8 409.3,296.9 407.6,296.5 408.7,294.2 412.7,290.9
			414,287 414.9,281.2 410,277.4 405.6,267.1 406.1,264.7 408.8,267.2 409.6,266.4 406.3,261.4 406.7,256.5 		"/>
		<polyline fill="none" stroke="#A7A9AC" points="426.9,335.2 430.5,331.6 432.7,331.6 438.1,327.2 440.5,328.9 443.7,329.8
			447.4,327.6 450.4,330.8 451.3,340.8 452.8,340.2 455.6,338 456.7,338.8 460.2,339.3 463.1,335.2 470.2,333.2 471.3,329.5
			470.4,328.3 467.9,328.1 465.8,323.2 467.5,319.3 466.9,318.1 463.2,317.9 461.1,316.9 460.9,315.3 462.5,313 466.5,313
			469.4,311 474.2,309.2 482.2,306.6 484.2,303.5 482.3,297.4 487.4,289.6 490.8,287.3 493.1,285 492.2,281.4 493.6,279.3
			493.3,274.5 494.6,272.8 494.5,272.8 486.7,269.1 486.2,269.7 479.1,277.8 474.7,276.6 471.3,275.5 470.7,269.3 468.8,269.6
			466.4,271.8 468.3,278.1 470.3,280.4 469.7,283 466,286.1 461.1,286.5 460.7,291 459,291 446.9,287.4 447.1,281.1 450.6,279.9
			451.6,277.1 451,274.6 460.3,264.7 460.1,262.7 456,258.9 454.4,261.7 449.8,267.4 448.4,266.6 448.7,257.1 447.5,256
			444.6,262.7 443.4,261.3 444.9,253.5 442.5,251.9 440.9,255.8 442.4,259 434.6,261.9 433.1,267.1 434.7,270.7 437.8,274.3
			436.9,280.1 441.2,284.3 436.9,288.4 435.7,288.6 434.4,298.1 434.1,298.6 428.1,294 423.8,291.6 416.2,294.3 413.6,299.8
			412.4,302.7 408.2,303.8 404.3,305.3 405.1,307.9 407.7,315.3 419.6,331.7 426.9,335.2 		"/>
		<polyline fill="none" stroke="#A7A9AC" points="482.2,306.6 484.2,303.5 482.3,297.4 487.4,289.6 490.8,287.3 493.1,285
			492.2,281.4 493.6,279.3 493.3,274.5 494.6,272.8 499.6,273.3 502.4,275.5 505.5,275.5 511.3,280.3 514,281.4 518.2,277.7
			531.7,282.4 533.4,286.1 532.2,288.1 527.9,288.7 526.9,290.4 524.3,293.8 517.8,294.6 514.7,299.9 516.7,302.5 520.7,312.5
			518.8,316.2 516.3,318.2 512.9,316.8 509.4,318 507.2,315.7 503.6,314.1 498.9,315.5 497.3,314.7 495.9,310.1 493.6,308.5
			491,310.7 487.3,311.3 485.1,310.5 484.8,308.5 482.2,306.6 		"/>
		<polyline fill="none" stroke="#A7A9AC" points="486.2,269.7 479.1,277.8 474.7,276.6 471.3,275.5 470.7,269.3 471.3,267.6
			470.2,264.7 470.5,263 474,261.7 476.9,258.9 482.6,263.5 483.3,265.8 486.2,269.7 		"/>
		<polyline fill="none" stroke="#A7A9AC" points="525,317.4 528.5,313 528.7,311.2 531.3,310.4 531.9,307.8 531.9,304.4
			536.3,301.9 537.2,300.9 537.2,297.7 541.8,293.1 542.8,288.9 548.2,288.1 547.6,285.3 546,281.1 543.3,278.3 538.5,282.3
			533.9,280.4 531.7,282.4 533.4,286.1 532.2,288.1 527.9,288.7 526.9,290.4 524.3,293.8 517.8,294.6 514.7,299.9 516.7,302.5
			520.7,312.5 525,317.4 		"/>
		<polyline fill="none" stroke="#A7A9AC" points="559.6,283.3 561.7,287.8 563.1,288.6 565,288 567.5,290 566.1,296 562,296
			560,298 560.8,300.6 559.9,304.1 560.5,306 561.3,306.9 567.3,302.3 569.2,300.3 570.6,301.7 570.1,304.9 568.1,308.4
			569.3,312.9 566.8,317.2 567.7,322.6 564.3,323.1 563.4,324.3 557.9,324.7 558,323 556.6,319.9 552.5,319.9 550.6,319.3
			550.6,315.9 549.2,315 544.3,316.2 542.5,320.1 531.3,310.4 531.9,307.8 531.9,304.4 536.3,301.9 537.2,300.9 537.2,297.7
			541.8,293.1 542.8,288.9 548.2,288.1 547.6,285.3 551.1,286.7 553.1,288.5 557.4,287.9 559.6,283.3 		"/>
		<polyline fill="none" stroke="#A7A9AC" points="600.4,350.5 599.1,354.5 593.8,358.3 588.9,358.1 584.9,361.5 582.8,360.7
			580.6,356.2 580,355 578.6,355.4 577.7,359 578.1,362.1 576.1,363 573.2,361.5 565.5,364.5 562.9,362.6 556.3,362.4 550,356.7
			549.8,354.4 552.5,351.8 557.4,350.9 556.6,347 557.6,345.2 557,343 557.7,340.2 557.9,339.5 558.1,328.7 561.2,329.4
			565.2,334.3 568.3,336.6 571.5,334.3 573.8,333.9 580.3,331.1 579.3,329.9 575.2,328.2 575.1,325.9 573.4,324.2 567.7,322.6
			566.8,317.2 569.3,312.9 568.1,308.4 570.1,304.9 572.1,303.7 573.7,297.3 575.5,296.5 576.9,297.9 577.1,299.7 581.3,302.2
			580.5,304.4 577,305 577,309.1 580.5,311.6 584.7,309.3 589.3,311.5 590.1,312.4 587.1,316.7 587.1,321.8 584.3,324.8
			587.5,329.5 592.1,332.4 592.6,333.2 588.7,335.2 590.5,341.4 587.6,342 587.6,344.9 592.2,347.1 592.7,349.5 597,348.9
			598.2,348.5 600.4,350.5 		"/>
		<polyline fill="none" stroke="#A7A9AC" points="557.9,324.7 563.4,324.3 564.3,323.1 567.7,322.6 573.4,324.2 575.1,325.9
			575.2,328.2 579.3,329.9 580.3,331.1 573.8,333.9 571.5,334.3 568.3,336.6 565.2,334.3 561.2,329.4 558.1,328.7 557.5,327.9
			557.9,324.7 		"/>
		<polyline fill="none" stroke="#A7A9AC" points="544.9,325.4 543,332.9 544.4,335.1 547.9,337 551,337 550.1,330.1 548.6,327
			544.9,325.4 		"/>
		<polyline fill="none" stroke="#A7A9AC" points="538.5,346.2 540.8,350 543.1,351.4 545.1,349.6 546.6,350 549.8,354.4
			552.5,351.8 557.4,350.9 556.6,347 557.6,345.2 557,343 557.7,340.2 553,338.7 551,337 547.9,337 544.4,335.1 542.4,337.6
			542.5,340.8 538.5,346.2 		"/>
		<polyline fill="none" stroke="#A7A9AC" points="551,337 550.1,330.1 548.6,327 544.9,325.4 543,332.9 544.4,335.1 542.4,337.6
			542.5,340.8 538.5,346.2 534.8,345.4 531.3,348.3 527.6,348.3 522.4,353 520.6,352.7 516.6,343.3 515.4,342.7 522.6,331.2
			524.7,328.7 525.1,320.6 526.3,319 525,317.4 528.5,313 528.7,311.2 531.3,310.4 542.5,320.1 544.3,316.2 549.2,315 550.6,315.9
			550.6,319.3 552.5,319.9 556.6,319.9 558,323 557.9,324.7 557.5,327.9 558.1,328.7 557.9,339.5 557.7,340.2 553,338.7 551,337
			"/>
		<polyline fill="none" stroke="#A7A9AC" points="480.7,364.2 482.1,358.6 487.8,356.2 486.8,351.9 489.5,350.1 496,352.7
			503.4,350.8 507.2,352.9 508.3,352.3 513.5,353.1 511.1,345.6 511.7,342.7 512.3,343.3 513.4,344.2 515.4,342.7 516.6,343.3
			520.6,352.7 522.4,353 527.6,348.3 531.3,348.3 534.8,345.4 538.5,346.2 540.8,350 543.1,351.4 545.1,349.6 546.6,350
			549.8,354.4 550,356.7 556.3,362.4 562.9,362.6 565.5,364.5 564.8,374 567.4,379.4 568.6,381.6 572.3,384.3 570.9,392.6
			567.5,394.3 566.7,397.3 567,398.8 561.5,401.6 555.8,396.6 551.6,396.6 543.2,394.5 533.6,392 528.6,387.5 523.5,386.9
			504.1,379.4 491.4,370.1 485.5,364.2 482.4,363.4 480.7,364.2 		"/>
		<polyline fill="none" stroke="#A7A9AC" points="480.7,364.2 482.1,358.6 487.8,356.2 486.8,351.9 489.5,350.1 496,352.7
			503.4,350.8 507.2,352.9 508.3,352.3 513.5,353.1 511.1,345.6 511.7,342.7 512.3,343.3 513.4,344.2 515.4,342.7 522.6,331.2
			524.7,328.7 525.1,320.6 526.3,319 525,317.4 520.7,312.5 518.8,316.2 516.3,318.2 512.9,316.8 509.4,318 507.2,315.7
			503.6,314.1 498.9,315.5 497.3,314.7 495.9,310.1 493.6,308.5 491,310.7 487.3,311.3 485.1,310.5 484.8,308.5 482.2,306.6
			474.2,309.2 469.4,311 466.5,313 462.5,313 460.9,315.3 461.1,316.9 463.2,317.9 466.9,318.1 467.5,319.3 465.8,323.2
			467.9,328.1 470.4,328.3 471.3,329.5 470.2,333.2 463.1,335.2 460.2,339.3 456.7,338.8 455.6,338 452.8,340.2 451.3,340.8
			448.9,341.7 445,347.4 451.3,355.1 478.6,364.9 480.7,364.2 		"/>
		<polyline fill="none" stroke="#A7A9AC" points="451.3,340.8 450.4,330.8 447.4,327.6 443.7,329.8 440.5,328.9 438.1,327.2
			432.7,331.6 430.5,331.6 426.9,335.2 430.5,337 442.4,344.1 445,347.4 448.9,341.7 451.3,340.8 		"/>
		<polyline fill="none" stroke="#A7A9AC" points="565.5,364.5 564.8,374 567.4,379.4 568.6,381.6 572.3,384.3 570.9,392.6
			567.5,394.3 566.7,397.3 567,398.8 561.5,401.6 568.6,404 574.3,407.6 579,409.2 593.9,409.7 595.1,411.7 599.4,413.6
			606.6,416.5 611.2,415.8 631.4,407.9 641.2,398.1 643.7,397 646.4,398.1 646,399 649.8,401.2 654.1,401.4 655.2,399.7
			662.1,401.9 662.9,399.6 660.9,394.8 662.2,388.8 664.8,385 665.9,379.3 666.6,378.4 648.7,378.5 640.5,377.6 639.6,374.4
			635.5,371.6 635.8,368.4 634.7,367.4 623.9,372 620.7,368.9 620.1,366.7 621.7,362.1 620,358.1 613.4,356.7 606.2,348
			602.5,346.8 602.2,348.5 600.4,350.5 599.1,354.5 593.8,358.3 588.9,358.1 584.9,361.5 582.8,360.7 580.6,356.2 580,355
			578.6,355.4 577.7,359 578.1,362.1 576.1,363 573.2,361.5 565.5,364.5 		"/>
		<polyline fill="none" stroke="#A7A9AC" points="659.2,354.5 669.3,349.6 678.4,347.7 680.1,348.7 683.8,346.9 690.7,344.3
			694.7,341.7 696.9,344.3 701.2,344.4 701.6,344.4 703,348.7 703.9,352.7 709.6,356.7 713.9,356.3 716.2,353.4 721.1,354.3
			728.8,355.4 729.6,358.4 730,371.1 721.8,372.2 717.5,367.7 715.7,367.7 714.2,364 712.3,362.6 711.9,360.6 708.5,358.9
			706.2,358.9 703.3,361.5 698,363.9 690.4,371.6 684.7,365.5 685.1,360.3 678.8,358.1 676.1,366.1 671.6,372.5 670.4,370.7
			670.4,370.2 666.7,365.3 663.4,363.6 660.5,361.2 660.9,358.8 659.2,354.5 		"/>
		<polyline fill="none" stroke="#A7A9AC" points="721.8,372.2 721.2,373.1 729.3,380.1 737,384.6 739,388.9 743.7,391.2 744,398.9
			714.9,401.2 704.8,420.3 708.2,425.2 707.4,427.2 706.9,433.5 706.9,438 694.4,427.6 691.9,424.2 675.6,412 667.1,404.7
			662.1,401.9 662.9,399.6 660.9,394.8 662.2,388.8 664.8,385 665.9,379.3 666.6,378.4 670.4,374.1 671.6,372.5 676.1,366.1
			678.8,358.1 685.1,360.3 684.7,365.5 690.4,371.6 698,363.9 703.3,361.5 706.2,358.9 708.5,358.9 711.9,360.6 712.3,362.6
			714.2,364 715.7,367.7 717.5,367.7 721.8,372.2 		"/>
		<path fill="none" stroke="#A7A9AC" stroke-width="0.5" stroke-miterlimit="2" d="M721.8,372.2l-0.6,0.8l8.1,7l7.7,4.5l2,4.3
			l4.6,2.3l0.4,7.7l-29.1,2.3l-10.1,19.2l3.4,4.9l-0.8,2l-0.5,6.3v4.5l-12.5-10.5l-2.5-3.3L675.6,412l-8.6-7.3l-5-2.9l0.8-2.3
			l-2-4.8l1.3-6.1l2.6-3.8l1.1-5.7l0.7-0.8l3.8-4.3l1.2-1.7l4.5-6.4l2.7-8l6.3,2.3l-0.5,5.1l5.7,6.2l7.6-7.7l5.4-2.4l2.9-2.6h2.3
			l3.5,1.7l0.4,2l1.9,1.4l1.5,3.7h1.8L721.8,372.2z M659.2,354.5l10.1-4.9l9-1.9l1.8,1l3.7-1.8l6.9-2.6l3.9-2.6l2.3,2.6l4.3,0.1h0.4
			l1.4,4.3l1,4l5.7,3.9l4.3-0.4l2.3-2.9l4.9,0.8l7.7,1.1l0.8,3.1l0.4,12.6l-8.2,1.2l-4.3-4.5h-1.8l-1.5-3.7l-1.9-1.4l-0.4-2
			l-3.5-1.7h-2.3l-2.9,2.6l-5.4,2.4l-7.6,7.7l-5.7-6.2l0.5-5.1l-6.3-2.3l-2.7,8l-4.5,6.4l-1.2-1.8v-0.5l-3.7-4.9l-3.3-1.8l-2.9-2.4
			l0.4-2.4L659.2,354.5z M565.5,364.5l-0.7,9.5l2.6,5.4l1.2,2.3l3.7,2.6l-1.3,8.3l-3.5,1.7l-0.8,3.1l0.4,1.4l-5.5,2.9l7,2.4l5.7,3.6
			l4.8,1.7l14.9,0.5l1.2,2l4.3,1.9l7.3,2.9l4.5-0.7l20.2-7.9l9.9-9.9l2.5-1.1l2.6,1.1l-0.4,1l3.8,2.1l4.3,0.2l1.1-1.7l6.9,2.1
			l0.8-2.3l-2-4.8l1.3-6.1l2.6-3.8l1.1-5.7l0.7-0.8l-17.8,0.1l-8.2-0.9l-0.9-3.2l-4-2.7l0.2-3.2l-1.1-1.1l-10.8,4.6l-3.2-3.1
			l-0.6-2.3l1.7-4.5l-1.8-4l-6.5-1.4l-7.3-8.7l-3.7-1.2l-0.2,1.7l-1.8,2l-1.3,4l-5.4,3.8l-4.9-0.2l-4,3.5l-2-0.8l-2.3-4.5L580,355
			l-1.4,0.4l-0.8,3.7l0.4,3.1l-2,0.8l-2.9-1.4L565.5,364.5z M451.3,340.8l-0.8-10l-3.1-3.2l-3.7,2.1l-3.2-0.8l-2.4-1.8l-5.4,4.4
			h-2.3l-3.6,3.7l3.6,1.8l11.9,7l2.6,3.3l3.9-5.7L451.3,340.8z M480.7,364.2l1.4-5.6l5.7-2.4l-1-4.3l2.6-1.8l6.5,2.6l7.4-1.9l3.8,2
			l1.1-0.6l5.2,0.8l-2.4-7.5l0.6-2.9l0.6,0.6l1.1,0.8l2-1.4l7.3-11.5l2-2.5l0.5-8.1l1.2-1.7l-1.3-1.5l-4.3-4.9l-1.9,3.7l-2.5,2
			l-3.5-1.4l-3.4,1.2l-2.3-2.3l-3.6-1.7l-4.8,1.4l-1.5-0.8l-1.4-4.5l-2.3-1.7l-2.6,2.3l-3.7,0.6l-2.3-0.8l-0.2-2l-2.6-1.9l-8,2.6
			l-4.9,1.8l-2.9,2h-4l-1.5,2.3l0.2,1.7l2,1l3.7,0.2l0.6,1.2l-1.7,3.9l2.1,4.9l2.5,0.2l0.8,1.2l-1.1,3.7l-7.1,2l-2.9,4l-3.4-0.5
			l-1.2-0.8l-2.7,2.3l-1.5,0.6l-2.4,0.8l-3.9,5.7l6.3,7.7l27.4,9.8L480.7,364.2z M480.7,364.2l1.4-5.6l5.7-2.4l-1-4.3l2.6-1.8
			l6.5,2.6l7.4-1.9l3.8,2l1.1-0.6l5.2,0.8l-2.4-7.5l0.6-2.9l0.6,0.6l1.1,0.8l2-1.4l1.2,0.6l4,9.4l1.8,0.2l5.2-4.6h3.7l3.4-3l3.7,0.8
			l2.4,3.8l2.3,1.4l2-1.8l1.4,0.4l3.2,4.4l0.2,2.3l6.3,5.7l6.5,0.2l2.6,1.9l-0.7,9.5l2.6,5.4l1.2,2.3l3.7,2.6l-1.3,8.3l-3.5,1.7
			l-0.8,3.1l0.4,1.4l-5.5,2.9l-5.7-5h-4.3l-8.3-2.1l-9.6-2.5l-5-4.5l-5.1-0.6l-19.4-7.5l-12.7-9.3l-5.8-5.9l-3.1-0.7L480.7,364.2z
			 M551,337l-0.8-6.9l-1.5-3.1l-3.7-1.7l-1.9,7.5l1.4,2.3l-2,2.5l0.1,3.2l-4,5.4l-3.7-0.8l-3.4,3h-3.7l-5.2,4.6l-1.8-0.2l-4-9.4
			l-1.2-0.6l7.3-11.5l2-2.5l0.5-8.1l1.2-1.7l-1.3-1.5l3.4-4.4l0.2-1.8l2.6-0.8l11.2,9.8l1.8-3.9l4.9-1.2l1.4,0.8v3.4l1.9,0.6h4
			l1.4,3.1l-0.1,1.7l-0.4,3.2l0.6,0.8l-0.2,10.8l-0.1,0.7l-4.8-1.5L551,337z M538.5,346.2l2.4,3.8l2.3,1.4l2-1.8l1.4,0.4l3.2,4.4
			l2.7-2.6l4.9-0.8l-0.8-3.9l1.1-1.8L557,343l0.7-2.7l-4.8-1.5l-2-1.7h-3.1l-3.4-1.9l-2,2.5l0.1,3.2L538.5,346.2z M544.9,325.4
			l-1.9,7.5l1.4,2.3l3.4,1.9h3.1l-0.8-6.9l-1.5-3.1L544.9,325.4z M557.9,324.7l5.6-0.4l0.8-1.2l3.5-0.5l5.7,1.5l1.7,1.7l0.1,2.4
			l4,1.7l1.1,1.2l-6.5,2.9l-2.3,0.4l-3.2,2.3l-3.1-2.3l-4-4.9l-3.1-0.7l-0.6-0.8L557.9,324.7z M600.4,350.5l-1.3,4l-5.4,3.8
			l-4.9-0.2l-4,3.5l-2-0.8l-2.3-4.5L580,355l-1.4,0.4l-0.8,3.7l0.4,3.1l-2,0.8l-2.9-1.4l-7.7,3l-2.6-1.9l-6.5-0.2l-6.3-5.7l-0.2-2.3
			l2.7-2.6l4.9-0.8l-0.8-3.9l1.1-1.8L557,343l0.7-2.7l0.1-0.7l0.2-10.8l3.1,0.7l4,4.9l3.1,2.3l3.2-2.3l2.3-0.4l6.5-2.9l-1.1-1.2
			l-4-1.7l-0.1-2.4l-1.7-1.7l-5.7-1.5l-1-5.5l2.5-4.3l-1.2-4.5l2-3.5l2-1.2l1.5-6.4l1.8-0.8l1.4,1.4l0.2,1.8l4.2,2.5l-0.8,2.3
			L577,305v4l3.4,2.5l4.3-2.3l4.5,2.1l0.8,1l-3,4.3v5.1l-2.9,3l3.2,4.8l4.6,2.9l0.5,0.8l-3.9,2l1.8,6.2l-2.9,0.6v2.9l4.6,2.3
			l0.5,2.4l4.3-0.6l1.2-0.5L600.4,350.5z M559.6,283.3l2,4.5l1.4,0.8l1.9-0.6l2.5,2l-1.4,6h-4l-2,2l0.8,2.6l-1,3.4l0.6,1.9l0.8,1
			l5.9-4.6l1.9-2l1.4,1.4l-0.5,3.2l-2,3.5l1.2,4.5l-2.5,4.3l1,5.5l-3.5,0.5l-0.8,1.2l-5.6,0.4l0.1-1.7l-1.4-3.1h-4l-1.9-0.6v-3.4
			l-1.4-0.8l-4.9,1.2l-1.8,3.9l-11.2-9.8l0.6-2.6v-3.3l4.4-2.5l0.8-1.1v-3.2l4.6-4.5l1-4.3l5.5-0.7l-0.6-2.9l3.5,1.4l2,1.8l4.3-0.6
			L559.6,283.3z M525,317.4l3.4-4.4l0.2-1.8l2.6-0.8l0.6-2.6v-3.3l4.4-2.5l0.8-1.1v-3.2l4.6-4.5l1-4.3l5.5-0.7l-0.6-2.9l-1.7-4.2
			l-2.6-2.9l-4.9,4l-4.5-1.9l-2.3,2l1.7,3.7l-1.2,2l-4.3,0.6l-1,1.7l-2.6,3.4l-6.5,0.7l-3.1,5.4l2,2.6l4,10L525,317.4z M486.2,269.7
			l-7.1,8.1l-4.4-1.2l-3.5-1.1l-0.6-6.2l0.6-1.8l-1.1-2.9l0.4-1.7l3.5-1.3l2.9-2.9l5.7,4.6l0.7,2.3L486.2,269.7z M482.2,306.6l2-3.1
			l-1.9-6.1l5.1-7.8l3.3-2.3l2.4-2.3l-0.9-3.7l1.4-2l-0.4-4.9l1.3-1.7l5,0.5l2.9,2.3h3.1l5.8,4.8l2.6,1.1l4.3-3.7l13.4,4.8l1.7,3.7
			l-1.2,2l-4.3,0.6l-1,1.7l-2.6,3.4l-6.5,0.7l-3.1,5.4l2,2.6l4,10l-1.9,3.7l-2.5,2l-3.5-1.4l-3.4,1.2l-2.3-2.3l-3.6-1.7l-4.8,1.4
			l-1.5-0.8l-1.4-4.5l-2.3-1.7l-2.6,2.3l-3.7,0.6l-2.3-0.8l-0.2-2L482.2,306.6z M426.9,335.2l3.6-3.7h2.3l5.4-4.4l2.4,1.8l3.2,0.8
			l3.7-2.1l3.1,3.2l0.8,10l1.5-0.6l2.7-2.3l1.2,0.8l3.4,0.5l2.9-4l7.1-2l1.1-3.7l-0.8-1.2l-2.5-0.2l-2.1-4.9l1.7-3.9l-0.6-1.2
			l-3.7-0.2l-2-1l-0.2-1.7l1.5-2.3h4l2.9-2l4.9-1.8l8-2.6l2-3.1l-1.9-6.1l5.1-7.8l3.3-2.3l2.4-2.3l-0.9-3.7l1.4-2l-0.4-4.9l1.3-1.7
			h-0.1l-7.7-3.7l-0.5,0.6l-7.1,8.1l-4.4-1.2l-3.5-1.1l-0.6-6.2l-1.9,0.2l-2.4,2.3l1.9,6.3l2,2.3l-0.6,2.6l-3.7,3.1l-4.9,0.4
			l-0.5,4.5H459l-12.1-3.6l0.2-6.3l3.4-1.2l1.1-2.9l-0.6-2.5l9.3-9.9l-0.2-2l-4-3.8l-1.7,2.9l-4.5,5.7l-1.4-0.8l0.2-9.5l-1.2-1.1
			l-2.9,6.7l-1.2-1.4l1.4-7.7l-2.4-1.7l-1.5,3.9l1.4,3.2l-7.7,2.9l-1.5,5.2l1.7,3.6l3.1,3.7l-1,5.7l4.3,4.3l-4.3,4l-1.2,0.2
			l-1.3,9.5l-0.2,0.5l-6.1-4.6l-4.3-2.4l-7.6,2.7l-2.6,5.5l-1.2,2.9l-4.2,1.2l-3.9,1.4l0.8,2.6l2.6,7.4l11.9,16.4L426.9,335.2z
			 M406.7,256.5l2.3-0.9l0.6-1.8l-2.1-3.6l2.6-2.7l-0.4-2.5l1.2-1.4l7.7,2l3.3,3.2l-1.1,3.3l-0.7,2.5l1.1,0.5l2.6-0.6l3.1,0.6v1.2
			l3.4,3.5l2.3-1l2.3,1.4l-0.2,1.7l-1.5,5.2l1.7,3.6l3.1,3.7l-1,5.7l4.3,4.3l-4.3,4l-1.2,0.2l-1.3,9.5l-0.2,0.5l-6.1-4.6l-4.3-2.4
			l-7.6,2.7l-2.6,5.5l-4.3-2.9l-1.7-0.5l1.1-2.3l4-3.3l1.3-3.9l0.8-5.7l-4.9-3.8l-4.4-10.3l0.5-2.4l2.7,2.5l0.8-0.8l-3.3-5
			L406.7,256.5z M406.7,256.5l-2.9-0.6l-3.8-5.7l-2.4-2.3l0.6-1.4L385,232.6l-6.4-10.1l-2.3-4l-6.1-3l-3.5-6.9H363l-4.3-4.5
			l-0.4-3.2l-1.7-3.2v-1.8l-5.7-3.7l-4.2-3.1l-4-3.9l-1.9-2l-1.4,2L332,181l-1.1-0.2v-2l-2.1-4.3l1.4-4l3.1-3.8l-0.2-1.8l9.9-7
			l7.3-7.3l3.7-1.8l4.9,2.1l1.3,1.8l0.2,3.1l2.6,4.3l1,8.3l5.1,2l3.4,0.7l6.1,12l-1.8,8.6l2.9,9l6.3,6.2l1.8,6.3l2.6,1.7l3.7-2.3
			l6.7,5.9l0.8,7.1l3,6.2l0.6,5.2l5.8,6.4l-1.2,1.4l0.4,2.5l-2.6,2.7l2.1,3.6l-0.6,1.8L406.7,256.5z M378.5,183.1l7.7-1.3l3.7-3.7
			l0.8-4.3l1.9-1.4l-0.5-5.1l1.4-1.4l2.5-1.5l2.5-7.1l2-1.4l5.7,4.3l1.7-0.7l7.3,4.9l4.2-1l8.9,2.5l3.2,1.7l7.6-9.8l10.8,2.1
			l7.8,9.4l-1.8,6.3l0.1,6.9l-2.9,6.5l0.5,5.1l4.3,4.5v2.4l8.7,4.4l3.6-7.4l3.2,8.9l-0.6,4.9l-16.2,1.1l-11.3,8.4L445,231l-4.9,5.1
			l-1.9,6.3l-1.1,1.7l-2.3,16.1l-2.3-1.4l-2.3,1l-3.4-3.5v-1.2l-3.1-0.6l-2.6,0.6l-1.1-0.5l0.7-2.5l1.1-3.3l-3.3-3.2l-7.7-2
			l-5.8-6.4l-0.6-5.2l-3-6.2l-0.8-7.1l-6.7-5.9l-3.7,2.3l-2.6-1.7l-1.8-6.3l-6.3-6.2l-2.9-9L378.5,183.1z M470.3,198l3.2,8.9
			l-0.6,4.9l-16.2,1.1l-11.3,8.4L445,231l-4.9,5.1l-1.9,6.3l-1.1,1.7l-2.3,16.1l-0.2,1.7l7.7-2.9l-1.4-3.2l1.5-3.9l2.4,1.7l-1.4,7.7
			l1.2,1.4l2.9-6.7l1.2,1.1l-0.2,9.5l1.4,0.8l4.5-5.7l1.7-2.9l4,3.8l0.2,2l-9.3,9.9l0.6,2.5l-1.1,2.9l-3.4,1.2l-0.2,6.3L459,291h1.7
			l0.5-4.5l4.9-0.4l3.7-3.1l0.6-2.6l-2-2.3l-1.9-6.3l2.4-2.3l1.9-0.2l0.6-1.8l-1.1-2.9l0.4-1.7l3.5-1.3l2.9-2.9l5.7,4.6l0.7,2.3
			l3,3.9l0.5-0.6l7.7,3.7h0.1l3.2-4.2l-0.1-4.3l1.2-5.9l-1.2-2.9l-3.1-0.2l-4,3.4h-1.1l-9.5-9.9l-0.4-4.5l-1.4-2.9l2.5-3.7l1.7-0.4
			l8.3-6.4l9.3-8.3l3.1-4.6l6.2-8.3l-2.3,0.4l-5.9-5.4l-3.8-0.4l-4.8,0.1l-0.6-1.7l-7.9-5.5l-9.2-1.3L470.3,198z M525,240.7l3.7,4
			v1.7l-2.6,3.8l9.9,4.6l2.6-1.7l2.3,0.6l2.9,4.3l7.7,3l6.5-1.4l3.9,4.2l-0.1,1.8l-3.1,4l1.4,3.9l-2.5,3.8l1.7,2l0.4,3.9l-2.3,4.6
			l-4.3,0.6l-2-1.8l-3.5-1.4l-1.7-4.2l-2.6-2.9l-4.9,4l-4.5-1.9l-2.3,2l-13.4-4.8l-4.3,3.7l-2.6-1.1l-5.8-4.8h-3.1l-2.9-2.3l-5-0.5
			l3.2-4.2l-0.1-4.3l1.2-5.9l-1.2-2.9l-3.1-0.2l-4,3.4h-1.1l-9.5-9.9l-0.4-4.5l-1.4-2.9l2.5-3.7l1.7-0.4l8.3-6.4l9.3-8.3l3.1-4.6
			l6.2-8.3l5.8,9.2l-0.2,6.5l3,3.9l-0.2,11.2l1.8,1.2l2.9-1.3L525,240.7z M509.2,209.7l0.8-6.1l1.1-2.9l-1.7-1.7l0.5-2.3l6.9-2.6
			l1.2-2l-1.9-3.3l-6.3-6.3l-0.8-5.5l-3.6-4.4l-1.9-1.2l-2-3.9l7.6-7l1.7,0.8l3.1-3.4l1.2-4.3l-1.4-1.9h-2.3l-1.5-2.6l0.6-2.3
			l6.5-3.7l1.5-5.2l3.5-2.6l3.7,2.9l4.4-3.5l1.3,2l-3.3,4.3l0.6,2.3l2.9,1.2l0.4,4.8l0.1,5.7l2.9,1.7l0.5,3.4l3.8,1.4l0.4,5.4
			l3.4,1.8l1.7,4.3l2,0.4l3.7,2.4l4.3-1.2l1.4,1.4l0.1,7.4l2.6,4.9l-2.1,3.4l-7.1,5.9l-2-0.8l-2,0.5l-1.1,6.8l-2.9,0.6l-6.5,3.7
			l-1.4,2.1l2.3,2.1l-0.4,6.9l2.5,4.9l-3.8,4l-3.4,0.6l-1.4,2v5.4h-2.9l-1.3,4.3l-2.9-0.2l-2.9,1.3l-1.8-1.2l0.2-11.2l-3-3.9
			l0.2-6.5L509.2,209.7z M185.9,5.5l47.7,1.3l-2.4,4.9l-3.6,3.2l-1.7,6.3l0.6,2.9l5.1,4.2l0.6,1.4l-0.5-0.4l-2-0.4L227,43.7l0.6,3.5
			l1.4,2.6l1.3,19.2l3.2,6.1l3,2.9l8.2,9l5,8.6l0.4,2.6l4.3,1.4l2.6,9.3l4.6,2.9l1,4.9l0.8,2v1.4l-28.3-1.8l0.6-2.6l0.7-4.3l2-4.3
			l-5.8-7.7l-4.3-5l-9.3-10.6l-3.9-3l-7.6-6.9v-2.3l-1.7-2.4l0.1-7.9l-3.9-3.9l-0.7-10l-3.4-2.9l-0.4-5.7l-3.5-5.7l-1.4-2.7
			l-0.2-2.9l1.8-3.6l-1.4-2.7l-2.5-1.4l-1.5-5.7l-3.2-5.7l0.6-2.3l-0.4-0.7L185.9,5.5z M530,134.8l-5.2-8.3l-4.4-3l-0.8-2.6
			l-7.6-16.8l-7.7-8.4l-9.3-7.6l-7.1-0.2l-8.6-2.3l-2.6,2.4l-2.9,0.2l-3.6,2.4l-2.6,6.9l-5.8,8.2l-3.1,0.4l-14,25.6l5.4,28.2
			l7.8,9.4l-1.8,6.3l0.1,6.9l-2.9,6.5l0.5,5.1l4.3,4.5v2.4l8.7,4.4l3.6-7.4l4.5-1.9l9.2,1.3l7.9,5.5l0.6,1.7l4.8-0.1l3.8,0.4
			l5.9,5.4l2.3-0.4l0.8-6.1l1.1-2.9l-1.7-1.7l0.5-2.3l6.9-2.6l1.2-2l-1.9-3.3l-6.3-6.3l-0.8-5.5l-3.6-4.4l-1.9-1.2l-2-3.9l7.6-7
			l1.7,0.8l3.1-3.4l1.2-4.3l-1.4-1.9h-2.3l-1.5-2.6l0.6-2.3l6.5-3.7l1.5-5.2l3.5-2.6l3.7,2.9L530,134.8z M458.7,106l-14,25.6
			l5.4,28.2l-10.8-2.1l-7.6,9.8l-3.2-1.7l-8.9-2.5l-4.2,1l-7.3-4.9l-1.7,0.7l-5.7-4.3l-2,1.4l-2.5,7.1l-2.5,1.5l-1.4,1.4l0.5,5.1
			l-1.9,1.4l-0.8,4.3l-3.7,3.7l-7.7,1.3l-6.1-12l-3.4-0.7l-5.1-2l-1-8.3l-2.6-4.3l-0.2-3.1l-1.3-1.8l-4.9-2.1l-3.7,1.8l-3.1-3.8
			l-0.1-8.6l-1.4-2.5l-4.3-7l-2.7-7.7l2.6-2.9l7.4,2.5l1.2-1.2l-1-10.6l-0.5-14.9l2-2.3l1.3-15.1l-2.1-12.3l-0.7-12l-1.9-0.8l1.4-4
			l12.6,0.5l-0.2-2.3l0.2-7.5l33.8,0.7l5.4,6.1l4.6,4.3l7.5,7.6l5.1,4.9l8.4,6.2l2.3,6.8l2.4,3.4l0.4,7.1l4.6,7.4l3.4,1.7l4.5,4
			l3.4,0.4l4.4,3.4l2.6,0.6L458.7,106z M232.3,29.6l-0.6-1.4l-5.1-4.2l-0.6-2.9l1.7-6.3l3.6-3.2l3.8,1.9l70.5,31.8l42.7,2l-1.4,4
			l1.9,0.8l0.7,12l2.1,12.3l-1.3,15.1l-2,2.3l0.5,14.9l1,10.6l-1.2,1.2l-7.4-2.5l-2.6,2.9l2.7,7.7l4.3,7l1.4,2.5l0.1,8.6l3.1,3.8
			l-7.3,7.3l-9.9,7l-0.5-5.1l-3.7-4.6l-3.1,0.8l-3.7-1.4l-1.9-6.9l-4.5-2.7l-3.2-1.1l-4-4.3l-1.4-7.6l0.8-5l-5-1.3l-1.1,0.6
			l-0.6,0.6l-3.2-2l-3.7-3.6l-3.1-6.7l-7-5.9l-2.3-2.5v-2.9l-4.6-6.2l-0.6-5.2l-2.9-1.9l0.1-2.9l-6.7-12.5l-0.2-5.7l-2.1-5.5
			l-3.2-7.1l1.1-6.8v-2.9l-3.7-2.6l-2.6-0.2l-6.7-7.4l-2.9-1.4l-3.4,1.9l-6.8-4.9L232.3,29.6z M263.4,119.9v1.4l1.8,6.8l5.2,5.6
			l1.4,4.6l4,3.9l1.4,0.6v3.5l1.4,3.1l1,4.3l2,2v-3.4l-1-2.5l0.6-1l4.4,4.5l0.2,3.1l1.4,1.4l-0.6,1.8l2,4.3l0.5,4.3l-1.4,2.9l3.8,8
			l3.1,2.1l0.8,5.5l3.9,7.6l1.4,3.8l-1.3,7.1l1.4,4.8l5.7,3.8l1.4-1.3l0.2-2.9l2.3,0.6l5,6.5l2.3,0.8l0.8,4.3l1.8,4.2l5,6.3l-2,5.9
			l-5,3.3l-2.6,2.5l-1.7,0.4l-3.5-3.7l-2.7-11.8l-3.8-3.3l-4-2.5l-11.8-11.9l-8.9-8.7h-1.2l-0.6-3l-1.4,0.9l-2-3.4l-1.7-0.6l-2-5.7
			l2.6-15.7l-5-12.4l-3.1-1.4l-16.7-14.2l-1.8,0.8l-3.1,0.1l-4.3-5.5l-2.6-0.8l-3.2-2.9l-5.7-3l-1.2-2.4l-8.9-11.3l0.8-0.5l6.3,1.5
			l5.1-1.4l2.3,2.7l2.6,0.6l3.4,1.4l0.6-1.8l-1-0.8l-2.5-0.6l-2.9-3.1l2.5-2.3L263.4,119.9z M271.9,202l-1.8-3.2"/>
	</g>
</g>
</svg>
