<?xml version="1.0" encoding="utf-8"?>
<!-- Generator: Adobe Illustrator 19.1.0, SVG Export Plug-In . SVG Version: 6.00 Build 0)  -->
<svg version="1.1" id="Layer_1" xmlns="http://www.w3.org/2000/svg" xmlns:xlink="http://www.w3.org/1999/xlink" x="0px" y="0px"
	 viewBox="-424 315.5 170 170" style="enable-background:new -424 315.5 170 170;" xml:space="preserve">
<style type="text/css">
	.st0{fill:#62863F;}
	.st1{fill:#A65425;}
	.st2{fill:#DDE7D8;}
	.st3{fill:#CED8C3;}
	.st4{fill:#BECEB2;}
	.st5{fill:#B7C6A7;}
	.st6{fill:#AFC19D;}
	.st7{fill:#A7BC96;}
	.st8{fill:#A1B58C;}
	.st9{fill:#97B183;}
	.st10{fill:#8EAB78;}
	.st11{fill:#86A270;}
	.st12{fill:#7F9D66;}
	.st13{fill:#709054;}
	.st14{fill:#678A44;}
</style>
<g>
	<g>
		<path class="st0" d="M-394.2,415.4c-2.3-1-4.6-1.7-7-2l-0.7,0.5c2.4,0.3,4.8,0.8,7.1,1.8C-394.6,415.7-394.4,415.5-394.2,415.4"/>
		<path class="st0" d="M-392.7,414.5c-2.3-1.1-4.7-1.7-7.2-2.1l-0.7,0.5c2.5,0.3,5,0.9,7.2,1.9C-393.2,414.7-393,414.6-392.7,414.5"
			/>
		<path class="st0" d="M-395.5,416.4c-2.2-1-4.6-1.6-7-2l-0.7,0.5c2.4,0.3,4.8,0.8,7.1,1.8C-395.9,416.6-395.7,416.5-395.5,416.4"/>
		<path class="st0" d="M-399,419.6c-2.4-1.1-4.9-1.8-7.4-2.1l-0.2,0.2l-0.7,0.3c2.7,0.2,5.4,0.9,7.9,2.1
			C-399.3,419.9-399.1,419.7-399,419.6"/>
		<path class="st0" d="M-397.9,418.5c-2.3-1.1-4.7-1.7-7.1-2l-0.7,0.5c2.5,0.3,5,0.9,7.3,2C-398.2,418.8-398.1,418.6-397.9,418.5"/>
		<path class="st0" d="M-396.7,417.4c-2.3-1-4.6-1.7-7-2l-0.7,0.5c2.4,0.3,4.9,0.8,7.2,1.9C-397.1,417.7-397,417.5-396.7,417.4"/>
		<path class="st1" d="M-396,380.5c-11,0-20,9-20,20s9,20,20,20s20-9,20-20S-385,380.5-396,380.5 M-396,422.6
			c-12.2,0-22.1-9.9-22.1-22.1s9.9-22.1,22.1-22.1c12.2,0,22.1,9.9,22.1,22.1C-373.9,412.7-383.8,422.6-396,422.6"/>
		<path class="st2" d="M-398.9,401.6c-5.9,5.8-6.1,4.4-9.3,5.5c-3.1,1.1-3.3,4.1-3.3,4.1C-400.2,410.7-398.9,401.6-398.9,401.6"/>
		<path class="st3" d="M-400,399.4c-3.7,1.8-5.4,2.2-6.6,2.2c-0.5,0-0.9-0.1-1.4-0.1c-0.5-0.1-0.9-0.1-1.6-0.1h-0.1
			c-3.1,0-4.1,2.6-4.1,2.6c1.6,0.5,3.1,0.7,4.4,0.7C-402.7,404.6-400,399.4-400,399.4"/>
		<path class="st4" d="M-410.4,395.8c-2,0-3.1,1.4-3.1,1.4c2.6,1.7,4.9,2.3,6.9,2.3c4.1,0,6.6-2.5,6.6-2.5c-2,0.3-3.4,0.4-4.4,0.4
			c-2.5,0-2.8-0.7-4.7-1.3C-409.6,395.9-410,395.8-410.4,395.8"/>
		<path class="st5" d="M-409,390.7c-1.1,0-1.8,0.4-1.8,0.4c2.7,3.6,5.7,4.5,8,4.5c2,0,3.4-0.7,3.4-0.7c-6.1-1.2-5.3-2-7.4-3.5
			C-407.6,390.9-408.3,390.7-409,390.7"/>
		<path class="st6" d="M-406.1,386.2c-0.4,0-0.7,0.1-0.7,0.1c2.1,5.8,6.4,6.4,8.2,6.4c0.5,0,0.8-0.1,0.8-0.1c-5.1-2.7-4.2-3.2-5.5-5
			C-404.2,386.4-405.4,386.2-406.1,386.2"/>
		<path class="st7" d="M-401.5,383.1c-0.1,7.1,5.6,8.2,5.6,8.2c-3.5-3.8-2.6-4-3.2-6C-399.6,383.3-401.5,383.1-401.5,383.1"/>
		<path class="st8" d="M-396.3,382.1c-2.2,6,2.3,8.8,2.3,8.8c-1.8-4.4-0.9-4.2-0.8-6.1C-394.7,382.9-396.3,382.1-396.3,382.1"/>
		<path class="st9" d="M-391.3,382.8c-3.8,4.6-0.7,8.4-0.7,8.4c-0.2-4.4,0.5-4,1.2-5.6S-391.3,382.8-391.3,382.8"/>
		<path class="st10" d="M-386.7,384.3c-4.9,2.7-3.4,7-3.4,7c1.3-3.9,1.7-3.3,2.8-4.5C-386.2,385.6-386.7,384.3-386.7,384.3"/>
		<path class="st11" d="M-383.8,386.9c-4.7,1.2-4.5,5.1-4.5,5.1c2-3,2.2-2.4,3.5-3.1C-383.7,388.2-383.8,386.9-383.8,386.9"/>
		<path class="st12" d="M-382.8,390.3c-3.2,0-4.3,2.5-4.3,2.5c1.7-1,2.4-1.2,3-1.2c0.1,0,0.3,0,0.4,0c0.2,0,0.3,0,0.4,0
			c0.1,0,0.2,0,0.3,0c1.3-0.1,1.7-1.2,1.7-1.2C-381.8,390.3-382.3,390.3-382.8,390.3"/>
		<path class="st13" d="M-382.4,392.8c-2.2,0-3.3,1.5-3.3,1.5c1.3-0.4,2-0.5,2.4-0.5c0.6,0,0.9,0.2,1.6,0.3c0.1,0,0.2,0,0.3,0
			c1,0,1.5-0.8,1.5-0.8C-380.9,392.9-381.7,392.8-382.4,392.8"/>
		<path class="st14" d="M-382,395.1c-1.6,0-2.6,1.1-2.6,1.1c0.8-0.2,1.4-0.2,1.8-0.2c0.8,0,1,0.3,1.7,0.5c0.2,0.1,0.3,0.1,0.5,0.1
			c0.7,0,1.2-0.6,1.2-0.6C-380.5,395.3-381.3,395.1-382,395.1"/>
		<path class="st0" d="M-384.3,398c0,0,2-1.6,4.4,0.3c0,0-0.6,0.6-1.4,0.3C-382.2,398.2-382,397.8-384.3,398"/>
		<path class="st1" d="M-391.6,405.9c5.3,2.9,8.9-0.2,9.8-0.8c0.3-0.2,0.4-0.4,0.4-0.5c0.1-0.3-0.1-0.6-0.3-0.7
			c0.2-0.2,0.2-0.4,0.2-0.5c0.1-0.2,0-0.3-0.2-0.5c-0.5-0.3-0.7,0.1-1.3,0.5c-0.7,0.5-1.9,1.5-4.7,1.5c-1.9-0.1-4.5-2.1-5.7-3.3
			v-1.5c1.4-0.5,2.4-1.9,2.4-3.5c0-2.1-1.7-3.7-3.7-3.7c-2.1,0-3.7,1.7-3.7,3.7c0,1.4,0.8,2.6,2,3.3v2c0,4.8-7.5,11.2-15.2,11.2
			l2.3,2.7l2.4,2.3l12.2-9.5c0,0,8.6,6.2,11.7,8.2l3-2.1l1.7-2.7C-384.4,412.4-390.7,408.2-391.6,405.9"/>
		<path class="st0" d="M-385.8,414.9c-3.2,1.3-6.2,3.1-8.8,5.5c0.4-0.1,0.8-0.1,1.3-0.1c2.4-2.1,5.2-3.8,8.2-4.9L-385.8,414.9z"/>
		<path class="st0" d="M-387,417.1c-1.6,0.8-3,1.7-4.4,2.8c0.7-0.2,1.4-0.4,2.1-0.6c0.8-0.6,1.7-1.1,2.6-1.5
			c0.8-0.4,1.6-0.7,2.4-1.1c0.2-0.2,0.4-0.3,0.5-0.4l-0.5-0.4C-385.3,416.3-386.2,416.7-387,417.1"/>
		<path class="st0" d="M-389.5,415.7c0.9-0.5,2-0.9,3-1.3l-0.8-0.6c-0.8,0.3-1.7,0.7-2.5,1.2c-2.7,1.4-5.2,3.3-7.2,5.5
			c0.4,0,0.7,0.1,1.1,0.1C-394.1,418.6-392,416.9-389.5,415.7"/>
		<path class="st0" d="M-390.9,414.6c0.9-0.5,1.9-0.9,2.8-1.3l-0.7-0.5c-0.8,0.3-1.6,0.7-2.4,1.1c-3.1,1.6-5.8,3.7-8,6.3
			c0.3,0.1,0.6,0.1,0.9,0.1C-396.2,418-393.7,416.1-390.9,414.6"/>
		<path class="st0" d="M-344,415.4c0-1.5,0.9-2.5,2.3-2.5c0.5,0,0.9,0.1,1.3,0.3l-0.1,0.5c-0.3-0.2-0.7-0.3-1.2-0.3
			c-1.1,0-1.7,0.7-1.7,2c0,1.2,0.7,1.8,1.8,1.8c0.5,0,0.9-0.2,1.2-0.3l0.1,0.5c-0.4,0.2-0.9,0.3-1.3,0.3
			C-343.1,417.7-344,416.8-344,415.4"/>
		<path class="st0" d="M-337.1,416c0-0.8-0.4-1.3-1-1.3s-1,0.5-1,1.3c0,0.7,0.4,1.3,1,1.3C-337.4,417.3-337.1,416.7-337.1,416
			 M-339.7,416c0-1,0.5-1.7,1.6-1.7c1,0,1.6,0.7,1.6,1.7c0,1.1-0.6,1.7-1.6,1.7C-339,417.7-339.7,417.1-339.7,416"/>
		<path class="st0" d="M-335.7,414.4l0.5-0.1v0.5c0.3-0.3,0.7-0.5,1.1-0.5c0.7,0,1.1,0.4,1.1,1.1v2.3h-0.5v-2.2
			c0-0.4-0.2-0.7-0.7-0.7c-0.4,0-0.7,0.2-1,0.5v2.4h-0.5V414.4L-335.7,414.4z"/>
	</g>
	<polygon class="st0" points="-330.4,412.7 -329.8,412.6 -329.8,417.6 -330.4,417.6 	"/>
	<g>
		<path class="st0" d="M-328.2,417.3c0.3,0,0.7-0.3,0.9-0.5v-0.6c-0.7,0.2-1.3,0.3-1.3,0.8C-328.6,417.1-328.4,417.3-328.2,417.3
			 M-326.3,417.6c-0.1,0.1-0.4,0.1-0.5,0.1c-0.3,0-0.4-0.1-0.4-0.4c-0.2,0.2-0.5,0.5-0.9,0.5c-0.5,0-0.9-0.3-0.9-0.8
			c0-0.8,1.2-1.1,1.8-1.2v-0.5c0-0.4-0.1-0.6-0.6-0.6c-0.4,0-0.7,0.1-1.1,0.3l-0.1-0.4c0.4-0.2,0.9-0.3,1.3-0.3
			c0.7,0,0.9,0.4,0.9,0.9v2c0,0.2,0.1,0.2,0.3,0.2h0.2v0.3H-326.3z"/>
		<path class="st0" d="M-321.7,416.7v-1.8c-0.2-0.1-0.5-0.2-0.8-0.2c-0.7,0-1.1,0.5-1.1,1.3c0,0.7,0.3,1.2,0.9,1.2
			C-322.3,417.3-321.9,416.9-321.7,416.7 M-321.7,417.7v-0.5c-0.3,0.3-0.6,0.4-1.1,0.4c-0.8,0-1.3-0.7-1.3-1.6
			c0-1.2,0.7-1.8,1.6-1.8c0.5,0,0.9,0.1,1.3,0.3v3.3c0,0.9-0.6,1.4-1.6,1.4c-0.4,0-0.8-0.1-1.2-0.2l0.1-0.5c0.3,0.1,0.8,0.2,1.1,0.2
			C-322.2,418.8-321.7,418.6-321.7,417.7"/>
		<path class="st0" d="M-318.1,415.5c0-0.1,0-0.1,0-0.2c0-0.4-0.2-0.7-0.7-0.7s-0.8,0.3-0.9,0.8
			C-319.8,415.5-318.1,415.5-318.1,415.5z M-317.6,417.4c-0.3,0.2-0.7,0.3-1.2,0.3c-0.9,0-1.6-0.6-1.6-1.7c0-1.2,0.7-1.8,1.6-1.8
			c0.8,0,1.2,0.4,1.2,1.2c0,0.2,0,0.3-0.1,0.4h-2.2v0.2c0,0.8,0.5,1.2,1.2,1.2c0.4,0,0.7-0.1,0.9-0.3L-317.6,417.4z"/>
		<path class="st0" d="M-316.7,414.4l0.5-0.1v0.5c0.3-0.3,0.7-0.5,1.1-0.5c0.7,0,1.1,0.4,1.1,1.1v2.3h-0.5v-2.2
			c0-0.4-0.2-0.7-0.7-0.7c-0.4,0-0.7,0.2-1,0.5v2.4h-0.5L-316.7,414.4L-316.7,414.4z"/>
		<path class="st0" d="M-313.3,414.4h0.6l0.2-0.8h0.4v0.8h1.1v0.4h-1.1v2c0,0.3,0.1,0.5,0.4,0.5c0.2,0,0.5-0.1,0.6-0.2l0.1,0.4
			c-0.2,0.1-0.5,0.2-0.8,0.2c-0.6,0-0.8-0.3-0.8-0.9v-2h-0.6L-313.3,414.4L-313.3,414.4z"/>
		<path class="st0" d="M-308.4,415.5c0-0.1,0-0.1,0-0.2c0-0.4-0.2-0.7-0.7-0.7s-0.8,0.3-0.9,0.8
			C-310.1,415.5-308.4,415.5-308.4,415.5z M-307.9,417.4c-0.3,0.2-0.7,0.3-1.2,0.3c-0.9,0-1.6-0.6-1.6-1.7c0-1.2,0.7-1.8,1.6-1.8
			c0.8,0,1.2,0.4,1.2,1.2c0,0.2,0,0.3-0.1,0.4h-2.2v0.2c0,0.8,0.5,1.2,1.2,1.2c0.4,0,0.7-0.1,0.9-0.3L-307.9,417.4z"/>
		<path class="st0" d="M-304.9,415.2v1.8c0.2,0.2,0.5,0.2,0.8,0.2c0.6,0,1.1-0.4,1.1-1.3c0-0.7-0.3-1.2-0.9-1.2
			C-304.3,414.7-304.7,414.9-304.9,415.2 M-304.9,419.1h-0.5v-4.8l0.5-0.1v0.5c0.3-0.2,0.6-0.5,1.1-0.5c0.8,0,1.4,0.7,1.4,1.7
			c0,1.2-0.6,1.8-1.6,1.8c-0.3,0-0.6-0.1-0.8-0.2L-304.9,419.1L-304.9,419.1z"/>
		<path class="st0" d="M-299.3,416c0-0.8-0.4-1.3-1-1.3c-0.6,0-1,0.5-1,1.3c0,0.7,0.4,1.3,1,1.3C-299.6,417.3-299.3,416.7-299.3,416
			 M-301.9,416c0-1,0.5-1.7,1.6-1.7c1.1,0,1.6,0.7,1.6,1.7c0,1.1-0.6,1.7-1.6,1.7C-301.3,417.7-301.9,417.1-301.9,416"/>
		<path class="st0" d="M-296.2,414.8c-0.1,0-0.2,0-0.2,0c-0.3,0-0.6,0.2-1.1,0.6v2.2h-0.5v-3.3l0.5-0.1v0.7c0.3-0.4,0.6-0.7,1-0.7
			c0.1,0,0.3,0.1,0.3,0.1L-296.2,414.8z"/>
		<path class="st0" d="M-293.1,417.7c-0.4,0-0.7-0.1-1-0.3l0.1-0.4c0.2,0.1,0.6,0.3,0.9,0.3c0.4,0,0.7-0.2,0.7-0.5
			c0-0.3-0.2-0.4-0.6-0.5c-0.5-0.2-1-0.4-1-1c0-0.6,0.5-0.9,1.2-0.9c0.3,0,0.7,0.1,0.8,0.2l-0.1,0.4c-0.2-0.1-0.5-0.2-0.8-0.2
			c-0.4,0-0.6,0.2-0.6,0.5s0.4,0.4,0.7,0.6c0.4,0.2,0.9,0.4,0.9,0.9C-291.8,417.4-292.4,417.7-293.1,417.7"/>
		<path class="st0" d="M-288.4,417.6h-0.5v-0.4c-0.3,0.3-0.7,0.5-1.1,0.5c-0.6,0-1.1-0.4-1.1-1.2v-2.2h0.5v2.2
			c0,0.5,0.3,0.7,0.6,0.7c0.4,0,0.8-0.2,1-0.5v-2.4h0.5L-288.4,417.6L-288.4,417.6z"/>
		<path class="st0" d="M-286.7,417.7c-0.4,0-0.7-0.1-1-0.3l0.1-0.4c0.2,0.1,0.6,0.3,0.9,0.3c0.4,0,0.7-0.2,0.7-0.5
			c0-0.3-0.2-0.4-0.6-0.5c-0.5-0.2-1-0.4-1-1c0-0.6,0.5-0.9,1.2-0.9c0.3,0,0.7,0.1,0.8,0.2l-0.1,0.4c-0.2-0.1-0.5-0.2-0.8-0.2
			c-0.4,0-0.6,0.2-0.6,0.5s0.4,0.4,0.7,0.6c0.4,0.2,0.9,0.4,0.9,0.9C-285.4,417.4-286,417.7-286.7,417.7"/>
		<path class="st0" d="M-282.5,415.2v1.8c0.2,0.1,0.5,0.2,0.8,0.2c0.6,0,1.1-0.4,1.1-1.3c0-0.8-0.3-1.2-0.9-1.2
			C-281.9,414.7-282.3,414.9-282.5,415.2 M-280.1,415.9c0,1.2-0.6,1.8-1.6,1.8c-0.4,0-0.7-0.1-0.9-0.3l-0.2,0.3h-0.2v-5l0.5-0.1v2.1
			c0.3-0.2,0.6-0.5,1.1-0.5C-280.6,414.3-280.1,415-280.1,415.9"/>
		<path class="st0" d="M-276.9,416c0-0.8-0.4-1.3-1-1.3s-1,0.5-1,1.3c0,0.7,0.4,1.3,1,1.3C-277.2,417.3-276.9,416.7-276.9,416
			 M-279.5,416c0-1,0.5-1.7,1.6-1.7s1.6,0.7,1.6,1.7c0,1.1-0.6,1.7-1.6,1.7C-278.9,417.7-279.5,417.1-279.5,416"/>
		<path class="st0" d="M-274.8,417.7c-0.4,0-0.7-0.1-1-0.3l0.1-0.4c0.2,0.1,0.6,0.3,0.9,0.3c0.4,0,0.7-0.2,0.7-0.5
			c0-0.3-0.2-0.4-0.6-0.5c-0.5-0.2-1-0.4-1-1c0-0.6,0.5-0.9,1.2-0.9c0.3,0,0.7,0.1,0.8,0.2l-0.1,0.4c-0.2-0.1-0.5-0.2-0.8-0.2
			c-0.4,0-0.6,0.2-0.6,0.5s0.4,0.4,0.7,0.6c0.4,0.2,0.9,0.4,0.9,0.9C-273.5,417.4-274.1,417.7-274.8,417.7"/>
		<path class="st0" d="M-270.5,416.7v-1.8c-0.2-0.1-0.5-0.2-0.8-0.2c-0.7,0-1.1,0.5-1.1,1.3c0,0.7,0.3,1.3,0.9,1.3
			C-271.1,417.2-270.7,416.9-270.5,416.7 M-270.5,419.1v-1.8c-0.3,0.3-0.6,0.4-1.1,0.4c-0.8,0-1.4-0.7-1.4-1.7
			c0-1.1,0.6-1.8,1.6-1.8c0.5,0,0.9,0.2,1.3,0.3v4.6H-270.5z"/>
		<path class="st0" d="M-266.4,417.6h-0.5v-0.4c-0.3,0.3-0.7,0.5-1.1,0.5c-0.6,0-1.1-0.4-1.1-1.2v-2.2h0.5v2.2
			c0,0.5,0.3,0.7,0.6,0.7c0.4,0,0.8-0.2,1-0.5v-2.4h0.5V417.6z"/>
		<path class="st0" d="M-263.3,415.5c0-0.1,0-0.1,0-0.2c0-0.4-0.2-0.7-0.7-0.7s-0.8,0.3-0.9,0.8C-265,415.5-263.3,415.5-263.3,415.5
			z M-262.8,417.4c-0.3,0.2-0.7,0.3-1.2,0.3c-0.9,0-1.6-0.6-1.6-1.7c0-1.2,0.7-1.8,1.6-1.8c0.8,0,1.2,0.4,1.2,1.2
			c0,0.2,0,0.3-0.1,0.4h-2.2v0.2c0,0.8,0.5,1.2,1.2,1.2c0.4,0,0.7-0.1,0.9-0.3L-262.8,417.4z"/>
		<path class="st0" d="M-261.2,417.7c-0.4,0-0.7-0.1-1-0.3l0.1-0.4c0.2,0.1,0.6,0.3,0.9,0.3c0.4,0,0.7-0.2,0.7-0.5
			c0-0.3-0.2-0.4-0.6-0.5c-0.5-0.2-1-0.4-1-1c0-0.6,0.5-0.9,1.2-0.9c0.3,0,0.7,0.1,0.8,0.2l-0.1,0.4c-0.2-0.1-0.5-0.2-0.8-0.2
			c-0.4,0-0.6,0.2-0.6,0.5s0.4,0.4,0.7,0.6c0.4,0.2,0.9,0.4,0.9,0.9C-259.9,417.4-260.5,417.7-261.2,417.7"/>
	</g>
	<path class="st0" d="M-366.2,387.1h1.7l-0.9-2.2L-366.2,387.1z M-364,388.3h-2.7l-0.7,1.8h-1.5l3.2-7.7h0.9l3.2,7.7h-1.5
		L-364,388.3z"/>
	<polygon class="st0" points="-360.8,382 -359.4,381.8 -359.4,390.2 -360.8,390.2 	"/>
	<g>
		<path class="st0" d="M-357.9,384.7l1.4-0.3v5.7h-1.4V384.7z M-358.2,382.7c0-0.5,0.4-0.9,0.9-0.9s0.9,0.4,0.9,0.9
			c0,0.5-0.4,0.9-0.9,0.9C-357.7,383.6-358.2,383.2-358.2,382.7"/>
		<path class="st0" d="M-352.3,387.8c-0.7,0.1-1.7,0.5-1.7,1.1c0,0.3,0.2,0.5,0.5,0.5c0.3,0,0.8-0.3,1.2-0.7
			C-352.3,388.6-352.3,387.8-352.3,387.8z M-355.2,385.1c0.8-0.5,1.8-0.6,2.4-0.6c1.5,0,2,0.6,2,1.7v3.1c0,0.2,0.1,0.3,0.3,0.3h0.3
			v0.6c-0.3,0.1-0.7,0.1-1.2,0.1c-0.5,0-0.8-0.2-0.8-0.7c-0.4,0.4-1,0.7-1.7,0.7c-0.8,0-1.4-0.5-1.4-1.3c0-1.5,2.1-1.9,3.1-2.1v-0.6
			c0-0.5-0.2-0.7-0.8-0.7c-0.5,0-1.3,0.2-1.8,0.4L-355.2,385.1z"/>
		<path class="st0" d="M-347.8,390.2h-1.4v-5.4l1.4-0.3v0.8c0.5-0.5,1.2-0.8,1.8-0.8c1.2,0,1.7,0.8,1.7,1.9v3.8h-1.4v-3.4
			c0-0.6-0.3-1-0.8-1c-0.5,0-0.9,0.3-1.3,0.6V390.2z"/>
	</g>
	<polygon class="st0" points="-343.1,389.2 -340.3,385.8 -343,385.8 -343,384.6 -338.3,384.6 -338.3,385.5 -341.2,389 -338.2,389 
		-338.2,390.2 -343.1,390.2 	"/>
	<g>
		<path class="st0" d="M-334.2,387.8c-0.7,0.1-1.6,0.5-1.6,1.1c0,0.3,0.2,0.5,0.5,0.5c0.3,0,0.8-0.3,1.2-0.7L-334.2,387.8
			L-334.2,387.8z M-337.1,385.1c0.8-0.5,1.8-0.6,2.4-0.6c1.5,0,2,0.6,2,1.7v3.1c0,0.2,0.1,0.3,0.3,0.3h0.3v0.6
			c-0.3,0.1-0.7,0.1-1.2,0.1c-0.5,0-0.8-0.2-0.8-0.7c-0.4,0.4-1,0.7-1.7,0.7c-0.8,0-1.4-0.5-1.4-1.3c0-1.5,2.1-1.9,3.1-2.1v-0.6
			c0-0.5-0.2-0.7-0.8-0.7c-0.5,0-1.3,0.2-1.8,0.4L-337.1,385.1z"/>
	</g>
	<polygon class="st0" points="-368.9,394.3 -366,394.3 -361.8,403.6 -357.8,394.3 -355,394.3 -355,408.2 -357.5,408.2 -357.5,399.8 
		-361.3,408.2 -362.5,408.2 -366.3,399.8 -366.3,408.2 -368.9,408.2 	"/>
	<polygon class="st0" points="-339,403.2 -342.6,398.3 -339.4,398.3 -337.5,401.1 -335.4,398.3 -332.5,398.3 -336.2,403 
		-332.5,408.2 -335.5,408.2 -337.7,405.1 -339.9,408.2 -342.8,408.2 	"/>
	<g>
		<path class="st0" d="M-330.9,398.5l2.5-0.5v10.2h-2.5V398.5z M-331.2,394.9c0-0.9,0.7-1.6,1.6-1.6s1.7,0.7,1.7,1.6
			c0,0.8-0.7,1.6-1.7,1.6S-331.2,395.7-331.2,394.9"/>
		<path class="st0" d="M-326.4,403.2c0-3.4,2.1-5.3,4.7-5.3c1.3,0,2.4,0.4,3.2,0.9l-0.5,1.8c-0.6-0.3-1.4-0.6-2.3-0.6
			c-1.7,0-2.5,1.3-2.5,3.1c0,2,0.7,3.1,2.5,3.1c0.9,0,1.7-0.2,2.5-0.6l0.4,1.9c-0.7,0.5-2,0.9-3.3,0.9
			C-324.2,408.5-326.4,406.9-326.4,403.2"/>
		<path class="st0" d="M-310.3,403.3c0-2.1-0.7-3.3-2.2-3.3c-1.5,0-2.2,1.3-2.2,3.3c0,1.8,0.7,3.1,2.2,3.1
			C-310.9,406.4-310.3,405-310.3,403.3 M-317.3,403.3c0-3.5,1.6-5.3,4.8-5.3s4.8,1.8,4.8,5.3c0,3.7-1.9,5.2-4.8,5.2
			C-315.4,408.5-317.3,406.8-317.3,403.3"/>
		<path class="st0" d="M-303.6,402.4h1.2c1.3,0,1.6-0.7,1.6-1.4c0-1.1-0.6-1.2-1.7-1.2h-1.1V402.4z M-305.6,408.4V398h3.4
			c1.9,0,3.4,0.6,3.4,2.9c0,1.2-0.7,2.4-2.4,2.7c0.6,0.2,0.8,0.4,1.2,1l1.1,1.9c0.2,0.4,0.4,0.5,0.7,0.5h0.4v1.3
			c-0.3,0.1-0.9,0.1-1.3,0.1c-0.7,0-1.2-0.4-1.6-1.1l-1.5-2.7c-0.3-0.5-0.5-0.6-0.9-0.6h-0.5v4.3L-305.6,408.4L-305.6,408.4z"/>
	</g>
	<polygon class="st0" points="-296.1,398 -290,398 -290,399.8 -294.1,399.8 -294.1,402 -290.8,402 -290.8,403.8 -294.1,403.8 
		-294.1,406.6 -289.9,406.6 -289.9,408.4 -296.1,408.4 	"/>
	<g>
		<path class="st0" d="M-286,406.6h1.4c2.4,0,3.4-1.4,3.4-3.4c0-1.8-0.6-3.4-3.3-3.4h-1.5V406.6z M-288,398h3.6
			c3.9,0,5.2,2.1,5.2,5.2c0,2.7-1.3,5.2-5,5.2h-4L-288,398L-288,398z"/>
		<path class="st0" d="M-275.3,406.6h1.4c2.4,0,3.4-1.4,3.4-3.4c0-1.8-0.6-3.4-3.3-3.4h-1.5L-275.3,406.6L-275.3,406.6z M-277.3,398
			h3.6c3.9,0,5.2,2.1,5.2,5.2c0,2.7-1.3,5.2-5,5.2h-3.9V398z"/>
	</g>
	<polygon class="st0" points="-262.8,404.4 -262.8,407.1 -264.3,407.1 -264.3,404.4 -267,404.4 -267,402.9 -264.3,402.9 
		-264.3,400.2 -262.8,400.2 -262.8,402.9 -260,402.9 -260,404.4 	"/>
	<g>
		<path class="st0" d="M-350,401.9h3.5c0-0.1,0-0.4,0-0.5c0-1.1-0.7-1.3-1.4-1.3C-348.7,400.1-349.6,400.5-350,401.9 M-350.1,403.6
			L-350.1,403.6c0,1.7,0.9,2.7,2.7,2.7c1.1,0,2.3-0.4,3.2-0.8l0.4,1.9c-0.7,0.5-2.4,1.2-3.9,1.2c-2.7,0-4.9-1.4-4.9-5
			c0-3.4,1.8-5.5,5.1-5.5c2.3,0,3.8,1.3,3.8,3.7c0,0.7-0.1,1.5-0.3,1.9L-350.1,403.6L-350.1,403.6z"/>
	</g>
	<polygon class="st0" points="-347.4,397 -345.4,394.3 -347.7,394.3 -348.8,397 	"/>
</g>
</svg>
