<?xml version="1.0" encoding="utf-8"?>
<!-- Generator: Adobe Illustrator 19.1.0, SVG Export Plug-In . SVG Version: 6.00 Build 0)  -->
<svg version="1.1" id="Layer_1" xmlns="http://www.w3.org/2000/svg" xmlns:xlink="http://www.w3.org/1999/xlink" x="0px" y="0px"
	 viewBox="0 0 300 85" enable-background="new 0 0 300 85" xml:space="preserve">
<g>
	<g>
		<path fill="#62863F" d="M45.3,70.8c-4.3-1.9-8.7-3.2-13.3-3.8l-1.3,1c4.6,0.5,9.1,1.6,13.5,3.5C44.6,71.3,45,71,45.3,70.8"/>
		<path fill="#62863F" d="M48.1,69c-4.3-2-8.9-3.3-13.6-3.9l-1.3,1c4.7,0.5,9.4,1.7,13.7,3.6C47.3,69.5,47.7,69.3,48.1,69"/>
		<path fill="#62863F" d="M42.8,72.6c-4.2-1.9-8.7-3.1-13.2-3.7l-1.3,1c4.6,0.5,9.1,1.6,13.4,3.5C42.1,73.1,42.5,72.9,42.8,72.6"/>
		<path fill="#62863F" d="M36.2,78.7c-4.5-2.1-9.2-3.4-14-4L21.8,75l-1.4,0.6c5.1,0.4,10.2,1.7,15,4C35.7,79.3,36,79,36.2,78.7"/>
		<path fill="#62863F" d="M38.3,76.6c-4.4-2-8.9-3.3-13.5-3.8l-1.3,1c4.8,0.5,9.5,1.7,13.9,3.7C37.7,77.2,38,76.9,38.3,76.6"/>
		<path fill="#62863F" d="M40.5,74.5c-4.3-1.9-8.7-3.2-13.2-3.7l-1.3,1c4.6,0.5,9.2,1.6,13.6,3.6C39.8,75.1,40.1,74.8,40.5,74.5"/>
		<path fill="#A65425" d="M41.9,4.6C21,4.6,4,21.6,4,42.5c0,20.9,17,37.9,37.9,37.9c20.9,0,37.9-17,37.9-37.9
			C79.8,21.6,62.8,4.6,41.9,4.6 M41.9,84.4C18.8,84.4,0,65.6,0,42.5C0,19.4,18.8,0.6,41.9,0.6c23.1,0,41.9,18.8,41.9,41.9
			C83.9,65.6,65,84.4,41.9,84.4"/>
		<path fill="#DDE7D8" d="M36.4,44.6c-11.1,11-11.6,8.3-17.6,10.4c-5.9,2.1-6.2,7.8-6.2,7.8C33.9,61.9,36.4,44.6,36.4,44.6"/>
		<path fill="#CED8C3" d="M34.4,40.4c-7.1,3.4-10.2,4.2-12.5,4.2c-0.9,0-1.7-0.1-2.6-0.2c-0.9-0.1-1.8-0.2-3.1-0.2c0,0-0.1,0-0.1,0
			c-5.8,0-7.7,4.9-7.7,4.9c3.1,0.9,5.8,1.3,8.3,1.3C29.2,50.3,34.4,40.4,34.4,40.4"/>
		<path fill="#BECEB2" d="M14.6,33.6c-3.7,0-5.8,2.6-5.8,2.6c4.9,3.3,9.3,4.4,13,4.4c7.8,0,12.6-4.8,12.6-4.8
			c-3.8,0.6-6.4,0.8-8.3,0.8c-4.8,0-5.3-1.4-9-2.5C16.1,33.7,15.3,33.6,14.6,33.6"/>
		<path fill="#B7C6A7" d="M17.2,23.9c-2,0-3.4,0.8-3.4,0.8c5.1,6.8,10.8,8.5,15.1,8.5c3.8,0,6.4-1.3,6.4-1.3
			c-11.6-2.3-10.1-3.8-14-6.6C19.9,24.2,18.5,23.9,17.2,23.9"/>
		<path fill="#AFC19D" d="M22.8,15.3c-0.8,0-1.3,0.1-1.3,0.1c3.9,11,12.2,12.1,15.6,12.1c0.9,0,1.5-0.1,1.5-0.1
			c-9.6-5.1-7.9-6-10.5-9.5C26.3,15.7,24.1,15.3,22.8,15.3"/>
		<path fill="#A7BC96" d="M31.4,9.5C31.3,22.9,42.1,25,42.1,25c-6.6-7.3-4.9-7.5-6-11.3C35,9.8,31.4,9.5,31.4,9.5"/>
		<path fill="#A1B58C" d="M41.3,7.6c-4.2,11.4,4.4,16.6,4.4,16.6c-3.4-8.3-1.8-8-1.6-11.6C44.3,9.1,41.3,7.6,41.3,7.6"/>
		<path fill="#97B183" d="M50.9,8.9c-7.3,8.7-1.4,15.9-1.4,15.9c-0.3-8.4,0.9-7.6,2.2-10.7C53,11,50.9,8.9,50.9,8.9"/>
		<path fill="#8EAB78" d="M59.5,11.7C50.3,16.9,53.1,25,53.1,25c2.4-7.4,3.2-6.2,5.4-8.5C60.6,14.3,59.5,11.7,59.5,11.7"/>
		<path fill="#86A270" d="M65,16.7c-8.9,2.2-8.5,9.7-8.5,9.7c3.8-5.6,4.2-4.5,6.6-5.9C65.3,19.2,65,16.7,65,16.7"/>
		<path fill="#7F9D66" d="M67,23.1c-6,0-8.1,4.8-8.1,4.8c3.3-1.9,4.5-2.2,5.6-2.2c0.2,0,0.5,0,0.7,0c0.3,0,0.5,0,0.8,0
			c0.2,0,0.4,0,0.6,0c2.5-0.2,3.2-2.3,3.2-2.3C68.8,23.2,67.9,23.1,67,23.1"/>
		<path fill="#709054" d="M67.7,27.8c-4.1,0-6.3,2.9-6.3,2.9c2.4-0.7,3.7-0.9,4.6-0.9c1.2,0,1.7,0.4,3,0.6c0.2,0,0.4,0,0.6,0
			c1.9,0,2.8-1.5,2.8-1.5C70.6,28.1,69.1,27.8,67.7,27.8"/>
		<path fill="#678A44" d="M68.4,32.3c-3.1,0-4.9,2-4.9,2c1.6-0.3,2.6-0.4,3.4-0.4c1.6,0,1.9,0.5,3.2,0.9c0.3,0.1,0.6,0.1,0.9,0.1
			c1.4,0,2.3-1.1,2.3-1.1C71.4,32.7,69.8,32.3,68.4,32.3"/>
		<path fill="#62863F" d="M64.1,37.7c0,0,3.7-3.1,8.3,0.6c0,0-1.1,1.1-2.7,0.5C68.1,38.1,68.5,37.4,64.1,37.7"/>
		<path fill="#A65425" d="M50.3,52.8c10,5.5,16.9-0.3,18.5-1.6c0.5-0.3,0.7-0.7,0.8-1c0.1-0.6-0.2-1.1-0.6-1.3
			c0.3-0.4,0.4-0.7,0.4-0.9c0.1-0.3,0-0.6-0.3-0.9c-1-0.6-1.4,0.1-2.5,1c-1.4,1-3.6,2.8-9,2.8c-3.6-0.2-8.5-4-10.8-6.3v-2.9
			c2.7-1,4.6-3.6,4.6-6.6c0-3.9-3.2-7.1-7.1-7.1s-7.1,3.2-7.1,7.1c0,2.7,1.5,5,3.7,6.2l0,3.7c0,9.1-14.2,21.2-28.9,21.2l4.3,5.2
			l4.6,4.4L44,57.7c0,0,16.3,11.7,22.1,15.5l5.7-4l3.2-5.1C64,65.1,52,57.2,50.3,52.8"/>
		<path fill="#62863F" d="M61.2,69.8c-6.1,2.4-11.8,5.9-16.6,10.5c0.8-0.1,1.6-0.1,2.4-0.2c4.6-4,9.9-7.2,15.6-9.3L61.2,69.8z"/>
		<path fill="#62863F" d="M58.9,74c-3,1.5-5.7,3.3-8.3,5.3c1.4-0.3,2.7-0.7,4-1.2c1.6-1.1,3.2-2,4.9-2.9c1.5-0.8,3-1.4,4.5-2
			c0.4-0.3,0.7-0.5,1-0.8L64,71.7C62.3,72.4,60.5,73.2,58.9,74"/>
		<path fill="#62863F" d="M54.3,71.3c1.8-0.9,3.7-1.8,5.6-2.5l-1.5-1.1c-1.6,0.6-3.2,1.3-4.8,2.2c-5.2,2.7-9.8,6.2-13.7,10.4
			c0.7,0,1.4,0.1,2.1,0.1C45.5,76.8,49.6,73.7,54.3,71.3"/>
		<path fill="#62863F" d="M51.6,69.2c1.8-0.9,3.6-1.7,5.4-2.4l-1.4-1c-1.6,0.6-3.1,1.3-4.6,2.1C45.1,71,40,75,35.8,79.9
			c0.6,0.1,1.1,0.2,1.7,0.2C41.5,75.7,46.2,72,51.6,69.2"/>
		<path fill="#62863F" d="M140.6,70.7c0-2.9,1.8-4.7,4.4-4.7c0.9,0,1.8,0.2,2.4,0.5l-0.2,1c-0.5-0.3-1.4-0.6-2.2-0.6
			c-2.1,0-3.3,1.4-3.3,3.7c0,2.2,1.4,3.5,3.4,3.5c0.9,0,1.7-0.3,2.2-0.6l0.1,1c-0.7,0.4-1.7,0.6-2.5,0.6
			C142.3,75.1,140.6,73.4,140.6,70.7"/>
		<path fill="#62863F" d="M153.7,71.9c0-1.5-0.7-2.5-1.9-2.5c-1.2,0-1.9,1-1.9,2.5c0,1.4,0.7,2.5,1.9,2.5
			C153,74.3,153.7,73.3,153.7,71.9 M148.8,71.9c0-1.9,1-3.3,3-3.3c1.9,0,3,1.4,3,3.3c0,2-1.2,3.3-3,3.3
			C150,75.1,148.8,73.9,148.8,71.9"/>
		<path fill="#62863F" d="M156.3,68.8l1-0.2v0.9c0.6-0.5,1.3-0.9,2.1-0.9c1.3,0,2.1,0.8,2.1,2.1V75h-1v-4.1c0-0.8-0.4-1.4-1.3-1.4
			c-0.7,0-1.4,0.4-1.9,0.9V75h-1V68.8z"/>
	</g>
	<polygon fill="#62863F" points="166.4,65.7 167.4,65.5 167.4,75 166.4,75 	"/>
	<g>
		<path fill="#62863F" d="M170.6,74.3c0.6,0,1.3-0.5,1.8-1v-1.2c-1.4,0.3-2.5,0.6-2.5,1.5C169.8,74,170.2,74.3,170.6,74.3
			 M174.2,74.9c-0.2,0.1-0.7,0.1-1,0.1c-0.5,0-0.7-0.2-0.8-0.8c-0.3,0.4-1,0.9-1.8,0.9c-1,0-1.7-0.5-1.7-1.5c0-1.6,2.2-2,3.5-2.2
			v-0.9c0-0.7-0.2-1.1-1.2-1.1c-0.7,0-1.4,0.2-2,0.5l-0.2-0.8c0.7-0.4,1.8-0.6,2.4-0.6c1.3,0,1.8,0.7,1.8,1.8V74
			c0,0.4,0.2,0.4,0.5,0.4h0.3V74.9z"/>
		<path fill="#62863F" d="M182.8,73.3v-3.5c-0.4-0.2-0.9-0.4-1.5-0.4c-1.4,0-2,1-2,2.5c0,1.4,0.6,2.3,1.7,2.3
			C181.7,74.3,182.5,73.7,182.8,73.3 M182.8,75.2v-0.9c-0.5,0.5-1.2,0.8-2,0.8c-1.6,0-2.5-1.4-2.5-3.1c0-2.3,1.3-3.4,3-3.4
			c0.9,0,1.8,0.2,2.5,0.6v6.2c0,1.8-1.1,2.7-3.1,2.7c-0.7,0-1.6-0.2-2.2-0.4l0.2-0.9c0.5,0.2,1.5,0.4,2.1,0.4
			C182,77.2,182.8,76.8,182.8,75.2"/>
		<path fill="#62863F" d="M189.6,70.9c0-0.1,0-0.2,0-0.3c0-0.7-0.3-1.3-1.3-1.3c-1,0-1.6,0.6-1.8,1.6H189.6z M190.6,74.5
			c-0.5,0.3-1.3,0.6-2.2,0.6c-1.7,0-3-1.1-3-3.2c0-2.2,1.3-3.4,3-3.4c1.6,0,2.3,0.8,2.3,2.3c0,0.3,0,0.6-0.1,0.8h-4.2V72
			c0,1.6,1,2.3,2.2,2.3c0.7,0,1.3-0.2,1.8-0.5L190.6,74.5z"/>
		<path fill="#62863F" d="M192.3,68.8l1-0.2v0.9c0.6-0.5,1.3-0.9,2.1-0.9c1.3,0,2.1,0.8,2.1,2.1V75h-1v-4.1c0-0.8-0.4-1.4-1.3-1.4
			c-0.7,0-1.4,0.4-1.9,0.9V75h-1V68.8z"/>
		<path fill="#62863F" d="M198.7,68.8h1.1l0.3-1.6h0.7v1.6h2v0.8h-2v3.8c0,0.6,0.2,0.9,0.8,0.9c0.4,0,0.9-0.2,1.1-0.3l0.1,0.8
			c-0.3,0.2-1,0.4-1.5,0.4c-1.1,0-1.6-0.6-1.6-1.8v-3.8h-1.1V68.8z"/>
		<path fill="#62863F" d="M208,70.9c0-0.1,0-0.2,0-0.3c0-0.7-0.3-1.3-1.3-1.3c-1,0-1.6,0.6-1.8,1.6H208z M209,74.5
			c-0.5,0.3-1.3,0.6-2.2,0.6c-1.7,0-3-1.1-3-3.2c0-2.2,1.3-3.4,3-3.4c1.6,0,2.3,0.8,2.3,2.3c0,0.3,0,0.6-0.1,0.8h-4.2V72
			c0,1.6,1,2.3,2.2,2.3c0.7,0,1.3-0.2,1.8-0.5L209,74.5z"/>
		<path fill="#62863F" d="M214.7,70.4v3.5c0.4,0.3,0.9,0.4,1.5,0.4c1.1,0,2-0.7,2-2.5c0-1.4-0.6-2.3-1.7-2.3
			C215.8,69.5,215.1,69.8,214.7,70.4 M214.7,77.8h-1v-9.1l1-0.2v0.9c0.5-0.4,1.1-0.9,2-0.9c1.6,0,2.6,1.3,2.6,3.2
			c0,2.2-1.2,3.4-3,3.4c-0.6,0-1.1-0.2-1.5-0.3V77.8z"/>
		<path fill="#62863F" d="M225.3,71.9c0-1.5-0.7-2.5-1.9-2.5c-1.2,0-1.9,1-1.9,2.5c0,1.4,0.7,2.5,1.9,2.5
			C224.7,74.3,225.3,73.3,225.3,71.9 M220.4,71.9c0-1.9,1-3.3,3-3.3c2,0,3,1.4,3,3.3c0,2-1.2,3.3-3,3.3
			C221.6,75.1,220.4,73.9,220.4,71.9"/>
		<path fill="#62863F" d="M231.3,69.7c-0.2,0-0.3,0-0.4,0c-0.6,0-1.2,0.3-2,1.2V75h-1v-6.2l1-0.2v1.3c0.6-0.7,1.2-1.3,1.9-1.3
			c0.2,0,0.5,0.1,0.6,0.2L231.3,69.7z"/>
		<path fill="#62863F" d="M237.1,75.1c-0.7,0-1.4-0.2-1.9-0.5l0.2-0.8c0.4,0.2,1.2,0.5,1.8,0.5c0.8,0,1.3-0.3,1.3-1
			c0-0.5-0.4-0.7-1.2-1c-0.9-0.4-1.9-0.7-1.9-1.9c0-1.2,1-1.8,2.2-1.8c0.6,0,1.3,0.2,1.6,0.4l-0.2,0.8c-0.3-0.2-0.9-0.4-1.5-0.4
			c-0.7,0-1.2,0.3-1.2,0.9c0,0.6,0.7,0.8,1.4,1.1c0.8,0.3,1.7,0.7,1.7,1.8C239.5,74.5,238.4,75.1,237.1,75.1"/>
		<path fill="#62863F" d="M246,75h-1v-0.7c-0.6,0.6-1.4,0.9-2.1,0.9c-1.2,0-2-0.8-2-2.3v-4.1h1v4.2c0,1,0.5,1.3,1.2,1.3
			c0.7,0,1.5-0.4,1.9-0.9v-4.6h1V75z"/>
		<path fill="#62863F" d="M249.3,75.1c-0.7,0-1.4-0.2-1.9-0.5l0.2-0.8c0.4,0.2,1.2,0.5,1.8,0.5c0.8,0,1.3-0.3,1.3-1
			c0-0.5-0.4-0.7-1.2-1c-0.9-0.4-1.9-0.7-1.9-1.9c0-1.2,1-1.8,2.2-1.8c0.6,0,1.3,0.2,1.6,0.4l-0.2,0.8c-0.3-0.2-0.9-0.4-1.5-0.4
			c-0.7,0-1.2,0.3-1.2,0.9c0,0.6,0.7,0.8,1.4,1.1c0.8,0.3,1.7,0.7,1.7,1.8C251.7,74.5,250.6,75.1,249.3,75.1"/>
		<path fill="#62863F" d="M257.2,70.4v3.5c0.3,0.2,0.9,0.4,1.5,0.4c1.2,0,2-0.8,2-2.5c0-1.5-0.6-2.3-1.7-2.3
			C258.3,69.5,257.6,69.9,257.2,70.4 M261.7,71.7c0,2.3-1.2,3.4-3,3.4c-0.7,0-1.4-0.2-1.8-0.5l-0.4,0.5h-0.4v-9.4l1-0.2v4
			c0.5-0.4,1.1-0.9,2-0.9C260.8,68.6,261.7,70,261.7,71.7"/>
		<path fill="#62863F" d="M267.8,71.9c0-1.5-0.7-2.5-1.9-2.5c-1.2,0-1.9,1-1.9,2.5c0,1.4,0.7,2.5,1.9,2.5
			C267.2,74.3,267.8,73.3,267.8,71.9 M263,71.9c0-1.9,1-3.3,3-3.3c2,0,3,1.4,3,3.3c0,2-1.2,3.3-3,3.3C264.1,75.1,263,73.9,263,71.9"
			/>
		<path fill="#62863F" d="M271.8,75.1c-0.7,0-1.4-0.2-1.9-0.5l0.2-0.8c0.4,0.2,1.2,0.5,1.8,0.5c0.8,0,1.3-0.3,1.3-1
			c0-0.5-0.4-0.7-1.2-1c-0.9-0.4-1.9-0.7-1.9-1.9c0-1.2,1-1.8,2.2-1.8c0.6,0,1.3,0.2,1.6,0.4l-0.2,0.8c-0.3-0.2-0.9-0.4-1.5-0.4
			c-0.7,0-1.2,0.3-1.2,0.9c0,0.6,0.7,0.8,1.4,1.1c0.8,0.3,1.7,0.7,1.7,1.8C274.2,74.5,273.1,75.1,271.8,75.1"/>
		<path fill="#62863F" d="M279.9,73.3v-3.5c-0.4-0.2-0.9-0.4-1.5-0.4c-1.4,0-2,1-2,2.4c0,1.4,0.5,2.4,1.7,2.4
			C278.8,74.2,279.6,73.7,279.9,73.3 M279.9,77.8v-3.5c-0.5,0.5-1.1,0.8-2,0.8c-1.6,0-2.6-1.4-2.6-3.2c0-2.1,1.2-3.4,3-3.4
			c0.9,0,1.8,0.3,2.5,0.6v8.7H279.9z"/>
		<path fill="#62863F" d="M287.8,75h-1v-0.7c-0.6,0.6-1.4,0.9-2.1,0.9c-1.2,0-2-0.8-2-2.3v-4.1h1v4.2c0,1,0.5,1.3,1.2,1.3
			c0.7,0,1.5-0.4,1.9-0.9v-4.6h1V75z"/>
		<path fill="#62863F" d="M293.6,70.9c0-0.1,0-0.2,0-0.3c0-0.7-0.3-1.3-1.3-1.3c-1,0-1.6,0.6-1.8,1.6H293.6z M294.6,74.5
			c-0.5,0.3-1.3,0.6-2.2,0.6c-1.7,0-3-1.1-3-3.2c0-2.2,1.3-3.4,3-3.4c1.6,0,2.3,0.8,2.3,2.3c0,0.3,0,0.6-0.1,0.8h-4.2V72
			c0,1.6,1,2.3,2.2,2.3c0.7,0,1.3-0.2,1.8-0.5L294.6,74.5z"/>
		<path fill="#62863F" d="M297.6,75.1c-0.7,0-1.4-0.2-1.9-0.5l0.2-0.8c0.4,0.2,1.2,0.5,1.8,0.5c0.8,0,1.3-0.3,1.3-1
			c0-0.5-0.4-0.7-1.2-1c-0.9-0.4-1.9-0.7-1.9-1.9c0-1.2,1-1.8,2.2-1.8c0.6,0,1.3,0.2,1.6,0.4l-0.2,0.8c-0.3-0.2-0.9-0.4-1.5-0.4
			c-0.7,0-1.2,0.3-1.2,0.9c0,0.6,0.7,0.8,1.4,1.1c0.8,0.3,1.7,0.7,1.7,1.8C300,74.5,298.9,75.1,297.6,75.1"/>
	</g>
	<path fill="#62863F" d="M98.5,17.1h3.3l-1.7-4.2L98.5,17.1z M102.7,19.3h-5.1l-1.4,3.5h-2.9l6-14.7h1.7l6,14.7h-2.8L102.7,19.3z"/>
	<polygon fill="#62863F" points="108.7,7.5 111.4,7 111.4,22.9 108.7,22.9 	"/>
	<g>
		<path fill="#62863F" d="M114.1,12.6l2.7-0.5v10.8h-2.7V12.6z M113.7,8.7c0-0.9,0.7-1.7,1.7-1.7c1,0,1.8,0.7,1.8,1.7
			c0,0.9-0.8,1.7-1.8,1.7C114.5,10.4,113.7,9.7,113.7,8.7"/>
		<path fill="#62863F" d="M124.8,18.4c-1.4,0.2-3.2,0.9-3.2,2c0,0.5,0.4,0.9,0.9,0.9c0.6,0,1.6-0.5,2.3-1.3V18.4z M119.3,13.3
			c1.5-0.9,3.5-1.2,4.6-1.2c2.8,0,3.7,1.2,3.7,3.3v5.8c0,0.4,0.2,0.5,0.6,0.5h0.6v1.1c-0.5,0.1-1.4,0.2-2.3,0.2
			c-1,0-1.5-0.3-1.6-1.3c-0.7,0.8-1.9,1.4-3.2,1.4c-1.6,0-2.7-0.9-2.7-2.4c0-2.9,3.9-3.6,5.9-3.9v-1.1c0-0.9-0.4-1.3-1.6-1.3
			c-0.9,0-2.4,0.4-3.5,0.8L119.3,13.3z"/>
		<path fill="#62863F" d="M133.3,22.9h-2.7V12.6l2.7-0.5v1.5c0.9-1,2.2-1.5,3.5-1.5c2.3,0,3.3,1.6,3.3,3.6v7.2h-2.7v-6.5
			c0-1.2-0.6-1.9-1.6-1.9c-0.9,0-1.8,0.6-2.5,1.2V22.9z"/>
	</g>
	<polygon fill="#62863F" points="142.2,21.1 147.6,14.6 142.5,14.6 142.5,12.4 151.4,12.4 151.4,14.1 145.9,20.6 151.6,20.6 
		151.6,22.9 142.2,22.9 	"/>
	<g>
		<path fill="#62863F" d="M159.1,18.4c-1.4,0.2-3.1,0.9-3.1,2c0,0.5,0.3,0.9,0.9,0.9c0.6,0,1.6-0.5,2.3-1.3V18.4z M153.6,13.3
			c1.5-0.9,3.5-1.2,4.6-1.2c2.8,0,3.7,1.2,3.7,3.3v5.8c0,0.4,0.2,0.5,0.6,0.5h0.6v1.1c-0.5,0.1-1.4,0.2-2.3,0.2
			c-1,0-1.5-0.3-1.6-1.3c-0.7,0.8-1.9,1.4-3.2,1.4c-1.6,0-2.7-0.9-2.7-2.4c0-2.9,3.9-3.6,5.9-3.9v-1.1c0-0.9-0.4-1.3-1.6-1.3
			c-0.9,0-2.4,0.4-3.5,0.8L153.6,13.3z"/>
	</g>
	<polygon fill="#62863F" points="93.3,30.8 98.9,30.8 106.7,48.3 114.3,30.8 119.7,30.8 119.7,57.1 114.9,57.1 114.9,41.2 
		107.7,57.1 105.4,57.1 98.3,41.1 98.3,57.1 93.3,57.1 	"/>
	<polygon fill="#62863F" points="150,47.6 143.3,38.3 149.2,38.3 152.9,43.7 156.8,38.3 162.3,38.3 155.4,47.3 162.4,57.1 
		156.6,57.1 152.5,51.2 148.4,57.1 142.9,57.1 	"/>
	<g>
		<path fill="#62863F" d="M165.5,38.7l4.8-1v19.4h-4.8V38.7z M164.8,31.8c0-1.7,1.3-3,3.1-3c1.8,0,3.2,1.3,3.2,3c0,1.6-1.4,3-3.2,3
			C166.1,34.8,164.8,33.4,164.8,31.8"/>
		<path fill="#62863F" d="M174,47.7c0-6.5,4-10,8.9-10c2.5,0,4.6,0.7,6,1.7l-0.9,3.5c-1.2-0.5-2.7-1.1-4.3-1.1
			c-3.3,0-4.7,2.5-4.7,5.8c0,3.7,1.4,5.8,4.8,5.8c1.7,0,3.2-0.4,4.7-1.2l0.7,3.6c-1.3,0.9-3.8,1.8-6.2,1.8
			C178.1,57.6,174,54.7,174,47.7"/>
		<path fill="#62863F" d="M204.5,47.8c0-3.9-1.4-6.2-4.2-6.2c-2.9,0-4.2,2.4-4.2,6.2c0,3.4,1.3,5.9,4.2,5.9
			C203.3,53.7,204.5,51,204.5,47.8 M191.2,47.8c0-6.6,3.1-10.1,9.1-10.1c6,0,9.1,3.5,9.1,10c0,7-3.6,9.9-9.1,9.9
			C194.8,57.6,191.2,54.5,191.2,47.8"/>
		<path fill="#62863F" d="M217.2,46.1h2.3c2.5,0,3-1.3,3-2.7c0-2-1.2-2.3-3.2-2.3h-2.1V46.1z M213.4,57.4V37.7h6.5
			c3.6,0,6.5,1.2,6.5,5.5c0,2.3-1.3,4.6-4.5,5.2c1.2,0.4,1.6,0.8,2.3,1.9l2.1,3.6c0.4,0.7,0.8,1,1.3,1h0.8v2.4
			c-0.6,0.2-1.8,0.2-2.4,0.2c-1.4,0-2.3-0.7-3-2l-2.9-5.2c-0.6-1-1-1.1-1.8-1.1h-0.9v8.1H213.4z"/>
	</g>
	<polygon fill="#62863F" points="231.5,37.7 243,37.7 243,41.1 235.3,41.1 235.3,45.4 241.5,45.4 241.5,48.7 235.3,48.7 235.3,54 
		243.1,54 243.1,57.4 231.5,57.4 	"/>
	<g>
		<path fill="#62863F" d="M250.5,54h2.7c4.6,0,6.4-2.6,6.4-6.5c0-3.4-1.2-6.4-6.3-6.4h-2.8V54z M246.8,37.7h6.9c7.4,0,9.9,4,9.9,9.8
			c0,5.1-2.4,9.9-9.4,9.9h-7.5V37.7z"/>
		<path fill="#62863F" d="M270.8,54h2.7c4.6,0,6.4-2.6,6.4-6.5c0-3.4-1.2-6.4-6.3-6.4h-2.8V54z M267,37.7h6.9c7.4,0,9.9,4,9.9,9.8
			c0,5.1-2.4,9.9-9.4,9.9H267V37.7z"/>
	</g>
	<polygon fill="#62863F" points="294.6,49.9 294.6,55 291.7,55 291.7,49.9 286.6,49.9 286.6,47.1 291.7,47.1 291.7,41.9 294.6,41.9 
		294.6,47.1 299.8,47.1 299.8,49.9 	"/>
	<g>
		<path fill="#62863F" d="M129.1,45.2h6.7c0-0.1,0-0.7,0-1c0-2-1.3-2.5-2.6-2.5C131.6,41.8,129.9,42.5,129.1,45.2 M128.9,48.4
			L128.9,48.4c0,3.3,1.8,5.1,5.1,5.1c2,0,4.4-0.8,6-1.6l0.7,3.6c-1.3,1-4.6,2.2-7.4,2.2c-5.1,0-9.3-2.7-9.3-9.4
			c0-6.5,3.5-10.5,9.6-10.5c4.3,0,7.2,2.4,7.2,7.1c0,1.3-0.2,2.9-0.5,3.6H128.9z"/>
	</g>
	<polygon fill="#62863F" points="134.2,35.8 137.9,30.8 133.6,30.8 131.5,35.8 	"/>
</g>
</svg>
