<?xml version="1.0" encoding="utf-8"?>
<!-- Generator: Adobe Illustrator 19.1.0, SVG Export Plug-In . SVG Version: 6.00 Build 0)  -->
<svg version="1.1" id="Layer_1" xmlns="http://www.w3.org/2000/svg" xmlns:xlink="http://www.w3.org/1999/xlink" x="0px" y="0px"
	 viewBox="0 0 30 35" style="enable-background:new 0 0 30 35;" xml:space="preserve">
<style type="text/css">
	.st0{clip-path:url(#SVGID_2_);}
	.st1{fill:#FFFFFF;}
</style>
<g>
	<g>
		<g>
			<defs>
				<path id="SVGID_1_" d="M25.1-10.9c0.9,0.5,1.1,1.3,1.5,2c1.2,2.1,2.4,4.2,3.4,6.3c2,4.3,3.3,8.6,4.1,13.1c0.3,1.5,0.7,3,0.8,4.4
					c0.1,1.5,0.2,3,0,4.5c-0.1,0.7-0.3,1.5-0.4,2.3c-0.3,1.6-0.7,3.6-1.8,5.3c-1.7,2.5-3.5,4.8-5.8,6.1c-3.4,1.9-6.7,3.5-10.4,4.8
					c-2,0.3-3.9,0.6-5.9,0.9c-0.9,0.1-1.9,0.3-2.9,0.5c-1,0.2-2.2,0.1-2.9,0.5c-1,0.6-1.5,1.8-2.2,2.9c-1.4,2.2-2.7,4.4-4.3,6.2
					c-0.8,0.9-1.3,2.1-2.4,2.6c-1.6-1.1-0.4-2,0.6-2.6c2.6-1.7,4.1-4.3,5.8-7.3c0.6-1.1,1-2.1,0.8-3.3C2.6,37.4,1.7,36,1.2,35
					c-0.6-1.1-1.2-2.3-1.7-3.2c-0.3-0.6-0.7-1.1-1-1.6c-0.8-1.6-1.1-3.2-2-4.9c-0.4-2.6-1.2-4.8-1.6-7.3c-0.3-1.8-0.3-3.6,0-5.6
					c0.1-0.6,0.2-1.3,0.4-1.9c1.9-5.9,7-9.4,12-11.2c2-0.7,4.1-1.4,6.2-2.2c2.7-1,5.5-1.7,8.3-2.8c0.5-0.5,1.4-0.8,2.1-1.3
					c0.7-0.5,2-1.5,1.5-2.5C25.1-9.9,24.2-10.4,25.1-10.9z M26.1-5.1c0.1,0.5,0.8,1.5,1.1,2.1c1,2.2,2,4.4,2.9,6.5
					c1.5,3.5,3,7.4,3.2,10.9c0.1,0.7,0.2,1.5,0.1,2.3c-0.2,3-0.8,6.3-2.4,9.1c-0.4,0.6-0.9,1.3-1.4,2c-0.5,0.7-1,1.4-1.6,1.9
					c-0.7,0.6-1.4,1.1-2.1,1.6c-1.3,1-2.8,1.7-4.2,2.5c-2,1.1-4.1,1.7-6.4,2.1c-3,0.6-6,1-9.2,1.4c-0.4-0.1-0.8-0.1-1.1-0.1
					c-0.2,0.4-0.4,0.7-0.6,1.1c1.4,0.4,2.4,0.4,3.6,0.3c2.2-0.2,4.3-0.4,6.2-0.8c1.3-0.2,2.6-0.5,3.9-1c1.5-0.5,3.1-1,4.3-1.7
					c0.2-0.1,0.5-0.1,0.7-0.2c1-0.4,1.7-1,2.6-1.5c0.4-0.3,1-0.4,1.3-0.7c1.4-1,2.5-2.2,3.6-3.6c1.3-1.5,2.5-3.3,3-5.4
					c0.2-0.9,0.5-1.8,0.6-2.7c0.1-0.4,0-0.8,0.1-1.2c0.3-1.6,0.4-2.8,0.2-4.3c-0.2-2.2-0.6-4.2-1.1-6.2C33.3,8.1,33.2,7,32.9,6
					c-0.2-0.6-0.5-1.1-0.6-1.7c-0.9-2.9-1.9-5.8-3.5-8.6c-0.7-1.1-1.4-2.3-2.3-3.3c0,0,0-0.1-0.1,0C26.7-6.7,26-5.9,26.1-5.1z
					 M17.1-3.7C13.7-2.5,10-1.5,6.5,0C4,1,1.4,2.4-0.5,4.5C-1.2,5.2-2,5.9-2.5,6.7c-1.2,2-2.2,4.6-2.4,6.9c-0.3,2.6,0.2,5.3,0.9,7.8
					c0.6,2.2,1.1,4.4,2.2,6.5c0.4,0.7,0.6,1.5,0.9,2.2c0.2,0.3,0.5,0.6,0.7,1C0,31.3,0,31.7,0.2,32c1.1,2,2.1,4.1,3.8,6
					c0.3-0.3,0.4-0.8,0.6-1.1c-2-3.8-4.5-7.5-5.6-11.4c-0.5-1.9-1.5-3.9-1.8-5.9c-0.2-1-0.5-2-0.6-3c-0.4-2.4,0-5.2,1.1-7.5
					C-1,6.2,1.7,4.4,4.3,3c1.3-0.8,2.7-1.4,4-1.9c1.4-0.5,2.8-1.1,4.2-1.6c1.4-0.4,2.9-0.8,4.4-1.2c0.7-0.2,1.4-0.5,2.1-0.8
					c2.2-0.6,4.5-1.2,6.3-2.4C26-5.5,26.1-6.7,26-7.5C23.4-5.4,20.4-4.4,17.1-3.7z M8.8,36.4c3.2-0.3,6.3-0.8,9.2-1.7
					c1.9-0.6,3.8-1.4,5.5-2.5c2.1-1.4,4.5-2.9,6-4.9c0.9-1.2,1.6-2.4,2.2-3.7c0.3-0.6,0.2-1.3,0.5-2c0.1-0.2,0.3-0.4,0.3-0.6
					c0.2-0.6,0.3-1.4,0.4-2.2c0.2-1.6,0.2-3,0.1-4.4c-0.1-0.8,0-1.5-0.2-2.2c-0.3-1.3-0.9-2.7-1.4-4c-0.3-0.7-0.4-1.4-0.6-2
					c-0.2-0.7-0.5-1.3-0.8-2c-1.2-2.7-2.4-5.4-4-8c0,0-0.1-0.1-0.1,0C25.6-2.9,25.4-2,24.9-1c2.2,3.5,4,7,5.2,10.5
					c0.6,1.8,1,3.5,1.3,5.4c0.2,1,0.1,1.8,0.1,2.8c0,0.9,0,1.9-0.1,2.8c-0.3,2-1.3,4-2.7,5.5c-1.4,1.4-2.8,2.8-4.2,3.8
					c-0.8,0.6-1.5,1.2-2.3,1.6c-1.6,0.9-3.4,1.5-5.2,2c-0.9,0.3-1.8,0.6-2.8,0.7c-1,0.2-2.1,0.2-3.3,0.2c-1.4,0.1-2.8,0.5-4.4,0.1
					c-0.4,0.7-0.8,1.3-1.3,1.9C6.6,36.6,7.7,36.5,8.8,36.4z M24.2-3.4c-0.4,0.2-0.8,0.6-1.3,0.8c-0.3,0.1-0.6,0-0.9,0.1
					C21.6-2.4,21.4-2.1,21-2c-0.3,0.1-0.7,0.1-1,0.2c-0.3,0.1-0.6,0.2-0.9,0.3c-0.6,0.2-1.4,0.3-2.1,0.4c-3.4,0.5-6.6,1.8-9.7,2.9
					C6.6,2,6.1,2.4,5.5,2.7C3.3,3.9,0.6,5.4-1,7.4c-0.9,1.1-1.4,2.5-1.9,4c-0.4,1.2-0.6,2.6-0.3,4.1C-3.5,16.3-3,17.2-2.9,18
					c0.5,2.7,1.4,5.3,2.4,7.9c1.1,2.6,2.3,5.2,3.8,7.7c0.5,0.8,0.8,1.8,1.7,2.5c0.5-0.4,0.8-1.2,1.2-1.9c-0.8-0.7-1-1.4-1.4-2.1
					c-1.8-2.8-3-5.7-4.3-8.6c-1.1-3.2-2.3-6.8-2.1-10.2c0.1-1.3,0.7-3.1,1.5-4.2C0.8,8,2.1,6.9,3.4,6c1.3-1,2.6-2,4.1-2.5
					c1.4-0.5,2.8-0.9,4.2-1.4c2.9-0.9,5.6-1.8,8.6-2.4c1.5-0.3,2.8-0.9,4.4-1.1c0.2-0.8,0.8-1.7,0.7-2.5C25-3.6,24.5-3.6,24.2-3.4z
					 M23.5,1.8c1.8,2.9,3.2,6,4.5,9c0.6,1.5,1.2,3.1,1.4,4.6c0.3,2.6,0.7,5.4-1.1,8c-1.6,2.3-3.2,4.4-5.4,5.6
					c-1.1,0.6-2.1,1.3-3.3,1.7c-0.6,0.2-1.2,0.3-1.8,0.5c-0.6,0.2-1.2,0.4-1.8,0.5c-0.9,0.2-2.1,0.2-3.2,0.3c-1.6,0.1-3,0.4-4.6,0.2
					c-0.3,0.5-0.8,1.2-1,1.7c1.6,0.1,3.1,0,4.6-0.1c1.5-0.1,2.9-0.4,4.4-0.6c2.3-0.8,5.1-1.4,7.2-2.9c1.1-0.7,2-1.7,3-2.7
					c1-1,2-1.9,2.8-3.1c0.9-1.5,1.6-2.8,1.9-4.1c0.2-1,0.2-2.1,0.2-3.2c0-0.3,0.2-0.6,0.1-1c0-0.5-0.2-1.2-0.3-1.7
					c-0.7-5-3-10-6.5-14.6c0,0,0-0.1,0-0.1C24.3,0.4,24,1,23.5,1.8z M19.2,0.5c-0.7,0.2-1.6,0.4-2.3,0.6c-0.8,0.2-1.5,0.5-2.3,0.7
					c-0.7,0.1-1.4,0.2-2.1,0.4c-0.6,0.2-1.3,0.4-2,0.6C9.2,3.3,7.8,3.6,6.7,4.2C5.6,4.8,4.4,5.6,3.3,6.4c-1.1,0.8-2.3,1.8-3,2.9
					c-0.7,1.1-1.2,2-1.4,3.2c-0.1,0.7,0,1.5,0,2.3c0,1.2,0.2,2.2,0.4,3.2c0.2,1.1,0.3,2.2,0.7,3.3c0.8,2.2,1.8,4.2,2.8,6.3
					c0.8,1.6,1.7,3.1,2.7,4.6c0.3,0.5,0.6,1,1.1,1.4c0.3-0.6,1-1.1,1-1.8c0-0.2-0.5-0.9-0.7-1.2c-0.3-0.5-0.5-0.9-0.7-1.2
					c-1.5-2.5-2.6-5-3.6-7.4c-0.7-1.6-1.3-3.2-1.4-5c0-0.8-0.1-1.7-0.1-2.6c0-0.9-0.2-1.8,0-2.6C2,8.2,5.2,7.1,8,5.7
					c1.1-0.5,2.2-0.9,3.4-1.3C12,4.3,12.5,4,13.1,3.8c0.3-0.1,0.6-0.1,0.9-0.2c0.3-0.1,0.5-0.3,0.8-0.4c0.9-0.3,2.1-0.5,3.1-0.7
					c1.5-0.3,2.9-0.5,4.3-0.9c0.4-0.1,0.9-0.1,1-0.3C23.7,1,24,0.1,24-0.6C22.5-0.3,20.8,0.1,19.2,0.5z M21.4,2.4
					c-4.5,0.7-9,1.8-12.9,3.5C7.8,6.2,7.1,6.6,6.3,6.9c-1.5,0.8-3.7,1.8-4.4,3.8c-0.5,1.3-0.4,2.8-0.3,4.3c0,1.5,0.1,3.3,0.6,4.7
					c0.4,1.3,0.8,2.4,1.4,3.6C4.9,26,5.9,28.7,8.2,31c0.2-0.4,0.4-0.8,0.6-1.2c-0.7-1.5-1.4-2.9-2-4.4c-0.5-1.4-1.4-2.9-1.8-4.4
					c-0.1-0.4-0.2-0.9-0.3-1.3c-0.1-0.4-0.4-0.9-0.5-1.3c-0.8-2.7-0.9-5.5,0.6-8.2c0.4-0.8,0.9-1.1,1.6-1.5c1.5-0.9,2.6-1.7,4.3-2.1
					c2.7-0.7,5.7-1.3,8.4-1.8c0.6-0.1,1.1-0.4,1.7-0.5c0.2,0,0.8,0.1,1,0c0.6-0.3,0.8-1.9,0.9-2.3C22.4,2.4,21.9,2.3,21.4,2.4z
					 M22.1,4.8c0,0.4,0.5,0.9,0.8,1.3c0.6,0.9,1.2,2,1.8,3.1c1.7,3.1,3.2,6.3,3.1,9.5c0,1-0.1,2.2-0.6,3.3c-0.8,1.7-1.7,2.9-3.1,3.8
					c-0.8,0.5-1.8,1.2-2.6,1.5c-0.2,0.1-0.3,0.2-0.5,0.3c-0.9,0.4-1.5,0.6-2.4,0.8c-0.9,0.3-1.8,0.5-2.7,0.7c-0.4,0.1-1,0.1-1.4,0.2
					c-1.2,0.2-2.3,0.6-3.5,0.7c-0.6,0-1.3-0.2-1.8,0.1c-0.1,0.5-0.7,0.9-0.7,1.2c1.5,0.4,2.9,0.2,4.2,0.1c1.4-0.1,2.6-0.4,3.9-0.6
					c1.3-0.2,2.5-0.6,3.7-1.1c2.1-0.8,3.7-2.2,5.3-3.9c0.9-0.9,1.9-1.9,2.3-2.9c0.1-0.3,0.3-0.6,0.4-0.9c0.1-0.3,0-0.6,0.1-0.9
					c0.1-0.1,0.3-0.2,0.3-0.3c0.3-0.6,0-1.4,0.4-1.9c-0.1-2-0.2-3.8-0.8-5.6c-0.4-1.3-1.2-2.8-1.7-4.1c-0.4-0.9-1-1.8-1.4-2.6
					c-0.7-1.3-1.3-2.8-2.2-4C23.1,3.3,22.1,4,22.1,4.8z M20.8,7.3c1.5,3.4,4.3,6.9,4.8,10.3c0.2,1.1,0.4,2.2,0,3.3
					c-0.4,1.4-1.5,2.5-2.5,3.4c-0.2,0.2-0.5,0.4-0.8,0.6c-1.8,0.9-4.1,1.4-6.1,2c-1.7,0.5-3.4,0.7-5,1c-0.2,0-0.5-0.2-0.6-0.1
					c-0.3,0.6-0.6,1-0.9,1.5c2.4,0.1,4.8-0.6,7-1.1c0.8-0.2,1.7-0.2,2.5-0.4c0.8-0.2,1.5-0.5,2.3-0.9c1.4-0.8,3-1.7,4-2.9
					c0.7-0.8,1.2-2.1,1.6-3.2c0.1-0.4,0-0.7,0.1-1.1c0-0.3,0.2-0.6,0.1-1c0-0.3-0.2-0.6-0.2-0.9c0-0.2,0.1-0.3,0.1-0.5
					c0-0.4-0.2-0.8-0.2-1.2C27,15.4,27,14.8,26.6,14c-0.4-1-1-2.2-1.5-3.1c-0.6-1.1-1.3-2.1-1.8-3.2c-0.6-0.7-1-1.5-1.7-2.2
					C21.4,6.2,21,6.5,20.8,7.3z M21,5.3c-1.7,0-2.9,0.5-4.4,0.7c-0.9,0.1-1.8,0.3-2.6,0.5C12.2,7,10.3,7.2,8.9,7.8
					c-1.2,0.5-2.5,1.4-3.2,2.4c-1.1,1.6-1.4,3.3-1.4,5c0,1.6,0.4,3.3,1,4.7c1.2,3.2,2,6.1,4.2,9.2c0.3-0.6,0.6-1.1,0.9-1.7
					c-0.3-1.2-1-2.4-1.5-3.7c-0.2-0.6-0.6-1.2-0.8-1.8c-0.8-2-1.3-3.9-1.4-5.9c0-0.4-0.2-0.9-0.2-1.3c0-0.9,0.3-1.9,0.7-2.7
					c0.7-1.5,2.2-1.9,3.6-2.6c3-1.5,6.6-1.7,9.9-2.3C20.7,6.4,21.1,6,21,5.3z M19.5,9.9c1.6,2.5,3.4,4.8,3.7,7.4
					c0.2,1.2,0.3,2.5-0.3,3.6c-0.8,1.5-2.1,2-3.4,2.7c-0.8,0.4-1.6,0.8-2.4,1.1c-1.2,0.3-2.7,0.6-4,0.8c-0.4,0.1-1.1,0.1-1.3,0.3
					c-0.4,0.3-0.5,1.1-0.9,1.3c1.1,0.2,2.1-0.2,3.2-0.3c1-0.2,2-0.4,3-0.6c0.5-0.1,0.9-0.4,1.4-0.5c1.4-0.4,3.2-0.6,4.3-1.5
					c0.4-0.3,0.7-0.8,1-1.1c0.3-0.3,0.7-0.7,0.9-1c0.7-1.3,0.7-2.9,0.5-4.1c-0.4-2-1.3-3.7-2.4-5.6c-0.8-1.5-1.6-3-2.5-4.3
					c0,0,0-0.1,0-0.1C20.3,8.4,19.9,9.2,19.5,9.9z M11.5,25.3c-0.5-1.2-1-2.4-1.4-3.6c-0.2-0.7-0.4-1.3-0.6-2
					c-0.2-0.8-0.3-1.6-0.3-2.4c0-1.1-0.2-2.3,0-3.3c0.5-1.6,2.4-1.9,3.6-2.5c1.1-0.5,2.3-0.8,3.4-1.1c0.6-0.2,1.1-0.5,1.7-0.6
					c0.4-0.1,1.1,0,1.4-0.2c0.5-0.3,0.7-1.3,0.7-1.8c-0.1,0-0.1,0-0.2,0c-1.6,0-3.5,0.5-5.5,0.9c-1.9,0.4-3.8,0.9-5.1,1.6
					c-0.8,0.5-1.5,1.2-1.9,2.2c-0.1,0.4-0.3,0.8-0.1,1.2c-0.1,0.1-0.2-0.1-0.2,0.1c-0.1,2.3,0.1,4.3,0.9,6.4c0.3,0.7,0.7,1.3,1,2.1
					c0.3,0.7,0.5,1.5,0.9,2.3c0.4,0.8,0.6,1.5,1.1,2.1C11,26.2,11.3,25.9,11.5,25.3z M18.8,12.2c1.1,2.1,2.6,4.5,2.5,6.8
					c-0.1,1.1-1,2.5-2.1,3c-0.8,0.4-1.9,0.5-2.9,0.7c-1,0.2-1.8,0.7-2.9,0.7c-0.2,0.4-0.7,1.2-0.9,1.5c1,0.1,2-0.3,3-0.5
					c0.9-0.2,2-0.3,2.9-0.6c0.8-0.3,1.6-0.8,2.4-1.3c0.8-0.5,1.7-1.3,2-2.1c0.3-0.6,0.3-1.6,0.3-2.2c0-2-1-4-2.3-5.8
					c-0.4-0.6-0.7-1.3-1.3-1.9c0,0-0.1,0-0.1-0.1C19,11.2,19.2,11.7,18.8,12.2z M17.3,10.7c-2.1,0.4-4.1,1.1-5.9,1.9
					c-0.5,0.2-1.2,0.5-1.5,0.9c-0.6,0.9-0.5,2.2-0.3,3.2c0.2,1,0.2,1.9,0.4,2.7c0.2,0.9,0.6,1.8,1,2.7c0.4,0.9,0.5,1.8,1.2,2.6
					c0.4-0.7,0.5-0.9,0.8-1.6c-0.5-0.8-0.7-1.5-1-2.3c-0.1-0.4-0.4-0.8-0.6-1.1C11,18.6,10.8,17.1,11,16c0.3-1.6,1.8-2.4,3.1-2.9
					c1.1-0.5,2.3-0.6,3.3-1.1c0.3,0,0.6,0.1,0.9,0.1c0.1-0.5,0.6-1.1,0.6-1.7C18.3,10.5,17.8,10.6,17.3,10.7z M13.9,13.6
					c-1.9,0.9-2.7,2-2.6,4c0.1,1.8,0.8,3.4,2,5c0.6-0.7,0.3-1.1,0.1-1.7C13,20,12.6,19,12.5,18.3c-0.1-1.2,0.1-2.1,1.1-2.9
					c1-0.9,2.5-1,3.8-1.5c0.4-0.2,0.3-0.7,0.7-1.1c0,0,0-0.1,0-0.1C16.6,12.7,15.2,13,13.9,13.6z M17.9,14.2c0,0.2,0.2,0.6,0.3,1
					c0.3,1,0.7,2,0.8,2.9c0.2,2.1-2.2,3.1-3.7,3.5c-0.3,0.1-0.8,0.1-1,0.2c-0.3,0.3-0.3,0.7-0.5,1c0.5,0.2,0.9-0.1,1.4-0.2
					c1.2-0.2,2.8-0.6,3.8-1.1c1.5-0.8,2.2-2.7,1.9-4.3c-0.6-1.5-1.1-2.9-2.2-4.3c0,0,0-0.1,0-0.1C18.4,13.4,18,13.6,17.9,14.2z
					 M13.3,16.3c-0.8,1.4-0.1,3.2,0.8,4.5c0.1-0.3,0.3-0.5,0.4-0.8c-0.3-1-0.5-1.8-0.2-2.7c0.1-0.3,0.2-0.5,0.4-0.7
					c0.7-0.8,2.4-0.6,2.2-1.9C15.5,14.8,14,15.1,13.3,16.3z M17.1,15.8c1,1.5-0.1,4.5-2.2,4.5c-0.1,0.2-0.2,0.5-0.4,0.7
					c1.3,0,2.3-0.5,3.2-1c-0.1-0.1-0.2,0-0.2-0.1c1.5-0.9,0.7-2.5,0.5-3.9c-0.3-0.3-0.3-0.6-0.5-0.8C17.2,15.4,17.3,15.4,17.1,15.8z
					 M14.8,19.4c0.5-1.1,1-2,1.4-3.1C15,16.6,14,18.3,14.8,19.4z M15.5,19.6c1-0.5,2.1-1.9,1.2-3C16.3,17.5,15.8,18.5,15.5,19.6z"/>
			</defs>
			<clipPath id="SVGID_2_">
				<use xlink:href="#SVGID_1_"  style="overflow:visible;"/>
			</clipPath>
			<g class="st0">
				<g>
					<g>
						<path class="st1" d="M18.9,6.2c0-0.1,0-0.3-0.1-0.6c0-0.5-0.1-1.2-0.1-1.3c0-0.2-0.1-0.4-0.4-0.4c-1.1-0.1-2.3-0.1-3.5-0.1
							c-1.2,0-2.4,0.1-3.5,0.1c-0.3,0-0.4,0.2-0.4,0.4c0,0.1-0.1,0.8-0.1,1.3c0,0.3,0,0.5-0.1,0.6C11.8,6.6,17.4,6.6,18.9,6.2z"/>
					</g>
					<g>
						<path class="st1" d="M14.5,3.3c-0.5-0.1-0.8-0.5-0.8-1.1c0-0.6,0.5-1.1,1.1-1.1c0.3,0,0.6,0.1,0.8,0.3
							c0.2,0.2,0.3,0.5,0.3,0.8c0,0.3-0.1,0.6-0.3,0.8c-0.1,0.1-0.3,0.2-0.5,0.3h0c0.4,0,0.8,0,1.3,0c0.2-0.3,0.3-0.7,0.3-1.1
							c0-0.5-0.2-1-0.6-1.3c-0.4-0.4-0.8-0.6-1.3-0.5c-1,0-1.9,0.9-1.9,1.9c0,0.4,0.1,0.8,0.3,1.1C13.7,3.3,14.1,3.3,14.5,3.3z"/>
					</g>
					<g>
						<path class="st1" d="M28.2,18.3c-0.1-0.5-0.2-0.9-0.3-1.3c1.4,6.2-6,11.4-10.4,14.6c-1,1.1-2.1,2.2-2.6,2.6c0,0,0.1,0,0.1,0
							c0,0,0,0,0,0c3.5,0,6.6-1.4,9-3.5c0.2-0.2,0.3-0.3,0.5-0.5c0.6-0.6,1.2-1.3,1.7-2.1c1.4-2.1,2.2-4.7,2.2-7.5
							C28.4,19.8,28.3,19,28.2,18.3z"/>
					</g>
					<g>
						<path class="st1" d="M11.6,8.8c1-0.8,1.6-1.2,2.1-1.4c-0.9,0-1.9-0.1-2.6-0.2C11,7.6,10.7,7.8,10.3,8C10.1,8.1,10,8.1,9.8,8.2
							C8.3,8.8,7,9.7,5.8,10.8c-2.1,2-3.6,4.6-4.1,7.6C2.8,15.2,6,12.2,11.6,8.8z"/>
					</g>
					<g>
						<path class="st1" d="M25,13.5c0-1-0.1-1.8-0.9-2.7c-0.1-0.1-0.1-0.1-0.2-0.2c-0.7-0.6-1.4-1.1-2.2-1.6
							C23.1,10,24.3,11.4,25,13.5z"/>
					</g>
					<g>
						<path class="st1" d="M17.5,7.3c0.5,0.1,1,0.2,1.4,0.4c-0.1-0.1-0.3-0.3-0.3-0.5L17.5,7.3z"/>
					</g>
					<g>
						<path class="st1" d="M11.6,8.8C11,9.3,11,9.3,11.6,8.8L11.6,8.8z"/>
					</g>
					<g>
						<path class="st1" d="M22.5,25.1c5.8-5.9,4.9-9.6,4-11.4c-0.1-0.2-0.3-0.5-0.4-0.7c0.6,1.1,1.2,3-1,6
							C24.4,21.7,23.5,23.3,22.5,25.1z"/>
					</g>
					<g>
						<path class="st1" d="M6,14.6c-2.4,2.7-4.3,4.9-4.5,7.7c0.1,0.6,0.2,1.2,0.4,1.8c0-1,0.4-2.1,1.2-3.6C3.8,18,4.9,16.3,6,14.6z"
							/>
					</g>
					<g>
						<path class="st1" d="M13.1,25.7c9.1-7,9.1-7,10.9-9.5c0.3-4.6-1.8-7-4.3-8.1C19.6,8,19.5,8,19.4,8c-0.1,0-0.1-0.1-0.2-0.1
							c-0.7-0.3-1.3-0.4-2-0.6c-0.1,0-0.1,0-0.2,0c2.4,0.6,2.5,2.2,0,4.4c-4.4,4-10.3,6.1-13.3,11.7c-0.3,3.6,0.8,6,2.5,7.6
							c1.1,0.9,2.4,1.6,3.7,2.2C7.9,32.2,7.6,30,13.1,25.7z"/>
					</g>
					<g>
						<path class="st1" d="M14.5,8c-0.3,0.3-0.3,0.3-3.7,2.8c-2.7,3-3.9,4.9-4.9,6.7c2-1.8,3.4-2.7,7-5.2c1.9-1.3,3-2.1,3.9-3
							c0.6-0.7,0.8-1.5,0-1.9c-0.5,0-1.1,0-1.6,0C15,7.6,14.7,7.8,14.5,8z"/>
					</g>
					<g>
						<path class="st1" d="M17.8,29.3c2.6-3.5,3.5-5.3,4.4-7.1c-1.9,1.7-3.1,2.6-6.5,4.9c-1.8,1.3-3.7,2.6-4.6,3.9
							c-1.3,1.8,0,2.6,1.2,2.9c0.6,0.1,1.2,0.2,1.7,0.2C12.4,33.7,14.7,31.8,17.8,29.3z"/>
					</g>
					<g>
						<path class="st1" d="M3.2,27.3c0.2,0.3,0.3,0.6,0.5,0.9c0.1,0.1,0.2,0.2,0.2,0.3c-0.4-0.7-0.7-1.4-0.9-2.2
							C3.1,26.6,3.1,27,3.2,27.3z"/>
					</g>
				</g>
			</g>
		</g>
		<g>
			<g>
				<g>
					<path class="st1" d="M14.6,6.8c-1.7,0-3.3-0.1-3.8-0.3l-0.2-0.1l0.1-0.8c0-0.5,0.1-1.2,0.1-1.3c0-0.2,0.1-0.6,0.6-0.6
						c1.1-0.1,2.3-0.1,3.5-0.1c1.2,0,2.4,0,3.5,0.1C18.9,3.7,19,4,19,4.2c0,0.1,0.1,0.8,0.1,1.4c0,0.3,0,0.5,0.1,0.6l0,0.2L19,6.5
						C18.2,6.7,16.4,6.8,14.6,6.8z M11.1,6c1.3,0.3,5.9,0.3,7.5,0c0-0.1,0-0.2,0-0.4c0-0.5-0.1-1.2-0.1-1.3c0,0,0-0.1,0-0.1l0,0
						c0,0,0,0-0.1,0c-1.1-0.1-2.3-0.1-3.4-0.1c-1.2,0-2.4,0.1-3.5,0.1c-0.1,0-0.1,0-0.1,0c0,0,0,0.1,0,0.1c0,0.1-0.1,0.8-0.1,1.3
						L11.1,6z"/>
				</g>
				<g>
					<path class="st1" d="M13.2,3.7l-0.1-0.1c-0.3-0.4-0.4-0.8-0.4-1.2c0-0.6,0.2-1.1,0.6-1.5c0.4-0.4,1-0.6,1.5-0.6
						c0.6,0,1.1,0.2,1.5,0.6c0.4,0.4,0.6,1,0.6,1.5c0,0.4-0.1,0.9-0.4,1.2l-0.1,0.1l-0.1,0c-0.4,0-0.8,0-1.3,0l-0.6,0
						c-0.4,0-0.8,0-1.3,0L13.2,3.7z M14.9,1.5C14.9,1.5,14.9,1.5,14.9,1.5c-0.5,0-0.8,0.4-0.8,0.8c0,0.4,0.3,0.7,0.6,0.8l0.2,0.1
						l0.2-0.1c0.1,0,0.3-0.1,0.4-0.2c0.2-0.2,0.2-0.4,0.2-0.6c0-0.2-0.1-0.4-0.2-0.6C15.3,1.5,15.1,1.5,14.9,1.5z M14.9,0.7
						c-0.4,0-0.9,0.2-1.2,0.5c-0.3,0.3-0.5,0.7-0.5,1.2c0,0.3,0.1,0.6,0.2,0.8c0.1,0,0.2,0,0.3,0c-0.2-0.2-0.3-0.5-0.3-0.8
						c0-0.8,0.6-1.4,1.4-1.4c0,0,0,0,0,0c0.4,0,0.7,0.1,1,0.4c0.3,0.3,0.4,0.6,0.4,1c0,0.3-0.1,0.6-0.3,0.8c0.1,0,0.2,0,0.3,0
						c0.1-0.2,0.2-0.5,0.2-0.8c0-0.4-0.2-0.8-0.5-1.1C15.7,0.8,15.3,0.7,14.9,0.7z"/>
				</g>
				<g>
					<path class="st1" d="M15,34.5L15,34.5l-0.8,0l0.6-0.5c0.5-0.4,1.6-1.5,2.6-2.6c4.4-3.1,11.7-8.3,10.3-14.3l0.5-0.1
						c0.1,0.5,0.2,0.9,0.3,1.4c0.1,0.7,0.2,1.5,0.2,2.3c0,2.7-0.8,5.3-2.2,7.6c-0.5,0.8-1.1,1.5-1.7,2.1c-0.2,0.2-0.4,0.3-0.5,0.5
						C21.7,33.2,18.5,34.4,15,34.5L15,34.5z M28.2,20.2c-1.1,4.9-6.8,9-10.5,11.6c-0.7,0.8-1.5,1.6-2.1,2.1c3.1-0.2,6-1.4,8.2-3.4
						c0.2-0.2,0.3-0.3,0.5-0.5c0.6-0.6,1.2-1.3,1.7-2.1c1.4-2.2,2.2-4.7,2.2-7.3C28.2,20.5,28.2,20.4,28.2,20.2z"/>
				</g>
				<g>
					<path class="st1" d="M2,18.4l-0.5-0.1c0.5-2.9,2-5.7,4.2-7.7c1.2-1.1,2.6-2,4.1-2.6c0.2-0.1,0.3-0.1,0.4-0.2
						c0.3-0.2,0.6-0.3,0.7-0.7L11,6.9l0.2,0c0.6,0.1,1.4,0.2,2.5,0.2l1,0l-0.9,0.5c-0.5,0.3-1.2,0.8-2.1,1.4l0,0
						C6.2,12.4,3.1,15.4,2,18.4z M11.4,7.5c-0.2,0.4-0.6,0.6-0.9,0.8c-0.2,0.1-0.3,0.1-0.5,0.2C8.5,9.1,7.2,9.9,6,11
						c-1.5,1.4-2.6,3.1-3.4,5c1.6-2.4,4.5-4.7,8.9-7.4c0.5-0.4,0.9-0.7,1.3-1C12.3,7.6,11.8,7.6,11.4,7.5z"/>
				</g>
				<g>
					<path class="st1" d="M25.3,15l-0.5-1.4c-0.6-1.8-1.7-3.3-3.2-4.3l0.3-0.4c0.8,0.5,1.6,1,2.3,1.6l0.2,0.2c0.9,1.1,1,2,1,2.9
						L25.3,15z"/>
				</g>
				<g>
					<path class="st1" d="M20.1,8.3l-1.2-0.4c-0.5-0.2-0.9-0.3-1.4-0.4l-1.7-0.3l3.1-0.3l0.1,0.2c0.1,0.2,0.1,0.3,0.3,0.4L20.1,8.3z
						"/>
				</g>
				<g>
					<path class="st1" d="M11.2,9.5C11.1,9.5,11.1,9.5,11.2,9.5l-0.2-0.1l0-0.2c0-0.1,0-0.1,0.1-0.2l0,0c0,0,0.1-0.1,0.2-0.1
						c0.1-0.1,0.2-0.1,0.3-0.2L11.8,9c-0.1,0.1-0.2,0.2-0.3,0.2c-0.1,0.1-0.2,0.1-0.2,0.1l0,0C11.3,9.5,11.2,9.5,11.2,9.5z"/>
				</g>
				<g>
					<path class="st1" d="M21.2,26.9l1.1-1.9c1-1.8,1.9-3.4,2.5-6l0-0.1c2.3-3.2,1.3-5.1,1-5.7l0.5-0.3c0.2,0.2,0.3,0.5,0.5,0.7
						c1.7,3.4,0.3,7.3-4,11.7L21.2,26.9z M25.4,19.2c-0.4,1.7-0.9,2.9-1.5,4.1c2.3-2.8,3.3-5.3,3-7.5C26.7,16.8,26.2,18,25.4,19.2z"
						/>
				</g>
				<g>
					<path class="st1" d="M2.2,26.2l-0.5-1.9c-0.2-0.6-0.3-1.2-0.4-1.9c0.2-3,2.1-5.1,4.5-7.9l0.4,0.3c-1.1,1.6-2.1,3.3-2.8,5.8
						l0,0.1c-0.8,1.4-1.2,2.5-1.2,3.5L2.2,26.2z M4.1,17.4c-1.3,1.6-2.1,3.2-2.3,5c0,0.1,0,0.2,0,0.3c0.2-0.7,0.5-1.4,1-2.2
						C3.3,19.3,3.7,18.3,4.1,17.4z"/>
				</g>
				<g>
					<path class="st1" d="M10.1,33.6c-1.4-0.5-2.7-1.3-3.8-2.2c-2-1.9-2.9-4.6-2.6-7.9l0-0.1c1.9-3.7,5.3-6,8.5-8.2
						c1.7-1.1,3.4-2.3,4.9-3.6c1.3-1.2,1.9-2.2,1.7-2.9c-0.1-0.5-0.7-0.9-1.6-1.1l-1.6-0.4L17.3,7c0.8,0.1,1.5,0.3,2.1,0.6
						c0.1,0,0.1,0.1,0.2,0.1c0.1,0,0.2,0.1,0.3,0.1c3.2,1.5,4.7,4.3,4.4,8.4l0,0.1l0,0.1c-1.8,2.6-1.8,2.6-10.9,9.6l0,0
						c-3.8,2.9-4.5,4.6-4.4,5.6c0.1,0.6,0.5,1.2,1.4,1.6L10.1,33.6z M4.2,23.6c-0.2,3.1,0.6,5.6,2.5,7.4c0.6,0.5,1.3,1,2,1.4
						c-0.1-0.2-0.2-0.5-0.2-0.7C8.3,30,9.8,28,13,25.5c9-6.9,9.1-7,10.8-9.4c0.2-3.8-1.1-6.4-4.1-7.8c-0.1,0-0.2-0.1-0.3-0.1
						c-0.1,0-0.1-0.1-0.2-0.1c-0.1,0-0.1-0.1-0.2-0.1c0.1,0.2,0.2,0.3,0.2,0.5c0.2,0.9-0.4,2.1-1.9,3.4c-1.5,1.4-3.2,2.6-4.9,3.7
						C9.3,17.8,6.1,20,4.2,23.6z"/>
				</g>
				<g>
					<path class="st1" d="M4.9,18.7l0.8-1.4c1-1.8,2.2-3.7,4.9-6.7c3.5-2.5,3.5-2.5,3.8-2.8v0c0.1-0.1,0.4-0.4,0.5-0.5L15,7.1l0.2,0
						c0.5,0,1.1,0,1.6,0l0.1,0l0.1,0c0.5,0.2,0.7,0.6,0.7,0.8c0.1,0.4-0.1,1-0.6,1.5c-0.9,1-2,1.8-3.9,3.1c-3.6,2.4-4.9,3.4-6.9,5.2
						L4.9,18.7z M14.7,8.2C14.4,8.5,14.4,8.5,11,11c-2,2.2-3.2,3.8-4,5.2C8.4,15,9.9,14,12.7,12c1.9-1.3,3-2,3.8-3
						c0.4-0.4,0.5-0.8,0.5-1c0-0.2-0.2-0.3-0.4-0.4c-0.5,0-0.9,0-1.4,0C15.1,7.8,14.9,8,14.7,8.2z"/>
				</g>
				<g>
					<path class="st1" d="M14.2,34.4c-0.6,0-1.2-0.1-1.8-0.2c-1.1-0.3-1.7-0.8-1.9-1.4c-0.2-0.6,0-1.2,0.5-2c0.9-1.3,2.9-2.7,4.7-4
						c3.3-2.3,4.5-3.2,6.4-4.9l1-0.9l-0.6,1.2c-0.9,1.8-1.8,3.6-4.4,7.2L18,29.5c-2.1,1.7-4.3,3.5-4.2,4.2c0,0.1,0.3,0.2,0.4,0.2
						L14.2,34.4z M21.4,23.2c-1.4,1.2-2.7,2.1-5.5,4.1c-1.8,1.3-3.7,2.6-4.6,3.9c-0.4,0.6-0.6,1.1-0.4,1.5c0.2,0.6,0.9,0.9,1.5,1
						c0.3,0.1,0.6,0.1,0.8,0.1c0,0,0,0,0,0c-0.2-0.9,1.3-2.2,4.3-4.7C19.7,26.4,20.7,24.7,21.4,23.2z"/>
				</g>
				<g>
					<path class="st1" d="M3.8,28.7c-0.1-0.1-0.2-0.2-0.2-0.3c-0.2-0.3-0.4-0.6-0.5-0.9l0-0.1c-0.1-0.4-0.1-0.7-0.2-1l-0.2-2.3
						l0.7,2.2c0.3,0.8,0.6,1.5,0.9,2.1L3.8,28.7z"/>
				</g>
			</g>
		</g>
	</g>
</g>
</svg>
