<?xml version="1.0" encoding="utf-8"?>
<!-- Generator: Adobe Illustrator 19.1.0, SVG Export Plug-In . SVG Version: 6.00 Build 0)  -->
<svg version="1.1" id="Layer_1" xmlns="http://www.w3.org/2000/svg" xmlns:xlink="http://www.w3.org/1999/xlink" x="0px" y="0px"
	 viewBox="0 0 630 94" enable-background="new 0 0 630 94" xml:space="preserve">
<g>
	<g id="Siempre">
		<g>
			<rect x="320" y="18.7" fill="#FFFFFF" width="10" height="56.5"/>
			<polygon fill="#FFFFFF" points="354.9,51.1 382.4,51.1 382.4,42.3 354.9,42.3 354.9,27.6 386.9,27.6 386.9,18.7 345,18.7 
				345,75.3 387.3,75.3 387.3,66.4 354.9,66.4 			"/>
			<polygon fill="#FFFFFF" points="596.6,51.1 624.1,51.1 624.1,42.3 596.6,42.3 596.6,27.6 628.6,27.6 628.6,18.7 586.7,18.7 
				586.7,75.3 629,75.3 629,66.4 596.6,66.4 			"/>
			<path fill="#FFFFFF" d="M496.7,18.7h-22.2v56.5h10V57.1h11.3c12.5,0,22.6-6.6,22.6-19.3v-0.2C518.2,26.2,509.9,18.7,496.7,18.7z
				 M508.1,38c0,5.9-4.7,10.1-12.2,10.1h-11.6V27.8h11.6C503.3,27.8,508.1,31.3,508.1,38L508.1,38z"/>
			<path fill="#FFFFFF" d="M574.5,36.7v-0.2c0-4.9-1.7-9.2-4.7-12.2c-3.6-3.6-9.2-5.7-16.3-5.7h-25.1v56.5h10V55.5h12.5l11.8,16.6
				l0,0c1.3,1.8,3.4,3.1,5.4,3.1h8.5l-15.3-21.4C569,51.5,574.5,46.1,574.5,36.7z M538.3,46.8V27.8h14.5c7.4,0,11.7,3.3,11.7,9.4
				v0.2c0,5.7-4.5,9.5-11.7,9.5L538.3,46.8L538.3,46.8z"/>
			<path fill="#FFFFFF" d="M429.4,48.2l-20.6-29.5H399v56.5h9.8V35.8L425.7,60l0.1,0.1l0,0l0,0c0.8,1.1,2.1,1.8,3.6,1.8
				s2.8-0.7,3.6-1.8l0,0l0,0l0.1-0.1l16.9-24.2v39.5h9.8V18.7h-9.8L429.4,48.2z"/>
			<path fill="#FFFFFF" d="M307.7,59.2V59c0-9.4-6.2-13.7-18.1-16.5c-2.4-0.6-4.4-1.1-6.1-1.7l-4,9.1c1.7,0.5,3.5,1,5.5,1.5
				c10.5,2.4,12.8,4.6,12.8,8.7v0.2c0,4.3-3.9,7.1-10,7.1c-5.4,0-9.8-1.6-14-4.4l-3.7,8.6c5.4,3.1,11.3,4.6,17.4,4.6
				C299.3,76.1,307.7,69.8,307.7,59.2z"/>
			<path fill="#FFFFFF" d="M299.5,30.9c1.5,0,2.8-0.7,3.6-1.8l0,0l0.1-0.1l0,0l2.8-3.9c-3.9-3.1-8.1-5.2-12.9-6.3l-3.7,8.5
				c2.7,0.5,5.3,1.6,8,3.2C298,30.7,298.8,30.9,299.5,30.9z"/>
		</g>
	</g>
	<g id="Diagonal">
		<path fill="#FFFFFF" d="M291,0.2h-6c-2.4,0-5,1.9-6,4.2l-39.1,89.4h6c2.4,0,5-1.8,6-4.2L291,0.2z"/>
	</g>
	<g id="Hasta">
		<g>
			<polygon fill="#FFFFFF" points="37.9,42.3 11,42.3 11,18.7 1,18.7 1,75.3 11,75.3 11,51.4 37.9,51.4 37.9,75.3 47.9,75.3 
				47.9,18.7 37.9,18.7 			"/>
			<polygon fill="#FFFFFF" points="217.4,18.7 171.6,18.7 171.6,27.9 189.5,27.9 189.5,75.3 199.5,75.3 199.5,27.9 217.4,27.9 			
				"/>
			<path fill="#FFFFFF" d="M82.3,18.3L57.5,75.3h6l0,0c2.4,0,5-1.9,6-4.2l0,0l4-9.4h26.7l4,9.4l0,0c1,2.4,3.7,4.2,6,4.2l0,0h6.3
				L91.6,18.3H82.3z M77.2,52.8l9.7-22.6l9.8,22.6H77.2z"/>
			<path fill="#FFFFFF" d="M240.6,18.3l-24.8,56.9h6l0,0c2.4,0,5-1.9,6-4.2l0,0l4-9.4h12.1l3.9-8.8h-12.3l9.7-22.6l6.2,14.4l5-11.5
				l-6.5-14.8L240.6,18.3L240.6,18.3z"/>
			<path fill="#FFFFFF" d="M146.9,42.5c-10.9-2.6-13.4-4.5-13.4-8.9v-0.2c0-3.7,3.4-6.7,9.2-6.7c4.1,0,8.1,1.2,12.1,3.6
				c0.6,0.4,1.4,0.6,2.2,0.6c1.5,0,2.8-0.7,3.6-1.8l0,0l0.1-0.1l0,0l2.8-3.9c-5.7-4.6-12.3-7.1-20.5-7.1c-11.3,0-19.3,6.7-19.3,16.3
				v0.2c0,10.4,6.8,14,18.8,16.8c10.5,2.4,12.8,4.6,12.8,8.7v0.2c0,4.3-3.9,7.1-10,7.1c-5.6,0-10.2-1.7-14.6-4.8
				c-0.7-0.5-1.6-0.9-2.6-0.9c-1.4,0-2.6,0.7-3.5,1.7l-3.2,3.8c6.8,6.1,15,9.1,23.5,9.1c11.9,0,20.1-6.3,20.1-16.8V59
				C165.1,49.6,158.9,45.4,146.9,42.5z"/>
		</g>
	</g>
</g>
</svg>
