<?xml version="1.0" encoding="utf-8"?>
<!-- Generator: Adobe Illustrator 19.1.0, SVG Export Plug-In . SVG Version: 6.00 Build 0)  -->
<svg version="1.1" id="Layer_1" xmlns="http://www.w3.org/2000/svg" xmlns:xlink="http://www.w3.org/1999/xlink" x="0px" y="0px"
	 viewBox="0 0 554.8 88.4" enable-background="new 0 0 554.8 88.4" xml:space="preserve">
<g>
	<g>
		<path fill="#FFFFFF" d="M541.1,80.2c0-2,1.4-6.5,7.2-6.5c3.4,0,6.5,2.7,6.5,6.9c0,3.8-2.9,6.4-6.5,6.4
			C545.8,87,541.1,85.6,541.1,80.2z"/>
	</g>
	<path fill="#FFFFFF" d="M530.9,81.9H527c-2.9,0-5.9-1.4-7.9-5.2c-1.6-3.4-9.2-25-11.8-34c-2.2-7.4-11.3-33.4-13.5-40.7
		c-0.3-1.3-0.6-2-1.3-2c-0.6,0-0.9,0.5-1.5,1c-1.3,1.6-6.4,5.1-9.6,5.8c-0.8,0.2-1,0.7-1,1c0,0.5,0.5,1,0.8,1.5
		c0.8,1.3,0.2,2.8-0.1,3.9c-1,3.1-10.4,28.1-11.3,30.4c-1.6,4.6-4.5,12.1-7.1,18.8c0,0,0-0.1,0-0.1c0-7.6-2.1-12.2-5.1-15.8
		c-4.2-5.1-10.7-7.1-18.7-9.6c-3.4-1-9.9-3.6-13.2-7c-2.9-3-3.6-6.8-3.6-10.1c0-5.9,3.7-13.6,14-13.6c5.5,0,9.5,1.6,12.6,5
		c4.8,5,6.3,9.5,7.2,12.9c0.1,0.4,0.4,0.5,0.7,0.4l1.4-0.4c0.5-0.1,0.6-0.4,0.6-0.9c-0.1-2.6-1.6-14.4-1.6-18.4c0-1-0.4-2-0.9-2
		c-0.6,0-0.9,0.2-1.5,0.7L453.1,5c-0.6,0.6-1.2,0.7-2.2,0.1c-2-0.9-7.1-2.9-13.7-2.9c-6.3,0-12.1,1.6-16.2,5.6
		c-3.6,3.4-7.2,9-7.2,14.9c0,7.7,2,13.1,5.8,16.9c5,5.2,13.3,8.1,16.9,9.4c9.3,3.2,17.9,7.7,17.9,19.6c0,10.5-8.8,14.7-15.8,14.7
		c-6.4,0-12.8-3.1-16.2-8.6c-3.8-5.9-4.1-9.7-4.2-13.5c0-0.7-0.2-0.9-0.7-0.9l-1.7-0.1c-0.5,0-0.7,0-0.8,0.7
		c-0.2,2.3-0.8,9.6-1.3,15.1c-2.9-3.7-6.3-8.6-6.7-9.4c-0.9-1.5-9.2-13.3-10.6-14.9c-0.9-1.3-2.6-3.4-5.3-4.4v-0.2
		c14.8-3.2,21.5-8.7,21.5-23.2c0-4.3-2.2-9.5-6-13.2c-4.4-4.2-12.1-7.1-21.7-7.1c-2.1,0-12.9,0.4-19.4,0.4c-9.7,0-11.9-0.4-13-0.4
		c-0.6,0-0.7,0.2-0.7,0.8v2.9c0,0.5,0.1,0.8,0.7,0.8h3.2c2.9,0,4.3,2,4.4,5.8c0.1,3.4,0.1,10.8,0.1,19.4v11.3c0,11,0,21.9-0.2,33.4
		c0,3.1-2,3.9-4.5,3.9H352l5.1-14.3c0.3-0.9,0.3-1.3-0.2-1.6l-1.9-1c-0.7-0.3-1,0.1-1.4,0.7c-1.6,2.7-8.1,11-9.5,12.2
		c-3,2.6-8.1,3.8-10.1,4.1c-2.4,0.2-8.2,0.4-10.2,0.4c-2.9,0-6.3-0.4-8.6-0.8c-3.6-0.7-6.5-3-6.6-9.1c0-2.3-0.2-13.6-0.2-19.8v-7.2
		c1.9,0,9.9,0,15.3,0.6c3,0.3,4.3,2.1,5,4.5c0.4,1.3,1,3.9,1.3,5.5c0.1,0.8,0.4,1.2,0.9,1l2.5-0.4c0.5-0.1,0.7-0.4,0.7-0.9
		c-0.2-2.4-0.7-8-0.7-12.1c0-1.7,0-11.3,0.4-13.2c0.1-0.5-0.1-0.9-0.7-0.9l-2.9-0.1c-0.5,0-0.8,0.2-0.8,0.8
		c-0.1,2.2-0.6,4.5-0.9,5.7c-1,3.6-2,4.5-5.3,5.1c-1.4,0.2-13.8,0.7-14.7,0.7v-34l20.7,0.5c3.1,0.1,6.4,1.5,8.8,3.1
		c2.8,1.7,11.4,12.8,11.6,13.2c0.1,0.2,0.6,0.6,0.9,0.3l1.7-0.9c0.5-0.2,0.5-0.6,0.4-1c-0.4-1.2-5.5-17.1-5.9-18.7
		c-0.1-0.4-0.4-0.6-0.9-0.6c-0.6,0-2.8,0.2-4.6,0.2c-11.5,0-23,0.1-34.5,0.1c0,0-20-0.2-20.1,0c-6.3,0-10.9-0.3-11.8-0.3
		c-0.6,0-0.7,0.2-0.7,0.8v2.7c0,0.7,0.1,1,0.6,1h3c2.9,0,6.5,2.8,3.5,9.3c-1.7,5.1-6.1,18.5-7.3,21.6c-0.9,2.7-10,26.6-12.4,32h-0.2
		c-2.7-7.1-9.4-27-10.8-31.4c-2.1-6.5-7.8-20.3-8.5-24.5c-1.1-5.2,1.2-7,4.4-7h5.6c0.8,0,0.9-0.5,0.9-1V4.4c0-0.5-0.1-0.8-1.2-0.8
		c-1,0-6.3,0.4-16,0.4c-2.7,0-17.3,0-18.8,0c-7.4,0-11.1-0.4-12.8-0.4c-0.5,0-0.7,0.2-0.7,0.7v3c0,0.6,0.2,0.8,0.7,0.8h3.7
		c3.2,0,5.5,1.6,6.4,4.5c0.7,2,1.3,13.3,1.4,17.9c0.2,5.8,0.3,11.5,0.3,21.8v13.8h-0.5c-2.8-3.7-22.4-27.7-23.7-29.4
		c-1.3-1.6-23.8-30.9-24.4-31.6c-0.9-1-1.9-1.5-3.4-1.5c-1.4,0-3.8,0.2-7.8,0.2s-6.5-0.1-8.2-0.2c-1.7,0-2.7-0.1-3.3-0.1
		c-0.6,0-0.7,0.2-0.7,0.7v3c0,0.3,0.1,0.8,0.7,0.8l4.8,0.1c1.8,0,3.4,0.8,4.7,2.1c1.3,1.9,2.2,4.5,2.2,7.9v19
		c-3.3-17.1-16.5-26.6-16.5-26.6l0.1,0.1c-8.9-7-18-8.5-25.1-8.5c-9.7,0-21.2,2.3-31.4,14.7c-8.9,10.8-10.8,21.8-10.8,28.9
		c0,6.1,1.2,11.7,3,16.5c-1.4,3.4-4,6.7-4.4,7.1C65.6,75.8,56.4,81.2,45,81.2c-7.8,0-14.4-0.9-22.3-9.8c-9-10-11.1-23.1-11.1-29.8
		c-0.1-16.9,8.2-35.4,29-35.4c10.7,0,25,7.9,28.1,19.5c0.4,0.9,0.6,1,1.2,0.9l1.7-0.5c0.5-0.1,0.6-0.6,0.5-1.2
		c-0.6-3.2-1.8-16.5-1.8-18.7c0-1.6-0.2-1.8-1.3-1.8c-1,0-1.3,0-1.5,0.7l-0.9,3.4c-0.2,0.8-0.8,0.9-2.3,0
		c-4.2-2.4-12.9-6.4-23.4-6.4c-12.7,0-23.1,5.4-29,11.7C3.5,22.7,0,33.9,0,44.7c0,11.1,4.1,24.6,12.4,32.5
		c7,6.4,15.7,10.7,29.4,10.7c13.7,0,23.8-6.6,30.9-14.7l0,0c0.1-0.1,0.1-0.2,0.2-0.3c1.3-1.5,2.4-3,3.5-4.5c0.1-0.2,0.1-0.3,0.2-0.4
		c0.4-0.6,0.7-1.1,1-1.6c3.3,6.5,7.8,11.3,12.2,13.9c9.2,5.7,19.3,7.5,25,7.5c14,0,23.7-5.3,30.6-13v0c6.8-7.3,9.8-14.5,11-20.1
		c-0.1,11.6-0.3,18.9-0.4,20.5c-0.3,3.2-0.9,5.1-1.9,6.1c-0.7,0.4-1.5,0.5-2.6,0.5h-4c-0.6,0-0.7,0.4-0.7,0.7v3
		c0,0.6,0.1,0.8,0.6,0.8c1.2,0,9.2-0.4,11.6-0.4c3.1,0,10.1,0.4,11.3,0.4c0.8,0,0.9-0.2,0.9-0.9V83c0-0.7-0.1-1-0.9-1h-3.5
		c-3.1,0-3.8-2.2-4.3-6.7c-0.2-2.3-1.2-21.2-1.2-32V17.4h0.7c0.7,0.9,22,27.7,23.3,28.9c0.7,0.7,9.2,11.4,17.3,21.5
		c7.2,9,14,17.6,14.2,17.9c0.4,0.5,1.4,1.9,2.8,1.9c0.5,0,0.6-1.2,0.6-2.8V41.3c0-7.6,0-19,0.5-26.8c0.2-4.2,1.3-6.1,4-6.3
		c2.2,0.1,3.3,1.2,4.4,3.8c1.5,3.5,8.4,20.3,11.2,28.5l1.2,3.9c1.5,4.2,10.9,30.6,14.6,41.3c0.6,1.5,1.1,2.7,2,2.7
		c0.6,0,1.2-0.6,1.6-1.5c0.6-1.2,15.5-38.1,16.9-41.9c2-4.9,10.7-28.7,12.9-32.4c1-2,2-4.1,4.4-4.1c2.5,0,3.6,1.9,3.6,4.1
		c0.1,1.2,0.3,15.7,0.3,25.3v11.4v27.5c0,4.3-0.5,5.1-5.8,5.1h-4.6c-0.8,0-1.2,0.1-1.2,0.6v3.1c0,0.6,0.3,0.8,1,0.8
		c1.1,0,2.6-0.1,5-0.2c2.3,0,5.6-0.1,9.9-0.1c18.1,0,29.4,0.1,36.3,0.1c7,0.1,9.5,0.2,10.1,0.2c0.7,0,1.9,0,2.6,0
		c1.3,0,3.9-0.4,14.5-0.4c11,0,13.9,0.4,15.2,0.4c1.2,0,1.3-0.2,1.3-1v-2.6c0-0.6-0.1-0.9-0.9-0.9h-7.3c-1.7,0-2.7-2.1-2.9-4.5
		c-0.1-1.7-0.2-14.7-0.2-21.6v-6.5c1.6-0.4,2.8-0.4,3.8-0.4c6.7,0,9.5,3.1,12.5,6.7c1.4,1.6,7,10,7.4,10.8
		c0.6,0.9,6.8,11.9,7.8,13.3c1,1.5,3.6,5.4,4.9,6.6c1.7-0.1,6-0.4,9.4-0.4c5.1,0,8.1,0.4,9,0.4c0.8,0-0.3-2.3-0.3-3
		c0,0,3.5,4.4,13.8,4.4c3.2,0,8.7-0.9,12.3-4.1c-0.2,1.5-0.9,2.8,0.4,2.6c6.7,0,19.1,0.1,20.3,0.1c0.6,0,0.9-0.2,0.9-1v-2.7
		c0-0.6-0.4-0.8-1.2-0.8h-5.5c-2.6,0-3.9-0.9-3.9-2.6c0-0.6,0.2-1.7,0.3-2.6c0.6-2.4,7-20.1,8.1-23h28.5c1.6,4.6,6.4,19.5,7.3,23.7
		c0.8,3.2-0.2,4.4-3.5,4.4h-2.9c-0.7,0-1.1,0.1-1.1,0.8v2.7c0,0.7,0.3,1,0.9,1c2.7,0,6.7-0.4,16.4-0.4c9.4,0,11.8,0.4,13.9,0.4
		c0.8,0,1.2-0.2,1.2-0.8v-2.9C531.8,82.3,531.6,81.9,530.9,81.9z M115.6,83.4c-9.9,0-31.1-10.8-31.1-41.3c0-9.5,3.8-21.2,11.6-28.7
		c8.7-8.2,16.6-6.8,18.3-6.8c12.9,0,31,15,31,40.4C145.4,57.3,141.1,83.4,115.6,83.4z M375.8,45.3c-2.2,0-3.5-0.1-5.2-0.5V12
		c0-1.9,0.6-3.1,1.4-3.7c1.1-0.7,2.6-0.9,3.9-0.9c9.6,0,14.7,1.7,19.3,5.3c3.4,2.8,5.8,7.9,5.8,13.2C401,30.7,397,45.3,375.8,45.3z
		 M472.5,49.7c0.8-2.9,11.8-32.6,12.4-34.1c0.3-0.9,0.8-1.7,1.3-1.7c0.4,0,0.6,0.8,0.9,1.6c0.6,1.7,10,30.7,11,34.2H472.5z"/>
</g>
</svg>
