<?xml version="1.0" encoding="utf-8"?>
<!-- Generator: Adobe Illustrator 19.1.0, SVG Export Plug-In . SVG Version: 6.00 Build 0)  -->
<svg version="1.1" id="Layer_1" xmlns="http://www.w3.org/2000/svg" xmlns:xlink="http://www.w3.org/1999/xlink" x="0px" y="0px"
	 viewBox="192 -70.3 640 280" enable-background="new 192 -70.3 640 280" xml:space="preserve">
<g>
	<g>
		<g>
			<path d="M452.4,185.4H422c-0.8,0-1.5-0.7-1.5-1.5V123c0-0.8,0.7-1.5,1.5-1.5h30.4c0.8,0,1.5,0.7,1.5,1.5v60.8
				C453.9,184.7,453.2,185.4,452.4,185.4z M423.5,182.3h27.3v-57.8h-27.3V182.3z"/>
		</g>
		<g>
			<path d="M514.7,192.5c-9.3,0-19.5-3.5-37.9-10c-7.1-2.5-15.2-5.3-25-8.6c-0.8-0.3-1.2-1.1-1-1.9c0.3-0.8,1.1-1.2,1.9-1
				c9.8,3.3,17.9,6.1,25.1,8.6c39.8,14,39.8,14,78-6.6c9.9-5.3,22.1-11.9,38.2-20c-6.8-6.3-12.3-7.9-19.8-5.7l-33.6,11.2
				c-0.8,0.3-1.7-0.2-1.9-1c-0.3-0.8,0.2-1.7,1-1.9l33.7-11.2c9.1-2.6,16.1-0.3,24.4,8c0.3,0.3,0.5,0.8,0.4,1.3
				c-0.1,0.5-0.4,0.9-0.8,1.1c-17,8.5-29.8,15.4-40.1,20.9C536,187.3,526,192.5,514.7,192.5z"/>
		</g>
		<g>
			<path d="M532.2,162.6h-41.8c-0.8,0-1.5-0.7-1.5-1.5c0-0.8,0.7-1.5,1.5-1.5h41.8c5.2,0,7.6-3.1,7.6-6.1c0-2.9-2.4-6.1-7.6-6.1
				h-22.8c-0.4,0-0.8-0.2-1.1-0.4c-4.4-4.4-16.5-14.8-33.1-14.8h-22.8c-0.8,0-1.5-0.7-1.5-1.5s0.7-1.5,1.5-1.5h22.8
				c17.2,0,29.8,10.3,34.8,15.2h22.2c7,0,10.6,4.6,10.6,9.1C542.8,158,539.1,162.6,532.2,162.6z"/>
		</g>
		<g>
			<path fill="#22D3C5" d="M556.5,132l-1.6-2.6c17.9-10.7,29-30.2,29-51c0-32.7-26.6-59.3-59.3-59.3c-32.7,0-59.3,26.6-59.3,59.3
				c0,9.4,2.1,18.3,6.3,26.6l-2.7,1.4c-4.4-8.7-6.6-18.2-6.6-28c0-34.4,28-62.3,62.3-62.3c34.4,0,62.3,28,62.3,62.3
				C586.9,100.2,575.2,120.7,556.5,132z"/>
		</g>
		<g>
			<path fill="#22D3C5" d="M519.3,122.2c-4.1,0-9.5-12.2-9.5-14.7c0-1.7,0.8-3.2,1.5-4.6c0.6-1.2,1.2-2.3,1.2-3.3
				c0-1.2-2.5-4.5-4.9-6.8l-0.4-0.4v-0.6c0-2.6-0.5-4.4-1.6-5.4c-1.7-1.6-4.9-1.4-8.6-1.2c-1.4,0.1-2.7,0.2-4.1,0.2
				c-7.5,0-9.5-7.9-9.5-12.1c0-0.8,0.2-19.8,14.4-22.6c6.5-1.3,10.9-1,13.3,1c1,0.8,1.4,1.7,1.6,2.4c3.2,2.7,8.6,1.4,13.4,0.3
				c1.8-0.4,3.5-0.8,5-1c0.8-6.3,0.6-12.4-0.4-13.2c-3.4,1.7-6.5,1.9-8.9,0.5c-2.3-1.3-3.7-3.7-4-6.9c-0.9-9.4,21.7-14.3,24.3-14.9
				l0.6,3c-7.3,1.5-22.3,6.4-21.9,11.6c0.2,2.2,1,3.7,2.4,4.5c1.5,0.8,3.7,0.7,5.9-0.4c1.6-0.8,2.8-0.3,3.3,0.1
				c3.3,2.4,2.1,12.9,1.5,17.3l-0.2,1.3h-1.3c-1.4,0-3.5,0.5-5.6,1c-5.5,1.3-12.3,2.9-16.6-1.4l-0.5-0.4v-0.6v0c0,0-0.1-0.4-0.7-0.9
				c-1-0.7-3.7-1.7-10.7-0.3c-11.9,2.4-12,19.5-12,19.6c0,0.4,0.1,9.1,6.4,9.1c1.3,0,2.7-0.1,4-0.2c4.3-0.2,8.3-0.5,10.9,2
				c1.6,1.5,2.4,3.8,2.5,7c1.7,1.7,5.3,5.8,5.3,8.6c0,1.7-0.8,3.2-1.5,4.7c-0.6,1.2-1.2,2.3-1.2,3.3c0,2.2,4.7,11.2,6.5,11.7
				c6.4,0,14.2-2,14.2-11.7v-1.1l1-0.4c0,0,3.7-1.3,7.3-4.9c0.8-0.8,0.8-1.2,0.8-1.3c0-0.5-0.8-1.2-1.5-1.8c-1.1-1-2.4-2.1-2.4-3.8
				c0-1.4,1.3-2.7,4.1-5.7c4.9-5.1,9.4-10.3,7.5-13.6c-2,0.7-6,1.8-8.5-0.8l-0.3-0.3l-0.1-0.4c-1.1-4.6-3-9-4-9.4
				c-1,0.1-1.5-0.7-1.6-1c-0.2-0.4-0.4-1.2,0.4-2.2c1.9-2.3,10.6-7.1,19.6-5.2c9.4-5.1,11.9-18.3,11.9-18.5l3,0.5
				c-0.1,0.6-2.9,15.3-14,20.9l-0.5,0.3l-0.5-0.1c-6.8-1.7-13.6,1.4-16.1,3.2c2,1.9,3.6,6.3,4.6,10.4c1.7,1.1,4.8,0,5.9-0.5l1-0.5
				l0.8,0.8c5.6,5.6-1.9,13.5-6.9,18.7c-1.4,1.4-3.1,3.2-3.3,3.8c0,0.1,0.9,0.9,1.4,1.3c1.1,1,2.5,2.2,2.6,4c0,1.2-0.5,2.4-1.7,3.6
				c-3,3-6,4.6-7.5,5.2C536.2,117.2,529.9,122.2,519.3,122.2z"/>
		</g>
		<g>
			<path d="M601.9,18h-30.4c-0.8,0-1.5-0.7-1.5-1.5v-60.8c0-0.8,0.7-1.5,1.5-1.5h30.4c0.8,0,1.5,0.7,1.5,1.5v60.8
				C603.5,17.3,602.8,18,601.9,18z M573.1,14.9h27.4v-57.8h-27.4V14.9z"/>
		</g>
		<g>
			<path d="M443.8-3.9c-6.1,0-11.6-2.9-17.7-9c-0.3-0.3-0.5-0.8-0.4-1.3c0.1-0.5,0.4-0.9,0.8-1.1c17-8.5,29.8-15.4,40.1-20.9
				c39.1-21,39.8-21.1,80.5-6.8c7.1,2.5,15.2,5.3,25,8.6c0.8,0.3,1.2,1.1,1,1.9c-0.3,0.8-1.1,1.2-1.9,1c-9.8-3.3-17.9-6.1-25.1-8.6
				c-39.8-14-39.8-14-78.1,6.6c-9.9,5.3-22.1,11.9-38.2,20c6.8,6.3,12.3,7.9,19.8,5.7L483.1-19c0.8-0.3,1.7,0.2,1.9,1
				c0.3,0.8-0.2,1.7-1,1.9L450.4-4.9C448.1-4.3,445.9-3.9,443.8-3.9z"/>
		</g>
		<g>
			<path d="M571.5,10.4h-22.8c-17.2,0-29.8-10.3-34.8-15.2h-22.2c-7,0-10.6-4.6-10.6-9.1s3.6-9.1,10.6-9.1h41.8
				c0.8,0,1.5,0.7,1.5,1.5s-0.7,1.5-1.5,1.5h-41.8c-5.2,0-7.6,3.1-7.6,6.1c0,2.9,2.4,6.1,7.6,6.1h22.8c0.4,0,0.8,0.2,1.1,0.4
				c4.4,4.4,16.5,14.8,33.1,14.8h22.8c0.8,0,1.5,0.7,1.5,1.5C573.1,9.7,572.4,10.4,571.5,10.4z"/>
		</g>
	</g>
	<g>
		<path fill="#231F20" d="M324.5,175.8l-1.6-0.6c-3.1-1.1-56.9-17.4-70.3-21.3l-5.8-1.7l3.7-27.5c-2.4-3.8-5.6-8.1-9-12.8
			c-10.4-14.1-23.4-31.5-25.2-48.9c-3.4-24.5,2-45.7,15.5-61.3c15.6-17.9,41-27.8,71.6-27.8c44.5,0,75.6,31.6,75.6,76.9
			c0,1.1-0.3,2-0.6,2.8c-0.4,1-0.9,2.3-1,5.1c-0.1,3.5,7.4,19.5,11,27.2c1.4,3,2.5,5.3,2.9,6.3c1.1,2.7,1.1,6.8-0.8,9.6
			c-0.9,1.3-2.7,3-5.9,2.8c-3-0.1-4.6,0.8-4.9,1.6c-0.2,0.7,0.3,1.6,1.4,2.3c0.7,0.4,1.5,1.4,1.4,3.4c0,2.2-1.1,5.3-2.6,6.1
			c-0.7,0.4-2.2,1-4.7,2c-0.5,0.2-1.1,0.4-1.6,0.6c0.8,0.7,1.6,1.4,2.1,2.3c1.1,1.9-0.2,5.7-1.2,7.8l-0.2,0.5l-0.4,0.3
			c0,0-2.1,1.2-5.8,3.6c-2.3,1.4-1.1,6.3-0.3,9.6c0.4,1.5,0.7,2.7,0.6,3.6c-0.1,3.7-4.6,13.1-14.9,13.1c-8,0-20.1-4-24.5-5.5
			L324.5,175.8z M250.2,150.1l3.2,0.9c12.4,3.6,59.1,17.8,68.8,20.8l4.4-19.9l1.6,0.6c0.2,0.1,15.9,5.9,25.1,5.9
			c8.6,0,11.8-8.1,11.8-10.2c0-0.5-0.3-1.7-0.6-2.9c-1-4.1-2.4-10.3,1.7-12.9c2.8-1.8,4.6-2.9,5.4-3.4c0.8-2,1.3-4.1,1.1-4.7
			c-0.3-0.5-1.2-1.2-1.8-1.8c-1-0.9-1.7-1.5-1.8-2.4l0-0.7l0.5-0.6c0.4-0.4,0.9-0.6,4.2-1.8c1.5-0.6,3.8-1.4,4.2-1.7
			c0.6-0.6,1.5-3.7,1-4.4c-2.2-1.4-3.2-3.7-2.5-5.7c0.4-1.2,2-3.9,7.9-3.7c1.5,0.1,2.6-0.5,3.3-1.5c1.3-1.8,1.2-4.8,0.5-6.7
			c-0.4-1-1.4-3.2-2.8-6.2c-5.8-12.3-11.4-24.7-11.2-28.6c0.1-3.3,0.7-4.9,1.2-6.1c0.3-0.7,0.4-1.1,0.4-1.7
			c0-43.5-29.8-73.8-72.5-73.8c-29.7,0-54.3,9.5-69.3,26.7c-13,14.9-18.1,35.3-14.8,58.9c1.8,16.6,14.5,33.7,24.7,47.4
			c3.6,4.9,7,9.5,9.5,13.4l0.3,0.5L250.2,150.1z"/>
	</g>
	<g>
		<g>
			<path fill="#22D3C5" d="M739.4,49.9c-2.8,0-6-1.6-9.6-4.8c-5.4,1.2-9.4,0.6-12-1.8c-2.6-2.5-3.3-6.7-2.1-12.2v0
				c1.2-5.6,4.7-9.3,8.5-13.1c3.3-3.5,6.8-7.1,8.9-12.4l0.7-1.9l1.6,1.3c9,7,14.9,25.4,12.8,34.6c-1.2,5.7-3.5,9-6.7,10.1
				C740.8,49.8,740.1,49.9,739.4,49.9z M730.6,41.8l0.6,0.6c3.9,3.6,7.1,5.1,9.4,4.4c2.6-0.8,4-4.7,4.7-7.8
				c1.7-7.7-3-23.2-10.2-30.3c-2.3,4.9-5.7,8.4-8.7,11.5c-3.6,3.7-6.6,6.9-7.7,11.7l0,0c-0.9,4.3-0.5,7.6,1.3,9.3
				c1.8,1.7,5.2,2,9.9,0.8L730.6,41.8z"/>
		</g>
		<g>
			<rect x="722.7" y="75.2" fill="#22D3C5" width="19" height="3.1"/>
		</g>
		<g>
			<rect x="722.7" y="83.5" fill="#22D3C5" width="19" height="3.1"/>
		</g>
		<g>
			<rect x="730.6" y="85" fill="#22D3C5" width="3.1" height="4.2"/>
		</g>
		<g>
			<path fill="#22D3C5" d="M730.7,68.6c-0.2-1.4-5.9-33.4,2.2-47.4l2.6,1.5c-7.5,13.1-1.9,45-1.8,45.3L730.7,68.6z"/>
		</g>
		<g>
			<path fill="#22D3C5" d="M743.2,69.9h-22.1v-6c-14.6-4.9-24.7-19.1-24.7-35c0-20.3,16-36.8,35.7-36.8s35.7,16.5,35.7,36.8
				c0,15.9-10.1,30.1-24.7,35V69.9z M724.2,66.9h15.9v-5.2l1.1-0.3c13.9-4.1,23.6-17.5,23.6-32.4c0-18.6-14.7-33.8-32.7-33.8
				s-32.7,15.1-32.7,33.8c0,14.9,9.7,28.3,23.6,32.4l1.1,0.3V66.9z"/>
		</g>
	</g>
	<g>
		<path d="M703.4,171.1c-0.3,0-0.5-0.1-0.7-0.2c-0.4-0.2-0.7-0.6-0.7-1l-3.9-18.1c-4.3,1.6-16,5.5-23.8,5.5
			c-10,0-14.4-9.4-14.5-13.1c0-0.9,0.3-2.1,0.6-3.6c0.8-3.2,1.9-8.2-0.3-9.6c-3.6-2.4-5.6-3.6-5.6-3.6c-0.3-0.2-0.5-0.4-0.6-0.7
			c-0.9-2.1-2.2-5.9-1.1-7.8c0.5-0.8,1.3-1.6,2.1-2.3c-0.5-0.2-1.1-0.4-1.6-0.6c-2.5-0.9-4-1.6-4.6-2c-1.5-0.9-2.5-4.2-2.5-6.1
			c0-2,0.7-2.9,1.4-3.3c1-0.7,1.5-1.6,1.3-2.3c-0.3-0.8-1.6-1.7-4.8-1.6c-2.3,0.1-4.4-0.9-5.7-2.8c-2-2.8-1.9-7-0.9-9.7
			c0.4-1,1.4-3.3,2.8-6.3c3.5-7.7,10.8-23.7,10.7-27.2c-0.1-2.8-0.6-4.1-0.9-5.1c-0.3-0.8-0.6-1.6-0.6-2.7
			c0-45.3,30.3-76.9,73.7-76.9c29.3,0,53.9,9.6,69.2,27.1c13.7,15.6,19.1,37.1,15.7,62c-1.8,17.3-14.5,34.8-24.6,48.8
			c-3.3,4.6-6.5,9-8.8,12.8l3.4,26.2c0.1,0.7-0.4,1.5-1.1,1.7l-4.4,1.3c-13.2,3.9-65.5,20.2-68.5,21.3
			C703.7,171.1,703.6,171.1,703.4,171.1z M699.2,148.2c0.3,0,0.5,0.1,0.7,0.2c0.4,0.2,0.7,0.6,0.8,1l3.9,18.2
			c9.6-3.1,54.9-17.2,67-20.8l3.1-0.9l-3.3-25.5c0-0.3,0-0.7,0.2-1c2.4-4,5.7-8.6,9.2-13.4c9.9-13.8,22.3-30.9,24-47.4
			c3.3-24.1-1.9-44.7-15-59.7c-14.7-16.8-38.4-26-66.9-26c-41.6,0-70.6,30.4-70.6,73.8c0,0.6,0.2,1,0.4,1.7c0.4,1.2,1,2.8,1.1,6.1
			c0.1,3.9-5.3,16.3-11,28.6c-1.3,2.9-2.4,5.2-2.7,6.2c-0.7,1.9-0.8,5,0.5,6.8c0.7,1,1.7,1.6,3.1,1.5c5.8-0.1,7.4,2.5,7.7,3.7
			c0.7,2-0.3,4.3-2.5,5.8c-0.4,0.6,0.4,3.8,1.1,4.4c0.4,0.2,2.6,1.1,4,1.6c3.2,1.2,3.7,1.4,4,1.8c0.3,0.3,0.5,0.8,0.5,1.2
			c0,0.9-0.7,1.5-1.7,2.4c-0.6,0.5-1.5,1.3-1.8,1.8c-0.2,0.5,0.3,2.7,1.1,4.6c0.8,0.5,2.6,1.6,5.3,3.4c4,2.6,2.6,8.8,1.6,12.8
			c-0.3,1.2-0.5,2.4-0.5,2.9c0,2.1,3.2,10.2,11.5,10.2c8.9,0,24.3-5.9,24.4-5.9C698.8,148.2,699,148.2,699.2,148.2z"/>
	</g>
	<g>
		<path fill="#22D3C5" d="M299.2,94.4h-8c-2.1,0-3.8-1.6-3.8-3.5v-5.7c-10.3-1.8-18.3-6-22.2-11.7c-1.4-2.1-1.4-4.8,0.1-7.3
			c1.5-2.5,4.9-5.3,8.8-5.3c2.3,0,4.3,1,5.6,2.9c0.1,0.1,0.1,0.2,0.2,0.3c0.4,0.4,0.7,0.6,0.9,0.8c1.8,1.4,4.8,3,6.7,3.7
			c3.5,1.1,7.4,1.7,10.7,1.7c3.5,0,6.3-0.7,8.1-2c2-1.5,2.6-4.7,1.3-6.9c-0.8-1.4-2.9-2.9-5.4-4l-3.2-1.4
			c-4.9-2.1-19.8-8.6-22.7-10.1c-3.9-1.9-7.1-5-9.2-8.9c-4.3-8.1-2.2-18,5.2-24.5c3.8-3.4,9-5.8,15.1-7.1v-6.1
			c0-1.9,1.7-3.5,3.8-3.5h8c2.1,0,3.8,1.5,3.8,3.5v5.7c1.4,0.2,2.8,0.5,4.1,0.8c6.1,1.5,14,5.8,17.5,11c1.4,2.1,1.4,4.8-0.1,7.3
			c-1.5,2.5-4.9,5.2-8.7,5.2c-2.4,0-4.4-1-5.6-2.9c-0.1-0.1-0.1-0.2-0.2-0.3l-0.2-0.2c-0.2-0.2-0.5-0.4-0.7-0.6
			c-1.9-1.5-5-3.5-6.8-4.1c-2.2-0.7-4.5-1.1-6.7-1.1c-2.8,0-6.7,0.6-10.1,3.3c-1.8,1.4-2.1,4.7-0.7,6.9c1.3,2,3.1,2.7,6.1,4
			c0.2,0.1,0.4,0.1,0.7,0.3c1.3,0.5,5.6,2.2,8.6,3.5l1.4,0.5c9.3,3.6,22.1,8.4,25.4,17.5c3.1,8.3,0.2,17.6-7.2,23.7h0
			c-3.8,3.1-9.7,5.2-16.7,5.9V91C303.1,92.9,301.4,94.4,299.2,94.4z M274.1,64c-2.5,0-5,1.9-6.1,3.8c-0.9,1.5-1,2.9-0.2,4
			c3.5,5.2,11.4,9.1,21.4,10.6l1.3,0.2V91c0,0.1,0.3,0.4,0.8,0.4h8c0.5,0,0.8-0.3,0.8-0.4v-8l1.4-0.1c7-0.5,12.9-2.4,16.5-5.4l0,0
			c6.4-5.2,8.8-13.2,6.2-20.3c-2.9-7.8-14.9-12.4-23.6-15.7L299,41c-3-1.3-7.3-3-8.6-3.5l-0.6-0.3c-3.2-1.3-5.7-2.4-7.5-5.2
			c-2.3-3.5-1.7-8.5,1.3-11c4-3.3,8.7-4,12-4c2.5,0,5.1,0.4,7.6,1.2c2.3,0.7,5.7,2.9,7.8,4.6c0.3,0.3,0.6,0.5,0.9,0.8l0.2,0.2
			c0.3,0.3,0.4,0.5,0.6,0.7c0.7,1,1.8,1.6,3.1,1.6c2.5,0,5-1.9,6.1-3.8c0.5-0.9,1.2-2.5,0.2-4c-3.1-4.5-10.4-8.4-15.7-9.7
			c-1.6-0.4-3.4-0.7-5.1-0.9L300,7.8v-8.4c0-0.1-0.3-0.4-0.8-0.4h-8c-0.5,0-0.8,0.3-0.8,0.4V8l-1.3,0.2c-6,1-11.2,3.3-14.8,6.6
			c-6.3,5.6-8.1,13.9-4.5,20.8c1.8,3.3,4.6,6,7.8,7.6c2.9,1.4,17.7,7.9,22.6,10l3.2,1.4c3.1,1.4,5.6,3.3,6.8,5.2
			c2.1,3.6,1.2,8.4-2.1,10.9c-2.3,1.7-5.8,2.7-10,2.7c-3.6,0-7.8-0.7-11.6-1.9c-2.3-0.7-5.6-2.5-7.7-4.2c-0.3-0.3-0.6-0.5-0.9-0.8
			l-0.2-0.2c-0.1-0.1-0.2-0.2-0.2-0.3c0,0-0.2-0.2-0.4-0.5C276.5,64.6,275.4,64,274.1,64z"/>
	</g>
</g>
</svg>
