<?xml version="1.0" encoding="utf-8"?>
<!-- Generator: Adobe Illustrator 19.1.0, SVG Export Plug-In . SVG Version: 6.00 Build 0)  -->
<svg version="1.1" id="Layer_1" xmlns="http://www.w3.org/2000/svg" xmlns:xlink="http://www.w3.org/1999/xlink" x="0px" y="0px"
	 viewBox="192 -10.3 640 160" enable-background="new 192 -10.3 640 160" xml:space="preserve">
<g>
	<g>
		
			<polyline fill="none" stroke="#000000" stroke-width="4" stroke-linecap="round" stroke-linejoin="round" stroke-miterlimit="10" points="
			724.5,31.3 724.5,58.3 696.2,76.5 667.9,58.3 667.9,31.3 		"/>
		
			<polygon fill="none" stroke="#000000" stroke-width="4" stroke-linecap="round" stroke-linejoin="round" stroke-miterlimit="10" points="
			724.5,31.3 696.2,48.3 667.9,31.3 696.2,14.4 		"/>
		
			<line fill="none" stroke="#000000" stroke-width="4" stroke-linecap="round" stroke-linejoin="round" stroke-miterlimit="10" x1="696.2" y1="48.3" x2="696.2" y2="76.5"/>
		
			<polyline fill="none" stroke="#000000" stroke-width="4" stroke-linecap="round" stroke-linejoin="round" stroke-miterlimit="10" points="
			752.8,76.5 752.8,103.5 724.5,121.6 696.2,103.5 696.2,76.5 		"/>
		
			<polygon fill="none" stroke="#000000" stroke-width="4" stroke-linecap="round" stroke-linejoin="round" stroke-miterlimit="10" points="
			752.8,76.5 724.5,93.4 696.2,76.5 724.5,58.3 		"/>
		
			<line fill="none" stroke="#000000" stroke-width="4" stroke-linecap="round" stroke-linejoin="round" stroke-miterlimit="10" x1="724.5" y1="93.4" x2="724.5" y2="121.6"/>
		
			<polyline fill="none" stroke="#000000" stroke-width="4" stroke-linecap="round" stroke-linejoin="round" stroke-miterlimit="10" points="
			696.2,76.5 696.2,103.5 667.9,121.6 639.6,103.5 639.6,76.5 		"/>
		
			<polygon fill="none" stroke="#000000" stroke-width="4" stroke-linecap="round" stroke-linejoin="round" stroke-miterlimit="10" points="
			696.2,76.5 667.9,93.4 639.6,76.5 667.9,58.3 		"/>
		
			<line fill="none" stroke="#000000" stroke-width="4" stroke-linecap="round" stroke-linejoin="round" stroke-miterlimit="10" x1="667.9" y1="93.4" x2="667.9" y2="121.6"/>
	</g>
	<g>
		<path fill="none" stroke="#000000" stroke-width="4" stroke-linecap="round" stroke-linejoin="round" stroke-miterlimit="10" d="
			M333.5,61.4c0,6.1-5,11.1-11.1,11.1c-6.1,0-11.1-5-11.1-11.1c0-6.1,5-11.1,11.1-11.1C328.5,50.3,333.5,55.3,333.5,61.4z"/>
		<path fill="none" stroke="#000000" stroke-width="4" stroke-linecap="round" stroke-linejoin="round" stroke-miterlimit="10" d="
			M340.2,90.2h-35.6c0-9.8,8-17.7,17.8-17.7C332.2,72.5,340.2,80.4,340.2,90.2z"/>
		
			<line fill="none" stroke="#000000" stroke-width="4" stroke-linecap="round" stroke-linejoin="round" stroke-miterlimit="10" x1="344.6" y1="48.1" x2="358.5" y2="34.4"/>
		<path fill="none" stroke="#000000" stroke-width="4" stroke-linecap="round" stroke-linejoin="round" stroke-miterlimit="10" d="
			M373.6,28.1c0,4.9-4,8.9-8.9,8.9c-4.9,0-8.9-4-8.9-8.9s4-8.9,8.9-8.9C369.6,19.2,373.6,23.2,373.6,28.1z"/>
		
			<line fill="none" stroke="#000000" stroke-width="4" stroke-linecap="round" stroke-linejoin="round" stroke-miterlimit="10" x1="348.9" y1="96.7" x2="358.3" y2="106.2"/>
		<path fill="none" stroke="#000000" stroke-width="4" stroke-linecap="round" stroke-linejoin="round" stroke-miterlimit="10" d="
			M364.7,121.2c-4.9,0-8.9-4-8.9-8.9c0-4.9,4-8.9,8.9-8.9c4.9,0,8.9,4,8.9,8.9C373.6,117.3,369.6,121.2,364.7,121.2z"/>
		
			<line fill="none" stroke="#000000" stroke-width="4" stroke-linecap="round" stroke-linejoin="round" stroke-miterlimit="10" x1="300.2" y1="48.1" x2="286.3" y2="34.4"/>
		<path fill="none" stroke="#000000" stroke-width="4" stroke-linecap="round" stroke-linejoin="round" stroke-miterlimit="10" d="
			M271.3,28.1c0,4.9,4,8.9,8.9,8.9c4.9,0,8.9-4,8.9-8.9s-4-8.9-8.9-8.9C275.2,19.2,271.3,23.2,271.3,28.1z"/>
		
			<line fill="none" stroke="#000000" stroke-width="4" stroke-linecap="round" stroke-linejoin="round" stroke-miterlimit="10" x1="295.9" y1="96.7" x2="286.5" y2="106.2"/>
		<path fill="none" stroke="#000000" stroke-width="4" stroke-linecap="round" stroke-linejoin="round" stroke-miterlimit="10" d="
			M280.1,121.2c4.9,0,8.9-4,8.9-8.9c0-4.9-4-8.9-8.9-8.9c-4.9,0-8.9,4-8.9,8.9C271.2,117.3,275.2,121.2,280.1,121.2z"/>
		
			<line fill="none" stroke="#000000" stroke-width="4" stroke-linecap="round" stroke-linejoin="round" stroke-miterlimit="10" x1="342.4" y1="68" x2="355.8" y2="68"/>
		<path fill="none" stroke="#000000" stroke-width="4" stroke-linecap="round" stroke-linejoin="round" stroke-miterlimit="10" d="
			M373.6,68c0,4.9-4,8.9-8.9,8.9c-4.9,0-8.9-4-8.9-8.9c0-4.9,4-8.9,8.9-8.9C369.6,59.1,373.6,63.1,373.6,68z"/>
		
			<line fill="none" stroke="#000000" stroke-width="4" stroke-linecap="round" stroke-linejoin="round" stroke-miterlimit="10" x1="302.4" y1="68" x2="289" y2="68"/>
		<path fill="none" stroke="#000000" stroke-width="4" stroke-linecap="round" stroke-linejoin="round" stroke-miterlimit="10" d="
			M271.3,68c0,4.9,4,8.9,8.9,8.9c4.9,0,8.9-4,8.9-8.9c0-4.9-4-8.9-8.9-8.9C275.2,59.1,271.3,63.1,271.3,68z"/>
	</g>
	<g>
		<g>
			<path fill="none" stroke="#000000" stroke-width="4" stroke-linejoin="round" stroke-miterlimit="10" d="M474.3,115.1
				c-2.6,2.6-6.8,2.6-9.4,0c-2.6-2.6-2.6-6.8,0-9.4l29.2-29.1l9.4,9.4L474.3,115.1z"/>
			
				<line fill="none" stroke="#000000" stroke-width="4" stroke-linecap="round" stroke-linejoin="round" stroke-miterlimit="10" x1="489.4" y1="71.9" x2="508.3" y2="90.7"/>
			
				<line fill="none" stroke="#000000" stroke-width="4" stroke-linejoin="round" stroke-miterlimit="10" x1="546.3" y1="33.9" x2="498.8" y2="81.3"/>
			<polygon fill="none" stroke="#000000" stroke-width="4" stroke-linejoin="round" stroke-miterlimit="10" points="551.6,39.2 
				540.6,28.2 556.4,17.3 563,24 			"/>
		</g>
		<path fill="none" stroke="#000000" stroke-width="4" stroke-linejoin="round" stroke-miterlimit="10" d="M511.4,58.6L494.7,42
			c2.7-6.5,1.5-14.2-3.8-19.5c-5.3-5.3-12.7-6.5-19.2-3.8l8.3,9.4V37h-8.9l-9.2-8.5c-2.7,6.5-1.5,14,3.8,19.3
			c5.3,5.3,13,6.4,19.5,3.7L502,68.1"/>
		<path fill="none" stroke="#000000" stroke-width="4" stroke-linejoin="round" stroke-miterlimit="10" d="M511.4,77.4L528.1,94
			c-2.7,6.5-1.5,14.2,3.8,19.5c5.3,5.3,13,6.5,19.5,3.8l-9-9.4v-8.9h8.9l9.6,8.8c2.7-6.5,1.5-14.2-3.8-19.5
			c-5.3-5.3-13-6.5-19.5-3.8L520.8,68"/>
	</g>
	<g>
		<g>
			<line fill="none" stroke="#22D3C5" stroke-width="4" stroke-miterlimit="10" x1="417" y1="46.7" x2="417" y2="88.7"/>
			<line fill="none" stroke="#22D3C5" stroke-width="4" stroke-miterlimit="10" x1="396" y1="67.7" x2="438" y2="67.7"/>
		</g>
	</g>
	<g>
		<g>
			<line fill="none" stroke="#22D3C5" stroke-width="4" stroke-miterlimit="10" x1="601" y1="46.7" x2="601" y2="88.7"/>
			<line fill="none" stroke="#22D3C5" stroke-width="4" stroke-miterlimit="10" x1="580" y1="67.7" x2="622" y2="67.7"/>
		</g>
	</g>
</g>
</svg>
