<?xml version="1.0" encoding="utf-8"?>
<!-- Generator: Adobe Illustrator 19.1.0, SVG Export Plug-In . SVG Version: 6.00 Build 0)  -->
<svg version="1.1" id="Layer_1" xmlns="http://www.w3.org/2000/svg" xmlns:xlink="http://www.w3.org/1999/xlink" x="0px" y="0px"
	 viewBox="0 101 640 280" enable-background="new 0 101 640 280" xml:space="preserve">
<g>
	<g>
		
			<rect x="229.6" y="295" fill="none" stroke="#000000" stroke-width="3" stroke-linejoin="round" stroke-miterlimit="10" width="30.5" height="61.6"/>
		<path fill="none" stroke="#000000" stroke-width="3" stroke-linecap="round" stroke-linejoin="round" stroke-miterlimit="10" d="
			M260.1,345c81.9,27.5,51.7,27.8,145-19.2c-8.1-8.2-14.5-10.1-22.9-7.7l-33.8,11.3"/>
		<path fill="none" stroke="#000000" stroke-width="3" stroke-linecap="round" stroke-linejoin="round" stroke-miterlimit="10" d="
			M260.1,302.7H283c17.9,0,30.5,11.5,34.3,15.4c0,0,11.4,0,22.9,0c12.2,0,12.2,15.4,0,15.4h-42"/>
		<path fill="none" stroke="#22D3C5" stroke-width="3" stroke-miterlimit="10" d="M278.1,277.4c-4.2-8.3-6.5-17.7-6.5-27.7
			c0-34,27.3-61.6,61.1-61.6c33.7,0,61.1,27.6,61.1,61.6c0,22.5-12,42.2-29.8,52.9"/>
		<path fill="none" stroke="#22D3C5" stroke-width="3" stroke-miterlimit="10" d="M377.7,208.3c0,0-2.7,14.7-13.3,20.1
			c-10.6-2.7-21.2,5.3-18.6,5.3c2.7,0,5.3,10.7,5.3,10.7c2.7,2.7,8,0,8,0c6.6,6.7-10.6,18.7-10.6,21.4c0,2.7,6.6,4,2.7,8
			c-4,4-8,5.3-8,5.3c0,13.4-13.3,13.4-15.9,13.4c-2.7,0-8-10.7-8-13.4c0-2.7,2.7-5.3,2.7-8c0-2.7-5.3-8-5.3-8c0-10.7-8-8-15.9-8
			c-8,0-8-10.7-8-10.7s0-18.7,13.3-21.4c13.3-2.7,13.3,2.7,13.3,2.7c5.3,5.3,15.9,0,21.2,0c0,0,2.7-18.7-2.7-16.1
			c-5.3,2.7-10.1,0.6-10.6-5.4c-0.8-8.4,23.2-13.4,23.2-13.4"/>
		
			<rect x="379.8" y="125.4" fill="none" stroke="#000000" stroke-width="3" stroke-linejoin="round" stroke-miterlimit="10" width="30.5" height="61.6"/>
		<path fill="none" stroke="#000000" stroke-width="3" stroke-linecap="round" stroke-linejoin="round" stroke-miterlimit="10" d="
			M379.8,137c-81.9-27.5-51.7-27.8-145,19.2c8.1,8.2,14.5,10.1,22.9,7.7l33.8-11.3"/>
		<path fill="none" stroke="#000000" stroke-width="3" stroke-linecap="round" stroke-linejoin="round" stroke-miterlimit="10" d="
			M379.8,179.3h-22.9c-18,0-30.5-11.5-34.3-15.4c0,0-11.5,0-22.9,0c-12.2,0-12.2-15.4,0-15.4h42"/>
	</g>
	<path fill="none" stroke="#231F20" stroke-width="3" stroke-miterlimit="10" d="M110.4,145.7c44.8,0,74.3,32.7,74.3,76.3
		c0,2.2-1.4,2.7-1.6,7.9c-0.2,5.2,12.4,30.5,14,34.6c1.5,3.8,0.6,10.6-5.3,10.5c-7.3-0.2-8.1,4.4-4.5,6.8c1.7,1.2,0.1,6.3-1.1,7
		c-1.2,0.7-7.7,3-8.2,3.4c-0.4,0.4,2.5,2.1,3.3,3.7c0.9,1.5-1.2,6.5-1.2,6.5s-2.1,1.2-5.9,3.7c-4.4,2.8-0.4,12-0.4,14.7
		c-0.1,2.6-3.8,11.8-13.4,11.8c-9.6,0-25.7-6.1-25.7-6.1l-4.4,20.1c-3.2-1.1-57-17.6-70.6-21.6c-1.5-0.4-3-0.9-4.5-1.3l3.6-27.1
		c-9.4-15.3-32-39.1-34.5-62.2C16.3,175,59,145.7,110.4,145.7z"/>
	<g>
		<g>
			<path fill="none" stroke="#22D3C5" stroke-width="3" stroke-miterlimit="10" d="M526,202.3c-1.8,8.2,0.6,15.3,13.1,12.1
				c9.8,9.1,14.7,4.8,16.6-4.3c2-9-3.9-27-12.3-33.5C538.8,188.4,528.2,192.1,526,202.3z"/>
			<line fill="none" stroke="#22D3C5" stroke-width="3" stroke-miterlimit="10" x1="531.6" y1="248" x2="550.6" y2="248"/>
			<line fill="none" stroke="#22D3C5" stroke-width="3" stroke-miterlimit="10" x1="531.6" y1="256.5" x2="550.6" y2="256.5"/>
			<line fill="none" stroke="#22D3C5" stroke-width="3" stroke-miterlimit="10" x1="541.1" y1="256.5" x2="541.1" y2="260.7"/>
			<path fill="none" stroke="#22D3C5" stroke-width="3" stroke-miterlimit="10" d="M541.1,239.6c0,0-5.9-33.1,2-47"/>
			<path fill="none" stroke="#22D3C5" stroke-width="3" stroke-miterlimit="10" d="M575.4,199.7c0-19.7-15.4-35.7-34.3-35.7
				c-19,0-34.3,16-34.3,35.7c0,16.3,10.5,30,24.8,34.3v5.6h19.1V234C564.9,229.7,575.4,216,575.4,199.7z"/>
		</g>
	</g>
	<path fill="none" stroke="#000000" stroke-width="3" stroke-linecap="round" stroke-linejoin="round" stroke-miterlimit="10" d="
		M531.8,141.4c-43.7,0-72.4,32.7-72.4,76.3c0,2.2,1.4,2.7,1.5,7.9c0.2,5.2-12.1,30.5-13.6,34.6c-1.5,3.8-0.6,10.6,5.2,10.5
		c7.1-0.2,7.9,4.4,4.4,6.8c-1.7,1.2-0.1,6.3,1.1,7c1.1,0.7,7.5,3,7.9,3.4c0.4,0.4-2.4,2.1-3.3,3.7c-0.9,1.5,1.2,6.5,1.2,6.5
		s2,1.2,5.7,3.7c4.3,2.8,0.4,12,0.4,14.7c0.1,2.6,3.7,11.8,13,11.8c9.4,0,25.1-6.1,25.1-6.1l4.3,20.1c3.1-1.1,55.5-17.6,68.8-21.6
		c1.5-0.4,2.9-0.9,4.4-1.3l-3.5-27.1c9.2-15.3,31.2-39.1,33.6-62.2C623.5,170.7,581.9,141.4,531.8,141.4z"/>
	<path fill="none" stroke="#22D3C5" stroke-width="3" stroke-miterlimit="10" d="M126.1,250.1c-3.9,3.2-10.1,5.2-17.4,5.8v6.6
		c0,1.1-1,2-2.3,2h-8c-1.3,0-2.3-0.9-2.3-2v-7.1c-9.2-1.4-18.3-5.1-22.6-11.4c-1.1-1.6-1-3.7,0.2-5.7c1.4-2.3,4.4-4.6,7.5-4.6
		c1.8,0,3.4,0.8,4.4,2.3c0.1,0.2,0.2,0.3,0.4,0.5c0,0,0.1,0.1,0.1,0.1l0.2,0.1c0.3,0.3,0.5,0.5,0.8,0.7c2,1.6,5.1,3.3,7.2,4
		c3.7,1.2,7.7,1.8,11.2,1.8c3.9,0,7-0.8,9.1-2.4c2.7-2,3.4-6.1,1.7-9c-1-1.7-3.3-3.4-6.1-4.7l-3.2-1.4c-6.5-2.9-20-8.8-22.7-10.2
		c-3.6-1.7-6.6-4.7-8.5-8.4c-4-7.6-2-16.8,4.8-22.9c3.9-3.5,9.4-6,15.6-7v-7.4c0-1.1,1-1.9,2.3-1.9h8c1.3,0,2.3,0.9,2.3,1.9v7.1
		c1.8,0.2,3.6,0.5,5.3,1c5.8,1.5,13.4,5.6,16.7,10.5c1.1,1.6,1,3.7-0.2,5.7c-1.4,2.3-4.4,4.6-7.5,4.6c-1.8,0-3.4-0.8-4.4-2.3
		c-0.1-0.2-0.2-0.3-0.4-0.5c0,0-0.2-0.2-0.2-0.2c-0.3-0.3-0.5-0.5-0.8-0.7c-2.1-1.7-5.3-3.7-7.3-4.4c-2.4-0.7-4.8-1.1-7.2-1.1
		c-3,0-7.4,0.6-11.1,3.7c-2.4,2-2.9,6.2-1,9c1.6,2.4,3.7,3.3,6.8,4.6c0,0,0.6,0.2,0.6,0.2c1.3,0.5,5.7,2.2,8.6,3.5l1.5,0.6
		c9.1,3.5,21.5,8.2,24.6,16.8C135.6,235.7,133,244.4,126.1,250.1z"/>
</g>
</svg>
