<?xml version="1.0" encoding="utf-8"?>
<!-- Generator: Adobe Illustrator 19.1.0, SVG Export Plug-In . SVG Version: 6.00 Build 0)  -->
<svg version="1.1" id="Layer_1" xmlns="http://www.w3.org/2000/svg" xmlns:xlink="http://www.w3.org/1999/xlink" x="0px" y="0px"
	 viewBox="0 0 1121 315.9" enable-background="new 0 0 1121 315.9" xml:space="preserve">
<g>
	<g>
		<path fill="#010101" d="M959.6,149.6h-28.7c-0.3,0-0.5-0.2-0.5-0.5v-21.5c0-0.3,0.2-0.5,0.5-0.5h28.7c0.3,0,0.5,0.2,0.5,0.5v21.5
			C960.1,149.3,959.8,149.6,959.6,149.6z M931.4,148.6h27.7v-20.5h-27.7V148.6z"/>
	</g>
	<g>
		<path fill="#010101" d="M963.1,153.1c-0.3,0-0.5-0.2-0.5-0.5v-26c0-1.2-1-2.2-2.2-2.2H930c-1.2,0-2.2,1-2.2,2.2v26
			c0,0.3-0.2,0.5-0.5,0.5s-0.5-0.2-0.5-0.5v-26c0-1.8,1.4-3.2,3.2-3.2h30.5c1.8,0,3.2,1.4,3.2,3.2v26
			C963.6,152.9,963.4,153.1,963.1,153.1z"/>
	</g>
	<g>
		<path fill="#010101" d="M963.1,158.5h-35.8c-1.3,0-2.3-1-2.3-2.3v-3.6c0-0.3,0.2-0.5,0.5-0.5h16.1c0.3,0,0.5,0.2,0.5,0.5v1.3h6.2
			v-1.3c0-0.3,0.2-0.5,0.5-0.5h16.1c0.3,0,0.5,0.2,0.5,0.5v3.6C965.4,157.5,964.4,158.5,963.1,158.5z M926,153.1v3.1
			c0,0.7,0.6,1.3,1.3,1.3h35.8c0.7,0,1.3-0.6,1.3-1.3v-3.1h-15.1v1.3c0,0.3-0.2,0.5-0.5,0.5h-7.2c-0.3,0-0.5-0.2-0.5-0.5v-1.3H926z"
			/>
	</g>
	<g>
		<path fill="#010101" d="M964.9,165.7h-39.3c-0.3,0-0.5-0.2-0.5-0.5s0.2-0.5,0.5-0.5h39.3c0.3,0,0.5,0.2,0.5,0.5
			S965.2,165.7,964.9,165.7z"/>
	</g>
	<g>
		<path fill="#010101" d="M945.2,165.7c-0.3,0-0.5-0.2-0.5-0.5V158c0-0.3,0.2-0.5,0.5-0.5s0.5,0.2,0.5,0.5v7.2
			C945.7,165.5,945.5,165.7,945.2,165.7z"/>
	</g>
	<g>
		<path fill="#010101" d="M951.5,137c-1.8,0-3.2-1.4-3.2-3.2s1.4-3.2,3.2-3.2s3.2,1.4,3.2,3.2S953.3,137,951.5,137z M951.5,131.6
			c-1.2,0-2.2,1-2.2,2.2c0,1.2,1,2.2,2.2,2.2c1.2,0,2.2-1,2.2-2.2C953.7,132.6,952.7,131.6,951.5,131.6z"/>
	</g>
	<g>
		<path fill="#010101" d="M951.5,146c-1.8,0-3.2-1.4-3.2-3.2s1.4-3.2,3.2-3.2s3.2,1.4,3.2,3.2S953.3,146,951.5,146z M951.5,140.6
			c-1.2,0-2.2,1-2.2,2.2c0,1.2,1,2.2,2.2,2.2c1.2,0,2.2-1,2.2-2.2C953.7,141.6,952.7,140.6,951.5,140.6z"/>
	</g>
	<g>
		<path fill="#010101" d="M939,141.5c-1.8,0-3.2-1.4-3.2-3.2s1.4-3.2,3.2-3.2s3.2,1.4,3.2,3.2S940.7,141.5,939,141.5z M939,136.1
			c-1.2,0-2.2,1-2.2,2.2s1,2.2,2.2,2.2c1.2,0,2.2-1,2.2-2.2S940.2,136.1,939,136.1z"/>
	</g>
	<g>
		
			<rect x="944.6" y="131.7" transform="matrix(0.3673 0.9301 -0.9301 0.3673 724.1407 -793.2089)" fill="#010101" width="1" height="8.1"/>
	</g>
	<g>
		
			<rect x="941.1" y="140.4" transform="matrix(0.9303 0.3668 -0.3668 0.9303 117.5951 -336.8891)" fill="#010101" width="8.1" height="1"/>
	</g>
</g>
<g>
	<g>
		<path fill="#010101" d="M867,79.6c-0.1,0-0.3-0.1-0.4-0.1c-0.1-0.1-0.2-0.3-0.1-0.5l1.8-6.3c0-0.1,0.1-0.2,0.1-0.2l13.4-13.4
			c0.2-0.2,0.5-0.2,0.7,0l4.5,4.5c0.2,0.2,0.2,0.5,0,0.7l-13.4,13.4c-0.1,0.1-0.1,0.1-0.2,0.1l-6.3,1.8
			C867.1,79.6,867.1,79.6,867,79.6z M869.3,73.1l-1.5,5.3l5.3-1.5l13-13l-3.8-3.8L869.3,73.1z"/>
	</g>
	<g>
		
			<rect x="877.7" y="64.7" transform="matrix(0.7071 0.7071 -0.7071 0.7071 304.1845 -603.8171)" fill="#010101" width="6.3" height="1"/>
	</g>
	<g>
		<path fill="#010101" d="M873.3,77.8c-0.1,0-0.3,0-0.4-0.1l-4.5-4.5c-0.2-0.2-0.2-0.5,0-0.7s0.5-0.2,0.7,0l4.5,4.5
			c0.2,0.2,0.2,0.5,0,0.7C873.5,77.8,873.4,77.8,873.3,77.8z"/>
	</g>
	<g>
		<path fill="#010101" d="M859.9,56.3h-9c-0.3,0-0.5-0.2-0.5-0.5v-5.4c0-0.3,0.2-0.5,0.5-0.5h9c0.3,0,0.5,0.2,0.5,0.5v5.4
			C860.4,56.1,860.1,56.3,859.9,56.3z M851.4,55.3h8V51h-8V55.3z"/>
	</g>
	<g>
		<path fill="#010101" d="M859.9,65.3h-9c-0.3,0-0.5-0.2-0.5-0.5v-5.4c0-0.3,0.2-0.5,0.5-0.5h9c0.3,0,0.5,0.2,0.5,0.5v5.4
			C860.4,65.1,860.1,65.3,859.9,65.3z M851.4,64.3h8v-4.4h-8V64.3z"/>
	</g>
	<g>
		<path fill="#010101" d="M859.9,74.3h-9c-0.3,0-0.5-0.2-0.5-0.5v-5.4c0-0.3,0.2-0.5,0.5-0.5h9c0.3,0,0.5,0.2,0.5,0.5v5.4
			C860.4,74,860.1,74.3,859.9,74.3z M851.4,73.3h8v-4.4h-8V73.3z"/>
	</g>
	<g>
		<path fill="#010101" d="M862.5,79.6h-17c-0.3,0-0.5-0.2-0.5-0.5V37.9c0-0.3,0.2-0.5,0.5-0.5h19.7c0.1,0,0.3,0.1,0.4,0.1l10.8,10.8
			c0.1,0.1,0.1,0.2,0.1,0.4v11.6c0,0.3-0.2,0.5-0.5,0.5s-0.5-0.2-0.5-0.5V48.9L865,38.4h-19v40.2h16.5c0.3,0,0.5,0.2,0.5,0.5
			S862.8,79.6,862.5,79.6z"/>
	</g>
	<g>
		<path fill="#010101" d="M876,49.2h-10.8c-0.3,0-0.5-0.2-0.5-0.5V37.9c0-0.3,0.2-0.5,0.5-0.5s0.5,0.2,0.5,0.5v10.3H876
			c0.3,0,0.5,0.2,0.5,0.5S876.3,49.2,876,49.2z"/>
	</g>
	<g>
		<path fill="#010101" d="M865.2,70.7h-5.4c-0.3,0-0.5-0.2-0.5-0.5s0.2-0.5,0.5-0.5h4.9V52.8h-4.9c-0.3,0-0.5-0.2-0.5-0.5
			s0.2-0.5,0.5-0.5h5.4c0.3,0,0.5,0.2,0.5,0.5v17.9C865.7,70.5,865.5,70.7,865.2,70.7z"/>
	</g>
	<g>
		<path fill="#010101" d="M869.7,61.7h-4.5c-0.3,0-0.5-0.2-0.5-0.5s0.2-0.5,0.5-0.5h4.5c0.3,0,0.5,0.2,0.5,0.5S870,61.7,869.7,61.7z
			"/>
	</g>
</g>
<g>
	<g>
		<path fill="#010101" d="M1024.9,234.3c-0.1,0-0.2,0-0.3-0.1l-11.4-7.3c-0.1-0.1-0.2-0.3-0.2-0.4v-10.9c0-0.3,0.2-0.5,0.5-0.5
			s0.5,0.2,0.5,0.5v10.6l10.9,7l10.9-7v-10.6c0-0.3,0.2-0.5,0.5-0.5s0.5,0.2,0.5,0.5v10.9c0,0.2-0.1,0.3-0.2,0.4l-11.4,7.3
			C1025.1,234.3,1025,234.3,1024.9,234.3z"/>
	</g>
	<g>
		<path fill="#010101" d="M1024.9,222.9c-0.1,0-0.2,0-0.3-0.1l-11.4-6.8c-0.2-0.1-0.2-0.3-0.2-0.4s0.1-0.3,0.2-0.4l11.4-6.8
			c0.2-0.1,0.4-0.1,0.5,0l11.4,6.8c0.2,0.1,0.2,0.3,0.2,0.4s-0.1,0.3-0.2,0.4l-11.4,6.8C1025.1,222.9,1025,222.9,1024.9,222.9z
			 M1014.5,215.6l10.4,6.3l10.4-6.3l-10.4-6.3L1014.5,215.6z"/>
	</g>
	<g>
		<path fill="#010101" d="M1024.9,234.3c-0.3,0-0.5-0.2-0.5-0.5v-11.4c0-0.3,0.2-0.5,0.5-0.5s0.5,0.2,0.5,0.5v11.4
			C1025.4,234.1,1025.2,234.3,1024.9,234.3z"/>
	</g>
	<g>
		<path fill="#010101" d="M1036.3,252.6c-0.1,0-0.2,0-0.3-0.1l-11.4-7.3c-0.1-0.1-0.2-0.3-0.2-0.4v-10.9c0-0.3,0.2-0.5,0.5-0.5
			s0.5,0.2,0.5,0.5v10.6l10.9,7l10.9-7v-10.6c0-0.3,0.2-0.5,0.5-0.5s0.5,0.2,0.5,0.5v10.9c0,0.2-0.1,0.3-0.2,0.4l-11.4,7.3
			C1036.5,252.5,1036.4,252.6,1036.3,252.6z"/>
	</g>
	<g>
		<path fill="#010101" d="M1036.3,241.2c-0.1,0-0.2,0-0.3-0.1l-11.4-6.8c-0.1-0.1-0.2-0.2-0.2-0.4s0.1-0.3,0.2-0.4l11.4-7.3
			c0.2-0.1,0.4-0.1,0.5,0l11.4,7.3c0.1,0.1,0.2,0.3,0.2,0.4s-0.1,0.3-0.2,0.4l-11.4,6.8C1036.5,241.1,1036.4,241.2,1036.3,241.2z
			 M1025.8,233.8l10.5,6.3l10.4-6.3l-10.4-6.7L1025.8,233.8z"/>
	</g>
	<g>
		<path fill="#010101" d="M1036.3,252.6c-0.3,0-0.5-0.2-0.5-0.5v-11.4c0-0.3,0.2-0.5,0.5-0.5s0.5,0.2,0.5,0.5v11.4
			C1036.8,252.3,1036.6,252.6,1036.3,252.6z"/>
	</g>
	<g>
		<path fill="#010101" d="M1013.5,252.6c-0.1,0-0.2,0-0.3-0.1l-11.4-7.3c-0.1-0.1-0.2-0.3-0.2-0.4v-10.9c0-0.3,0.2-0.5,0.5-0.5
			s0.5,0.2,0.5,0.5v10.6l10.9,7l10.9-7v-10.6c0-0.3,0.2-0.5,0.5-0.5s0.5,0.2,0.5,0.5v10.9c0,0.2-0.1,0.3-0.2,0.4l-11.4,7.3
			C1013.7,252.5,1013.6,252.6,1013.5,252.6z"/>
	</g>
	<g>
		<path fill="#010101" d="M1013.5,241.2c-0.1,0-0.2,0-0.3-0.1l-11.4-6.8c-0.1-0.1-0.2-0.2-0.2-0.4s0.1-0.3,0.2-0.4l11.4-7.3
			c0.2-0.1,0.4-0.1,0.5,0l11.4,7.3c0.1,0.1,0.2,0.3,0.2,0.4s-0.1,0.3-0.2,0.4l-11.4,6.8C1013.7,241.1,1013.6,241.2,1013.5,241.2z
			 M1003,233.8l10.5,6.3l10.4-6.3l-10.4-6.7L1003,233.8z"/>
	</g>
	<g>
		<path fill="#010101" d="M1013.5,252.6c-0.3,0-0.5-0.2-0.5-0.5v-11.4c0-0.3,0.2-0.5,0.5-0.5s0.5,0.2,0.5,0.5v11.4
			C1014,252.3,1013.8,252.6,1013.5,252.6z"/>
	</g>
</g>
<g>
	<g>
		<path fill="#010101" d="M868.9,229.9c-2.7,0-5-2.2-5-5c0-2.7,2.2-5,5-5c2.7,0,5,2.2,5,5C873.8,227.7,871.6,229.9,868.9,229.9z
			 M868.9,221c-2.2,0-4,1.8-4,4s1.8,4,4,4c2.2,0,4-1.8,4-4S871,221,868.9,221z"/>
	</g>
	<g>
		<path fill="#010101" d="M876,237.1h-14.3c-0.3,0-0.5-0.2-0.5-0.5c0-4.2,3.4-7.7,7.7-7.7s7.7,3.4,7.7,7.7
			C876.5,236.9,876.3,237.1,876,237.1z M862.2,236.1h13.3c-0.3-3.4-3.1-6.2-6.6-6.2S862.5,232.7,862.2,236.1z"/>
	</g>
	<g>
		<path fill="#010101" d="M877.8,220.1c-0.1,0-0.3,0-0.4-0.1c-0.2-0.2-0.2-0.5,0-0.7l5.6-5.5c0.2-0.2,0.5-0.2,0.7,0
			c0.2,0.2,0.2,0.5,0,0.7l-5.6,5.5C878.1,220,877.9,220.1,877.8,220.1z"/>
	</g>
	<g>
		<path fill="#010101" d="M885.9,215.6c-2.3,0-4.1-1.8-4.1-4.1c0-2.3,1.8-4.1,4.1-4.1c2.3,0,4.1,1.8,4.1,4.1
			C890,213.7,888.1,215.6,885.9,215.6z M885.9,208.4c-1.7,0-3.1,1.4-3.1,3.1c0,1.7,1.4,3.1,3.1,3.1s3.1-1.4,3.1-3.1
			C889,209.8,887.6,208.4,885.9,208.4z"/>
	</g>
	<g>
		<path fill="#010101" d="M883.3,243.5c-0.1,0-0.3,0-0.4-0.1l-3.8-3.8c-0.2-0.2-0.2-0.5,0-0.7c0.2-0.2,0.5-0.2,0.7,0l3.8,3.8
			c0.2,0.2,0.2,0.5,0,0.7C883.6,243.5,883.5,243.5,883.3,243.5z"/>
	</g>
	<g>
		<path fill="#010101" d="M885.9,249.6c-2.3,0-4.1-1.8-4.1-4.1c0-2.3,1.8-4.1,4.1-4.1s4.1,1.8,4.1,4.1
			C890,247.8,888.1,249.6,885.9,249.6z M885.9,242.5c-1.7,0-3.1,1.4-3.1,3.1c0,1.7,1.4,3.1,3.1,3.1s3.1-1.4,3.1-3.1
			C889,243.8,887.6,242.5,885.9,242.5z"/>
	</g>
	<g>
		<path fill="#010101" d="M859.9,220.1c-0.1,0-0.3,0-0.4-0.1l-5.6-5.5c-0.2-0.2-0.2-0.5,0-0.7c0.2-0.2,0.5-0.2,0.7,0l5.6,5.5
			c0.2,0.2,0.2,0.5,0,0.7C860.1,220,860,220.1,859.9,220.1z"/>
	</g>
	<g>
		<path fill="#010101" d="M851.8,215.6c-2.3,0-4.1-1.8-4.1-4.1c0-2.3,1.8-4.1,4.1-4.1s4.1,1.8,4.1,4.1
			C855.9,213.7,854.1,215.6,851.8,215.6z M851.8,208.4c-1.7,0-3.1,1.4-3.1,3.1c0,1.7,1.4,3.1,3.1,3.1s3.1-1.4,3.1-3.1
			C854.9,209.8,853.5,208.4,851.8,208.4z"/>
	</g>
	<g>
		<path fill="#010101" d="M854.4,243.5c-0.1,0-0.3,0-0.4-0.1c-0.2-0.2-0.2-0.5,0-0.7l3.8-3.8c0.2-0.2,0.5-0.2,0.7,0
			c0.2,0.2,0.2,0.5,0,0.7l-3.8,3.8C854.6,243.5,854.5,243.5,854.4,243.5z"/>
	</g>
	<g>
		<path fill="#010101" d="M851.8,249.6c-2.3,0-4.1-1.8-4.1-4.1c0-2.3,1.8-4.1,4.1-4.1s4.1,1.8,4.1,4.1
			C855.9,247.8,854.1,249.6,851.8,249.6z M851.8,242.5c-1.7,0-3.1,1.4-3.1,3.1c0,1.7,1.4,3.1,3.1,3.1s3.1-1.4,3.1-3.1
			C854.9,243.8,853.5,242.5,851.8,242.5z"/>
	</g>
	<g>
		<path fill="#010101" d="M882.3,228.1h-5.4c-0.3,0-0.5-0.2-0.5-0.5s0.2-0.5,0.5-0.5h5.4c0.3,0,0.5,0.2,0.5,0.5
			S882.6,228.1,882.3,228.1z"/>
	</g>
	<g>
		<path fill="#010101" d="M885.9,231.7c-2.3,0-4.1-1.8-4.1-4.1s1.8-4.1,4.1-4.1c2.3,0,4.1,1.8,4.1,4.1S888.1,231.7,885.9,231.7z
			 M885.9,224.5c-1.7,0-3.1,1.4-3.1,3.1s1.4,3.1,3.1,3.1s3.1-1.4,3.1-3.1S887.6,224.5,885.9,224.5z"/>
	</g>
	<g>
		<path fill="#010101" d="M860.8,228.1h-5.4c-0.3,0-0.5-0.2-0.5-0.5s0.2-0.5,0.5-0.5h5.4c0.3,0,0.5,0.2,0.5,0.5
			S861.1,228.1,860.8,228.1z"/>
	</g>
	<g>
		<path fill="#010101" d="M851.8,231.7c-2.3,0-4.1-1.8-4.1-4.1s1.8-4.1,4.1-4.1s4.1,1.8,4.1,4.1S854.1,231.7,851.8,231.7z
			 M851.8,224.5c-1.7,0-3.1,1.4-3.1,3.1s1.4,3.1,3.1,3.1s3.1-1.4,3.1-3.1S853.5,224.5,851.8,224.5z"/>
	</g>
</g>
<g>
	<g>
		<g>
			<path fill="#010101" d="M944.2,64.1c-0.1,0-0.3-0.1-0.4-0.2c-0.4-0.5-9.2-11.1-9.2-16.3c0-5.3,4.3-9.6,9.6-9.6
				c5.3,0,9.6,4.3,9.6,9.6c0,5.2-8.9,15.8-9.2,16.3C944.5,64,944.4,64.1,944.2,64.1z M944.2,39c-4.8,0-8.6,3.9-8.6,8.6
				c0,4.2,6.9,13,8.6,15.2c1.7-2.1,8.6-10.9,8.6-15.2C952.8,42.9,949,39,944.2,39z"/>
		</g>
		<g>
			<path fill="#010101" d="M944.2,51.5c-2.2,0-3.9-1.8-3.9-3.9c0-2.2,1.8-3.9,3.9-3.9s3.9,1.8,3.9,3.9
				C948.1,49.8,946.4,51.5,944.2,51.5z M944.2,44.7c-1.6,0-2.9,1.3-2.9,2.9s1.3,2.9,2.9,2.9s2.9-1.3,2.9-2.9S945.8,44.7,944.2,44.7z
				"/>
		</g>
	</g>
	<g>
		<path fill="#010101" d="M962,80.2h-35.8c-0.1,0-0.3-0.1-0.4-0.2c-0.1-0.1-0.1-0.2-0.1-0.4l3.6-34c0-0.3,0.2-0.4,0.5-0.4h5.6
			c0.3,0,0.5,0.2,0.5,0.5s-0.2,0.5-0.5,0.5h-5.1l-3.5,33h34.7l-3.5-33h-4.8c-0.3,0-0.5-0.2-0.5-0.5s0.2-0.5,0.5-0.5h5.3
			c0.3,0,0.5,0.2,0.5,0.4l3.6,34c0,0.1,0,0.3-0.1,0.4C962.3,80.2,962.1,80.2,962,80.2z"/>
	</g>
	<g>
		<path fill="#010101" d="M960.8,69.5h-33.6c-0.3,0-0.5-0.2-0.5-0.5s0.2-0.5,0.5-0.5h33.6c0.3,0,0.5,0.2,0.5,0.5
			S961.1,69.5,960.8,69.5z"/>
	</g>
	<g>
		<path fill="#010101" d="M959.5,56.9h-10c-0.3,0-0.5-0.2-0.5-0.5s0.2-0.5,0.5-0.5h10c0.3,0,0.5,0.2,0.5,0.5S959.8,56.9,959.5,56.9z
			"/>
	</g>
	<g>
		<path fill="#010101" d="M939,56.9h-10.4c-0.3,0-0.5-0.2-0.5-0.5s0.2-0.5,0.5-0.5H939c0.3,0,0.5,0.2,0.5,0.5S939.2,56.9,939,56.9z"
			/>
	</g>
	<g>
		<path fill="#010101" d="M935.1,80.2C935.1,80.2,935.1,80.2,935.1,80.2c-0.3,0-0.5-0.3-0.5-0.5l1.7-26.9c0-0.3,0.2-0.5,0.5-0.5
			c0.3,0,0.5,0.3,0.5,0.5l-1.7,26.9C935.6,80,935.4,80.2,935.1,80.2z"/>
	</g>
	<g>
		<path fill="#010101" d="M953.3,80.2c-0.3,0-0.5-0.2-0.5-0.5l-1.7-26.9c0-0.3,0.2-0.5,0.5-0.5c0.3,0,0.5,0.2,0.5,0.5l1.7,26.9
			C953.9,80,953.6,80.2,953.3,80.2C953.4,80.2,953.4,80.2,953.3,80.2z"/>
	</g>
</g>
<g>
	<g>
		<path fill="#010101" d="M1019.5,156.7h-5.4c-2.3,0-4.1-1.8-4.1-4.1v-24.2c0-0.3,0.2-0.5,0.5-0.5s0.5,0.2,0.5,0.5v24.2
			c0,1.7,1.4,3.1,3.1,3.1h5.4c0.3,0,0.5,0.2,0.5,0.5S1019.8,156.7,1019.5,156.7z"/>
	</g>
	<g>
		<path fill="#010101" d="M1037.4,156.7h-7.2c-0.3,0-0.5-0.2-0.5-0.5s0.2-0.5,0.5-0.5h6.7v-24.1h-22.8c-2.3,0-4.1-1.8-4.1-4.1
			s1.8-4.1,4.1-4.1h23.3c0.3,0,0.5,0.2,0.5,0.5s-0.2,0.5-0.5,0.5h-23.3c-1.7,0-3.1,1.4-3.1,3.1s1.4,3.1,3.1,3.1h23.3
			c0.3,0,0.5,0.2,0.5,0.5v25.1C1037.9,156.5,1037.7,156.7,1037.4,156.7z"/>
	</g>
	<g>
		<g>
			<path fill="#010101" d="M1024.9,165.7c-0.3,0-0.5-0.2-0.5-0.5v-20.6c0-0.3,0.2-0.5,0.5-0.5s0.5,0.2,0.5,0.5v20.6
				C1025.4,165.5,1025.2,165.7,1024.9,165.7z"/>
		</g>
		<g>
			<path fill="#010101" d="M1024.9,165.7c-0.3,0-0.5-0.2-0.5-0.5v-20.6c0-0.3,0.2-0.5,0.5-0.5s0.5,0.2,0.5,0.5v20.6
				C1025.4,165.5,1025.2,165.7,1024.9,165.7z"/>
		</g>
	</g>
	<g>
		<path fill="#010101" d="M1024.9,165.7c-0.1,0-0.3-0.1-0.4-0.1l-4.5-4.5c-0.2-0.2-0.2-0.5,0-0.7s0.5-0.2,0.7,0l4.1,4.1l4.1-4.1
			c0.2-0.2,0.5-0.2,0.7,0s0.2,0.5,0,0.7l-4.5,4.5C1025.2,165.6,1025,165.7,1024.9,165.7z"/>
	</g>
	<g>
		<path fill="#010101" d="M1035.6,128.1h-21.5c-0.3,0-0.5-0.2-0.5-0.5s0.2-0.5,0.5-0.5h21.5c0.3,0,0.5,0.2,0.5,0.5
			S1035.9,128.1,1035.6,128.1z"/>
	</g>
</g>
<g>
	<g>
		<g>
			<path fill="#010101" d="M936.1,247.3C936.1,247.3,936.1,247.3,936.1,247.3c-0.9,0-1.7-0.3-2.3-0.9c-0.6-0.6-0.9-1.4-0.9-2.3
				c0-0.9,0.3-1.7,0.9-2.3l11.8-11.8c0.2-0.2,0.5-0.2,0.7,0l3.8,3.8c0.2,0.2,0.2,0.5,0,0.7l-11.8,11.8
				C937.7,246.9,936.9,247.3,936.1,247.3z M945.9,231.1l-11.4,11.4c-0.4,0.4-0.6,1-0.6,1.5s0.2,1.1,0.6,1.5c0.4,0.4,1,0.6,1.5,0.6
				c0,0,0,0,0,0c0.6,0,1.1-0.2,1.5-0.6l0,0l11.4-11.4L945.9,231.1z"/>
		</g>
		<g>
			<path fill="#010101" d="M951.6,236.6c-0.1,0-0.3,0-0.4-0.1l-7.6-7.6c-0.2-0.2-0.2-0.5,0-0.7s0.5-0.2,0.7,0l7.6,7.6
				c0.2,0.2,0.2,0.5,0,0.7C951.9,236.6,951.8,236.6,951.6,236.6z"/>
		</g>
		<g>
			
				<rect x="956.9" y="209.2" transform="matrix(0.7071 0.7071 -0.7071 0.7071 437.928 -611.7444)" fill="#010101" width="1" height="27.1"/>
		</g>
		<g>
			<path fill="#010101" d="M969.1,215.8c-0.1,0-0.3-0.1-0.4-0.1l-4.4-4.4c-0.1-0.1-0.2-0.3-0.1-0.4s0.1-0.3,0.2-0.4l6.3-4.4
				c0.2-0.1,0.5-0.1,0.6,0.1l2.7,2.7c0.2,0.2,0.2,0.5,0,0.7l-4.6,6.2C969.4,215.7,969.3,215.8,969.1,215.8
				C969.1,215.8,969.1,215.8,969.1,215.8z M965.4,210.9l3.6,3.6l4-5.3l-2.1-2.1L965.4,210.9z"/>
		</g>
	</g>
	<g>
		<path fill="#010101" d="M948.7,227.3l-6.5-6.5c-2.8,1.1-6,0.4-8.1-1.7c-2.2-2.2-2.9-5.5-1.6-8.3c0.1-0.2,0.2-0.3,0.4-0.3
			c0.2,0,0.3,0,0.4,0.1l3.6,3.3h2.9V211l-3.2-3.6c-0.1-0.1-0.1-0.3-0.1-0.4c0-0.2,0.1-0.3,0.3-0.4c2.9-1.2,6-0.6,8.3,1.6
			c2.1,2.1,2.8,5.3,1.8,8.1l6.5,6.5l-0.7,0.7l-6.7-6.7c-0.1-0.1-0.2-0.4-0.1-0.5c1.1-2.5,0.5-5.4-1.4-7.3c-1.8-1.8-4.2-2.4-6.5-1.7
			l2.9,3.2c0.1,0.1,0.1,0.2,0.1,0.3v3.6c0,0.3-0.2,0.5-0.5,0.5h-3.6c-0.1,0-0.2,0-0.3-0.1l-3.1-2.9c-0.7,2.3-0.1,4.8,1.7,6.6
			c1.9,1.9,4.8,2.5,7.3,1.4c0.2-0.1,0.4,0,0.5,0.1l6.7,6.7L948.7,227.3z"/>
	</g>
	<g>
		<path fill="#010101" d="M966.2,247.9c-2,0-3.9-0.8-5.4-2.2c-2.1-2.1-2.8-5.3-1.8-8.1l-6.5-6.5l0.7-0.7l6.7,6.7
			c0.1,0.1,0.2,0.4,0.1,0.5c-1.1,2.5-0.5,5.4,1.4,7.3c1.7,1.8,4.3,2.4,6.6,1.7l-3.1-3.2c-0.1-0.1-0.1-0.2-0.1-0.3v-3.6
			c0-0.3,0.2-0.5,0.5-0.5h3.6c0.1,0,0.2,0,0.3,0.1l3.3,3.1c0.7-2.3,0.1-4.9-1.7-6.6c-1.9-1.9-4.8-2.5-7.3-1.4
			c-0.2,0.1-0.4,0-0.5-0.1l-6.7-6.7l0.7-0.7l6.5,6.5c2.8-1.1,6-0.4,8.1,1.8c2.2,2.2,2.9,5.5,1.6,8.4c-0.1,0.1-0.2,0.3-0.4,0.3
			c-0.2,0-0.3,0-0.4-0.1l-3.7-3.4h-2.9v2.9l3.5,3.6c0.1,0.1,0.2,0.3,0.1,0.4c0,0.2-0.1,0.3-0.3,0.4
			C968.2,247.7,967.2,247.9,966.2,247.9z"/>
	</g>
</g>
<g>
	<g>
		<path fill="#231F20" d="M910,145.9h-10c-0.3,0-0.5-0.2-0.5-0.5s0.2-0.5,0.5-0.5h10c0.3,0,0.5,0.2,0.5,0.5S910.2,145.9,910,145.9z"
			/>
	</g>
	<g>
		<path fill="#231F20" d="M905.5,149.4c-0.3,0-0.5-0.2-0.5-0.5v-9c0-0.3,0.2-0.5,0.5-0.5s0.5,0.2,0.5,0.5v9
			C906,149.2,905.7,149.4,905.5,149.4z"/>
	</g>
</g>
<g>
	<g>
		<path fill="#231F20" d="M994,145.9h-9c-0.3,0-0.5-0.2-0.5-0.5s0.2-0.5,0.5-0.5h9c0.3,0,0.5,0.2,0.5,0.5S994.2,145.9,994,145.9z"/>
	</g>
	<g>
		<path fill="#231F20" d="M989.5,149.4c-0.3,0-0.5-0.2-0.5-0.5v-9c0-0.3,0.2-0.5,0.5-0.5s0.5,0.2,0.5,0.5v9
			C990,149.2,989.7,149.4,989.5,149.4z"/>
	</g>
</g>
<g>
	<g>
		<path fill="#231F20" d="M915,227.9h-8c-0.3,0-0.5-0.2-0.5-0.5s0.2-0.5,0.5-0.5h8c0.3,0,0.5,0.2,0.5,0.5S915.2,227.9,915,227.9z"/>
	</g>
	<g>
		<path fill="#231F20" d="M911.5,231.4c-0.3,0-0.5-0.2-0.5-0.5v-8c0-0.3,0.2-0.5,0.5-0.5s0.5,0.2,0.5,0.5v8
			C912,231.2,911.7,231.4,911.5,231.4z"/>
	</g>
</g>
<g>
	<g>
		<path fill="#231F20" d="M999,227.9h-10c-0.3,0-0.5-0.2-0.5-0.5s0.2-0.5,0.5-0.5h10c0.3,0,0.5,0.2,0.5,0.5S999.2,227.9,999,227.9z"
			/>
	</g>
	<g>
		<path fill="#231F20" d="M994.5,231.4c-0.3,0-0.5-0.2-0.5-0.5v-8c0-0.3,0.2-0.5,0.5-0.5s0.5,0.2,0.5,0.5v8
			C995,231.2,994.7,231.4,994.5,231.4z"/>
	</g>
</g>
<g>
	<g>
		<path fill="#231F20" d="M910,58.9h-8c-0.3,0-0.5-0.2-0.5-0.5s0.2-0.5,0.5-0.5h8c0.3,0,0.5,0.2,0.5,0.5S910.2,58.9,910,58.9z"/>
	</g>
	<g>
		<path fill="#231F20" d="M905.5,64.4c-0.3,0-0.5-0.2-0.5-0.5v-10c0-0.3,0.2-0.5,0.5-0.5s0.5,0.2,0.5,0.5v10
			C906,64.2,905.7,64.4,905.5,64.4z"/>
	</g>
</g>
<g>
	<g>
		<path fill="#231F20" d="M986,58.9h-10c-0.3,0-0.5-0.2-0.5-0.5s0.2-0.5,0.5-0.5h10c0.3,0,0.5,0.2,0.5,0.5S986.2,58.9,986,58.9z"/>
	</g>
	<g>
		<path fill="#231F20" d="M981.5,64.4c-0.3,0-0.5-0.2-0.5-0.5v-10c0-0.3,0.2-0.5,0.5-0.5s0.5,0.2,0.5,0.5v10
			C982,64.2,981.7,64.4,981.5,64.4z"/>
	</g>
</g>
<g>
	<path fill="#010101" d="M353.3,207.7c-0.1,0-0.2,0-0.2-0.1c-0.1-0.1-0.2-0.2-0.2-0.3l-1.5-6.5c-1.4,0.5-5.2,1.8-7.7,1.8
		c-3.2,0-4.7-3.1-4.7-4.3c0-0.3,0.1-0.8,0.3-1.3c0.4-1.1,0.6-2,0-2.4c-1.2-0.8-1.8-1.2-1.8-1.2c-0.1-0.1-0.2-0.1-0.2-0.2
		c-0.3-0.7-0.7-1.9-0.4-2.5c0.2-0.3,0.4-0.5,0.7-0.8c-0.2-0.1-0.4-0.1-0.5-0.2c-0.8-0.3-1.3-0.5-1.5-0.6c-0.5-0.3-0.8-1.4-0.8-2
		c0-0.6,0.2-0.9,0.4-1.1c0.3-0.2,0.5-0.5,0.4-0.8c-0.1-0.3-0.5-0.6-1.5-0.5c-0.8,0-1.4-0.3-1.8-0.9c-0.6-0.9-0.6-2.3-0.3-3.2
		c0.1-0.3,0.5-1.1,0.9-2c1.1-2.5,3.5-7.7,3.4-8.9c0-0.9-0.2-1.3-0.3-1.7c-0.1-0.3-0.2-0.5-0.2-0.9c0-14.7,9.8-25,23.8-25
		c9.4,0,17.3,3.1,22.2,8.7c4.5,5.1,6.2,12.1,5.1,20.3c-0.6,5.6-4.7,11.3-7.9,15.9l-0.7,0.9c-0.1,0.2-0.3,0.2-0.5,0.2
		c-0.2,0-0.3-0.2-0.4-0.4c-0.7-3.1-1.8-6.2-3.1-9.4c-5.9-13.9-15.1-19.5-15.2-19.6c-0.2-0.1-0.3-0.4-0.2-0.6
		c0.1-0.2,0.3-0.4,0.5-0.3c7.5,0.7,14,10.9,15.8,14.4c1.7-3.1,1-6.4-1.9-9.9c-6.6-7.7-19.2-8.2-22.3-8.1c0.6,1.6,2.4,6.4,5.5,15.9
		c2.3,7.3,10.4,9,15.1,7.9c0.2,0,0.4,0,0.5,0.2c0.6,0.8,2.2,3.8,4.3,15.8c0.1,0.1,0.1,0.1,0.1,0.2l0.7,5.4c0,0.2-0.1,0.5-0.4,0.5
		l-1.4,0.4c-4.2,1.3-21.1,6.6-22.1,6.9C353.4,207.7,353.4,207.7,353.3,207.7z M351.7,199.6c0.1,0,0.2,0,0.2,0.1
		c0.1,0.1,0.2,0.2,0.3,0.3l1.5,6.6c3.1-1,17.7-5.6,21.6-6.8l1-0.3l-0.6-4.7c0-0.1-0.1-0.1-0.1-0.2c-2-11.1-3.5-14.4-4-15.3
		c-4.7,1.1-8.2-0.3-10.4-1.7c-2.6-1.7-4.7-4.2-5.6-6.9c-3.8-11.9-5.7-16.4-5.7-16.4c-0.1-0.1-0.1-0.3,0-0.4s0.2-0.2,0.3-0.3
		c2.4-0.5,16.8,0,23.9,8.3c3.5,4.1,4,8.2,1.5,11.8c-0.1,0.1-0.3,0.2-0.5,0.2c-0.2,0-0.3-0.1-0.4-0.3c-1.2-2.7-6.7-11.6-13-14
		c3.1,2.5,9.1,8.3,13.4,18.5c1.2,2.8,2.2,5.7,2.9,8.5l0,0c3.2-4.5,7.2-10.1,7.7-15.4c1.1-7.9-0.6-14.6-4.9-19.5
		c-4.7-5.4-12.4-8.4-21.5-8.4c-13.4,0-22.8,9.9-22.8,24c0,0.2,0,0.3,0.1,0.6c0.1,0.4,0.3,0.9,0.4,2c0,1.3-1.7,5.3-3.5,9.3
		c-0.4,0.9-0.8,1.7-0.9,2c-0.2,0.6-0.2,1.6,0.2,2.2c0.2,0.3,0.5,0.5,1,0.5c1.9,0,2.4,0.8,2.5,1.2c0.2,0.7-0.1,1.4-0.8,1.9
		c-0.1,0.2,0.1,1.2,0.4,1.4c0.1,0.1,0.8,0.3,1.3,0.5c1,0.4,1.2,0.5,1.3,0.6c0.1,0.1,0.2,0.3,0.2,0.4c0,0.3-0.2,0.5-0.6,0.8
		c-0.2,0.2-0.5,0.4-0.6,0.6c-0.1,0.2,0.1,0.9,0.4,1.5c0.3,0.2,0.8,0.5,1.7,1.1c1.3,0.8,0.7,2.5,0.3,3.6c-0.1,0.4-0.3,0.7-0.3,0.9
		c0,0.7,1,3.3,3.7,3.3c2.9,0,7.8-1.9,7.9-1.9C351.6,199.6,351.6,199.6,351.7,199.6z"/>
</g>
<g>
	<g>
		<path fill="#010101" d="M881,165.6h-34c-2.3,0-4.1-1.8-4.1-4.1v-34c0-2.3,1.8-4.1,4.1-4.1h34c2.3,0,4.1,1.8,4.1,4.1v34
			C885.1,163.8,883.3,165.6,881,165.6z M847,124.4c-1.7,0-3.1,1.4-3.1,3.1v34c0,1.7,1.4,3.1,3.1,3.1h34c1.7,0,3.1-1.4,3.1-3.1v-34
			c0-1.7-1.4-3.1-3.1-3.1H847z"/>
	</g>
	<g>
		<path fill="#010101" d="M884.6,133.4h-41.2c-0.3,0-0.5-0.2-0.5-0.5s0.2-0.5,0.5-0.5h41.2c0.3,0,0.5,0.2,0.5,0.5
			S884.9,133.4,884.6,133.4z"/>
	</g>
	<g>
		<path fill="#010101" d="M879.2,147.7h-12.5c-0.3,0-0.5-0.2-0.5-0.5v-9c0-0.3,0.2-0.5,0.5-0.5h12.5c0.3,0,0.5,0.2,0.5,0.5v9
			C879.7,147.5,879.5,147.7,879.2,147.7z M867.2,146.7h11.5v-8h-11.5V146.7z"/>
	</g>
	<g>
		<path fill="#010101" d="M879.2,160.2h-12.5c-0.3,0-0.5-0.2-0.5-0.5v-9c0-0.3,0.2-0.5,0.5-0.5h12.5c0.3,0,0.5,0.2,0.5,0.5v9
			C879.7,160,879.5,160.2,879.2,160.2z M867.2,159.2h11.5v-8h-11.5V159.2z"/>
	</g>
	<g>
		<path fill="#010101" d="M861.3,153.1h-12.5c-0.3,0-0.5-0.2-0.5-0.5v-14.3c0-0.3,0.2-0.5,0.5-0.5h12.5c0.3,0,0.5,0.2,0.5,0.5v14.3
			C861.8,152.8,861.6,153.1,861.3,153.1z M849.3,152.1h11.5v-13.3h-11.5V152.1z"/>
	</g>
	<g>
		<path fill="#010101" d="M855,147.7c-1.8,0-3.2-1.4-3.2-3.2s1.4-3.2,3.2-3.2c1.8,0,3.2,1.4,3.2,3.2S856.8,147.7,855,147.7z
			 M855,142.3c-1.2,0-2.2,1-2.2,2.2s1,2.2,2.2,2.2s2.2-1,2.2-2.2S856.2,142.3,855,142.3z"/>
	</g>
	<g>
		<path fill="#010101" d="M859.5,153.1h-9c-0.3,0-0.5-0.2-0.5-0.5c0-3.2,2.2-5.9,5-5.9s5,2.6,5,5.9
			C860,152.8,859.8,153.1,859.5,153.1z M851.1,152.1h7.9c-0.2-2.5-1.9-4.4-4-4.4S851.3,149.6,851.1,152.1z"/>
	</g>
	<g>
		<path fill="#010101" d="M856.8,156.7h-7.2c-0.3,0-0.5-0.2-0.5-0.5s0.2-0.5,0.5-0.5h7.2c0.3,0,0.5,0.2,0.5,0.5
			S857.1,156.7,856.8,156.7z"/>
	</g>
	<g>
		<path fill="#010101" d="M856.8,160.2h-7.2c-0.3,0-0.5-0.2-0.5-0.5s0.2-0.5,0.5-0.5h7.2c0.3,0,0.5,0.2,0.5,0.5
			S857.1,160.2,856.8,160.2z"/>
	</g>
	<g>
		<path fill="#010101" d="M849.7,129.8c-0.8,0-1.4-0.6-1.4-1.4s0.6-1.4,1.4-1.4s1.4,0.6,1.4,1.4S850.4,129.8,849.7,129.8z
			 M849.7,128c-0.2,0-0.4,0.2-0.4,0.4s0.2,0.4,0.4,0.4c0.2,0,0.4-0.2,0.4-0.4S849.9,128,849.7,128z"/>
	</g>
	<g>
		<path fill="#010101" d="M855,129.8c-0.8,0-1.4-0.6-1.4-1.4s0.6-1.4,1.4-1.4s1.4,0.6,1.4,1.4S855.8,129.8,855,129.8z M855,128
			c-0.2,0-0.4,0.2-0.4,0.4s0.2,0.4,0.4,0.4s0.4-0.2,0.4-0.4S855.2,128,855,128z"/>
	</g>
	<g>
		<path fill="#010101" d="M860.4,129.8c-0.8,0-1.4-0.6-1.4-1.4s0.6-1.4,1.4-1.4c0.8,0,1.4,0.6,1.4,1.4S861.2,129.8,860.4,129.8z
			 M860.4,128c-0.2,0-0.4,0.2-0.4,0.4s0.2,0.4,0.4,0.4c0.2,0,0.4-0.2,0.4-0.4S860.6,128,860.4,128z"/>
	</g>
</g>
<g>
	<g>
		<g>
			<path fill="#010101" d="M1033.7,48.3c-0.1,0-0.3,0-0.4-0.1c-0.2-0.2-0.2-0.5,0-0.7l9.9-9.9c0.2-0.2,0.5-0.2,0.7,0s0.2,0.5,0,0.7
				l-9.9,9.9C1034,48.3,1033.8,48.3,1033.7,48.3z"/>
		</g>
		<g>
			<path fill="#010101" d="M1002.4,79.6c-0.1,0-0.3,0-0.4-0.1c-0.2-0.2-0.2-0.5,0-0.7l9.8-9.8c0.2-0.2,0.5-0.2,0.7,0s0.2,0.5,0,0.7
				l-9.8,9.8C1002.6,79.6,1002.5,79.6,1002.4,79.6z"/>
		</g>
		<g>
			<path fill="#010101" d="M1011.3,79.6h-9c-0.3,0-0.5-0.2-0.5-0.5v-9c0-0.3,0.2-0.5,0.5-0.5s0.5,0.2,0.5,0.5v8.5h8.5
				c0.3,0,0.5,0.2,0.5,0.5S1011.6,79.6,1011.3,79.6z"/>
		</g>
		<g>
			<path fill="#010101" d="M1043.6,47.4c-0.3,0-0.5-0.2-0.5-0.5v-8.5h-8.5c-0.3,0-0.5-0.2-0.5-0.5s0.2-0.5,0.5-0.5h9
				c0.3,0,0.5,0.2,0.5,0.5v9C1044.1,47.2,1043.9,47.4,1043.6,47.4z"/>
		</g>
		<g>
			<path fill="#010101" d="M1043.6,79.6c-0.1,0-0.3,0-0.4-0.1l-9.9-9.9c-0.2-0.2-0.2-0.5,0-0.7s0.5-0.2,0.7,0l9.9,9.9
				c0.2,0.2,0.2,0.5,0,0.7C1043.9,79.6,1043.7,79.6,1043.6,79.6z"/>
		</g>
		<g>
			<path fill="#010101" d="M1012.2,48.2c-0.1,0-0.3,0-0.4-0.1l-9.8-9.8c-0.2-0.2-0.2-0.5,0-0.7s0.5-0.2,0.7,0l9.8,9.8
				c0.2,0.2,0.2,0.5,0,0.7C1012.5,48.2,1012.3,48.2,1012.2,48.2z"/>
		</g>
		<g>
			<path fill="#010101" d="M1002.4,47.4c-0.3,0-0.5-0.2-0.5-0.5v-9c0-0.3,0.2-0.5,0.5-0.5h9c0.3,0,0.5,0.2,0.5,0.5s-0.2,0.5-0.5,0.5
				h-8.5v8.5C1002.9,47.2,1002.7,47.4,1002.4,47.4z"/>
		</g>
		<g>
			<path fill="#010101" d="M1043.6,79.6h-9c-0.3,0-0.5-0.2-0.5-0.5s0.2-0.5,0.5-0.5h8.5v-8.5c0-0.3,0.2-0.5,0.5-0.5s0.5,0.2,0.5,0.5
				v9C1044.1,79.4,1043.9,79.6,1043.6,79.6z"/>
		</g>
	</g>
	<g>
		<path fill="#010101" d="M1022.9,54.5c-3.2,0-5.9-2.6-5.9-5.9c0-3.2,2.6-5.9,5.9-5.9s5.9,2.6,5.9,5.9
			C1028.8,51.9,1026.2,54.5,1022.9,54.5z M1022.9,43.8c-2.7,0-4.9,2.2-4.9,4.9s2.2,4.9,4.9,4.9s4.9-2.2,4.9-4.9
			S1025.6,43.8,1022.9,43.8z"/>
	</g>
	<g>
		<path fill="#010101" d="M1025.6,76.1h-5.4c-0.3,0-0.5-0.2-0.5-0.5v-7.4c-3.5-1.5-5.4-6.5-5.4-10.6c0-0.3,0.2-0.5,0.5-0.5h16.1
			c0.3,0,0.5,0.2,0.5,0.5c0,4.1-1.9,9.1-5.4,10.6v7.4C1026.1,75.8,1025.9,76.1,1025.6,76.1z M1020.8,75.1h4.4v-7.2
			c0-0.2,0.1-0.4,0.3-0.5c3.3-1.2,4.9-5.9,5-9.2h-15.1c0.1,3.3,1.7,8.1,5,9.2c0.2,0.1,0.3,0.3,0.3,0.5V75.1z"/>
	</g>
</g>
<g>
	<g>
		<path fill="#010101" d="M175.7,211.2h-10c-0.3,0-0.5-0.2-0.5-0.5v-19.9c0-0.3,0.2-0.5,0.5-0.5h10c0.3,0,0.5,0.2,0.5,0.5v19.9
			C176.2,211,175.9,211.2,175.7,211.2z M166.2,210.2h9v-18.9h-9V210.2z"/>
	</g>
	<g>
		<path fill="#010101" d="M196.1,213.5c-3,0-6.4-1.2-12.4-3.3c-2.3-0.8-5-1.7-8.2-2.8c-0.3-0.1-0.4-0.4-0.3-0.6
			c0.1-0.3,0.4-0.4,0.6-0.3c3.2,1.1,5.9,2,8.2,2.8c13,4.6,13,4.6,25.6-2.2c3.2-1.7,7.2-3.9,12.5-6.5c-2.2-2.1-4-2.6-6.5-1.9l-11,3.7
			c-0.3,0.1-0.5-0.1-0.6-0.3c-0.1-0.3,0.1-0.5,0.3-0.6l11-3.7c3-0.8,5.3-0.1,8,2.6c0.1,0.1,0.2,0.3,0.1,0.4c0,0.2-0.1,0.3-0.3,0.4
			c-5.6,2.8-9.8,5-13.1,6.8C203,211.8,199.8,213.5,196.1,213.5z"/>
	</g>
	<g>
		<path fill="#010101" d="M201.8,203.7h-13.7c-0.3,0-0.5-0.2-0.5-0.5s0.2-0.5,0.5-0.5h13.7c1.7,0,2.5-1,2.5-2s-0.8-2-2.5-2h-7.5
			c-0.1,0-0.3-0.1-0.4-0.1c-1.5-1.5-5.4-4.8-10.8-4.8h-7.5c-0.3,0-0.5-0.2-0.5-0.5s0.2-0.5,0.5-0.5h7.5c5.6,0,9.8,3.4,11.4,5h7.3
			c2.3,0,3.5,1.5,3.5,3S204.1,203.7,201.8,203.7z"/>
	</g>
	<g>
		<path fill="#010101" d="M209.5,193.8c-0.2,0-0.3-0.1-0.4-0.2c-0.1-0.2-0.1-0.5,0.2-0.7c5.8-3.5,9.5-9.9,9.5-16.7
			c0-10.7-8.7-19.4-19.4-19.4s-19.4,8.7-19.4,19.4c0,3.1,0.7,6,2.1,8.7c0.1,0.2,0,0.5-0.2,0.7c-0.2,0.1-0.5,0-0.7-0.2
			c-1.4-2.9-2.2-5.9-2.2-9.2c0-11.3,9.2-20.4,20.4-20.4c11.3,0,20.4,9.2,20.4,20.4c0,7.2-3.8,13.9-10,17.5
			C209.7,193.7,209.6,193.8,209.5,193.8z"/>
	</g>
	<g>
		<path fill="#010101" d="M197.6,190.5c-1.4,0-3.1-4-3.1-4.8c0-0.6,0.2-1,0.5-1.5c0.2-0.4,0.4-0.8,0.4-1.1c0-0.4-0.8-1.5-1.6-2.2
			c-0.1-0.1-0.1-0.2-0.1-0.4c0-0.9-0.2-1.4-0.5-1.8c-0.5-0.5-1.6-0.5-2.8-0.4c-0.4,0-0.9,0.1-1.4,0.1c-2.4,0-3.1-2.6-3.1-4
			c0-0.3,0.1-6.5,4.7-7.4c2.1-0.4,3.6-0.3,4.4,0.3c0.3,0.3,0.5,0.6,0.5,0.8c1,0.9,2.8,0.5,4.4,0.1c0.6-0.1,1.1-0.3,1.6-0.3
			c0.3-2.1,0.2-4.1-0.1-4.3c-1.1,0.6-2.1,0.6-2.9,0.2c-0.7-0.4-1.2-1.2-1.3-2.3c-0.3-3.1,7.1-4.7,7.9-4.9c0.3-0.1,0.5,0.1,0.6,0.4
			c0.1,0.3-0.1,0.5-0.4,0.6c-2.4,0.5-7.3,2.1-7.2,3.8c0.1,0.7,0.3,1.2,0.8,1.5c0.5,0.3,1.2,0.2,1.9-0.1c0.5-0.3,0.9-0.1,1.1,0
			c1.1,0.8,0.7,4.2,0.5,5.7c0,0.2-0.2,0.4-0.5,0.4c-0.5,0-1.1,0.2-1.8,0.3c-1.8,0.4-4,0.9-5.4-0.5c-0.1-0.1-0.1-0.2-0.1-0.4v0
			c0,0,0-0.1-0.2-0.3c-0.3-0.2-1.2-0.6-3.5-0.1c-3.9,0.8-3.9,6.4-3.9,6.4c0,0.1,0,3,2.1,3c0.4,0,0.9,0,1.3,0
			c1.4-0.1,2.7-0.2,3.6,0.7c0.5,0.5,0.8,1.2,0.8,2.3c0.5,0.6,1.7,1.9,1.7,2.8c0,0.6-0.2,1-0.5,1.5c-0.2,0.4-0.4,0.8-0.4,1.1
			c0,0.7,1.5,3.7,2.1,3.8c2.1,0,4.7-0.7,4.7-3.8c0-0.2,0.1-0.4,0.3-0.5c0,0,1.2-0.4,2.4-1.6c0.2-0.2,0.3-0.4,0.3-0.4
			c0-0.2-0.3-0.4-0.5-0.6c-0.4-0.3-0.8-0.7-0.8-1.2c0-0.4,0.4-0.9,1.3-1.9c1.6-1.7,3.1-3.4,2.5-4.5c-0.6,0.2-2,0.6-2.8-0.3
			c-0.1-0.1-0.1-0.1-0.1-0.2c-0.4-1.5-1-2.9-1.3-3.1c-0.3,0-0.5-0.2-0.5-0.3c-0.1-0.1-0.1-0.4,0.1-0.7c0.6-0.7,3.5-2.3,6.4-1.7
			c3.1-1.7,3.9-6,3.9-6c0-0.3,0.3-0.5,0.6-0.4c0.3,0,0.5,0.3,0.4,0.6c0,0.2-1,5-4.6,6.8c-0.1,0.1-0.2,0.1-0.3,0
			c-2.2-0.6-4.4,0.5-5.3,1c0.7,0.6,1.2,2.1,1.5,3.4c0.5,0.4,1.6,0,1.9-0.2c0.2-0.1,0.4-0.1,0.6,0.1c1.8,1.8-0.6,4.4-2.3,6.1
			c-0.4,0.5-1,1-1.1,1.2c0,0,0.3,0.3,0.4,0.4c0.4,0.3,0.8,0.7,0.8,1.3c0,0.4-0.2,0.8-0.6,1.2c-1,1-2,1.5-2.5,1.7
			C203.1,188.9,201.1,190.5,197.6,190.5z"/>
	</g>
	<g>
		<path fill="#010101" d="M224.6,156.4h-10c-0.3,0-0.5-0.2-0.5-0.5V136c0-0.3,0.2-0.5,0.5-0.5h10c0.3,0,0.5,0.2,0.5,0.5v19.9
			C225.1,156.1,224.9,156.4,224.6,156.4z M215.2,155.4h9v-18.9h-9V155.4z"/>
	</g>
	<g>
		<path fill="#010101" d="M172.8,149.2c-2,0-3.8-0.9-5.8-2.9c-0.1-0.1-0.2-0.3-0.1-0.4c0-0.2,0.1-0.3,0.3-0.4
			c5.6-2.8,9.8-5,13.1-6.8c12.8-6.9,13-6.9,26.4-2.2c2.3,0.8,5,1.7,8.2,2.8c0.3,0.1,0.4,0.4,0.3,0.6c-0.1,0.3-0.4,0.4-0.6,0.3
			c-3.2-1.1-5.9-2-8.2-2.8c-13-4.6-13-4.6-25.6,2.2c-3.2,1.7-7.2,3.9-12.5,6.5c2.2,2.1,4,2.6,6.5,1.9l11-3.7
			c0.3-0.1,0.5,0.1,0.6,0.3c0.1,0.3-0.1,0.5-0.3,0.6l-11,3.7C174.3,149.1,173.5,149.2,172.8,149.2z"/>
	</g>
	<g>
		<path fill="#010101" d="M214.7,153.9h-7.5c-5.6,0-9.8-3.4-11.4-5h-7.3c-2.3,0-3.5-1.5-3.5-3s1.2-3,3.5-3h13.7
			c0.3,0,0.5,0.2,0.5,0.5s-0.2,0.5-0.5,0.5h-13.7c-1.7,0-2.5,1-2.5,2c0,1,0.8,2,2.5,2h7.5c0.1,0,0.3,0.1,0.4,0.1
			c1.5,1.5,5.4,4.8,10.8,4.8h7.5c0.3,0,0.5,0.2,0.5,0.5S215,153.9,214.7,153.9z"/>
	</g>
</g>
<g>
	<path fill="#010101" d="M133.4,207.9c-0.1,0-0.1,0-0.2,0c-1-0.3-18.6-5.7-23-7l-1.5-0.4c-0.2-0.1-0.4-0.3-0.4-0.5l1.2-8.6
		c-0.8-1.2-1.8-2.7-3-4.2c-3.4-4.6-7.6-10.3-8.3-16c-1.1-8,0.6-15,5.1-20.1c5.1-5.9,13.4-9.1,23.4-9.1c14.6,0,24.7,10.4,24.7,25.2
		c0,0.4-0.1,0.6-0.2,0.9c-0.1,0.3-0.3,0.8-0.3,1.7c0,1.1,2.4,6.4,3.6,8.9c0.5,1,0.8,1.7,0.9,2.1c0.3,0.9,0.4,2.2-0.3,3.1
		c-0.3,0.4-0.9,1-1.9,0.9c-1,0-1.5,0.2-1.6,0.5c-0.1,0.2,0.1,0.5,0.4,0.8c0.2,0.1,0.5,0.5,0.5,1.1c0,0.7-0.4,1.7-0.8,2
		c-0.2,0.1-0.7,0.3-1.6,0.6c-0.2,0.1-0.4,0.1-0.5,0.2c0.2,0.2,0.5,0.5,0.7,0.7c0.4,0.6-0.1,1.9-0.4,2.6c0,0.1-0.1,0.2-0.2,0.2
		c0,0-0.7,0.4-1.9,1.2c-0.7,0.5-0.4,2.1-0.1,3.1c0.1,0.5,0.2,0.9,0.2,1.2c0,1.2-1.5,4.3-4.9,4.3c-2.6,0-6.6-1.3-8-1.8l-1.3,5.9
		c0,0.1-0.1,0.3-0.2,0.3C133.6,207.9,133.5,207.9,133.4,207.9z M109.5,199.6l1.1,0.3c4.1,1.2,19.4,5.8,22.5,6.8l1.3-6
		c0-0.1,0.1-0.3,0.2-0.3c0.1-0.1,0.3-0.1,0.4,0c0.1,0,5.2,1.9,8.2,1.9c2.8,0,3.8-2.6,3.9-3.3c0-0.2-0.1-0.6-0.2-0.9
		c-0.3-1.3-0.8-3.4,0.6-4.2c0.9-0.6,1.5-0.9,1.8-1.1c0.3-0.6,0.4-1.3,0.4-1.5c-0.1-0.2-0.4-0.4-0.6-0.6c-0.3-0.3-0.6-0.5-0.6-0.8
		c0-0.1,0.1-0.3,0.2-0.4c0.1-0.1,0.3-0.2,1.4-0.6c0.5-0.2,1.2-0.5,1.4-0.6c0.2-0.2,0.5-1.2,0.3-1.4c-0.7-0.5-1-1.2-0.8-1.9
		c0.1-0.4,0.7-1.3,2.6-1.2c0.5,0,0.8-0.2,1.1-0.5c0.4-0.6,0.4-1.6,0.2-2.2c-0.1-0.3-0.5-1.1-0.9-2c-1.9-4-3.7-8.1-3.7-9.4
		c0-1.1,0.2-1.6,0.4-2c0.1-0.2,0.1-0.4,0.1-0.6c0-14.2-9.8-24.2-23.7-24.2c-9.7,0-17.8,3.1-22.7,8.8c-4.2,4.9-5.9,11.5-4.8,19.3
		c0.6,5.4,4.7,11,8.1,15.5c1.2,1.6,2.3,3.1,3.1,4.4c0.1,0.1,0.1,0.2,0.1,0.3L109.5,199.6z M124.8,179.7h-2.6c-0.7,0-1.3-0.5-1.3-1.1
		v-1.9c-3.4-0.6-6-2-7.3-3.8c-0.5-0.7-0.5-1.6,0-2.4c0.5-0.8,1.6-1.7,2.9-1.7c0.8,0,1.4,0.3,1.8,1c0,0,0,0.1,0.1,0.1
		c0.1,0.1,0.2,0.2,0.3,0.3c0.6,0.5,1.6,1,2.2,1.2c1.1,0.4,2.4,0.6,3.5,0.6c1.2,0,2.1-0.2,2.7-0.7c0.7-0.5,0.9-1.5,0.4-2.3
		c-0.3-0.4-0.9-1-1.8-1.3l-1-0.5c-1.6-0.7-6.5-2.8-7.4-3.3c-1.3-0.6-2.3-1.7-3-2.9c-1.4-2.7-0.7-5.9,1.7-8c1.3-1.1,3-1.9,4.9-2.3v-2
		c0-0.6,0.6-1.1,1.3-1.1h2.6c0.7,0,1.3,0.5,1.3,1.1v1.9c0.5,0.1,0.9,0.2,1.4,0.3c2,0.5,4.6,1.9,5.7,3.6c0.5,0.7,0.5,1.6,0,2.4
		c-0.5,0.8-1.6,1.7-2.9,1.7c-0.8,0-1.4-0.3-1.8-1c0,0,0-0.1-0.1-0.1l-0.1-0.1c-0.1-0.1-0.2-0.1-0.2-0.2c-0.6-0.5-1.6-1.1-2.2-1.3
		c-0.7-0.2-1.5-0.3-2.2-0.3c-0.9,0-2.2,0.2-3.3,1.1c-0.6,0.5-0.7,1.6-0.2,2.3c0.4,0.6,1,0.9,2,1.3c0.1,0,0.1,0,0.2,0.1
		c0.4,0.2,1.8,0.7,2.8,1.1l0.5,0.2c3.1,1.2,7.2,2.8,8.3,5.7c1,2.7,0.1,5.8-2.3,7.8l0,0c-1.3,1-3.2,1.7-5.5,1.9v1.7
		C126,179.2,125.5,179.7,124.8,179.7z M116.5,169.8c-0.8,0-1.6,0.6-2,1.2c-0.3,0.5-0.3,0.9-0.1,1.3c1.2,1.7,3.7,3,7,3.5
		c0.2,0,0.4,0.2,0.4,0.5v2.3c0,0,0.1,0.1,0.3,0.1h2.6c0.2,0,0.3-0.1,0.3-0.1v-2.1c0-0.3,0.2-0.5,0.5-0.5c2.3-0.2,4.2-0.8,5.4-1.8
		c2.1-1.7,2.9-4.3,2-6.6c-0.9-2.6-4.9-4-7.7-5.1l-0.5-0.2c-1-0.4-2.4-1-2.8-1.1l-0.2-0.1c0,0,0,0,0,0c-1-0.4-1.9-0.8-2.5-1.7
		c-0.8-1.1-0.6-2.8,0.4-3.6c1.3-1.1,2.9-1.3,3.9-1.3c0.8,0,1.7,0.1,2.5,0.4c0.8,0.2,1.9,0.9,2.6,1.5c0.1,0.1,0.2,0.2,0.3,0.3
		l0.1,0.1c0.1,0.1,0.1,0.2,0.2,0.2c0.2,0.3,0.6,0.5,1,0.5c0.8,0,1.6-0.6,2-1.2c0.2-0.3,0.4-0.8,0.1-1.3c-1-1.5-3.4-2.7-5.2-3.2
		c-0.5-0.1-1.1-0.2-1.7-0.3c-0.3,0-0.4-0.2-0.4-0.5v-2.3c0,0-0.1-0.1-0.3-0.1h-2.6c-0.2,0-0.3,0.1-0.3,0.1v2.4
		c0,0.2-0.2,0.5-0.4,0.5c-2,0.3-3.7,1.1-4.9,2.2c-2.1,1.8-2.7,4.6-1.5,6.8c0.6,1.1,1.5,2,2.6,2.5c0.9,0.5,5.8,2.6,7.4,3.3l1,0.5
		c1,0.5,1.8,1.1,2.2,1.7c0.7,1.2,0.4,2.8-0.7,3.6c-0.8,0.6-1.9,0.9-3.3,0.9c-1.2,0-2.6-0.2-3.8-0.6c-0.8-0.2-1.8-0.8-2.5-1.4
		c-0.1-0.1-0.2-0.2-0.3-0.3c0,0-0.1-0.1-0.1-0.1c0,0-0.1-0.1-0.1-0.1c0,0-0.1-0.1-0.1-0.2C117.3,170,117,169.8,116.5,169.8z"/>
</g>
<g>
	<g>
		<path fill="#010101" d="M268.5,166.2c-0.9,0-1.9-0.5-3.1-1.4c-1.8,0.4-3.1,0.2-3.9-0.6c-0.8-0.8-1-2-0.6-3.5c0,0,0,0,0,0
			c0.4-1.7,1.5-2.7,2.7-3.9c1.1-1,2.2-2.1,2.8-3.6c0.1-0.1,0.2-0.2,0.3-0.3c0.1,0,0.3,0,0.4,0.1c2.9,2,4.8,7.5,4.1,10.2
			c-0.4,1.6-1.1,2.6-2.1,3C269,166.2,268.8,166.2,268.5,166.2z M265.6,163.7c0.1,0,0.2,0,0.3,0.1c1.3,1.1,2.3,1.5,3.1,1.3
			c0.8-0.3,1.2-1.4,1.4-2.2c0.5-2.2-1-6.7-3.3-8.8c-0.7,1.4-1.8,2.5-2.8,3.4c-1.1,1.1-2.1,2-2.4,3.4c-0.2,0.7-0.3,1.9,0.3,2.6
			c0.6,0.6,1.7,0.7,3.2,0.3C265.5,163.8,265.5,163.7,265.6,163.7z"/>
	</g>
	<g>
		<path fill="#010101" d="M269.2,174.5h-6.1c-0.3,0-0.5-0.2-0.5-0.5s0.2-0.5,0.5-0.5h6.1c0.3,0,0.5,0.2,0.5,0.5
			S269.5,174.5,269.2,174.5z"/>
	</g>
	<g>
		<path fill="#010101" d="M269.2,176.9h-6.1c-0.3,0-0.5-0.2-0.5-0.5s0.2-0.5,0.5-0.5h6.1c0.3,0,0.5,0.2,0.5,0.5
			S269.5,176.9,269.2,176.9z"/>
	</g>
	<g>
		<path fill="#010101" d="M266.2,178.1c-0.3,0-0.5-0.2-0.5-0.5v-1.2c0-0.3,0.2-0.5,0.5-0.5s0.5,0.2,0.5,0.5v1.2
			C266.7,177.9,266.5,178.1,266.2,178.1z"/>
	</g>
	<g>
		<path fill="#010101" d="M266.2,172c-0.2,0-0.4-0.2-0.5-0.4c-0.1-0.4-1.9-9.8,0.7-13.9c0.1-0.2,0.5-0.3,0.7-0.2
			c0.2,0.1,0.3,0.5,0.2,0.7c-2.4,3.8-0.6,13.1-0.6,13.2C266.7,171.7,266.6,172,266.2,172C266.3,172,266.2,172,266.2,172z"/>
	</g>
	<g>
		<path fill="#010101" d="M269.2,172h-6.1c-0.3,0-0.5-0.2-0.5-0.5v-1.3c-4.7-1.4-7.9-5.6-7.9-10.3c0-6,5.1-10.8,11.4-10.8
			s11.4,4.9,11.4,10.8c0,4.7-3.2,8.9-7.9,10.3v1.3C269.7,171.8,269.5,172,269.2,172z M263.7,171h5.1v-1.1c0-0.2,0.2-0.4,0.4-0.5
			c4.4-1.2,7.5-5.1,7.5-9.4c0-5.4-4.7-9.8-10.4-9.8c-5.8,0-10.4,4.4-10.4,9.8c0,4.3,3.1,8.2,7.5,9.4c0.2,0.1,0.4,0.3,0.4,0.5V171z"
			/>
	</g>
</g>
<g>
	<path fill="#010101" d="M257.9,206.5c-0.1,0-0.2,0-0.2-0.1c-0.1-0.1-0.2-0.2-0.2-0.3l-1.3-5.9c-1.4,0.5-5.3,1.8-7.8,1.8
		c-3.3,0-4.7-3.1-4.8-4.3c0-0.3,0.1-0.7,0.2-1.2c0.2-1.1,0.6-2.7-0.1-3.1c-1.2-0.8-1.8-1.2-1.9-1.2c-0.1-0.1-0.2-0.1-0.2-0.2
		c-0.3-0.7-0.7-1.9-0.4-2.5c0.2-0.3,0.4-0.5,0.7-0.8c-0.2-0.1-0.4-0.1-0.5-0.2c-0.8-0.3-1.3-0.5-1.5-0.6c-0.5-0.3-0.8-1.4-0.8-2
		c0-0.6,0.2-0.9,0.5-1.1c0.3-0.2,0.5-0.5,0.4-0.8c-0.1-0.3-0.5-0.6-1.6-0.5c-0.8,0-1.4-0.3-1.9-0.9c-0.6-0.9-0.6-2.3-0.3-3.2
		c0.1-0.3,0.5-1.1,0.9-2.1c1.1-2.5,3.5-7.8,3.5-8.9c0-0.9-0.2-1.3-0.3-1.7c-0.1-0.3-0.2-0.5-0.2-0.9c0-14.8,9.9-25.2,24.1-25.2
		c9.6,0,17.7,3.1,22.6,8.9c4.5,5.1,6.3,12.1,5.2,20.3c-0.6,5.7-4.7,11.4-8.1,16c-1.1,1.5-2.1,2.9-2.9,4.2l1.1,8.6
		c0,0.2-0.1,0.5-0.4,0.5l-1.4,0.4c-4.3,1.3-21.5,6.6-22.4,7C258,206.5,257.9,206.5,257.9,206.5z M256.5,199c0.1,0,0.2,0,0.2,0.1
		c0.1,0.1,0.2,0.2,0.3,0.3l1.3,5.9c3.1-1,18-5.6,21.9-6.8l1-0.3l-1.1-8.3c0-0.1,0-0.2,0.1-0.3c0.8-1.3,1.9-2.8,3-4.4
		c3.3-4.5,7.3-10.1,7.9-15.5c1.1-7.9-0.6-14.6-4.9-19.5c-4.8-5.5-12.6-8.5-21.9-8.5c-13.6,0-23.1,9.9-23.1,24.2c0,0.2,0,0.3,0.1,0.6
		c0.1,0.4,0.3,0.9,0.4,2c0,1.3-1.7,5.3-3.6,9.4c-0.4,1-0.8,1.7-0.9,2c-0.2,0.6-0.2,1.6,0.2,2.2c0.2,0.3,0.6,0.5,1,0.5
		c1.9-0.1,2.4,0.8,2.5,1.2c0.2,0.7-0.1,1.4-0.8,1.9c-0.1,0.2,0.1,1.2,0.4,1.5c0.1,0.1,0.8,0.4,1.3,0.5c1,0.4,1.2,0.5,1.3,0.6
		c0.1,0.1,0.2,0.3,0.2,0.4c0,0.3-0.2,0.5-0.6,0.8c-0.2,0.2-0.5,0.4-0.6,0.6c-0.1,0.2,0.1,0.9,0.4,1.5c0.3,0.2,0.8,0.5,1.7,1.1
		c1.3,0.9,0.8,2.9,0.5,4.2c-0.1,0.4-0.2,0.8-0.2,0.9c0,0.7,1,3.3,3.8,3.3c2.9,0,7.9-1.9,8-1.9C256.4,199,256.4,199,256.5,199z"/>
</g>
<rect x="308.1" y="171.4" fill="none" width="10.5" height="15.4"/>
<text transform="matrix(1 0 0 1 308.1494 180.4946)" fill="#231F20" font-family="'AvenirNextCondensed-UltraLight'" font-size="12px">o</text>
<g>
	<path fill="#231F20" d="M668.7,156.1c-0.7,0.4-1.4,0.6-2.1,0.6c-0.9,0-1.7-0.2-2.3-0.7c-0.7-0.5-1.2-1.1-1.7-1.9
		c-0.4-0.8-0.8-1.7-1-2.8s-0.3-2.3-0.3-3.5c0-1.3,0.1-2.4,0.3-3.5c0.2-1.1,0.6-2,1-2.8c0.4-0.8,1-1.4,1.7-1.9
		c0.7-0.4,1.4-0.7,2.3-0.7c0.6,0,1.3,0.2,2,0.5c0.7,0.3,1.2,0.9,1.6,1.7l-0.4,0.3c-0.4-0.7-0.9-1.2-1.5-1.5
		c-0.6-0.3-1.1-0.5-1.7-0.5c-0.8,0-1.5,0.2-2.1,0.7c-0.6,0.4-1.1,1-1.5,1.8c-0.4,0.8-0.7,1.6-0.9,2.7c-0.2,1-0.3,2.1-0.3,3.3
		c0,1.2,0.1,2.3,0.3,3.3c0.2,1,0.5,1.9,0.9,2.7c0.4,0.8,0.9,1.4,1.5,1.8c0.6,0.4,1.3,0.7,2.1,0.7c0.6,0,1.2-0.2,1.9-0.6
		c0.6-0.4,1.1-1,1.5-1.8l0.4,0.3C670,155,669.4,155.7,668.7,156.1z"/>
	<path fill="#231F20" d="M682.3,147.8c0,1.3-0.1,2.5-0.3,3.6c-0.2,1.1-0.6,2-1,2.8c-0.4,0.8-1,1.4-1.6,1.8s-1.4,0.7-2.2,0.7
		s-1.5-0.2-2.2-0.7s-1.2-1.1-1.6-1.8c-0.4-0.8-0.8-1.7-1-2.8c-0.2-1.1-0.3-2.3-0.3-3.6s0.1-2.5,0.3-3.6c0.2-1.1,0.5-2,1-2.8
		c0.4-0.8,1-1.4,1.6-1.8c0.6-0.4,1.4-0.7,2.2-0.7c0.8,0,1.5,0.2,2.2,0.7s1.2,1.1,1.6,1.8c0.4,0.8,0.8,1.7,1,2.8
		C682.2,145.3,682.3,146.5,682.3,147.8z M681.8,147.8c0-1.2-0.1-2.3-0.3-3.3c-0.2-1-0.5-1.9-0.9-2.7c-0.4-0.8-0.9-1.3-1.4-1.8
		s-1.2-0.7-2-0.7c-0.8,0-1.5,0.2-2,0.7s-1.1,1-1.4,1.8c-0.4,0.8-0.7,1.6-0.9,2.7c-0.2,1-0.3,2.1-0.3,3.3c0,1.2,0.1,2.3,0.3,3.3
		c0.2,1,0.5,1.9,0.9,2.7c0.4,0.8,0.9,1.4,1.4,1.8s1.3,0.7,2,0.7c0.8,0,1.4-0.2,2-0.7s1.1-1,1.4-1.8c0.4-0.8,0.7-1.6,0.9-2.7
		C681.7,150,681.8,149,681.8,147.8z"/>
	<path fill="#231F20" d="M697.3,156.3v-16.4h0l-5.1,16.4h-0.6l-5.1-16.4h0v16.4h-0.5v-17h0.9l5.1,16.4h0l5.1-16.4h0.9v17H697.3z"/>
	<path fill="#231F20" d="M710.6,152.7c-0.1,0.8-0.4,1.5-0.7,2.1c-0.3,0.6-0.8,1.1-1.3,1.4c-0.6,0.3-1.3,0.5-2.1,0.5
		c-0.8,0-1.6-0.2-2.1-0.5s-1-0.8-1.3-1.4c-0.3-0.6-0.6-1.3-0.7-2.1c-0.1-0.8-0.2-1.7-0.2-2.6v-10.8h0.5v10.5c0,0.8,0,1.5,0.1,2.3
		c0.1,0.8,0.3,1.4,0.5,2.1c0.3,0.6,0.7,1.1,1.2,1.5c0.5,0.4,1.2,0.6,2,0.6c0.8,0,1.5-0.2,2-0.6s0.9-0.9,1.2-1.5
		c0.3-0.6,0.5-1.3,0.6-2c0.1-0.8,0.1-1.5,0.1-2.3v-10.5h0.5v10.8C710.8,151,710.7,151.9,710.6,152.7z"/>
	<path fill="#231F20" d="M722.7,156.3l-7.2-16.4h0v16.4H715v-17h0.9l7.1,16.3h0v-16.3h0.5v17H722.7z"/>
	<path fill="#231F20" d="M727.8,156.3v-17h0.5v17H727.8z"/>
	<path fill="#231F20" d="M739.3,156.1c-0.7,0.4-1.4,0.6-2.1,0.6c-0.9,0-1.7-0.2-2.3-0.7c-0.7-0.5-1.2-1.1-1.7-1.9
		c-0.4-0.8-0.8-1.7-1-2.8s-0.3-2.3-0.3-3.5c0-1.3,0.1-2.4,0.3-3.5c0.2-1.1,0.6-2,1-2.8c0.4-0.8,1-1.4,1.7-1.9
		c0.7-0.4,1.4-0.7,2.3-0.7c0.6,0,1.3,0.2,2,0.5c0.7,0.3,1.2,0.9,1.6,1.7l-0.4,0.3c-0.4-0.7-0.9-1.2-1.5-1.5
		c-0.6-0.3-1.1-0.5-1.7-0.5c-0.8,0-1.5,0.2-2.1,0.7c-0.6,0.4-1.1,1-1.5,1.8c-0.4,0.8-0.7,1.6-0.9,2.7c-0.2,1-0.3,2.1-0.3,3.3
		c0,1.2,0.1,2.3,0.3,3.3c0.2,1,0.5,1.9,0.9,2.7c0.4,0.8,0.9,1.4,1.5,1.8c0.6,0.4,1.3,0.7,2.1,0.7c0.6,0,1.2-0.2,1.9-0.6
		c0.6-0.4,1.1-1,1.5-1.8l0.4,0.3C740.6,155,740,155.7,739.3,156.1z"/>
	<path fill="#231F20" d="M749.3,151.4h-6l-1.3,4.8h-0.5l4.4-17h0.9l4.2,17h-0.5L749.3,151.4z M743.5,151h5.7l-2.8-11.3h-0.1
		L743.5,151z"/>
	<path fill="#231F20" d="M765,156.3v-16.4h0l-5.1,16.4h-0.6l-5.1-16.4h0v16.4h-0.5v-17h0.9l5.1,16.4h0l5.1-16.4h0.9v17H765z"/>
	<path fill="#231F20" d="M779.4,147.8c0,1.3-0.1,2.5-0.3,3.6c-0.2,1.1-0.6,2-1,2.8c-0.4,0.8-1,1.4-1.6,1.8c-0.6,0.4-1.4,0.7-2.2,0.7
		c-0.8,0-1.5-0.2-2.2-0.7c-0.6-0.4-1.2-1.1-1.6-1.8c-0.4-0.8-0.8-1.7-1-2.8c-0.2-1.1-0.3-2.3-0.3-3.6s0.1-2.5,0.3-3.6
		c0.2-1.1,0.5-2,1-2.8c0.4-0.8,1-1.4,1.6-1.8c0.6-0.4,1.4-0.7,2.2-0.7c0.8,0,1.5,0.2,2.2,0.7c0.6,0.4,1.2,1.1,1.6,1.8
		c0.4,0.8,0.8,1.7,1,2.8S779.4,146.5,779.4,147.8z M778.8,147.8c0-1.2-0.1-2.3-0.3-3.3c-0.2-1-0.5-1.9-0.9-2.7
		c-0.4-0.8-0.9-1.3-1.4-1.8c-0.6-0.4-1.2-0.7-2-0.7c-0.8,0-1.5,0.2-2,0.7s-1.1,1-1.4,1.8c-0.4,0.8-0.7,1.6-0.9,2.7
		c-0.2,1-0.3,2.1-0.3,3.3c0,1.2,0.1,2.3,0.3,3.3c0.2,1,0.5,1.9,0.9,2.7c0.4,0.8,0.9,1.4,1.4,1.8s1.3,0.7,2,0.7c0.8,0,1.4-0.2,2-0.7
		s1.1-1,1.4-1.8c0.4-0.8,0.7-1.6,0.9-2.7C778.7,150,778.8,149,778.8,147.8z"/>
	<path fill="#231F20" d="M789.5,152.3c0,0.7-0.1,1.3-0.3,1.9s-0.5,1-0.8,1.4c-0.4,0.4-0.8,0.6-1.2,0.8c-0.5,0.2-0.9,0.3-1.4,0.3
		c-0.8,0-1.5-0.2-2.2-0.5c-0.6-0.4-1.1-0.9-1.5-1.5l0.4-0.3c0.4,0.6,0.9,1.1,1.5,1.4c0.6,0.3,1.2,0.5,1.8,0.5c0.4,0,0.8-0.1,1.2-0.3
		c0.4-0.2,0.7-0.4,1-0.8c0.3-0.3,0.5-0.7,0.7-1.2c0.2-0.5,0.3-1,0.3-1.7c0-0.6-0.1-1.1-0.3-1.5c-0.2-0.4-0.4-0.8-0.8-1.2
		c-0.3-0.3-0.7-0.6-1-0.9c-0.4-0.3-0.8-0.5-1.2-0.7c-0.4-0.2-0.9-0.5-1.3-0.8c-0.4-0.3-0.8-0.6-1.1-1s-0.6-0.8-0.8-1.3
		c-0.2-0.5-0.3-1.1-0.3-1.7c0-0.7,0.1-1.3,0.3-1.9c0.2-0.5,0.5-1,0.8-1.3c0.4-0.4,0.8-0.6,1.2-0.8c0.5-0.2,1-0.3,1.5-0.3
		c0.7,0,1.3,0.1,1.8,0.4c0.6,0.3,1,0.7,1.4,1.3l-0.4,0.3c-0.4-0.6-0.8-1-1.2-1.2c-0.5-0.2-1-0.3-1.6-0.3c-0.4,0-0.8,0.1-1.2,0.2
		c-0.4,0.2-0.7,0.4-1.1,0.7c-0.3,0.3-0.6,0.7-0.8,1.2c-0.2,0.5-0.3,1.1-0.3,1.7c0,0.6,0.1,1.1,0.3,1.5s0.4,0.8,0.7,1.1
		c0.3,0.3,0.6,0.6,1,0.8c0.4,0.2,0.7,0.4,1.1,0.6c0.5,0.3,1,0.5,1.4,0.8c0.4,0.3,0.8,0.6,1.2,1c0.3,0.4,0.6,0.8,0.8,1.3
		C789.4,151.1,789.5,151.6,789.5,152.3z"/>
</g>
<g>
	<path fill="#231F20" d="M667.9,241.4h-6l-1.3,4.8h-0.5l4.4-17h0.9l4.2,17h-0.5L667.9,241.4z M662.1,240.9h5.7l-2.8-11.3h-0.1
		L662.1,240.9z"/>
	<path fill="#231F20" d="M678.7,246.1c-0.7,0.4-1.4,0.6-2.1,0.6c-0.9,0-1.7-0.2-2.3-0.7c-0.7-0.5-1.2-1.1-1.7-1.9
		c-0.4-0.8-0.8-1.7-1-2.8s-0.3-2.3-0.3-3.5c0-1.3,0.1-2.4,0.3-3.5c0.2-1.1,0.6-2,1-2.8c0.4-0.8,1-1.4,1.7-1.9
		c0.7-0.4,1.4-0.7,2.3-0.7c0.6,0,1.3,0.2,2,0.5c0.7,0.3,1.2,0.9,1.6,1.7l-0.4,0.3c-0.4-0.7-0.9-1.2-1.5-1.5
		c-0.6-0.3-1.1-0.5-1.7-0.5c-0.8,0-1.5,0.2-2.1,0.7c-0.6,0.4-1.1,1-1.5,1.8c-0.4,0.8-0.7,1.6-0.9,2.7c-0.2,1-0.3,2.1-0.3,3.3
		c0,1.2,0.1,2.3,0.3,3.3c0.2,1,0.5,1.9,0.9,2.7c0.4,0.8,0.9,1.4,1.5,1.8c0.6,0.4,1.3,0.7,2.1,0.7c0.6,0,1.2-0.2,1.9-0.6
		c0.6-0.4,1.1-1,1.5-1.8l0.4,0.3C680,245,679.4,245.7,678.7,246.1z"/>
	<path fill="#231F20" d="M692.3,237.8c0,1.3-0.1,2.5-0.3,3.6c-0.2,1.1-0.6,2-1,2.8c-0.4,0.8-1,1.4-1.6,1.8c-0.6,0.4-1.4,0.7-2.2,0.7
		c-0.8,0-1.5-0.2-2.2-0.7c-0.6-0.4-1.2-1.1-1.6-1.8c-0.4-0.8-0.8-1.7-1-2.8c-0.2-1.1-0.3-2.3-0.3-3.6s0.1-2.5,0.3-3.6
		c0.2-1.1,0.5-2,1-2.8c0.4-0.8,1-1.4,1.6-1.8c0.6-0.4,1.4-0.7,2.2-0.7c0.8,0,1.5,0.2,2.2,0.7c0.6,0.4,1.2,1.1,1.6,1.8
		c0.4,0.8,0.8,1.7,1,2.8S692.3,236.5,692.3,237.8z M691.8,237.8c0-1.2-0.1-2.3-0.3-3.3c-0.2-1-0.5-1.9-0.9-2.7
		c-0.4-0.8-0.9-1.3-1.4-1.8c-0.6-0.4-1.2-0.7-2-0.7c-0.8,0-1.5,0.2-2,0.7s-1.1,1-1.4,1.8c-0.4,0.8-0.7,1.6-0.9,2.7
		c-0.2,1-0.3,2.1-0.3,3.3c0,1.2,0.1,2.3,0.3,3.3c0.2,1,0.5,1.9,0.9,2.7c0.4,0.8,0.9,1.4,1.4,1.8s1.3,0.7,2,0.7c0.8,0,1.4-0.2,2-0.7
		s1.1-1,1.4-1.8c0.4-0.8,0.7-1.6,0.9-2.7C691.7,240,691.8,238.9,691.8,237.8z"/>
	<path fill="#231F20" d="M707.3,246.3v-16.4h0l-5.1,16.4h-0.6l-5.1-16.4h0v16.4h-0.5v-17h0.9l5.1,16.4h0l5.1-16.4h0.9v17H707.3z"/>
	<path fill="#231F20" d="M719.3,233.5c0,0.7-0.1,1.3-0.3,1.9c-0.2,0.6-0.5,1-0.8,1.4c-0.3,0.4-0.7,0.7-1.2,0.9
		c-0.4,0.2-0.9,0.3-1.4,0.3h-3v8.3h-0.5v-17h3.3c0.4,0,0.9,0.1,1.3,0.2c0.4,0.1,0.9,0.4,1.2,0.7c0.4,0.3,0.7,0.8,0.9,1.3
		C719.2,232,719.3,232.7,719.3,233.5z M718.8,233.5c0-0.7-0.1-1.3-0.3-1.7s-0.4-0.9-0.7-1.2c-0.3-0.3-0.6-0.5-1-0.6
		c-0.4-0.1-0.7-0.2-1.1-0.2h-3v7.7h3c0.4,0,0.7-0.1,1.1-0.2c0.4-0.2,0.7-0.4,1-0.7c0.3-0.3,0.5-0.7,0.7-1.2S718.8,234.2,718.8,233.5
		z"/>
	<path fill="#231F20" d="M727.3,241.4h-6l-1.3,4.8h-0.5l4.4-17h0.9l4.2,17h-0.5L727.3,241.4z M721.4,240.9h5.7l-2.8-11.3h-0.1
		L721.4,240.9z"/>
	<path fill="#231F20" d="M739.2,246.3l-7.2-16.4h0v16.4h-0.5v-17h0.9l7.1,16.3h0v-16.3h0.5v17H739.2z M735.8,226.2
		c0.2,0.1,0.4,0.2,0.5,0.3c0.1,0.1,0.2,0.1,0.3,0.2c0.1,0,0.2,0.1,0.2,0.1c0.1,0,0.1,0,0.2,0c0.3,0,0.4-0.1,0.6-0.3
		c0.1-0.2,0.2-0.5,0.3-0.9h0.4c0,0.6-0.2,1-0.4,1.2c-0.2,0.2-0.5,0.4-0.8,0.4c-0.2,0-0.4,0-0.6-0.1c-0.2-0.1-0.4-0.2-0.8-0.5
		c-0.4-0.3-0.6-0.4-0.8-0.5c-0.2-0.1-0.3-0.1-0.5-0.1c-0.3,0-0.4,0.1-0.6,0.3c-0.1,0.2-0.2,0.5-0.3,0.9h-0.4c0-0.6,0.2-1,0.4-1.3
		c0.2-0.3,0.5-0.4,0.8-0.4c0.2,0,0.4,0,0.6,0.1C735.2,225.8,735.5,225.9,735.8,226.2z"/>
	<path fill="#231F20" d="M750.2,241.4h-6l-1.3,4.8h-0.5l4.4-17h0.9l4.2,17h-0.5L750.2,241.4z M744.4,240.9h5.7l-2.8-11.3h-0.1
		L744.4,240.9z"/>
	<path fill="#231F20" d="M765.9,246.3v-16.4h0l-5.1,16.4h-0.6l-5.1-16.4h0v16.4h-0.5v-17h0.9l5.1,16.4h0l5.1-16.4h0.9v17H765.9z"/>
	<path fill="#231F20" d="M780.3,237.8c0,1.3-0.1,2.5-0.3,3.6c-0.2,1.1-0.6,2-1,2.8c-0.4,0.8-1,1.4-1.6,1.8c-0.6,0.4-1.4,0.7-2.2,0.7
		c-0.8,0-1.5-0.2-2.2-0.7c-0.6-0.4-1.2-1.1-1.6-1.8c-0.4-0.8-0.8-1.7-1-2.8c-0.2-1.1-0.3-2.3-0.3-3.6s0.1-2.5,0.3-3.6
		c0.2-1.1,0.5-2,1-2.8c0.4-0.8,1-1.4,1.6-1.8c0.6-0.4,1.4-0.7,2.2-0.7c0.8,0,1.5,0.2,2.2,0.7c0.6,0.4,1.2,1.1,1.6,1.8
		c0.4,0.8,0.8,1.7,1,2.8S780.3,236.5,780.3,237.8z M779.7,237.8c0-1.2-0.1-2.3-0.3-3.3c-0.2-1-0.5-1.9-0.9-2.7
		c-0.4-0.8-0.9-1.3-1.4-1.8c-0.6-0.4-1.2-0.7-2-0.7c-0.8,0-1.5,0.2-2,0.7s-1.1,1-1.4,1.8c-0.4,0.8-0.7,1.6-0.9,2.7
		c-0.2,1-0.3,2.1-0.3,3.3c0,1.2,0.1,2.3,0.3,3.3c0.2,1,0.5,1.9,0.9,2.7c0.4,0.8,0.9,1.4,1.4,1.8s1.3,0.7,2,0.7c0.8,0,1.4-0.2,2-0.7
		s1.1-1,1.4-1.8c0.4-0.8,0.7-1.6,0.9-2.7C779.6,240,779.7,238.9,779.7,237.8z"/>
	<path fill="#231F20" d="M790.4,242.3c0,0.7-0.1,1.3-0.3,1.9c-0.2,0.5-0.5,1-0.8,1.4c-0.4,0.4-0.8,0.6-1.2,0.8
		c-0.5,0.2-0.9,0.3-1.4,0.3c-0.8,0-1.5-0.2-2.2-0.5c-0.6-0.4-1.1-0.9-1.5-1.5l0.4-0.3c0.4,0.6,0.9,1.1,1.5,1.4
		c0.6,0.3,1.2,0.5,1.8,0.5c0.4,0,0.8-0.1,1.2-0.3c0.4-0.2,0.7-0.4,1-0.8c0.3-0.3,0.5-0.7,0.7-1.2c0.2-0.5,0.3-1,0.3-1.7
		c0-0.6-0.1-1.1-0.3-1.5c-0.2-0.4-0.4-0.8-0.8-1.2c-0.3-0.3-0.7-0.6-1-0.9c-0.4-0.3-0.8-0.5-1.2-0.7c-0.4-0.2-0.9-0.5-1.3-0.8
		c-0.4-0.3-0.8-0.6-1.1-1s-0.6-0.8-0.8-1.3c-0.2-0.5-0.3-1.1-0.3-1.7c0-0.7,0.1-1.3,0.3-1.9c0.2-0.5,0.5-1,0.8-1.3
		c0.4-0.4,0.8-0.6,1.2-0.8c0.5-0.2,1-0.3,1.5-0.3c0.7,0,1.3,0.1,1.8,0.4c0.6,0.3,1,0.7,1.4,1.3l-0.4,0.3c-0.4-0.6-0.8-1-1.2-1.2
		c-0.5-0.2-1-0.3-1.6-0.3c-0.4,0-0.8,0.1-1.2,0.2c-0.4,0.2-0.7,0.4-1.1,0.7s-0.6,0.7-0.8,1.2c-0.2,0.5-0.3,1.1-0.3,1.7
		c0,0.6,0.1,1.1,0.3,1.5s0.4,0.8,0.7,1.1c0.3,0.3,0.6,0.6,1,0.8c0.4,0.2,0.7,0.4,1.1,0.6c0.5,0.3,1,0.5,1.4,0.8s0.8,0.6,1.2,1
		c0.3,0.4,0.6,0.8,0.8,1.3C790.3,241,790.4,241.6,790.4,242.3z"/>
</g>
<g>
	<path fill="#231F20" d="M662,67.1v-17h0.5v17H662z"/>
	<path fill="#231F20" d="M674.5,67.1l-7.2-16.4h0v16.4h-0.5v-17h0.9l7.1,16.3h0V50.1h0.5v17H674.5z"/>
	<path fill="#231F20" d="M682.8,67.1H682l-4.2-17h0.5l4.1,16.5h0l4.1-16.5h0.5L682.8,67.1z"/>
	<path fill="#231F20" d="M689.5,67.1v-17h6.1v0.5h-5.6V58h5.3v0.5h-5.3v8.1h5.8v0.5H689.5z"/>
	<path fill="#231F20" d="M705.7,63.1c0,0.7-0.1,1.3-0.3,1.9c-0.2,0.5-0.5,1-0.8,1.4c-0.4,0.4-0.8,0.6-1.2,0.8
		c-0.5,0.2-0.9,0.3-1.4,0.3c-0.8,0-1.5-0.2-2.2-0.5c-0.6-0.4-1.1-0.9-1.5-1.5l0.4-0.3c0.4,0.6,0.9,1.1,1.5,1.4
		c0.6,0.3,1.2,0.5,1.8,0.5c0.4,0,0.8-0.1,1.2-0.3c0.4-0.2,0.7-0.4,1-0.8c0.3-0.3,0.5-0.7,0.7-1.2c0.2-0.5,0.3-1,0.3-1.7
		c0-0.6-0.1-1.1-0.3-1.5c-0.2-0.4-0.4-0.8-0.8-1.2c-0.3-0.3-0.7-0.6-1-0.9c-0.4-0.3-0.8-0.5-1.2-0.7c-0.4-0.2-0.9-0.5-1.3-0.8
		c-0.4-0.3-0.8-0.6-1.1-1s-0.6-0.8-0.8-1.3c-0.2-0.5-0.3-1.1-0.3-1.7c0-0.7,0.1-1.3,0.3-1.9c0.2-0.5,0.5-1,0.8-1.3
		c0.4-0.4,0.8-0.6,1.2-0.8c0.5-0.2,1-0.3,1.5-0.3c0.7,0,1.3,0.1,1.8,0.4c0.6,0.3,1,0.7,1.4,1.3l-0.4,0.3c-0.4-0.6-0.8-1-1.2-1.2
		c-0.5-0.2-1-0.3-1.6-0.3c-0.4,0-0.8,0.1-1.2,0.2c-0.4,0.2-0.7,0.4-1.1,0.7s-0.6,0.7-0.8,1.2c-0.2,0.5-0.3,1.1-0.3,1.7
		c0,0.6,0.1,1.1,0.3,1.5s0.4,0.8,0.7,1.1c0.3,0.3,0.6,0.6,1,0.8c0.4,0.2,0.7,0.4,1.1,0.6c0.5,0.3,1,0.5,1.4,0.8s0.8,0.6,1.2,1
		c0.3,0.4,0.6,0.8,0.8,1.3C705.5,61.9,705.7,62.4,705.7,63.1z"/>
	<path fill="#231F20" d="M710.7,50.6v16.5h-0.5V50.6h-3.4v-0.5h7.2v0.5H710.7z"/>
	<path fill="#231F20" d="M716.2,67.1v-17h0.5v17H716.2z"/>
	<path fill="#231F20" d="M720.8,58.5c0,1.2,0.1,2.4,0.3,3.4c0.2,1,0.5,1.9,1,2.6c0.4,0.7,1,1.3,1.6,1.7c0.6,0.4,1.4,0.6,2.2,0.6
		c1.3,0,2.3-0.4,3.1-1.2v-6.9h-2.9v-0.5h3.4V66c-0.4,0.4-0.9,0.7-1.5,1c-0.6,0.3-1.3,0.4-2.1,0.4c-0.9,0-1.7-0.2-2.4-0.6
		c-0.7-0.4-1.3-1-1.8-1.8s-0.8-1.7-1.1-2.8c-0.2-1.1-0.4-2.3-0.4-3.7c0-1.3,0.1-2.4,0.3-3.5c0.2-1.1,0.6-2,1-2.8
		c0.4-0.8,1-1.4,1.7-1.9c0.7-0.4,1.4-0.7,2.3-0.7c0.6,0,1.3,0.2,2,0.5s1.2,0.9,1.6,1.7l-0.4,0.3c-0.4-0.7-0.9-1.2-1.5-1.5
		s-1.1-0.5-1.7-0.5c-0.8,0-1.5,0.2-2.1,0.7s-1.1,1-1.5,1.8c-0.4,0.8-0.7,1.6-0.9,2.7C720.9,56.3,720.8,57.4,720.8,58.5z"/>
	<path fill="#231F20" d="M739.4,62.2h-6l-1.3,4.8h-0.5l4.4-17h0.9l4.2,17h-0.5L739.4,62.2z M733.6,61.7h5.7l-2.8-11.3h-0.1
		L733.6,61.7z"/>
	<path fill="#231F20" d="M755.1,67.1V50.7h0l-5.1,16.4h-0.6l-5.1-16.4h0v16.4h-0.5v-17h0.9l5.1,16.4h0l5.1-16.4h0.9v17H755.1z"/>
	<path fill="#231F20" d="M769.4,58.6c0,1.3-0.1,2.5-0.3,3.6c-0.2,1.1-0.6,2-1,2.8c-0.4,0.8-1,1.4-1.6,1.8s-1.4,0.7-2.2,0.7
		s-1.5-0.2-2.2-0.7s-1.2-1.1-1.6-1.8c-0.4-0.8-0.8-1.7-1-2.8c-0.2-1.1-0.3-2.3-0.3-3.6s0.1-2.5,0.3-3.6c0.2-1.1,0.5-2,1-2.8
		c0.4-0.8,1-1.4,1.6-1.8c0.6-0.4,1.4-0.7,2.2-0.7c0.8,0,1.5,0.2,2.2,0.7s1.2,1.1,1.6,1.8c0.4,0.8,0.8,1.7,1,2.8
		C769.3,56.1,769.4,57.3,769.4,58.6z M768.9,58.6c0-1.2-0.1-2.3-0.3-3.3c-0.2-1-0.5-1.9-0.9-2.7c-0.4-0.8-0.9-1.3-1.4-1.8
		s-1.2-0.7-2-0.7c-0.8,0-1.5,0.2-2,0.7s-1.1,1-1.4,1.8c-0.4,0.8-0.7,1.6-0.9,2.7c-0.2,1-0.3,2.1-0.3,3.3c0,1.2,0.1,2.3,0.3,3.3
		c0.2,1,0.5,1.9,0.9,2.7c0.4,0.8,0.9,1.4,1.4,1.8s1.3,0.7,2,0.7c0.8,0,1.4-0.2,2-0.7s1.1-1,1.4-1.8c0.4-0.8,0.7-1.6,0.9-2.7
		C768.8,60.8,768.9,59.7,768.9,58.6z"/>
	<path fill="#231F20" d="M779.6,63.1c0,0.7-0.1,1.3-0.3,1.9s-0.5,1-0.8,1.4c-0.4,0.4-0.8,0.6-1.2,0.8c-0.5,0.2-0.9,0.3-1.4,0.3
		c-0.8,0-1.5-0.2-2.2-0.5c-0.6-0.4-1.1-0.9-1.5-1.5l0.4-0.3c0.4,0.6,0.9,1.1,1.5,1.4c0.6,0.3,1.2,0.5,1.8,0.5c0.4,0,0.8-0.1,1.2-0.3
		c0.4-0.2,0.7-0.4,1-0.8c0.3-0.3,0.5-0.7,0.7-1.2c0.2-0.5,0.3-1,0.3-1.7c0-0.6-0.1-1.1-0.3-1.5c-0.2-0.4-0.4-0.8-0.8-1.2
		c-0.3-0.3-0.7-0.6-1-0.9c-0.4-0.3-0.8-0.5-1.2-0.7c-0.4-0.2-0.9-0.5-1.3-0.8c-0.4-0.3-0.8-0.6-1.1-1s-0.6-0.8-0.8-1.3
		c-0.2-0.5-0.3-1.1-0.3-1.7c0-0.7,0.1-1.3,0.3-1.9c0.2-0.5,0.5-1,0.8-1.3c0.4-0.4,0.8-0.6,1.2-0.8c0.5-0.2,1-0.3,1.5-0.3
		c0.7,0,1.3,0.1,1.8,0.4c0.6,0.3,1,0.7,1.4,1.3l-0.4,0.3c-0.4-0.6-0.8-1-1.2-1.2c-0.5-0.2-1-0.3-1.6-0.3c-0.4,0-0.8,0.1-1.2,0.2
		c-0.4,0.2-0.7,0.4-1.1,0.7c-0.3,0.3-0.6,0.7-0.8,1.2c-0.2,0.5-0.3,1.1-0.3,1.7c0,0.6,0.1,1.1,0.3,1.5s0.4,0.8,0.7,1.1
		c0.3,0.3,0.6,0.6,1,0.8c0.4,0.2,0.7,0.4,1.1,0.6c0.5,0.3,1,0.5,1.4,0.8c0.4,0.3,0.8,0.6,1.2,1c0.3,0.4,0.6,0.8,0.8,1.3
		C779.5,61.9,779.6,62.4,779.6,63.1z"/>
</g>
<g>
	<path fill="#231F20" d="M101.2,70v7.5h5.1V78h-5.1v8.6h-0.5v-17h6V70H101.2z"/>
	<path fill="#231F20" d="M109.6,86.5v-17h0.5v17H109.6z"/>
	<path fill="#231F20" d="M122.1,86.5l-7.2-16.4h0v16.4h-0.5v-17h0.9l7.1,16.3h0V69.5h0.5v17H122.1z"/>
	<path fill="#231F20" d="M133.2,81.7h-6l-1.3,4.8h-0.5l4.4-17h0.9l4.2,17h-0.5L133.2,81.7z M127.3,81.2h5.7l-2.8-11.3h-0.1
		L127.3,81.2z"/>
	<path fill="#231F20" d="M145.1,86.5l-7.2-16.4h0v16.4h-0.5v-17h0.9l7.1,16.3h0V69.5h0.5v17H145.1z"/>
	<path fill="#231F20" d="M156.9,86.3c-0.7,0.4-1.4,0.6-2.1,0.6c-0.9,0-1.7-0.2-2.3-0.7c-0.7-0.5-1.2-1.1-1.7-1.9s-0.8-1.7-1-2.8
		c-0.2-1.1-0.3-2.3-0.3-3.5c0-1.3,0.1-2.4,0.3-3.5c0.2-1.1,0.6-2,1-2.8c0.4-0.8,1-1.4,1.7-1.9c0.7-0.4,1.4-0.7,2.3-0.7
		c0.6,0,1.3,0.2,2,0.5c0.7,0.3,1.2,0.9,1.6,1.7l-0.4,0.3c-0.4-0.7-0.9-1.2-1.5-1.5c-0.6-0.3-1.1-0.5-1.7-0.5c-0.8,0-1.5,0.2-2.1,0.7
		c-0.6,0.4-1.1,1-1.5,1.8c-0.4,0.8-0.7,1.6-0.9,2.7c-0.2,1-0.3,2.1-0.3,3.3c0,1.2,0.1,2.3,0.3,3.3c0.2,1,0.5,1.9,0.9,2.7
		c0.4,0.8,0.9,1.4,1.5,1.8s1.3,0.7,2.1,0.7c0.6,0,1.2-0.2,1.9-0.6c0.6-0.4,1.1-1,1.5-1.8l0.4,0.3C158.2,85.3,157.6,86,156.9,86.3z"
		/>
	<path fill="#231F20" d="M161.2,86.5v-17h0.5v17H161.2z"/>
	<path fill="#231F20" d="M172,81.7h-6l-1.3,4.8h-0.5l4.4-17h0.9l4.2,17h-0.5L172,81.7z M166.1,81.2h5.7l-2.8-11.3H169L166.1,81.2z"
		/>
	<path fill="#231F20" d="M187.7,86.5V70.1h0l-5.1,16.4h-0.6l-5.1-16.4h0v16.4h-0.5v-17h0.9l5.1,16.4h0l5.1-16.4h0.9v17H187.7z"/>
	<path fill="#231F20" d="M192.5,86.5v-17h0.5v17H192.5z"/>
	<path fill="#231F20" d="M197.3,86.5v-17h6.1V70h-5.6v7.5h5.3V78h-5.3V86h5.8v0.5H197.3z"/>
	<path fill="#231F20" d="M214.5,86.5l-7.2-16.4h0v16.4h-0.5v-17h0.9l7.1,16.3h0V69.5h0.5v17H214.5z"/>
	<path fill="#231F20" d="M221.4,70v16.5h-0.5V70h-3.4v-0.5h7.2V70H221.4z"/>
	<path fill="#231F20" d="M236.1,78c0,1.3-0.1,2.5-0.3,3.6c-0.2,1.1-0.6,2-1,2.8c-0.4,0.8-1,1.4-1.6,1.8c-0.6,0.4-1.4,0.7-2.2,0.7
		c-0.8,0-1.5-0.2-2.2-0.7c-0.6-0.4-1.2-1.1-1.6-1.8c-0.4-0.8-0.8-1.7-1-2.8c-0.2-1.1-0.3-2.3-0.3-3.6s0.1-2.5,0.3-3.6s0.5-2,1-2.8
		c0.4-0.8,1-1.4,1.6-1.8s1.4-0.7,2.2-0.7c0.8,0,1.5,0.2,2.2,0.7c0.6,0.4,1.2,1.1,1.6,1.8c0.4,0.8,0.8,1.7,1,2.8
		C236,75.5,236.1,76.7,236.1,78z M235.6,78c0-1.2-0.1-2.3-0.3-3.3c-0.2-1-0.5-1.9-0.9-2.7c-0.4-0.8-0.9-1.3-1.4-1.8
		c-0.6-0.4-1.2-0.7-2-0.7c-0.8,0-1.5,0.2-2,0.7s-1.1,1-1.4,1.8c-0.4,0.8-0.7,1.6-0.9,2.7c-0.2,1-0.3,2.1-0.3,3.3
		c0,1.2,0.1,2.3,0.3,3.3c0.2,1,0.5,1.9,0.9,2.7c0.4,0.8,0.9,1.4,1.4,1.8s1.3,0.7,2,0.7c0.8,0,1.4-0.2,2-0.7s1.1-1,1.4-1.8
		c0.4-0.8,0.7-1.6,0.9-2.7C235.5,80.3,235.6,79.2,235.6,78z"/>
	<path fill="#231F20" d="M250.6,86.3c-0.7,0.4-1.4,0.6-2.1,0.6c-0.9,0-1.7-0.2-2.3-0.7c-0.7-0.5-1.2-1.1-1.7-1.9s-0.8-1.7-1-2.8
		c-0.2-1.1-0.3-2.3-0.3-3.5c0-1.3,0.1-2.4,0.3-3.5c0.2-1.1,0.6-2,1-2.8c0.4-0.8,1-1.4,1.7-1.9c0.7-0.4,1.4-0.7,2.3-0.7
		c0.6,0,1.3,0.2,2,0.5c0.7,0.3,1.2,0.9,1.6,1.7l-0.4,0.3c-0.4-0.7-0.9-1.2-1.5-1.5c-0.6-0.3-1.1-0.5-1.7-0.5c-0.8,0-1.5,0.2-2.1,0.7
		c-0.6,0.4-1.1,1-1.5,1.8c-0.4,0.8-0.7,1.6-0.9,2.7c-0.2,1-0.3,2.1-0.3,3.3c0,1.2,0.1,2.3,0.3,3.3c0.2,1,0.5,1.9,0.9,2.7
		c0.4,0.8,0.9,1.4,1.5,1.8s1.3,0.7,2.1,0.7c0.6,0,1.2-0.2,1.9-0.6c0.6-0.4,1.1-1,1.5-1.8l0.4,0.3C251.9,85.3,251.3,86,250.6,86.3z"
		/>
	<path fill="#231F20" d="M255,86.5v-17h0.5V86h5v0.5H255z"/>
	<path fill="#231F20" d="M262.7,86.5v-17h0.5v17H262.7z"/>
	<path fill="#231F20" d="M279,86.5V70.1h0l-5.1,16.4h-0.6l-5.1-16.4h0v16.4h-0.5v-17h0.9l5.1,16.4h0l5.1-16.4h0.9v17H279z"/>
	<path fill="#231F20" d="M289.8,81.7h-6l-1.3,4.8H282l4.4-17h0.9l4.2,17H291L289.8,81.7z M283.9,81.2h5.7l-2.8-11.3h-0.1L283.9,81.2
		z M286.8,68.2h-0.4l2.2-3.5h0.6L286.8,68.2z"/>
	<path fill="#231F20" d="M295.3,70v16.5h-0.5V70h-3.4v-0.5h7.2V70H295.3z"/>
	<path fill="#231F20" d="M300.7,86.5v-17h0.5v17H300.7z"/>
	<path fill="#231F20" d="M312.2,86.3c-0.7,0.4-1.4,0.6-2.1,0.6c-0.9,0-1.7-0.2-2.3-0.7c-0.7-0.5-1.2-1.1-1.7-1.9s-0.8-1.7-1-2.8
		c-0.2-1.1-0.3-2.3-0.3-3.5c0-1.3,0.1-2.4,0.3-3.5c0.2-1.1,0.6-2,1-2.8c0.4-0.8,1-1.4,1.7-1.9c0.7-0.4,1.4-0.7,2.3-0.7
		c0.6,0,1.3,0.2,2,0.5c0.7,0.3,1.2,0.9,1.6,1.7l-0.4,0.3c-0.4-0.7-0.9-1.2-1.5-1.5c-0.6-0.3-1.1-0.5-1.7-0.5c-0.8,0-1.5,0.2-2.1,0.7
		c-0.6,0.4-1.1,1-1.5,1.8c-0.4,0.8-0.7,1.6-0.9,2.7c-0.2,1-0.3,2.1-0.3,3.3c0,1.2,0.1,2.3,0.3,3.3c0.2,1,0.5,1.9,0.9,2.7
		c0.4,0.8,0.9,1.4,1.5,1.8s1.3,0.7,2.1,0.7c0.6,0,1.2-0.2,1.9-0.6c0.6-0.4,1.1-1,1.5-1.8l0.4,0.3C313.5,85.3,312.9,86,312.2,86.3z"
		/>
	<path fill="#231F20" d="M325.9,78c0,1.3-0.1,2.5-0.3,3.6c-0.2,1.1-0.6,2-1,2.8c-0.4,0.8-1,1.4-1.6,1.8c-0.6,0.4-1.4,0.7-2.2,0.7
		c-0.8,0-1.5-0.2-2.2-0.7c-0.6-0.4-1.2-1.1-1.6-1.8c-0.4-0.8-0.8-1.7-1-2.8c-0.2-1.1-0.3-2.3-0.3-3.6s0.1-2.5,0.3-3.6s0.5-2,1-2.8
		c0.4-0.8,1-1.4,1.6-1.8s1.4-0.7,2.2-0.7c0.8,0,1.5,0.2,2.2,0.7c0.6,0.4,1.2,1.1,1.6,1.8c0.4,0.8,0.8,1.7,1,2.8
		C325.7,75.5,325.9,76.7,325.9,78z M325.3,78c0-1.2-0.1-2.3-0.3-3.3c-0.2-1-0.5-1.9-0.9-2.7c-0.4-0.8-0.9-1.3-1.4-1.8
		c-0.6-0.4-1.2-0.7-2-0.7c-0.8,0-1.5,0.2-2,0.7s-1.1,1-1.4,1.8c-0.4,0.8-0.7,1.6-0.9,2.7c-0.2,1-0.3,2.1-0.3,3.3
		c0,1.2,0.1,2.3,0.3,3.3c0.2,1,0.5,1.9,0.9,2.7c0.4,0.8,0.9,1.4,1.4,1.8s1.3,0.7,2,0.7c0.8,0,1.4-0.2,2-0.7s1.1-1,1.4-1.8
		c0.4-0.8,0.7-1.6,0.9-2.7C325.2,80.3,325.3,79.2,325.3,78z"/>
</g>
</svg>
