<?xml version="1.0" encoding="utf-8"?>
<!-- Generator: Adobe Illustrator 19.1.0, SVG Export Plug-In . SVG Version: 6.00 Build 0)  -->
<svg version="1.1" id="Layer_1" xmlns="http://www.w3.org/2000/svg" xmlns:xlink="http://www.w3.org/1999/xlink" x="0px" y="0px"
	 viewBox="192 -10.3 640 160" enable-background="new 192 -10.3 640 160" xml:space="preserve">
<g>
	<g>
		
			<polygon fill="none" stroke="#000000" stroke-width="4" stroke-linecap="round" stroke-linejoin="round" stroke-miterlimit="10" points="
			345.8,115.7 330.2,120.1 334.6,104.6 368.1,71.2 379.2,82.3 		"/>
		
			<line fill="none" stroke="#000000" stroke-width="4" stroke-linejoin="round" stroke-miterlimit="10" x1="359.1" y1="80.1" x2="370.3" y2="91.2"/>
		
			<line fill="none" stroke="#000000" stroke-width="4" stroke-linecap="round" stroke-linejoin="round" stroke-miterlimit="10" x1="334.6" y1="104.6" x2="345.8" y2="115.7"/>
		
			<rect x="290" y="49" fill="none" stroke="#000000" stroke-width="4" stroke-linecap="round" stroke-linejoin="round" stroke-miterlimit="10" width="22.3" height="13.3"/>
		
			<rect x="290" y="71.2" fill="none" stroke="#000000" stroke-width="4" stroke-linecap="round" stroke-linejoin="round" stroke-miterlimit="10" width="22.3" height="13.3"/>
		
			<rect x="290" y="93.5" fill="none" stroke="#000000" stroke-width="4" stroke-linecap="round" stroke-linejoin="round" stroke-miterlimit="10" width="22.3" height="13.3"/>
		
			<polyline fill="none" stroke="#000000" stroke-width="4" stroke-linecap="round" stroke-linejoin="round" stroke-miterlimit="10" points="
			319,120.1 276.7,120.1 276.7,17.9 325.7,17.9 352.5,44.6 352.5,73.5 		"/>
		
			<polyline fill="none" stroke="#000000" stroke-width="4" stroke-linecap="round" stroke-linejoin="round" stroke-miterlimit="10" points="
			325.7,17.9 325.7,44.6 352.5,44.6 		"/>
		
			<polyline fill="none" stroke="#000000" stroke-width="4" stroke-linecap="round" stroke-linejoin="round" stroke-miterlimit="10" points="
			312.3,55.7 325.7,55.7 325.7,100.1 312.3,100.1 		"/>
		
			<line fill="none" stroke="#000000" stroke-width="4" stroke-linecap="round" stroke-linejoin="round" stroke-miterlimit="10" x1="325.7" y1="77.9" x2="336.8" y2="77.9"/>
		
			<line fill="none" stroke="#000000" stroke-width="4" stroke-linecap="round" stroke-linejoin="round" stroke-miterlimit="10" x1="312.3" y1="77.9" x2="323.5" y2="77.9"/>
	</g>
	<g>
		<g>
			<path fill="none" stroke="#000000" stroke-width="4" stroke-linecap="round" stroke-linejoin="round" stroke-miterlimit="10" d="
				M547.7,42c0,12.5-22.7,39.6-22.7,39.6S502.3,54.4,502.3,42c0-12.5,10.2-22.6,22.7-22.6C537.5,19.3,547.7,29.5,547.7,42z"/>
			<path fill="none" stroke="#000000" stroke-width="4" stroke-linecap="round" stroke-linejoin="round" stroke-miterlimit="10" d="
				M533.5,42c0,4.7-3.8,8.5-8.5,8.5s-8.5-3.8-8.5-8.5s3.8-8.5,8.5-8.5S533.5,37.3,533.5,42z"/>
		</g>
		
			<polyline fill="none" stroke="#000000" stroke-width="4" stroke-linecap="round" stroke-linejoin="round" stroke-miterlimit="10" points="
			547.1,37.1 560.2,37.1 569.2,121.6 480,121.6 488.9,37.1 502.8,37.1 		"/>
		
			<line fill="none" stroke="#000000" stroke-width="4" stroke-linecap="round" stroke-linejoin="round" stroke-miterlimit="10" x1="482.8" y1="94.9" x2="566.3" y2="94.9"/>
		
			<line fill="none" stroke="#000000" stroke-width="4" stroke-linecap="round" stroke-linejoin="round" stroke-miterlimit="10" x1="538.1" y1="63.8" x2="563" y2="63.8"/>
		
			<line fill="none" stroke="#000000" stroke-width="4" stroke-linecap="round" stroke-linejoin="round" stroke-miterlimit="10" x1="486.1" y1="63.8" x2="511.8" y2="63.8"/>
		
			<line fill="none" stroke="#000000" stroke-width="4" stroke-linecap="round" stroke-linejoin="round" stroke-miterlimit="10" x1="502.3" y1="121.6" x2="506.6" y2="54.9"/>
		
			<line fill="none" stroke="#000000" stroke-width="4" stroke-linecap="round" stroke-linejoin="round" stroke-miterlimit="10" x1="547.7" y1="121.6" x2="543.3" y2="54.9"/>
	</g>
	<g>
		<g>
			
				<line fill="none" stroke="#000000" stroke-width="4" stroke-linecap="round" stroke-linejoin="round" stroke-miterlimit="10" x1="722.8" y1="42.4" x2="747.3" y2="17.9"/>
			
				<line fill="none" stroke="#000000" stroke-width="4" stroke-linecap="round" stroke-linejoin="round" stroke-miterlimit="10" x1="644.8" y1="120.1" x2="669.2" y2="95.8"/>
			
				<polyline fill="none" stroke="#000000" stroke-width="4" stroke-linecap="round" stroke-linejoin="round" stroke-miterlimit="10" points="
				667.1,120.1 644.8,120.1 644.8,97.9 			"/>
			
				<polyline fill="none" stroke="#000000" stroke-width="4" stroke-linecap="round" stroke-linejoin="round" stroke-miterlimit="10" points="
				747.3,40.1 747.3,17.9 725,17.9 			"/>
			
				<line fill="none" stroke="#000000" stroke-width="4" stroke-linecap="round" stroke-linejoin="round" stroke-miterlimit="10" x1="722.8" y1="95.6" x2="747.3" y2="120.1"/>
			
				<line fill="none" stroke="#000000" stroke-width="4" stroke-linecap="round" stroke-linejoin="round" stroke-miterlimit="10" x1="644.8" y1="17.9" x2="669.2" y2="42.3"/>
			
				<polyline fill="none" stroke="#000000" stroke-width="4" stroke-linecap="round" stroke-linejoin="round" stroke-miterlimit="10" points="
				644.8,40.1 644.8,17.9 667.1,17.9 			"/>
			
				<polyline fill="none" stroke="#000000" stroke-width="4" stroke-linecap="round" stroke-linejoin="round" stroke-miterlimit="10" points="
				725,120.1 747.3,120.1 747.3,97.9 			"/>
		</g>
		<path fill="none" stroke="#000000" stroke-width="4" stroke-linecap="round" stroke-linejoin="round" stroke-miterlimit="10" d="
			M709.3,44.6c0,7.4-6,13.3-13.4,13.3s-13.4-6-13.4-13.3c0-7.4,6-13.3,13.4-13.3C703.3,31.2,709.3,37.2,709.3,44.6z"/>
		<path fill="none" stroke="#000000" stroke-width="4" stroke-linecap="round" stroke-linejoin="round" stroke-miterlimit="10" d="
			M716,66.8h-40.1c0,9.3,4.5,22.2,13.4,25.3v19.1h13.4V92.1C711.5,89,716,76.1,716,66.8z"/>
	</g>
	<g>
		<g>
			<line fill="none" stroke="#22D3C5" stroke-width="4" stroke-miterlimit="10" x1="430" y1="49.7" x2="430" y2="92.7"/>
			<line fill="none" stroke="#22D3C5" stroke-width="4" stroke-miterlimit="10" x1="409" y1="70.7" x2="451" y2="70.7"/>
		</g>
	</g>
	<line fill="none" stroke="#22D3C5" stroke-width="4" stroke-miterlimit="10" x1="616" y1="49.7" x2="616" y2="92.7"/>
	<line fill="none" stroke="#22D3C5" stroke-width="4" stroke-miterlimit="10" x1="595" y1="70.7" x2="637" y2="70.7"/>
</g>
</svg>
