<?xml version="1.0" encoding="utf-8"?>
<!-- Generator: Adobe Illustrator 19.1.0, SVG Export Plug-In . SVG Version: 6.00 Build 0)  -->
<svg version="1.1" id="Layer_1" xmlns="http://www.w3.org/2000/svg" xmlns:xlink="http://www.w3.org/1999/xlink" x="0px" y="0px"
	 viewBox="192 -10.3 640 160" enable-background="new 192 -10.3 640 160" xml:space="preserve">
<g>
	<g>
		
			<polygon fill="none" stroke="#000000" stroke-width="4" stroke-linecap="round" stroke-linejoin="round" stroke-miterlimit="10" points="
			571.8,27.6 571.8,80.9 538.4,80.9 500.5,80.9 500.5,27.6 		"/>
		<path fill="none" stroke="#000000" stroke-width="4" stroke-linecap="round" stroke-linejoin="round" stroke-miterlimit="10" d="
			M491.6,89.8V25.4c0-3.7,3-6.7,6.7-6.7H574c3.7,0,6.7,3,6.7,6.7v64.4"/>
		<path fill="none" stroke="#000000" stroke-width="4" stroke-linecap="round" stroke-linejoin="round" stroke-miterlimit="10" d="
			M545.1,89.8v4.4h-17.8v-4.4h-40.1v8.9c0,2.5,2,4.4,4.5,4.4h89.2c2.5,0,4.5-2,4.5-4.4v-8.9H545.1z"/>
		
			<line fill="none" stroke="#000000" stroke-width="4" stroke-linecap="round" stroke-linejoin="round" stroke-miterlimit="10" x1="487.2" y1="120.9" x2="585" y2="120.9"/>
		
			<line fill="none" stroke="#000000" stroke-width="4" stroke-linecap="round" stroke-linejoin="round" stroke-miterlimit="10" x1="536.1" y1="120.9" x2="536.1" y2="103.2"/>
		<path fill="none" stroke="#000000" stroke-width="4" stroke-linecap="round" stroke-linejoin="round" stroke-miterlimit="10" d="
			M558.4,43.2c0,3.7-3,6.7-6.7,6.7s-6.7-3-6.7-6.7s3-6.7,6.7-6.7S558.4,39.5,558.4,43.2z"/>
		<path fill="none" stroke="#000000" stroke-width="4" stroke-linecap="round" stroke-linejoin="round" stroke-miterlimit="10" d="
			M558.4,65.4c0,3.7-3,6.7-6.7,6.7s-6.7-3-6.7-6.7s3-6.7,6.7-6.7S558.4,61.7,558.4,65.4z"/>
		<path fill="none" stroke="#000000" stroke-width="4" stroke-linecap="round" stroke-linejoin="round" stroke-miterlimit="10" d="
			M527.2,54.3c0,3.7-3,6.7-6.7,6.7s-6.7-3-6.7-6.7s3-6.7,6.7-6.7S527.2,50.6,527.2,54.3z"/>
		
			<line fill="none" stroke="#000000" stroke-width="4" stroke-linejoin="round" stroke-miterlimit="10" x1="526.6" y1="51.4" x2="545.2" y2="44.1"/>
		
			<line fill="none" stroke="#000000" stroke-width="4" stroke-linejoin="round" stroke-miterlimit="10" x1="526.6" y1="57.1" x2="545.2" y2="64.5"/>
	</g>
	<g>
		<path fill="none" stroke="#000000" stroke-width="4" stroke-linecap="round" stroke-linejoin="round" stroke-miterlimit="10" d="
			M696.5,98.7h-13.4c-4.9,0-8.9-4-8.9-8.9v-60"/>
		<path fill="none" stroke="#000000" stroke-width="4" stroke-linecap="round" stroke-linejoin="round" stroke-miterlimit="10" d="
			M741,18.7h-58c-4.9,0-8.9,4-8.9,8.9s4,8.9,8.9,8.9h58v62.2h-17.8"/>
		<g>
			
				<line fill="none" stroke="#000000" stroke-width="4" stroke-linecap="round" stroke-linejoin="round" stroke-miterlimit="10" x1="709.8" y1="69.8" x2="709.8" y2="120.9"/>
			
				<line fill="none" stroke="#000000" stroke-width="4" stroke-linecap="round" stroke-linejoin="round" stroke-miterlimit="10" x1="709.8" y1="69.8" x2="709.8" y2="120.9"/>
		</g>
		
			<polyline fill="none" stroke="#000000" stroke-width="4" stroke-linecap="round" stroke-linejoin="round" stroke-miterlimit="10" points="
			721,109.8 709.8,120.9 698.7,109.8 		"/>
		
			<line fill="none" stroke="#000000" stroke-width="4" stroke-linecap="round" stroke-linejoin="round" stroke-miterlimit="10" x1="683.1" y1="27.6" x2="736.6" y2="27.6"/>
	</g>
	<g>
		<path fill="none" stroke="#000000" stroke-width="4" stroke-linecap="round" stroke-linejoin="round" stroke-miterlimit="10" d="
			M385.5,111.8c0,4.9-4,8.9-8.9,8.9h-84.7c-4.9,0-8.9-4-8.9-8.9V27.4c0-4.9,4-8.9,8.9-8.9h84.7c4.9,0,8.9,4,8.9,8.9L385.5,111.8
			L385.5,111.8z"/>
		
			<line fill="none" stroke="#000000" stroke-width="4" stroke-linecap="round" stroke-linejoin="round" stroke-miterlimit="10" x1="283" y1="40.7" x2="385.5" y2="40.7"/>
		
			<rect x="340.9" y="54.1" fill="none" stroke="#000000" stroke-width="4" stroke-linecap="round" stroke-linejoin="round" stroke-miterlimit="10" width="31.2" height="22.2"/>
		
			<rect x="340.9" y="85.2" fill="none" stroke="#000000" stroke-width="4" stroke-linecap="round" stroke-linejoin="round" stroke-miterlimit="10" width="31.2" height="22.2"/>
		
			<rect x="296.3" y="54.1" fill="none" stroke="#000000" stroke-width="4" stroke-linecap="round" stroke-linejoin="round" stroke-miterlimit="10" width="31.2" height="35.5"/>
		
			<ellipse fill="none" stroke="#000000" stroke-width="4" stroke-linecap="round" stroke-linejoin="round" stroke-miterlimit="10" cx="311.9" cy="69.6" rx="6.7" ry="6.7"/>
		<path fill="none" stroke="#000000" stroke-width="4" stroke-linecap="round" stroke-linejoin="round" stroke-miterlimit="10" d="
			M323.1,89.6h-22.3c0-7.4,5-13.3,11.1-13.3C318.1,76.3,323.1,82.3,323.1,89.6z"/>
		
			<line fill="none" stroke="#000000" stroke-width="4" stroke-linecap="round" stroke-linejoin="round" stroke-miterlimit="10" x1="298.6" y1="98.5" x2="316.4" y2="98.5"/>
		
			<line fill="none" stroke="#000000" stroke-width="4" stroke-linecap="round" stroke-linejoin="round" stroke-miterlimit="10" x1="298.6" y1="107.4" x2="316.4" y2="107.4"/>
		<path fill="none" stroke="#000000" stroke-width="4" stroke-linecap="round" stroke-linejoin="round" stroke-miterlimit="10" d="
			M300.8,29.6c0,1.2-1,2.2-2.2,2.2s-2.2-1-2.2-2.2s1-2.2,2.2-2.2S300.8,28.4,300.8,29.6z"/>
		<path fill="none" stroke="#000000" stroke-width="4" stroke-linecap="round" stroke-linejoin="round" stroke-miterlimit="10" d="
			M314.2,29.6c0,1.2-1,2.2-2.2,2.2s-2.2-1-2.2-2.2s1-2.2,2.2-2.2S314.2,28.4,314.2,29.6z"/>
		<path fill="none" stroke="#000000" stroke-width="4" stroke-linecap="round" stroke-linejoin="round" stroke-miterlimit="10" d="
			M327.5,29.6c0,1.2-1,2.2-2.2,2.2s-2.2-1-2.2-2.2s1-2.2,2.2-2.2S327.5,28.4,327.5,29.6z"/>
	</g>
	<g>
		<g>
			<line fill="none" stroke="#22D3C5" stroke-width="4" stroke-miterlimit="10" x1="439" y1="47.7" x2="439" y2="89.7"/>
			<line fill="none" stroke="#22D3C5" stroke-width="4" stroke-miterlimit="10" x1="418" y1="69.7" x2="460" y2="69.7"/>
		</g>
	</g>
	<g>
		<g>
			<line fill="none" stroke="#22D3C5" stroke-width="4" stroke-miterlimit="10" x1="628" y1="47.7" x2="628" y2="89.7"/>
			<line fill="none" stroke="#22D3C5" stroke-width="4" stroke-miterlimit="10" x1="606" y1="69.7" x2="649" y2="69.7"/>
		</g>
	</g>
</g>
</svg>
