<?xml version="1.0" encoding="utf-8"?>
<!-- Generator: Adobe Illustrator 19.1.0, SVG Export Plug-In . SVG Version: 6.00 Build 0)  -->
<svg version="1.1" id="Layer_1" xmlns="http://www.w3.org/2000/svg" xmlns:xlink="http://www.w3.org/1999/xlink" x="0px" y="0px"
	 viewBox="-319 161 640 480" style="enable-background:new -319 161 640 480;" xml:space="preserve">
<style type="text/css">
	.st0{fill:#22D3C5;}
</style>
<g>
	<g>
		<path d="M43.7,240.8c0,0.8-0.7,1.5-1.5,1.5H29.9c-0.8,0-1.5-0.7-1.5-1.5v-24.4c0-0.8,0.7-1.5,1.5-1.5h12.2c0.8,0,1.5,0.7,1.5,1.5
			V240.8z M31.4,239.2h9.1v-21.3h-9.1V239.2z"/>
	</g>
	<g>
		<path d="M2.9,246.3c-4.9,0-9.3-2.1-18.7-6.8c-4.4-2.2-9.9-5-17.2-8.4c-0.5-0.2-0.8-0.6-0.9-1.1s0.1-1,0.5-1.4
			c3.8-3.5,7-4.5,11.2-3.4l14.5,4.5c0.8,0.2,1.3,1.1,1,1.9c-0.2,0.8-1.1,1.3-1.9,1l-14.5-4.5c-2.5-0.7-4.3-0.3-6.5,1.2
			c6.3,3,11.1,5.4,15.1,7.4c16.1,8.1,16.1,8.1,32.9,2.6c3-1,6.6-2.1,10.8-3.5c0.8-0.2,1.7,0.2,1.9,1c0.2,0.8-0.2,1.7-1,1.9
			c-4.2,1.3-7.7,2.5-10.7,3.5C11.5,244.9,7,246.3,2.9,246.3z"/>
	</g>
	<g>
		<path d="M13.5,233.1h-18c-3.6,0-5.4-2.3-5.4-4.6c0-2.3,1.9-4.6,5.4-4.6h9.2c2.4,0,7.9-6.1,15.3-6.1h9.8c0.8,0,1.5,0.7,1.5,1.5
			c0,0.8-0.7,1.5-1.5,1.5H20c-6.8,0-11.8,4-13.7,5.7c-0.3,0.3-0.7,0.4-1,0.4h-9.8c-1.6,0-2.4,0.8-2.4,1.5s0.7,1.5,2.4,1.5h18
			c0.8,0,1.5,0.7,1.5,1.5S14.4,233.1,13.5,233.1z"/>
	</g>
	<g>
		<path d="M-14.6,222.1c-0.3,0-0.5-0.1-0.7-0.2c-8.4-4.7-13.6-13.2-13.6-22.3c0-14.3,12.4-25.9,27.7-25.9s27.7,11.6,27.7,25.9
			c0,4.1-1,8-3,11.7c-0.4,0.7-1.3,1-2.1,0.6c-0.7-0.4-1-1.3-0.6-2.1c1.7-3.2,2.6-6.6,2.6-10.2c0-12.6-11-22.9-24.6-22.9
			s-24.6,10.3-24.6,22.9c0,8,4.6,15.5,12,19.6c0.7,0.4,1,1.3,0.6,2.1C-13.6,221.8-14.1,222.1-14.6,222.1z"/>
	</g>
	<g>
		<path d="M1,218.1c-4.8,0-7.8-2.1-8.3-5.8c-0.8-0.4-1.9-1-3-2c-0.7-0.7-1.1-1.4-1-2.1c0-1.1,0.8-1.7,1.3-2.2
			c-0.2-0.2-0.5-0.5-0.7-0.7c-1.8-1.8-4.1-4-4.1-6.3c0-1,0.4-1.8,1.1-2.5c0.5-0.4,1.1-0.5,1.7-0.3c0.5,0.2,1.1,0.3,1.5,0.3
			c0.4-1.5,0.9-2.5,1.3-3.2c-1.2-0.6-3.3-1.2-5.4-0.7c-0.3,0.1-0.7,0-1-0.1c-5.2-2.4-6.5-8.8-6.5-9c-0.2-0.8,0.4-1.6,1.2-1.8
			c0.8-0.2,1.6,0.4,1.8,1.2c0,0,1,4.7,4.4,6.6c4-0.7,8,1.2,9,2.5c0.4,0.5,0.5,1.3,0.3,1.8c-0.2,0.4-0.6,0.7-1.1,0.9
			c-0.3,0.5-0.9,1.9-1.3,3.2c-0.1,0.3-0.2,0.5-0.4,0.7c-1,1-2.4,1-3.5,0.8c0.4,1.1,2.2,2.8,3,3.6c1.3,1.3,2,2,2,2.9
			c0,1.1-0.8,1.8-1.4,2.2l0,0c1.4,1.2,2.6,1.6,2.6,1.6c0.6,0.2,1.1,0.8,1.1,1.5c0,0.9,0,3.7,5,3.8c0.7-0.6,2.1-3.1,2.2-3.8
			c0-0.1-0.2-0.5-0.4-0.8c-0.3-0.6-0.8-1.4-0.8-2.3c0-1.3,1.2-2.7,2.3-3.9c0.1-1.3,0.5-2.3,1.3-3c1.4-1.3,3.4-1.2,5.4-1.1
			c0.5,0,1.1,0.1,1.7,0.1c1.8,0,1.9-2.4,1.9-2.7c0-0.2-0.1-6.2-4.4-7c-2.7-0.5-3.7-0.2-3.9,0c-0.1,0.3-0.2,0.5-0.4,0.7
			c-2.2,2-5.5,1.3-7.9,0.8c-0.9-0.2-1.7-0.4-2.2-0.4c-0.8,0-1.4-0.5-1.5-1.3c-0.6-4.2-0.3-6.8,0.9-7.8c0.7-0.5,1.5-0.6,2.3-0.2
			c0.7,0.3,1.4,0.4,1.9,0.2c0.4-0.2,0.5-0.7,0.5-1.1c0.1-0.8-3.6-2.7-8.7-3.7c-0.8-0.2-1.4-1-1.2-1.8c0.2-0.8,0.9-1.4,1.8-1.2
			c3.5,0.7,11.6,2.7,11.1,6.9c-0.2,1.5-0.9,2.7-2.1,3.4c-1.1,0.6-2.5,0.7-3.9,0.3c-0.1,0.8-0.1,2,0.1,3.3c0.5,0.1,1,0.2,1.5,0.3
			c1.7,0.4,3.8,0.8,4.9,0.2c0.1-0.3,0.4-0.7,0.8-1c1.2-1,3.4-1.2,6.5-0.6c5.5,1,6.9,7,6.9,10c0,2-1,5.8-4.9,5.8
			c-0.6,0-1.2,0-1.8-0.1c-1.3-0.1-2.7-0.1-3.1,0.3c-0.2,0.2-0.3,0.7-0.3,1.4c0,0.4-0.2,0.8-0.5,1.1c-0.8,0.8-1.7,1.8-1.8,2.2
			c0,0,0.3,0.5,0.4,0.7c0.3,0.6,0.7,1.4,0.7,2.3C6,212.8,3.5,218.1,1,218.1z"/>
	</g>
</g>
<g>
	<g>
		<path d="M11.2,598.3c-2.3,0-4.8-1.2-7.8-3.5c-4.6,0.9-8,0.4-10-1.7c-2-2-2.5-5.1-1.5-9.1l0,0c1-4.2,3.9-7,6.9-9.9
			c2.7-2.5,5.4-5.1,7-9c0.2-0.4,0.5-0.7,1-0.9c0.4-0.1,0.9,0,1.3,0.2c7.3,5.2,12.1,19,10.5,25.9c-1,4.2-2.8,6.7-5.4,7.6
			C12.4,598.2,11.9,598.3,11.2,598.3z M3.7,591.6c0.4,0,0.7,0.1,1,0.4c3.1,2.6,5.7,3.7,7.4,3.1c1.9-0.6,2.9-3.3,3.4-5.4
			c1.3-5.3-2.4-16.4-7.8-21.5c-1.9,3.5-4.5,6-6.9,8.2c-2.8,2.7-5.2,5-6.1,8.4c-0.4,1.7-0.8,4.7,0.7,6.2c1.3,1.3,4.1,1.6,7.9,0.7
			C3.5,591.6,3.7,591.6,3.7,591.6z"/>
	</g>
	<g>
		<path d="M12.9,620.2H-2.3c-0.8,0-1.5-0.7-1.5-1.5s0.7-1.5,1.5-1.5h15.2c0.8,0,1.5,0.7,1.5,1.5S13.9,620.2,12.9,620.2z"/>
	</g>
	<g>
		<path d="M12.9,626.3H-2.3c-0.8,0-1.5-0.7-1.5-1.5s0.7-1.5,1.5-1.5h15.2c0.8,0,1.5,0.7,1.5,1.5S13.9,626.3,12.9,626.3z"/>
	</g>
	<g>
		<path d="M5.4,628.2c-0.8,0-1.5-0.7-1.5-1.5v-3c0-0.8,0.7-1.5,1.5-1.5s1.5,0.7,1.5,1.5v3C6.9,627.5,6.2,628.2,5.4,628.2z"/>
	</g>
	<g>
		<path d="M5.4,613c-0.7,0-1.3-0.5-1.5-1.2c-0.2-1-4.8-24.7,1.8-35.1c0.4-0.7,1.4-0.9,2.1-0.5c0.7,0.4,0.9,1.4,0.5,2.1
			c-5.9,9.5-1.4,32.7-1.4,32.9c0.2,0.8-0.4,1.6-1.2,1.8C5.5,613,5.4,613,5.4,613z"/>
	</g>
	<g>
		<path d="M12.9,614.1H-2.3c-0.8,0-2.9-1.8-2.9-2.7v-2.9c-9.1-3.7-19.1-14.2-19.1-26c0-15.1,13.3-27.4,29.3-27.4
			s28.5,12.3,28.5,27.4c0,11.8-8.1,22.3-20.3,26v2.9C13.2,612.2,13.9,614.1,12.9,614.1z M-2.1,611h12.2v-3.7c0-0.7,1.1-1.3,1.8-1.5
			c11-3,19-12.6,19-23.4C30.9,569,19.4,558,5.2,558c-14.3,0-25.8,10.9-25.8,24.4c0,10.8,7.1,20.4,18.1,23.4c0.7,0.2,0.5,0.8,0.5,1.5
			v3.7H-2.1z"/>
	</g>
</g>
<g>
	<g>
		<path d="M-2.3,308.9c-0.8,0-1.5-0.7-1.5-1.5v-3c0-0.8,0.7-1.5,1.5-1.5s1.5,0.7,1.5,1.5v3C-0.8,308.4-1.4,308.9-2.3,308.9z"/>
	</g>
	<g>
		<path d="M-20.6,315c-0.4,0-0.8-0.1-1.1-0.4l-3-3c-0.6-0.6-0.6-1.6,0-2.2s1.6-0.6,2.2,0l3,3c0.6,0.6,0.6,1.6,0,2.2
			C-19.8,314.9-20.2,315-20.6,315z"/>
	</g>
	<g>
		<path d="M16,315c-0.4,0-0.8-0.1-1.1-0.4c-0.6-0.6-0.6-1.6,0-2.2l3-3c0.6-0.6,1.6-0.6,2.2,0s0.6,1.6,0,2.2l-3,3
			C16.7,314.9,16.4,315,16,315z"/>
	</g>
	<g>
		<path d="M-26.7,333.4h-3c-0.8,0-1.5-0.7-1.5-1.5c0-0.8,0.7-1.5,1.5-1.5h3c0.8,0,1.5,0.7,1.5,1.5
			C-25.2,332.6-25.8,333.4-26.7,333.4z"/>
	</g>
	<g>
		<path d="M-19.6,339.2c-0.6,0-1.2-0.4-1.4-1c-0.7-2.1-1.1-4.3-1.1-6.5c0-10.9,8.9-19.8,19.8-19.8c5.6,0,11,2.4,14.8,6.7
			c0.6,0.6,0.5,1.6-0.1,2.2c-0.6,0.6-1.6,0.5-2.2-0.1C7,317.1,2.4,315-2.3,315c-9.2,0-16.8,7.5-16.8,16.8c0,1.9,0.3,3.7,0.9,5.5
			c0.3,0.8-0.1,1.7-0.9,1.9C-19.3,339.2-19.3,339.2-19.6,339.2z"/>
	</g>
	<g>
		<path d="M40.4,361.1h-64c-0.5,0-1-0.5-1.3-0.9c-0.3-0.5-0.3-1.1,0-1.6l15.2-27.3c0.3-0.5,0.8-0.7,1.3-0.7h33.5
			c0.6,0,1.1,0.1,1.3,0.6l15.2,27.3c0.3,0.5,0.3,1.2,0,1.6C41.4,360.8,40.9,361.1,40.4,361.1z M-21.1,358h58.8l-13.5-24.3H-7.5
			L-21.1,358z"/>
	</g>
	<g>
		<path d="M13.2,374.8c0,0.8-0.7,1.5-1.5,1.5H2.6c-0.8,0-1.5-0.7-1.5-1.5v-15.2c0-0.8,0.7-1.5,1.5-1.5h9.1c0.8,0,1.5,0.7,1.5,1.5
			V374.8z M3.9,373.3H10v-12.2H3.9V373.3z"/>
	</g>
	<g>
		<path d="M-3.8,360.9c-0.1,0-0.2,0-0.3,0c-0.8-0.2-1.3-1-1.2-1.8l6.1-27.4c0.2-0.8,1-1.3,1.8-1.2c0.8,0.2,1.3,1,1.2,1.8l-6.1,27.4
			C-2.4,360.4-3.2,360.9-3.8,360.9z"/>
	</g>
	<g>
		<path d="M20.5,360.9c-0.7,0-1.3-0.5-1.5-1.2l-6.1-27.5c-0.2-0.8,0.3-1.6,1.2-1.8c0.8-0.2,1.6,0.3,1.8,1.2l6.1,27.4
			c0.2,0.8-0.3,1.6-1.2,1.8C20.9,360.8,20.7,360.9,20.5,360.9z"/>
	</g>
	<g>
		<rect x="-14.3" y="339.9" width="45.7" height="3"/>
	</g>
	<g>
		<rect x="-17.3" y="348.9" width="51.8" height="3"/>
	</g>
</g>
<g>
	<g>
		<path d="M-26.8,486.1c-0.8,0-1.5-0.3-2.1-0.9c-0.7-0.8-0.7-1.7-0.7-2.3c0-6.5,2.1-11.3,6.2-14.4c6.7-5,17.1-4.5,24.6-2.4L0.4,469
			c-6.5-1.9-16.2-2.5-21.9,1.9c-3.3,2.5-5,6.4-5,11.7v0.4l26.6-9.9l1.1,2.9l-27,10C-26.3,486-26.6,486.1-26.8,486.1z"/>
	</g>
	<g>
		<path d="M11.2,466.9l-2.7-1.5c1.6-2.8,6.5-12.4,3.6-19.9c-1.4-3.6-4.4-6.3-9.1-7.9l-0.4-0.2c0,0-0.8,0-0.8-0.1
			c-0.1,0.1-1,0.2-1,0.2v30.2h-3v-30.5c0-1.4,2.1-2.5,2.9-2.8c1-0.4,2.2-0.1,2.7,0.1c5.8,2,9.6,5.3,11.3,9.8
			C18,452.9,13.4,462.9,11.2,466.9z"/>
	</g>
	<g>
		<path d="M26.4,488.9c-0.2,0-0.4,0-0.6,0c-7.7-0.3-14-6.5-17.1-10.2l2.3-2c2.8,3.3,8.4,8.8,14.9,9.1c3.6,0.2,7.1-1.4,10.3-4.7
			l0.3-0.3L9.4,468.4l1.3-2.8l27.5,12.6c1.1,0.5,1.7,1.5,1.7,2.7c0,1.1-0.7,1.7-1.1,2.1C34.7,487,30.7,488.9,26.4,488.9z"/>
	</g>
	<g>
		<path d="M40.4,507.4h-70c-0.8,0-1.5-0.7-1.5-1.5c0-0.8,0.7-1.5,1.5-1.5h70c0.8,0,1.5,0.7,1.5,1.5
			C41.9,506.8,41.2,507.4,40.4,507.4z"/>
	</g>
	<g>
		<path d="M9.9,507.4H0.8c-0.8,0-2.8-0.9-2.8-1.7v-39.4c0-3.4,2.7-6.1,6.1-6.1c3.4,0,6.1,2.7,6.1,6.1v39.4
			C10,506.5,10.7,507.4,9.9,507.4z M0.9,504.4H7v-38.1c0-1.7-1.4-3-3-3s-3,1.4-3,3L0.9,504.4L0.9,504.4z"/>
	</g>
</g>
<g>
	<path class="st0" d="M-50.9,602h-58.1c-21.4,0-40.8-19-40.8-40V242c0-20,18.3-36.2,40.8-36.2h58.1v3h-58.1
		c-23.3,0-37.8,17.2-37.8,33.2v320c0,19,18.4,36.9,37.8,36.9h58.1V602z"/>
</g>
<g>
	<path class="st0" d="M118,602h-59v-3h59c20.2,0,30.8-18.6,30.8-36.9v-320c0-20.2-12.1-33.2-30.8-33.2h-59v-3h59
		c20.2,0,33.9,14.6,33.9,36.2v320C151.8,581.8,140.2,602,118,602z"/>
</g>
<g>
	<g>
		<rect x="3.9" y="522.6" class="st0" width="3" height="15.2"/>
	</g>
	<g>
		<rect x="-2.1" y="528.8" class="st0" width="15.2" height="3"/>
	</g>
</g>
<g>
	<g>
		<rect x="3.9" y="391.6" class="st0" width="3" height="15.2"/>
	</g>
	<g>
		<rect x="-2.1" y="397.8" class="st0" width="15.2" height="3"/>
	</g>
</g>
<g>
	<g>
		<rect x="3.9" y="266.6" class="st0" width="3" height="15.2"/>
	</g>
	<g>
		<rect x="-2.1" y="272.8" class="st0" width="15.2" height="3"/>
	</g>
</g>
</svg>
