<?xml version="1.0" encoding="utf-8"?>
<!-- Generator: Adobe Illustrator 19.1.0, SVG Export Plug-In . SVG Version: 6.00 Build 0)  -->
<svg version="1.1" id="Layer_1" xmlns="http://www.w3.org/2000/svg" xmlns:xlink="http://www.w3.org/1999/xlink" x="0px" y="0px"
	 viewBox="0 0 640 480" enable-background="new 0 0 640 480" xml:space="preserve">
<g>
	<g>
		<g>
			<path fill="#010101" d="M348.9,412.5c-0.6,0-1.2-0.1-1.7-0.2c-2.5-0.5-6-2.3-8.6-8.2c-4.6-3.3-5.5-6.7-5.5-9.1
				c0-3.6,2.2-7.1,6-9.6l0,0c3.4-2.2,6.8-3.1,10.1-4c3.9-1,7.5-1.9,11.5-4.9c0.5-0.4,1.1-0.5,1.7-0.3c0.6,0.1,1.1,0.6,1.3,1.1
				c4.1,8.8,1,24.3-4.2,29.9C356.2,410.6,352.4,412.5,348.9,412.5z M341.3,388.8c-2.7,1.8-4.2,4.1-4.3,6.3c0,2.6,2.3,4.8,4.3,6.1
				c0.3,0.2,0.6,0.5,0.7,0.9c1.5,3.7,3.5,5.8,5.8,6.3c3,0.6,6.5-1.7,8.6-3.9c3.9-4.1,6.3-15.6,4.3-23.2c-3.8,2.3-7.4,3.3-10.7,4.1
				C347,386.1,344.1,386.9,341.3,388.8L341.3,388.8z"/>
		</g>
		<g>
			<path fill="#010101" d="M309.5,404c-4.4,0-9.3-2.9-13.8-8.2c-6.7-7.9-9.6-29.1-3.5-40.7c0.3-0.5,0.8-0.9,1.4-1
				c0.6-0.1,1.2,0,1.7,0.4c4.7,4,10.1,5.6,15.3,7.2c5.9,1.8,11.4,3.4,15.5,8.3c4.4,5.2,6.1,10,5.1,14.4c-1,4.2-4.4,7.6-10.1,10.2
				c-2.6,5.6-6.1,8.7-10.2,9.3C310.4,404,310,404,309.5,404z M294.8,359.2c-4,10.5-1.5,27.6,4,34c4,4.8,8.3,7.2,11.6,6.8
				c2.9-0.4,5.4-3,7.5-7.6c0.2-0.5,0.6-0.8,1-1c4.9-2.2,7.8-4.8,8.5-7.8c0.9-3.9-1.8-8.1-4.3-10.9c0,0,0,0,0,0
				c-3.4-3.9-8.1-5.4-13.6-7C304.8,364.1,299.6,362.6,294.8,359.2z"/>
		</g>
		<g>
			<path fill="#010101" d="M331.2,420.5c0,0-0.1,0-0.1,0c-0.9-0.1-1.6-0.7-1.8-1.6c-0.1-0.3-5.8-25.9-27.5-45.4
				c-0.8-0.7-0.9-2-0.1-2.8c0.7-0.8,2-0.9,2.8-0.1c16.8,15.1,24.3,33.3,27.2,42.2c3.1-6.1,9.3-15.9,18.9-20.7c1-0.5,2.2-0.1,2.7,0.9
				c0.5,1,0.1,2.2-0.9,2.7c-12.6,6.3-19.2,23.4-19.2,23.6C332.8,420,332,420.5,331.2,420.5z"/>
		</g>
		<g>
			<path fill="#010101" d="M290.8,456.7h-17.9c-1.1,0-2-0.9-2-2v-35.9c0-1.1,0.9-2,2-2h17.9c1.1,0,2,0.9,2,2v35.9
				C292.8,455.8,291.9,456.7,290.8,456.7z M274.9,452.7h13.9v-31.9h-13.9V452.7z"/>
		</g>
		<g>
			<path fill="#010101" d="M327.7,461c-5.6,0-11.7-2.1-22.8-6c-4.1-1.4-9-3.1-14.7-5.1c-1-0.4-1.6-1.5-1.3-2.5
				c0.3-1,1.5-1.6,2.5-1.3c5.8,1.9,10.7,3.6,14.8,5.1c23,8.1,23,8.1,45.2-3.8c5.5-3,12.3-6.6,21.1-11.1c-3.6-2.9-6.3-3-9.4-2.1
				l-19.8,6.6c-1,0.4-2.2-0.2-2.5-1.3c-0.3-1,0.2-2.2,1.3-2.5l19.9-6.6c5.8-1.7,10.3-0.2,15.5,5c0.5,0.5,0.7,1.1,0.6,1.7
				c-0.1,0.6-0.5,1.2-1.1,1.5c-10,5-17.6,9.1-23.6,12.3C340.5,457.9,334.5,461,327.7,461z"/>
		</g>
		<g>
			<path fill="#010101" d="M337.9,443.3h-24.7c-1.1,0-2-0.9-2-2s0.9-2,2-2h24.7c2.3,0,3.4-1.2,3.4-2.5s-1-2.5-3.4-2.5h-13.5
				c-0.5,0-1-0.2-1.4-0.6c-2.5-2.5-9.4-8.4-18.8-8.4h-13.5c-1.1,0-2-0.9-2-2s0.9-2,2-2h13.5c10.2,0,17.7,5.9,21,9h12.7
				c4.8,0,7.4,3.3,7.4,6.5S342.8,443.3,337.9,443.3z"/>
		</g>
	</g>
	<g>
		<g>
			<g>
				<path fill="#010101" d="M578,295.9h-67.3c-0.8,0-1.4-0.4-1.8-1.1s-0.3-1.5,0.2-2.1l17.8-23.7h-9.5c-0.7,0-1.4-0.4-1.8-1.1
					c-0.4-0.7-0.3-1.4,0.1-2.1l15.9-23.8h-5.2c-0.7,0-1.4-0.4-1.8-1.1c-0.4-0.7-0.3-1.4,0.1-2.1l17.9-26.9c0.7-1.1,2.6-1.1,3.3,0
					L564,239c0.4,0.6,0.4,1.4,0.1,2.1c-0.3,0.7-1,1.1-1.8,1.1h-5.2l15.9,23.8c0.4,0.6,0.4,1.4,0.1,2.1c-0.3,0.6-1,1.1-1.8,1.1h-9.5
					l17.8,23.7c0.5,0.6,0.5,1.4,0.2,2.1S578.8,295.9,578,295.9z M514.7,291.9H574l-17.8-23.7c-0.5-0.6-0.5-1.4-0.2-2.1
					s1-1.1,1.8-1.1h9.7l-15.9-23.8c-0.4-0.6-0.4-1.4-0.1-2.1c0.3-0.7,1-1.1,1.8-1.1h5.2l-14.2-21.3l-14.2,21.3h5.2
					c0.7,0,1.4,0.4,1.8,1.1c0.4,0.7,0.3,1.4-0.1,2.1L521.2,265h9.7c0.8,0,1.4,0.4,1.8,1.1s0.3,1.5-0.2,2.1L514.7,291.9z"/>
			</g>
			<g>
				<path fill="#010101" d="M544.4,318.3c-1.1,0-2-0.9-2-2v-22.4c0-1.1,0.9-2,2-2s2,0.9,2,2v22.4
					C546.4,317.5,545.5,318.3,544.4,318.3z"/>
			</g>
		</g>
		<g>
			<g>
				<path fill="#010101" d="M147.2,247.2H141c-1.1,0-2-0.9-2-2s0.9-2,2-2h6.2c1.1,0,2,0.9,2,2S148.3,247.2,147.2,247.2z"/>
			</g>
			<g>
				<path fill="#010101" d="M133.2,225.3c-0.5,0-1-0.2-1.4-0.6c-0.8-0.8-0.8-2,0-2.8l4.7-4.7c0.8-0.8,2-0.8,2.8,0s0.8,2,0,2.8
					l-4.7,4.7C134.2,225.1,133.7,225.3,133.2,225.3z"/>
			</g>
			<g>
				<path fill="#010101" d="M111.3,217.5c-1.1,0-2-0.9-2-2v-6.2c0-1.1,0.9-2,2-2s2,0.9,2,2v6.2C113.3,216.7,112.4,217.5,111.3,217.5
					z"/>
			</g>
			<g>
				<path fill="#010101" d="M89.5,225.3c-0.5,0-1-0.2-1.4-0.6l-4.7-4.7c-0.8-0.8-0.8-2,0-2.8s2-0.8,2.8,0l4.7,4.7
					c0.8,0.8,0.8,2,0,2.8C90.5,225.1,90,225.3,89.5,225.3z"/>
			</g>
			<g>
				<path fill="#010101" d="M81.7,247.2h-6.2c-1.1,0-2-0.9-2-2s0.9-2,2-2h6.2c1.1,0,2,0.9,2,2S82.8,247.2,81.7,247.2z"/>
			</g>
			<g>
				<path fill="#010101" d="M160.7,314.4H62c-1.1,0-2-0.9-2-2v-35.9c0-0.7,0.4-1.3,0.9-1.7c25.7-16.2,75.6-16.2,100.9,0
					c0.6,0.4,0.9,1,0.9,1.7v35.9C162.7,313.5,161.8,314.4,160.7,314.4z M64,310.4h94.7v-32.8c-23.7-14.4-70.6-14.4-94.7,0V310.4z"/>
			</g>
			<g>
				<path fill="#010101" d="M134.4,314.5c-0.9,0-1.6-0.6-1.9-1.4l-14.6-47.5c-0.3-1.1,0.3-2.2,1.3-2.5c1.1-0.3,2.2,0.3,2.5,1.3
					l14.6,47.5c0.3,1.1-0.3,2.2-1.3,2.5C134.7,314.5,134.5,314.5,134.4,314.5z"/>
			</g>
			<g>
				<path fill="#010101" d="M160.8,310c-0.6,0-1.2-0.2-1.6-0.7l-34.5-42.4c-0.7-0.9-0.6-2.1,0.3-2.8c0.9-0.7,2.1-0.6,2.8,0.3
					l34.5,42.4c0.7,0.9,0.6,2.1-0.3,2.8C161.7,309.8,161.2,310,160.8,310z"/>
			</g>
			<g>
				<path fill="#010101" d="M88.3,314.4c-0.2,0-0.4,0-0.6-0.1c-1.1-0.3-1.6-1.4-1.3-2.5l14.6-47.4c0.3-1.1,1.4-1.7,2.5-1.3
					c1.1,0.3,1.6,1.4,1.3,2.5L90.2,313C90,313.9,89.2,314.4,88.3,314.4z"/>
			</g>
			<g>
				<path fill="#010101" d="M62.3,310c-0.4,0-0.9-0.1-1.3-0.4c-0.9-0.7-1-2-0.3-2.8l34.6-42.4c0.7-0.9,2-1,2.8-0.3
					c0.9,0.7,1,2,0.3,2.8l-34.6,42.4C63.4,309.7,62.8,310,62.3,310z"/>
			</g>
			<g>
				<path fill="#010101" d="M111.3,314.5c-1.1,0-2-0.9-2-2v-47.8c0-1.1,0.9-2,2-2s2,0.9,2,2v47.8
					C113.3,313.6,112.4,314.5,111.3,314.5z"/>
			</g>
			<g>
				<path fill="#010101" d="M101.1,267.2c-0.3,0-0.6-0.1-0.9-0.2c-8.2-4.2-13.3-12.6-13.3-21.8c0-13.5,11-24.4,24.4-24.4
					c13.5,0,24.4,11,24.4,24.4c0,9.2-5.1,17.5-13.2,21.7c-1,0.5-2.2,0.1-2.7-0.9c-0.5-1-0.1-2.2,0.9-2.7
					c6.8-3.5,11.1-10.5,11.1-18.2c0-11.3-9.2-20.4-20.4-20.4s-20.4,9.2-20.4,20.4c0,7.7,4.3,14.7,11.1,18.2c1,0.5,1.4,1.7,0.9,2.7
					C102.5,266.8,101.8,267.2,101.1,267.2z"/>
			</g>
		</g>
		<g>
			<g>
				<path fill="#010101" d="M316.3,259.3c-0.3,0-0.7-0.1-1-0.3c-0.6-0.4-1-1-1-1.7v-7.7c-7.2-4.1-10.4-6-11.8-6.8l-14.6,10.4
					c-0.8,0.8-2.1,1.1-3.3,0.5c-1.1-0.5-1.7-1.6-1.7-2.9c0-0.3,0.1-0.7,0.2-1l1.2-2.3c0.8-1.3,1.5-3,2.2-5.2c0.7-2.1,1-3.8,1-5.2
					c0-1.4-0.4-3.2-1.1-5.5c-1-2.9-1.6-4.3-1.9-5c-0.5-1-1-1.8-1.4-2.5c-0.2-0.3-0.3-0.7-0.3-1c0-1.7,0.9-2.5,1.5-2.9
					c0.5-0.3,1.9-0.9,3.6,0.4l14.5,10.3c6.3-4.5,13.3-7.9,20.8-10.2v-9.1c0-0.7,0.4-1.3,1-1.7c0.6-0.4,1.3-0.4,1.9-0.1l18.9,9.6
					c5.3,0.9,10.5,2.5,15.4,4.9c5.1,2.4,8.8,4.6,11.5,6.8c3.7,3,4.5,4.4,4.5,5.6c0,1.5-1,3.2-5.6,6.8c-3.4,2.6-8.2,5.1-14.8,7.6
					c-6.5,2.5-13.1,3.7-19.6,3.7c-3.1,0-6.4-0.4-9.8-1.1l-9.3,5.2C317,259.2,316.7,259.3,316.3,259.3z M302.5,238.3
					c0.4,0,0.8,0.1,1.2,0.4c0.3,0.2,2.2,1.4,13.7,7.9c0.6,0.4,1,1,1,1.7v5.5l6.9-3.9c0.4-0.2,0.9-0.3,1.4-0.2
					c3.4,0.8,6.7,1.2,9.7,1.2c6.1,0,12.2-1.2,18.2-3.5c6.1-2.3,10.7-4.7,13.8-7.1c2.5-1.9,3.5-3,3.9-3.5c-0.3-0.4-1.1-1.2-2.8-2.6
					c-2.3-1.9-5.9-4-10.7-6.3c-4.7-2.2-9.6-3.8-14.6-4.6c-0.2,0-0.4-0.1-0.6-0.2l-16.3-8.3v7.3c0,0.9-0.6,1.7-1.5,1.9
					c-8,2.3-15.4,5.9-22.1,10.8c-0.7,0.5-1.6,0.5-2.3,0l-12.5-8.9c0.5,1.1,1,2.4,1.5,4.2c0.9,2.7,1.3,4.9,1.3,6.7
					c0,1.8-0.4,3.9-1.2,6.4c-0.5,1.6-1,2.9-1.6,4.1l12.5-8.9C301.6,238.5,302,238.3,302.5,238.3z M357.5,241.7
					c-1.8,0-3.3-0.6-4.6-1.9c-1.3-1.3-1.9-2.8-1.9-4.6c0-1.8,0.7-3.4,1.9-4.6c0,0,0,0,0,0c2.6-2.5,6.7-2.6,9.2,0
					c1.3,1.3,1.9,2.9,1.9,4.6c0,1.8-0.6,3.3-1.9,4.6C360.8,241.1,359.2,241.7,357.5,241.7z M355.7,233.4c-0.5,0.5-0.8,1.1-0.8,1.8
					c0,0.7,0.2,1.3,0.8,1.8c1,1,2.5,1,3.6,0c0.5-0.5,0.8-1.1,0.8-1.8c0-0.7-0.2-1.3-0.8-1.8C358.2,232.3,356.7,232.3,355.7,233.4z"
					/>
			</g>
			<g>
				<path fill="#010101" d="M355.4,315.5c-0.3,0-0.7-0.1-1-0.3l-9.5-5.4c-3.3,0.7-6.5,1.1-9.6,1.1c-6.7,0-13.4-1.3-19.8-3.8
					c-6.4-2.5-11.4-5-14.7-7.5c-4.7-3.5-5.7-5.2-5.7-6.7c0-1.6,1.3-3.2,4.5-5.8c2.6-2.1,6.4-4.3,11.6-6.7c5-2.3,10.3-3.9,15.5-4.8
					l18.9-9.6c0.6-0.3,1.4-0.3,1.9,0.1c0.6,0.4,1,1,1,1.7v9c7.3,2.2,14.2,5.5,20.6,10l14.5-10.3c1.6-1.2,2.9-0.8,3.6-0.4
					c0.7,0.4,1.5,1.2,1.5,3c0,0.3-0.1,0.7-0.2,1l-1.2,2.3c-0.8,1.4-1.5,3.2-2.2,5.4c-0.7,2.1-1,3.8-1,5.3c0,3.2,1.5,7.4,4.5,12.4
					c0.2,0.3,0.3,0.7,0.3,1c0,1.3-0.6,2.4-1.7,2.9c-1.1,0.5-2.2,0.4-3.2-0.2L369,298.8c-1.5,0.9-4.6,2.8-11.6,6.8v7.9
					c0,0.7-0.4,1.4-1,1.7C356.1,315.4,355.7,315.5,355.4,315.5z M345.3,305.7c0.3,0,0.7,0.1,1,0.3l7.1,4.1v-5.6c0-0.7,0.4-1.4,1-1.7
					c10.6-6,12.9-7.5,13.3-7.8c0.7-0.6,1.8-0.7,2.5-0.2l12.6,9.1c-2-4.1-2.9-7.5-2.9-10.6c0-1.9,0.4-4,1.2-6.5c0,0,0,0,0,0
					c0.6-1.7,1.2-3.3,1.8-4.6l-12.7,9c-0.7,0.5-1.7,0.5-2.3,0c-6.7-4.9-14-8.5-21.9-10.6c-0.9-0.2-1.5-1-1.5-1.9v-7.3l-16.3,8.3
					c-0.2,0.1-0.4,0.2-0.6,0.2c-3,0.5-6,1.2-8.9,2.2c1.2,0.3,2.2,0.9,3.1,1.8c1.3,1.3,1.9,2.9,1.9,4.6c0,1.8-0.6,3.3-1.9,4.6
					c0,0,0,0,0,0c-2.5,2.5-6.7,2.5-9.2,0c-1.3-1.3-1.9-2.8-1.9-4.6c0-1.3,0.4-2.5,1-3.5c-4.2,2-7.4,3.9-9.6,5.6
					c-1.8,1.5-2.6,2.3-2.8,2.7c0.3,0.5,1.3,1.5,3.9,3.5c3.1,2.3,7.7,4.6,13.8,7c6,2.3,12.2,3.5,18.4,3.5c3,0,6.2-0.4,9.5-1.2
					C344.9,305.8,345.1,305.7,345.3,305.7z M317.1,285.8c-0.7,0-1.3,0.2-1.8,0.8c-0.5,0.5-0.8,1.1-0.8,1.8c0,0.7,0.2,1.3,0.8,1.8
					c1,1,2.5,1,3.6,0c0.5-0.5,0.8-1.1,0.8-1.8c0-0.7-0.2-1.3-0.8-1.8C318.4,286,317.8,285.8,317.1,285.8z"/>
			</g>
		</g>
	</g>
	<g>
		<g>
			<g>
				<g>
					<path fill="#010101" d="M293.3,69c-0.5,0-0.9,0-1.4-0.1c-4.1-0.6-7.6-3.7-10.2-9.3c-5.7-2.6-9.1-6.1-10.1-10.2
						c-1-4.4,0.7-9.3,5.1-14.4l0,0c4.1-4.8,9.7-6.5,15.5-8.3c5.2-1.6,10.6-3.2,15.3-7.2c0.5-0.4,1.1-0.6,1.7-0.4
						c0.6,0.1,1.1,0.5,1.4,1c6.1,11.6,3.3,32.8-3.5,40.7C302.6,66.1,297.8,69,293.3,69z M279.8,37.5c-2.4,2.9-5.1,7.1-4.3,10.9
						c0.7,3,3.6,5.6,8.5,7.8c0.5,0.2,0.8,0.6,1,1c2.1,4.7,4.6,7.2,7.5,7.6c3.4,0.5,7.5-2,11.6-6.8c5.4-6.4,8-23.5,4-34
						c-4.8,3.4-10,5-14.7,6.4C287.9,32.2,283.1,33.6,279.8,37.5L279.8,37.5z"/>
				</g>
				<g>
					<path fill="#010101" d="M271.6,85.5c-0.1,0-0.3,0-0.4,0c-1.1-0.2-1.8-1.3-1.5-2.4c0.2-1.1,6.1-27.2,28.7-47.5
						c0.8-0.7,2.1-0.7,2.8,0.1c0.7,0.8,0.7,2.1-0.1,2.8c-21.7,19.5-27.4,45.2-27.5,45.4C273.4,84.8,272.6,85.5,271.6,85.5z"/>
				</g>
			</g>
			<g>
				<path fill="#010101" d="M271.3,94.5c-5.7,0-24.4-0.5-24.4-6.5s18.7-6.5,24.4-6.5s24.4,0.5,24.4,6.5S277,94.5,271.3,94.5z
					 M251.5,88c2.4,1.1,9.1,2.5,19.7,2.5c10.6,0,17.3-1.4,19.7-2.5c-2.4-1.1-9.1-2.5-19.7-2.5S253.9,86.9,251.5,88z"/>
			</g>
			<g>
				<path fill="#010101" d="M271.3,103.4c-5.7,0-24.4-0.5-24.4-6.5v-9c0-1.1,0.9-2,2-2s2,0.9,2,2v8.6c1.4,1.1,8.5,2.9,20.4,2.9
					s19-1.8,20.4-2.9V88c0-1.1,0.9-2,2-2s2,0.9,2,2v9C295.7,103,277,103.4,271.3,103.4z"/>
			</g>
			<g>
				<path fill="#010101" d="M271.3,112.4c-5.7,0-24.4-0.5-24.4-6.5v-9c0-1.1,0.9-2,2-2s2,0.9,2,2v8.6c1.4,1.1,8.5,2.9,20.4,2.9
					s19-1.8,20.4-2.9v-8.6c0-1.1,0.9-2,2-2s2,0.9,2,2v9C295.7,111.9,277,112.4,271.3,112.4z"/>
			</g>
			<g>
				<path fill="#010101" d="M271.3,121.4c-5.7,0-24.4-0.5-24.4-6.5v-9c0-1.1,0.9-2,2-2s2,0.9,2,2v8.6c1.4,1.1,8.5,2.9,20.4,2.9
					s19-1.8,20.4-2.9v-8.6c0-1.1,0.9-2,2-2s2,0.9,2,2v9C295.7,120.9,277,121.4,271.3,121.4z"/>
			</g>
			<g>
				<path fill="#010101" d="M271.3,130.4c-5.7,0-24.4-0.5-24.4-6.5v-9c0-1.1,0.9-2,2-2s2,0.9,2,2v8.6c1.4,1.1,8.5,2.9,20.4,2.9
					s19-1.8,20.4-2.9v-8.6c0-1.1,0.9-2,2-2s2,0.9,2,2v9C295.7,129.9,277,130.4,271.3,130.4z"/>
			</g>
			<g>
				<path fill="#010101" d="M271.3,139.3c-5.7,0-24.4-0.5-24.4-6.5v-9c0-1.1,0.9-2,2-2s2,0.9,2,2v8.6c1.4,1.1,8.5,2.9,20.4,2.9
					s19-1.8,20.4-2.9v-8.6c0-1.1,0.9-2,2-2s2,0.9,2,2v9C295.7,138.9,277,139.3,271.3,139.3z"/>
			</g>
		</g>
		<g>
			<g>
				<path fill="#010101" d="M394.3,107.9h-22.4c-1.1,0-2-0.9-2-2s0.9-2,2-2h21.8l26.4-17.6c0.9-0.6,2.2-0.4,2.8,0.6
					c0.6,0.9,0.4,2.2-0.6,2.8l-26.9,17.9C395.1,107.8,394.7,107.9,394.3,107.9z"/>
			</g>
			<g>
				<path fill="#010101" d="M394.3,116.9h-22.4c-1.1,0-2-0.9-2-2s0.9-2,2-2h21.8l26.4-17.6c0.9-0.6,2.2-0.4,2.8,0.6
					c0.6,0.9,0.4,2.2-0.6,2.8l-26.9,17.9C395.1,116.8,394.7,116.9,394.3,116.9z"/>
			</g>
			<g>
				<path fill="#010101" d="M394.3,125.9h-22.4c-1.1,0-2-0.9-2-2s0.9-2,2-2h21.8l26.4-17.6c0.9-0.6,2.2-0.4,2.8,0.6
					c0.6,0.9,0.4,2.2-0.6,2.8l-26.9,17.9C395.1,125.8,394.7,125.9,394.3,125.9z"/>
			</g>
			<g>
				<path fill="#010101" d="M394.3,134.8h-22.4c-1.1,0-2-0.9-2-2s0.9-2,2-2h21.8l26.4-17.6c0.9-0.6,2.2-0.4,2.8,0.6
					c0.6,0.9,0.4,2.2-0.6,2.8l-26.9,17.9C395.1,134.7,394.7,134.8,394.3,134.8z"/>
			</g>
			<g>
				<path fill="#010101" d="M371.9,139.3h-31.4c-1.1,0-2-0.9-2-2V94.7c0-0.6,0.3-1.2,0.8-1.6l26.9-20.2c0.3-0.3,0.8-0.4,1.2-0.4
					h31.4c0.9,0,1.6,0.6,1.9,1.4c0.3,0.8,0,1.7-0.7,2.2l-26.1,19.6v41.6C373.9,138.4,373,139.3,371.9,139.3z M342.5,135.3h27.4V94.7
					c0-0.6,0.3-1.2,0.8-1.6l22.1-16.6h-24.7l-25.6,19.2V135.3z"/>
			</g>
			<g>
				<path fill="#010101" d="M340.5,107.9h-22.4c-1.1,0-2-0.9-2-2s0.9-2,2-2h22.4c1.1,0,2,0.9,2,2S341.6,107.9,340.5,107.9z"/>
			</g>
			<g>
				<path fill="#010101" d="M340.5,116.9h-22.4c-1.1,0-2-0.9-2-2s0.9-2,2-2h22.4c1.1,0,2,0.9,2,2S341.6,116.9,340.5,116.9z"/>
			</g>
			<g>
				<path fill="#010101" d="M340.5,125.9h-22.4c-1.1,0-2-0.9-2-2s0.9-2,2-2h22.4c1.1,0,2,0.9,2,2S341.6,125.9,340.5,125.9z"/>
			</g>
			<g>
				<path fill="#010101" d="M340.5,134.8h-22.4c-1.1,0-2-0.9-2-2s0.9-2,2-2h22.4c1.1,0,2,0.9,2,2S341.6,134.8,340.5,134.8z"/>
			</g>
			<g>
				<path fill="#010101" d="M394.3,98.9h-22.4v-4h21.8L414.6,81h-22.6v-4h29.2c0.9,0,1.7,0.6,1.9,1.4s-0.1,1.8-0.8,2.2l-26.9,17.9
					C395.1,98.8,394.7,98.9,394.3,98.9z"/>
			</g>
			<g>
				<path fill="#010101" d="M340.5,98.9h-22.4c-0.9,0-1.7-0.6-1.9-1.4s0.1-1.8,0.8-2.2l26.9-17.9c0.3-0.2,0.7-0.3,1.1-0.3h15.7v4
					h-15.1l-20.9,13.9h15.8V98.9z"/>
			</g>
			<g>
				<path fill="#010101" d="M356.2,132.6c-1.1,0-2-0.9-2-2v-4.5c0-1.1,0.9-2,2-2s2,0.9,2,2v4.5C358.2,131.7,357.3,132.6,356.2,132.6
					z"/>
			</g>
			<g>
				<path fill="#010101" d="M356.2,101.2c-1.1,0-2-0.9-2-2v-4.5c0-1.1,0.9-2,2-2s2,0.9,2,2v4.5C358.2,100.3,357.3,101.2,356.2,101.2
					z"/>
			</g>
			<g>
				<path fill="#010101" d="M356.2,128.1c-4.8,0-8.7-3.9-8.7-8.7c0-1.1,0.9-2,2-2s2,0.9,2,2c0,2.6,2.1,4.7,4.7,4.7s4.7-2.1,4.7-4.7
					s-2.1-4.7-4.7-4.7c-4.8,0-8.7-3.9-8.7-8.7s3.9-8.7,8.7-8.7s8.7,3.9,8.7,8.7c0,1.1-0.9,2-2,2s-2-0.9-2-2c0-2.6-2.1-4.7-4.7-4.7
					s-4.7,2.1-4.7,4.7s2.1,4.7,4.7,4.7c4.8,0,8.7,3.9,8.7,8.7S361,128.1,356.2,128.1z"/>
			</g>
		</g>
	</g>
	<g>
		<path fill="#010101" d="M246,433H125.1c-15.7,0-28.1-10.1-28.1-23.6v-68.7c0-1.1,0.9-2,2-2s2,0.9,2,2v68.7
			c0,11.4,10.5,19.6,24.1,19.6H246c1.1,0,2,0.9,2,2S247.1,433,246,433z"/>
	</g>
	<g>
		<path fill="#010101" d="M522.9,433H410c-1.1,0-2-0.9-2-2s0.9-2,2-2h112.9c13.6,0,22.1-8.2,22.1-19.6v-72.7c0-1.1,0.9-2,2-2
			s2,0.9,2,2v72.7C549,422.9,538.6,433,522.9,433z"/>
	</g>
	<g>
		<path fill="#010101" d="M547,182.7c-1.1,0-2-0.9-2-2V136c0-11.4-8.5-19-22.1-19H454c-1.1,0-2-0.9-2-2s0.9-2,2-2h68.9
			c15.7,0,26.1,9.5,26.1,23v44.7C549,181.8,548.1,182.7,547,182.7z"/>
	</g>
	<g>
		<path fill="#010101" d="M99,178.7c-1.1,0-2-0.9-2-2V136c0-13.5,12.4-23,28.1-23H210c1.1,0,2,0.9,2,2s-0.9,2-2,2h-84.9
			c-13.6,0-24.1,7.7-24.1,19v40.7C101,177.8,100.1,178.7,99,178.7z"/>
	</g>
	<g>
		<g>
			<path fill="#010101" d="M234,265h-32c-1.1,0-2-0.9-2-2s0.9-2,2-2h32c1.1,0,2,0.9,2,2S235.1,265,234,265z"/>
		</g>
		<g>
			<path fill="#010101" d="M215,278.7c-1.1,0-2-0.9-2-2v-32c0-1.1,0.9-2,2-2s2,0.9,2,2v32C217,277.8,216.1,278.7,215,278.7z"/>
		</g>
	</g>
	<g>
		<g>
			<path fill="#010101" d="M470,265h-32c-1.1,0-2-0.9-2-2s0.9-2,2-2h32c1.1,0,2,0.9,2,2S471.1,265,470,265z"/>
		</g>
		<g>
			<path fill="#010101" d="M455,278.7c-1.1,0-2-0.9-2-2v-32c0-1.1,0.9-2,2-2s2,0.9,2,2v32C457,277.8,456.1,278.7,455,278.7z"/>
		</g>
	</g>
</g>
</svg>
