<?xml version="1.0" encoding="utf-8"?>
<!-- Generator: Adobe Illustrator 19.1.0, SVG Export Plug-In . SVG Version: 6.00 Build 0)  -->
<svg version="1.1" id="Layer_1" xmlns="http://www.w3.org/2000/svg" xmlns:xlink="http://www.w3.org/1999/xlink" x="0px" y="0px"
	 viewBox="192 -170.3 640 480" style="enable-background:new 192 -170.3 640 480;" xml:space="preserve">
<style type="text/css">
	.st0{fill:#231F20;}
	.st1{fill:#22D3C5;}
</style>
<g>
	<g>
		<g>
			<path d="M541-16.4h-3c-0.8,0-1.5-0.7-1.5-1.5c0-0.8,0.7-1.5,1.5-1.5h3c0.8,0,1.5,0.7,1.5,1.5C542.5-17.1,541.8-16.4,541-16.4z"/>
		</g>
		<g>
			<path d="M531.2-33.4c-0.4,0-0.8-0.1-1.1-0.4c-0.6-0.6-0.6-1.6,0-2.2l3.6-3.6c0.6-0.6,1.6-0.6,2.2,0c0.6,0.6,0.6,1.6,0,2.2
				l-3.6,3.6C532-33.6,531.6-33.4,531.2-33.4z"/>
		</g>
		<g>
			<path d="M515-39.3c-0.8,0-1.5-0.7-1.5-1.5v-6.1c0-0.8,0.7-1.5,1.5-1.5s1.5,0.7,1.5,1.5v6.1C516.6-39.9,515.9-39.3,515-39.3z"/>
		</g>
		<g>
			<path d="M497.9-33.4c-0.4,0-0.8-0.1-1.1-0.4l-3.6-3.6c-0.6-0.6-0.6-1.6,0-2.2c0.6-0.6,1.6-0.6,2.2,0L499-36
				c0.6,0.6,0.6,1.6,0,2.2C498.7-33.6,498.3-33.4,497.9-33.4z"/>
		</g>
		<g>
			<path d="M492.2-16.4h-6.1c-0.8,0-1.5-0.7-1.5-1.5c0-0.8,0.7-1.5,1.5-1.5h6.1c0.8,0,1.5,0.7,1.5,1.5
				C493.7-17.1,493-16.4,492.2-16.4z"/>
		</g>
		<g>
			<path d="M551.6,35.4h-76.2c-0.8,0-1.5-0.7-1.5-1.5V5.6c0-0.6,0.3-1.1,0.8-1.3C496.8-8,533.8-8,552.5,4.3c0.4,0.3,0.7,0.8,0.7,1.3
				v28.3C553.1,34.7,552.5,35.4,551.6,35.4z M476.9,32.4h73.1V6.4c-17.5-11-52.5-10.9-73.1,0.1V32.4z"/>
		</g>
		<g>
			<path d="M532.1,34.6c-0.7,0-1.3-0.4-1.5-1.1L519.5-2.7c-0.2-0.8,0.2-1.7,1-1.9c0.8-0.2,1.7,0.2,1.9,1l11.2,36.2
				c0.2,0.8-0.2,1.7-1,1.9C532.4,34.5,532.3,34.6,532.1,34.6z"/>
		</g>
		<g>
			<path d="M551.6,31.1c-0.4,0-0.9-0.2-1.2-0.6L524.8-1.8c-0.5-0.7-0.4-1.6,0.2-2.1c0.7-0.5,1.6-0.4,2.1,0.2l25.7,32.3
				c0.5,0.7,0.4,1.6-0.2,2.1C552.3,31,552,31.1,551.6,31.1z"/>
		</g>
		<g>
			<path d="M497,34.5c-0.1,0-0.3,0-0.4-0.1c-0.8-0.2-1.3-1.1-1-1.9l11.1-36.1c0.2-0.8,1.1-1.3,1.9-1c0.8,0.2,1.3,1.1,1,1.9
				l-11.1,36.1C498.3,34.1,497.7,34.5,497,34.5z"/>
		</g>
		<g>
			<path d="M475.4,31.1c-0.4,0-0.7-0.1-1-0.4c-0.6-0.6-0.7-1.5-0.2-2.2l28.1-32.3c0.6-0.6,1.5-0.7,2.2-0.2c0.6,0.6,0.7,1.5,0.2,2.2
				l-28.1,32.3C476.3,30.9,475.8,31.1,475.4,31.1z"/>
		</g>
		<g>
			<path d="M515,35.4c-0.8,0-1.5-0.7-1.5-1.5V-3.4c0-0.8,0.7-1.5,1.5-1.5s1.5,0.7,1.5,1.5v37.3C516.6,34.7,515.9,35.4,515,35.4z"/>
		</g>
		<g>
			<path d="M506.8-1.5c-0.2,0-0.5-0.1-0.7-0.2c-6.3-3.2-10.1-9.6-10.1-16.6c0-10.3,8.4-18.6,18.6-18.6c10.3,0,18.6,8.4,18.6,18.6
				c0,7-3.9,13.3-10.1,16.6c-0.7,0.4-1.7,0.1-2.1-0.7S521-4,521.7-4.4c5.2-2.7,8.4-8,8.4-13.8c0-8.6-7-15.6-15.6-15.6
				c-8.6,0-15.6,7-15.6,15.6c0,5.9,3.3,11.2,8.5,13.9c0.8,0.4,1,1.3,0.7,2.1C507.9-1.8,507.3-1.5,506.8-1.5z"/>
		</g>
	</g>
	<g>
		<g>
			<g>
				<path d="M486.7-125.7c-0.4,0-0.9,0-1.3-0.1c-1.9-0.4-4.6-1.8-6.5-6.2c-3.5-2.5-4.2-5.1-4.2-6.9c0-2.7,1.7-5.4,4.6-7.3l0,0
					c2.6-1.7,5.2-2.4,7.7-3c2.9-0.8,5.7-1.5,8.8-3.8c0.4-0.3,0.8-0.4,1.3-0.3c0.4,0.1,0.8,0.4,1,0.8c3.1,6.7,0.8,18.5-3.2,22.8
					C492.3-127.2,489.4-125.7,486.7-125.7z M480.9-143.8c-2,1.4-3.2,3.1-3.2,4.8c0,2,1.8,3.6,3.3,4.6c0.3,0.2,0.4,0.4,0.6,0.7
					c1.1,2.8,2.6,4.5,4.4,4.8c2.3,0.5,4.9-1.3,6.6-3c2.9-3.1,4.8-11.9,3.3-17.7c-2.9,1.8-5.7,2.5-8.1,3.1
					C485.3-145.8,483.1-145.2,480.9-143.8L480.9-143.8z"/>
			</g>
			<g>
				<path d="M456.7-132.2c-3.4,0-7.1-2.2-10.5-6.3c-5.1-6-7.3-22.2-2.6-31c0.2-0.4,0.6-0.7,1.1-0.8c0.5-0.1,0.9,0,1.3,0.3
					c3.6,3.1,7.7,4.3,11.7,5.5c4.5,1.3,8.7,2.6,11.8,6.3l0,0c3.4,4,4.7,7.7,3.9,11c-0.7,3.2-3.3,5.8-7.7,7.8c-2,4.2-4.6,6.6-7.8,7.1
					C457.4-132.2,457.1-132.2,456.7-132.2z M445.5-166.4c-3.1,8-1.1,21.1,3,25.9c3.1,3.6,6.3,5.5,8.8,5.2c2.2-0.3,4.1-2.3,5.7-5.8
					c0.2-0.3,0.4-0.6,0.8-0.8c3.8-1.6,5.9-3.6,6.5-5.9c0.7-2.9-1.4-6.2-3.2-8.3c0,0,0,0,0,0c-2.6-3-6.2-4.1-10.4-5.4
					C453.1-162.6,449.2-163.8,445.5-166.4z"/>
			</g>
			<g>
				<path d="M473.3-119.6c0,0-0.1,0-0.1,0c-0.7,0-1.2-0.5-1.4-1.2c0-0.2-4.4-19.8-20.9-34.6c-0.6-0.6-0.7-1.5-0.1-2.2
					c0.6-0.6,1.5-0.7,2.2-0.1c12.8,11.5,18.5,25.4,20.7,32.1c2.4-4.6,7.1-12.1,14.4-15.8c0.8-0.4,1.7-0.1,2,0.7
					c0.4,0.8,0.1,1.7-0.7,2c-9.6,4.8-14.6,17.8-14.6,18C474.5-120,473.9-119.6,473.3-119.6z"/>
			</g>
			<g>
				<path d="M443.4-94.1c0,0.8-0.7,1.5-1.5,1.5h-12.2c-0.8,0-1.5-0.7-1.5-1.5v-27.4c0-0.8,0.7-1.5,1.5-1.5h12.2
					c0.8,0,1.5,0.7,1.5,1.5V-94.1z M431.2-95.6h9.1V-120h-9.1V-95.6z"/>
			</g>
			<g>
				<path d="M470.6-88.8c-4.3,0-8.9-1.6-17.4-4.6c-3.1-1.1-6.8-2.4-11.2-3.9c-0.8-0.3-1.2-1.1-1-1.9c0.3-0.8,1.1-1.2,1.9-1
					c4.4,1.5,8.1,2.8,11.3,3.9c17.5,6.2,17.5,6.2,34.4-2.9c4.2-2.3,9.4-5.1,16.1-8.4c-2.7-2.2-4.8-2.3-7.2-1.6l-15.1,5
					c-0.8,0.3-1.7-0.2-1.9-1c-0.3-0.8,0.2-1.7,1-1.9l15.2-5c4.4-1.3,7.9-0.2,11.8,3.8c0.3,0.3,0.5,0.8,0.4,1.3
					c-0.1,0.5-0.4,0.9-0.8,1.1c-7.6,3.8-13.4,6.9-18,9.4C480.3-91.2,475.8-88.8,470.6-88.8z"/>
			</g>
			<g>
				<path d="M478.5-101.7h-19.8c-0.8,0-1.5-0.7-1.5-1.5c0-0.8,0.7-1.5,1.5-1.5h19.8c1.1,0,2-0.2,2.5-0.6c0.3-0.3,0.5-0.6,0.5-0.9
					c0-0.7-1.1-1.5-3-1.5h-10.3c-0.6,0-1.1-0.3-1.3-0.8c-1.3-2.3-6.4-8.4-14.1-8.4h-9.3c-0.8,0-1.5-0.7-1.5-1.5
					c0-0.8,0.7-1.5,1.5-1.5h9.3c7.7,0,13.7,5.2,16.2,9.1h9.5c4,0,6.1,2.3,6.1,4.6C484.6-104,482.5-101.7,478.5-101.7z"/>
			</g>
		</g>
		<g>
			<g>
				<g>
					<path d="M551.6-121.5c-0.8,0-1.5-0.7-1.5-1.5v-3c0-0.8,0.7-1.5,1.5-1.5s1.5,0.7,1.5,1.5v3C553.1-122.2,552.5-121.5,551.6-121.5
						z"/>
				</g>
				<g>
					<path d="M551.6-155.1c-0.8,0-1.5-0.7-1.5-1.5v-3c0-0.8,0.7-1.5,1.5-1.5s1.5,0.7,1.5,1.5v3C553.1-155.8,552.5-155.1,551.6-155.1
						z"/>
				</g>
				<g>
					<path d="M552.9-126c-4.8,0-8.6-3.9-8.6-8.6c0-0.8,0.7-1.5,1.5-1.5s1.5,0.7,1.5,1.5c0,3.1,2.5,5.6,5.6,5.6
						c3.1,0,5.6-2.5,5.6-5.6s-2.5-5.6-5.6-5.6c-4.8,0-8.6-3.9-8.6-8.6c0-4.8,3.9-8.6,8.6-8.6c4.8,0,8.6,3.9,8.6,8.6
						c0,0.8-0.7,1.5-1.5,1.5s-1.5-0.7-1.5-1.5c0-3.1-2.5-5.6-5.6-5.6c-3.1,0-5.6,2.5-5.6,5.6c0,3.1,2.5,5.6,5.6,5.6
						c4.8,0,8.6,3.9,8.6,8.6C561.5-129.9,557.6-126,552.9-126z"/>
				</g>
			</g>
			<g>
				<g>
					<path d="M601.9-97.2c0,0.8-0.7,1.5-1.5,1.5h-12.2c-0.8,0-1.5-0.7-1.5-1.5v-24.4c0-0.8,0.7-1.5,1.5-1.5h12.2
						c0.8,0,1.5,0.7,1.5,1.5V-97.2z M589.7-98.7h9.1V-120h-9.1V-98.7z"/>
				</g>
				<g>
					<path d="M558.9-92c-5.1,0-9.6-2.1-19.3-6.8c-4.6-2.2-10.3-5-17.9-8.4c-0.5-0.2-0.8-0.6-0.9-1.2c-0.1-0.5,0.1-1,0.5-1.4
						c3.9-3.5,7.3-4.5,11.6-3.4l15.1,4.5c0.8,0.2,1.3,1.1,1,1.9c-0.2,0.8-1.1,1.3-1.9,1l-15-4.5c-2.6-0.7-4.6-0.3-6.8,1.2
						c6.5,3,11.5,5.4,15.7,7.4c16.8,8.1,16.8,8.1,34.3,2.6c3.1-1,6.8-2.1,11.2-3.5c0.8-0.2,1.7,0.2,1.9,1c0.2,0.8-0.2,1.7-1,1.9
						c-4.4,1.3-8,2.5-11.2,3.5C567.8-93.5,563.1-92,558.9-92z"/>
				</g>
				<g>
					<path d="M568.4-104.8h-16.8c-4,0-6.1-2.3-6.1-4.6c0-2.3,2.1-4.6,6.1-4.6h9.7c0.2-0.1,1.1-0.7,1.9-1.2c2.8-1.8,7.5-4.9,13.4-4.9
						h10c0.8,0,1.5,0.7,1.5,1.5c0,0.8-0.7,1.5-1.5,1.5h-10c-5,0-9,2.7-11.7,4.4c-1.6,1.1-2.6,1.7-3.6,1.7h-9.7c-2,0-3,0.8-3,1.5
						s1.1,1.5,3,1.5h16.8c0.8,0,1.5,0.7,1.5,1.5C569.9-105.5,569.2-104.8,568.4-104.8z"/>
				</g>
			</g>
		</g>
	</g>
	<g>
		<g>
			<path d="M496.8,124.7c-0.3,0-0.5-0.1-0.8-0.2c-0.5-0.3-0.8-0.8-0.8-1.3V118c-4.1-2.2-6.5-3.7-7.7-4.5l-9.7,6.9
				c-0.5,0.6-1.5,0.8-2.4,0.3c-0.8-0.4-1.3-1.2-1.3-2.1c0-0.3,0.1-0.5,0.2-0.7l0.8-1.5c0.5-0.9,1-2,1.5-3.5c0.5-1.4,0.7-2.5,0.7-3.4
				c0-0.9-0.3-2.1-0.8-3.6c-0.7-2-1.1-2.9-1.3-3.3c-0.4-0.7-0.7-1.2-0.9-1.7c-0.1-0.2-0.2-0.5-0.2-0.8c0-1.2,0.7-1.8,1.1-2.1
				c0.4-0.2,1.4-0.6,2.6,0.3l9.7,6.9c4.6-3.3,8.9-5.4,13.8-6.8v-6c0-0.5,0.3-1,0.7-1.3c0.5-0.3,1-0.3,1.5-0.1l12.8,6.5
				c3.6,0.6,7.1,1.7,10.5,3.3c3.4,1.6,6,3.1,7.8,4.6c2.3,1.8,3.1,2.9,3.1,3.9c0,1-0.7,2.2-3.9,4.7c-2.3,1.8-5.6,3.5-10,5.2
				c-4.4,1.7-8.9,2.5-13.3,2.5c-2.1,0-4.3-0.3-6.6-0.7l-6.3,3.5C497.3,124.6,497,124.7,496.8,124.7z M487.5,110.2
				c0.3,0,0.6,0.1,0.9,0.3c0.3,0.2,3,1.9,9.1,5.3c0.5,0.3,0.8,0.8,0.8,1.3v3.4l4.5-2.5c0.3-0.2,0.7-0.2,1.1-0.2
				c2.3,0.5,4.5,0.8,6.5,0.8c4.1,0,8.2-0.8,12.2-2.3c4.1-1.6,7.2-3.2,9.3-4.7c1.5-1.2,2.2-1.9,2.5-2.2c-0.3-0.3-0.8-0.8-1.8-1.6
				c-1.2-1-3-2.1-5.2-3.2c0.2,0.1,0.3,0.3,0.4,0.4c0.9,0.9,1.4,2,1.4,3.2c0,1.2-0.5,2.3-1.4,3.2c-1.8,1.8-4.7,1.8-6.5,0
				c-0.9-0.9-1.4-2-1.4-3.2c0-1.2,0.5-2.3,1.3-3.2c0,0,0,0,0,0c1.2-1.2,2.9-1.6,4.4-1.2c-0.1-0.1-0.3-0.1-0.4-0.2
				c-3.1-1.5-6.5-2.5-9.9-3.1c-0.2,0-0.3-0.1-0.4-0.1l-10.8-5.4v4.6c0,0.7-0.5,1.3-1.1,1.5c-5.4,1.4-9.8,3.6-14.8,7.3
				c-0.5,0.4-1.3,0.4-1.8,0l-8-5.7c0.2,0.6,0.5,1.4,0.8,2.3c0.6,1.9,0.9,3.4,0.9,4.6c0,1.2-0.3,2.7-0.8,4.4
				c-0.3,0.8-0.5,1.5-0.8,2.2l7.9-5.6C486.8,110.3,487.1,110.2,487.5,110.2z M523.6,107.1c-0.3,0.3-0.5,0.7-0.5,1.1
				c0,0.4,0.1,0.8,0.5,1.1c0.6,0.6,1.5,0.6,2.2,0c0.3-0.3,0.5-0.7,0.5-1.1c0-0.4-0.1-0.8-0.5-1.1
				C525.1,106.5,524.2,106.5,523.6,107.1z"/>
		</g>
		<g>
			<path d="M524.2,162.7c-0.2,0-0.5-0.1-0.7-0.2l-6.8-3.6c-2.2,0.5-4.7,0.8-6.9,0.8c-4.5,0-9.1-0.9-13.5-2.5
				c-4.3-1.7-7.7-3.4-10-5.1c-3.2-2.4-3.9-3.6-3.9-4.6c0-1.1,0.8-2.2,3.1-4c1.7-1.4,4.3-2.8,8-4.5c3.3-1.5,7-2.6,10.7-3.2l13.2-6.5
				c0.5-0.2,1-0.2,1.5,0.1c0.4,0.3,0.7,0.8,0.7,1.3v5.9c5.2,1.4,9.1,3.7,13.3,6.7l9.3-6.9c1.2-0.9,2.2-0.5,2.6-0.3
				c0.5,0.3,1.1,0.9,1.1,2.2c0,0.3-0.1,0.5-0.2,0.7l-0.8,1.5c-0.5,0.9-1,2.2-1.5,3.6c-0.4,1.3-0.7,2.5-0.7,3.5c0,2.1,1,4.9,3,8.3
				c0.1,0.2,0.2,0.5,0.2,0.8c0,1.3-0.8,1.9-1.2,2.1c-0.8,0.4-1.5,0.3-2.3-0.2l-9.5-7c-1.3,0.9-3.6,2.4-7.3,4.4v5.2
				c0,0.5-0.3,1-0.7,1.3C524.7,162.6,524.5,162.7,524.2,162.7z M516.9,155.7c0.2,0,0.5,0.1,0.7,0.2l5.1,2.7V155
				c0-0.6,0.3-1.1,0.8-1.3c6.5-3.5,8.4-5.2,8.4-5.2c0.5-0.5,1.4-0.6,2-0.1l7.4,5.5c-1.1-2.4-1.6-4.5-1.6-6.4c0-1.3,0.3-2.8,0.8-4.5
				l0,0c0.3-0.9,0.6-1.7,0.9-2.4l-7.6,5.6c-0.5,0.4-1.3,0.4-1.8,0c-4.7-3.5-8.5-5.7-14.3-7.1c-0.7-0.2-1.2-0.8-1.2-1.5v-4.7
				l-11.2,5.5c-0.1,0.1-0.3,0.1-0.4,0.1c-2,0.3-3.9,0.8-5.8,1.4c0.6,0.2,1.1,0.6,1.5,1c0.9,0.9,1.4,2,1.4,3.2c0,1.2-0.5,2.4-1.4,3.2
				c0,0,0,0,0,0c-1.8,1.8-4.7,1.8-6.5,0c-0.9-0.9-1.4-2-1.4-3.2c0-0.7,0.1-1.3,0.4-1.9c-2.6,1.3-4.5,2.4-5.8,3.4
				c-1.1,0.9-1.6,1.4-1.9,1.7c0.3,0.3,0.9,1,2.5,2.2c2.1,1.5,5.2,3.1,9.3,4.7c4,1.6,8.2,2.3,12.4,2.3c2.2,0,4.7-0.3,6.8-0.8
				C516.6,155.7,516.8,155.7,516.9,155.7z M497.4,142.5c-0.4,0-0.8,0.1-1.1,0.5c-0.3,0.3-0.5,0.7-0.5,1.1c0,0.4,0.1,0.8,0.5,1.1
				c0.6,0.6,1.5,0.6,2.2,0c0.3-0.3,0.5-0.7,0.5-1.1c0-0.4-0.1-0.8-0.5-1.1C498.2,142.7,497.9,142.5,497.4,142.5z"/>
		</g>
	</g>
	<g>
		<g>
			<path d="M605.7,163.4h-13.5c-4.6,0-8.5-3.9-8.5-8.7c0,0,0-0.1,0-0.1l-0.1-0.2l-0.1-0.5c-0.1-3.7,2.6-7.6,3.5-8.7l-1-9.8
				c-5.8-3.9-9.3-10.1-9.3-16.9c0-0.6,0-1.2,0.1-1.9c-2.1,1-4.1,1.5-6.1,1.5c-7,0-12.4-2.9-12.4-6.6c0-3.7,5.4-6.6,12.4-6.6
				c3.5,0,6.7,1.7,8.9,3.2c0.6-1,1.4-2,2.2-2.9c-2.2-1.9-4.8-4.7-5.6-8.3c-0.2-0.8-0.8-3.8,0.8-5.4c0.5-0.5,1.1-0.8,1.8-0.8
				c0.7,0,1.8,0.3,2.4,2.3c0.1,0.3,1,4.5,9.4,6.3c5.2-1.9,10.9-1.8,15.9,0c8.5-1.8,9.4-6.1,9.4-6.2c0.7-2.1,1.8-2.4,2.5-2.4
				c0.7,0,1.4,0.3,1.9,0.9c1.5,1.6,0.9,4.5,0.7,5.4c-0.8,3.5-3.4,6.3-5.6,8.2c0.8,0.9,1.5,1.9,2.2,2.9c2.2-1.6,5.4-3.2,8.9-3.2
				c7,0,12.4,2.9,12.4,6.6c0,3.7-5.4,6.6-12.4,6.6c-2,0-4-0.5-6.1-1.5c0.1,0.6,0.1,1.2,0.1,1.9c0,6.3-3,12.2-8.2,16.1l-1.1,10.6
				c0.6,0.8,3.6,5,3.5,8.8l0,0.5C614.3,159.5,610.3,163.4,605.7,163.4z M586.4,154.5c0.2,3.2,2.8,5.8,5.8,5.8h13.5
				c3,0,5.6-2.7,5.8-5.8l0-0.5c0.1-3.1-3-7.1-3-7.1l-0.3-0.4c-0.2-0.3-0.3-0.6-0.3-1l1.2-11.8c0-0.4,0.3-0.8,0.6-1.1l0.3-0.2
				c4.6-3.4,7.3-8.4,7.3-13.9c0-0.9-0.1-1.8-0.2-2.7l-0.3-1.8c-0.1-0.6,0.2-1.2,0.6-1.5c0.5-0.3,1.1-0.4,1.6-0.1l1.6,0.9
				c2,1.2,3.9,1.7,5.7,1.7c6,0,9.3-2.3,9.3-3.6c0-1.2-3.3-3.6-9.3-3.6c-3,0-5.8,1.7-7.6,3l-0.8,0.6c-0.4,0.3-0.8,0.4-1.2,0.3
				c-0.4-0.1-0.8-0.4-1-0.7l-0.5-0.9c-0.7-1.2-1.6-2.4-2.6-3.5l-0.7-0.7c-0.3-0.3-0.4-0.7-0.4-1.2c0-0.4,0.2-0.8,0.6-1.1l0.7-0.6
				c1.9-1.5,4.4-4,5.1-7c0.1-0.2,0.1-0.4,0.1-0.7c-1.2,2-4.1,5.2-11.2,6.6c-0.3,0.1-0.8,0.1-1.1,0c-4.7-1.8-9.9-1.8-14.4-0.1
				c-0.3,0.1-0.8,0.2-1.1,0.2c-7.3-1.5-10.2-4.6-11.4-6.7c0,0.2,0.1,0.4,0.1,0.6c0.7,3,3.2,5.5,5.1,7l0.7,0.6
				c0.3,0.3,0.5,0.7,0.6,1.1c0,0.4-0.1,0.8-0.4,1.2l-0.7,0.7c-1,1-1.9,2.2-2.6,3.5l-0.5,0.9c-0.2,0.4-0.6,0.7-1,0.7s-0.9,0-1.2-0.3
				l-0.8-0.6c-1.8-1.4-4.6-3-7.6-3c-6,0-9.3,2.3-9.3,3.6c0,1.2,3.3,3.6,9.3,3.6c1.8,0,3.7-0.6,5.7-1.7l1.6-0.9
				c0.5-0.3,1.1-0.3,1.6,0.1c0.5,0.3,0.7,0.9,0.6,1.5l-0.3,1.8c-0.1,0.9-0.2,1.8-0.2,2.6c0,5.8,3,11.2,8.1,14.5l0.4,0.2
				c0.4,0.3,0.6,0.7,0.7,1.1l1.1,11.1c0,0.4-0.1,0.8-0.3,1.1l-0.2,0.3c-1.1,1.5-3.1,4.6-3,7l0,0.6l-1.5,0.2L586.4,154.5z"/>
		</g>
		<g>
			<path d="M593.5,159.1c-2.2-0.3-3.6-1.2-4.3-2.6c-1.4-2.7,0.3-6.2,0.4-6.3c0.6-1.3,1.8-4.2,2.9-7.4c0.5-1.5,2.3-6.1,3-7
				c0.1-0.1,0.2-0.2,0.3-0.3v-8.1c0-1.1-1-3.9-3.6-6.5c-5-3.3-7.5-6.1-7.5-8.6c0-6.4,6.9-9.3,13.7-9.3c6.8,0,13.7,2.9,13.7,9.3
				c0,2.9-2.8,6.3-7.6,9.3c-2.2,2.6-2.5,5.5-2.5,6.4l0,7.8c0.2,0.3,0.5,1.2,1.3,3.5c1.2,3.3,3.3,8.9,4.3,10.9
				c0.1,0.2,1.7,3.7,0.3,6.3c-0.5,0.9-1.6,2.1-3.9,2.5L593.5,159.1z M597.8,137.9c-0.4,0.9-1.5,3.5-2.4,5.9
				c-0.9,2.7-2.2,6.1-3.1,7.8c-0.3,0.7-0.9,2.6-0.4,3.5c0.3,0.5,0.9,0.8,1.8,1l10.1,0c0.3-0.1,1.1-0.3,1.5-0.9
				c0.5-0.9,0-2.8-0.4-3.6c-1.1-2.2-3.1-7.6-4.5-11.2c-0.5-1.3-1-2.6-1.2-3.1l-0.1-0.1c-0.4-0.4-0.5-1-0.3-1.6l0-7.7
				c0-1.4,0.5-5.1,3.4-8.4c0.1-0.1,0.3-0.3,0.4-0.3c4.7-3,6.3-5.5,6.3-6.9c0-4.3-5.4-6.2-10.7-6.2c-5.3,0-10.7,1.9-10.7,6.2
				c0,0.4,0.3,2.3,6.2,6.2c0.1,0.1,0.2,0.1,0.2,0.2c3.2,3.1,4.6,6.7,4.6,8.8v9.1c0,0.6-0.4,1.2-1,1.4L597.8,137.9z"/>
		</g>
		<g>
			<path d="M607.3,131.6c-2.6,0-4.8-2.1-4.8-4.8c0-2.6,2.2-4.8,4.8-4.8c2.6,0,4.8,2.2,4.8,4.8C612.1,129.4,610,131.6,607.3,131.6z
				 M607.3,125c-1,0-1.8,0.8-1.8,1.8c0,1,0.8,1.8,1.8,1.8c1,0,1.8-0.8,1.8-1.8C609.1,125.8,608.3,125,607.3,125z"/>
		</g>
		<g>
			<path d="M589.5,131.6c-2.6,0-4.8-2.1-4.8-4.8c0-2.6,2.2-4.8,4.8-4.8c2.6,0,4.8,2.2,4.8,4.8C594.3,129.4,592.2,131.6,589.5,131.6z
				 M589.5,125c-1,0-1.8,0.8-1.8,1.8c0,1,0.8,1.8,1.8,1.8s1.8-0.8,1.8-1.8C591.3,125.8,590.5,125,589.5,125z"/>
		</g>
	</g>
	<g>
		<g>
			<g>
				<g>
					<path class="st0" d="M435.6,141.3c2.6,0.7,5.1,1.1,6.8,1.1c5.8,0,10.5-4.7,10.5-10.5c0-5.8-4.7-10.5-10.5-10.5
						c-2.5,0-6.8,0.9-10.5,2.2l1.5,2.8c3.2-1.1,6.7-1.9,9-1.9c4.1,0,7.4,3.3,7.4,7.4c0,4.1-3.3,7.4-7.4,7.4c-1.6,0-3.8-0.4-6.1-1
						L435.6,141.3z"/>
				</g>
			</g>
		</g>
		<g>
			<g>
				<g>
					<path class="st0" d="M405.1,138.4c-2.1,0.5-4.1,0.8-5.6,0.8c-4.1,0-7.4-3.3-7.4-7.4c0-4.1,3.3-7.4,7.4-7.4
						c2.2,0,5.4,0.7,8.5,1.7l1.3-2.8c-3.5-1.2-7.4-2-9.8-2c-5.8,0-10.5,4.7-10.5,10.5c0,5.8,4.7,10.5,10.5,10.5
						c1.7,0,4.2-0.4,6.8-1.1L405.1,138.4z"/>
				</g>
			</g>
		</g>
		<g>
			<g>
				<g>
					<path class="st0" d="M420.9,164.4c2.6,0,4.9-5.4,6-9.8c0.4-1.7-2.7,1.9-6.3,1.9c-3.7,0-6.1-3.5-5.7-1.9
						C416,159,418.3,164.4,420.9,164.4z"/>
				</g>
			</g>
		</g>
		<g>
			<g>
				<g>
					<path class="st0" d="M429.3,120.5c2.3-2.2,3.7-5.3,3.7-8.7c0-6.8-5.5-12.3-12.3-12.3c-6.8,0-12.3,5.5-12.3,12.3
						c0,3.6,1.6,6.9,4.1,9.2l1.8-2.6c-1.7-1.7-2.8-4-2.8-6.6c0-5.1,4.1-9.2,9.2-9.2c5,0,9.2,4.1,9.2,9.2c0,2.8-1.2,5.2-3.2,6.9
						L429.3,120.5z"/>
				</g>
			</g>
		</g>
		<g>
			<g>
				<path class="st0" d="M420.7,115.9c-9.3,0-16.9,9.4-16.9,20.9c0,11.5,7.6,20.9,16.9,20.9c9.3,0,16.9-9.4,16.9-20.9
					C437.6,125.3,430,115.9,420.7,115.9z M420.7,154.6c-7.6,0-13.8-8-13.8-17.8c0-9.8,6.2-17.8,13.8-17.8c7.6,0,13.8,8,13.8,17.8
					C434.5,146.6,428.3,154.6,420.7,154.6z"/>
			</g>
		</g>
		<g>
			<path class="st0" d="M406.3,129.9v3h1c0.2-1.1,0.4-2.1,0.7-3H406.3z"/>
		</g>
		<g>
			<path class="st0" d="M434.6,133v-3h-1.2c0.3,1,0.6,2,0.7,3H434.6z"/>
		</g>
		<g>
			<path class="st0" d="M407.2,133h26.9c-0.2-1.1-0.4-2.1-0.7-3H408C407.7,130.9,407.4,131.9,407.2,133z"/>
		</g>
		<g>
			<path class="st0" d="M406.3,123.8v3h3c0.6-1.1,1.3-2.1,2.1-3H406.3z"/>
		</g>
		<g>
			<path class="st0" d="M434.6,126.9v-3H430c0.8,0.9,1.5,1.9,2,3H434.6z"/>
		</g>
		<g>
			<path class="st0" d="M430,123.8h-18.7c-0.8,0.9-1.5,1.9-2.1,3h22.8C431.5,125.7,430.8,124.7,430,123.8z"/>
		</g>
		<g>
			<path class="st0" d="M434.3,139h0.2v-3h-0.1c0,0.3,0,0.5,0,0.8C434.5,137.6,434.4,138.3,434.3,139z"/>
		</g>
		<g>
			<path class="st0" d="M406.9,136h-0.7v3h0.7c-0.1-0.7-0.1-1.5-0.1-2.2C406.9,136.5,406.9,136.3,406.9,136z"/>
		</g>
		<g>
			<path class="st0" d="M406.9,136.8c0,0.8,0,1.5,0.1,2.2h27.3c0.1-0.7,0.1-1.5,0.1-2.2c0-0.3,0-0.5,0-0.8h-27.5
				C406.9,136.3,406.9,136.5,406.9,136.8z"/>
		</g>
		<g>
			<path class="st0" d="M432.7,148.2v-2.8c-0.4,1-0.9,1.9-1.5,2.8H432.7z"/>
		</g>
		<g>
			<path class="st0" d="M408.1,145.1v3h2c-0.6-0.9-1.1-2-1.6-3H408.1z"/>
		</g>
		<g>
			<path class="st0" d="M408.5,145.1c0.4,1.1,1,2.1,1.6,3h21.2c0.6-0.9,0-1.8,0-2.8v-0.3H408.5z"/>
		</g>
		<g>
			<g>
				<g>
					<path class="st0" d="M416.6,95.1c-1.6,0-3-1.3-3-3c0-1.6,1.3-3,3-3c1.6,0,3,1.3,3,3C419.5,93.8,418.2,95.1,416.6,95.1z
						 M416.6,90.7c-0.8,0-1.4,0.6-1.4,1.4c0,0.8,0.6,1.4,1.4,1.4c0.8,0,1.4-0.6,1.4-1.4C418,91.4,417.3,90.7,416.6,90.7z"/>
				</g>
			</g>
		</g>
		<g>
			<g>
				<g>
					<path class="st0" d="M425.3,95.1c-1.6,0-3-1.3-3-3c0-1.6,1.3-3,3-3c1.6,0,3,1.3,3,3C428.2,93.8,426.9,95.1,425.3,95.1z
						 M425.3,90.7c-0.8,0-1.4,0.6-1.4,1.4c0,0.8,0.6,1.4,1.4,1.4s1.4-0.6,1.4-1.4C426.7,91.4,426,90.7,425.3,90.7z"/>
				</g>
			</g>
		</g>
		<g>
			<g>
				<rect x="416" y="93.3" class="st0" width="0" height="9.1"/>
			</g>
		</g>
		<g>
			<g>
				<rect x="425.1" y="93.3" class="st0" width="0" height="9.1"/>
			</g>
		</g>
	</g>
	<g>
		<g>
			<path d="M522,309.7h-15.7c-0.9,0-1.8-0.5-2.4-1.3c-0.7-0.9-1-2.2-0.7-3.2l4.5-25.7l-9.9-1.7c-0.8,0.1-1.7,0.2-2.5,0.2
				c-7.6,0-13.8-6.1-13.8-13.7c0-4.3,2-8.3,5.4-10.9c-0.9-1.1-1.4-2.5-1.4-4c0-3.6,3-6.6,6.7-6.5c1.2-9.7,9.5-17,19.5-17
				c5.7,0,11,2.4,14.8,6.6c0.9-0.4,1.8-0.6,2.8-0.6c3.5,0,6.3,2.8,6.3,6.3c0,0.4,0,0.8-0.1,1.2c5.6,1.5,9.6,6.6,9.6,12.5
				c0,1.2-0.2,2.4-0.5,3.6c1.6,2.2,2.5,4.9,2.5,7.7c0,7.3-6,13.2-13.3,13.2c-1.6,0-3-0.2-4.3-0.7l-8.6,3.6l4.6,25.8
				c0.2,1,0,2.2-0.8,3.1C523.8,309.3,522.9,309.7,522,309.7z M497.6,274.8c0.1,0,0.2,0,0.3,0l11.7,2c0.4,0.1,0.8,0.3,1,0.6
				c0.2,0.3,0.3,0.7,0.3,1.1l-4.8,27.3c-0.1,0.3,0.1,0.7,0.3,0.8l15.6,0c0.1-0.1,0.3-0.5,0.2-0.7l-4.9-27.2
				c-0.1-0.7,0.3-1.4,0.9-1.7l10.3-4.3c0.4-0.2,0.8-0.2,1.2,0c1.1,0.4,2.4,0.7,3.8,0.7c5.7,0,10.3-4.6,10.3-10.2
				c0-2.3-0.8-4.6-2.3-6.4c-0.3-0.4-0.4-1-0.3-1.5c0.4-1.1,0.6-2.2,0.6-3.4c0-5-3.8-9.2-8.7-9.8c-0.5-0.1-0.9-0.4-1.2-0.8
				c-0.2-0.5-0.2-1,0-1.4c0.3-0.5,0.4-1.1,0.4-1.6c0-1.8-1.5-3.3-3.3-3.3c-0.8,0-1.5,0.3-2.1,0.8c-0.3,0.3-0.7,0.4-1.1,0.3
				c-0.4,0-0.8-0.3-1-0.6c-3.2-4.1-8-6.5-13.2-6.5c-9,0-16.3,6.9-16.6,15.8c0,0.5-0.3,0.9-0.6,1.2c-0.4,0.3-0.9,0.3-1.3,0.2
				c-2.2-0.7-4.5,1-4.5,3.3c0,1.2,0.6,2.3,1.6,2.9c0.5,0.3,0.7,0.8,0.7,1.3c0,0.5-0.3,1-0.8,1.3c-3.5,1.9-5.6,5.5-5.6,9.3
				c0,5.9,4.8,10.6,10.8,10.6c0.7,0,1.5-0.1,2.2-0.2C497.4,274.9,497.5,274.8,497.6,274.8z"/>
		</g>
	</g>
	<g>
		<path class="st1" d="M473.9,282.3h-72c-21.1,0-40.8-18.8-40.8-40v-320c0-20.2,19-36.2,40.8-36.2h11v3h-11
			c-20.2,0-37.8,14.7-37.8,33.2v320c0,19.5,18.3,36.9,37.8,36.9h72V282.3z"/>
	</g>
	<g>
		<path class="st1" d="M623,282.3h-72.9v-3H623c19.8,0,36.9-14.9,36.9-33.9v-320c0-19-17.1-36.2-36.9-36.2h-8.9v-3h8.9
			c21.5,0,39.9,18.6,39.9,39.3v320C662.9,266,644.4,282.3,623,282.3z"/>
	</g>
	<g>
		<g>
			<rect x="513.5" y="190.9" class="st1" width="3" height="15.2"/>
		</g>
		<g>
			<rect x="507.4" y="197" class="st1" width="15.2" height="3"/>
		</g>
	</g>
	<g>
		<g>
			<rect x="513.5" y="56.8" class="st1" width="3" height="15.2"/>
		</g>
		<g>
			<rect x="507.4" y="62.8" class="st1" width="15.2" height="3"/>
		</g>
	</g>
	<g>
		<g>
			<rect x="513.5" y="-86.5" class="st1" width="3" height="15.2"/>
		</g>
		<g>
			<rect x="507.4" y="-80.4" class="st1" width="15.2" height="3"/>
		</g>
	</g>
</g>
</svg>
