<?xml version="1.0" encoding="utf-8"?>
<!-- Generator: Adobe Illustrator 19.1.0, SVG Export Plug-In . SVG Version: 6.00 Build 0)  -->
<svg version="1.1" id="Layer_1" xmlns="http://www.w3.org/2000/svg" xmlns:xlink="http://www.w3.org/1999/xlink" x="0px" y="0px"
	 viewBox="0 0 640 480" enable-background="new 0 0 640 480" xml:space="preserve">
<g>
	<g>
		<g>
			<path fill="#010101" d="M300.7,124.8h-16c-1.1,0-2-0.9-2-2v-32c0-1.1,0.9-2,2-2h16c1.1,0,2,0.9,2,2v32
				C302.7,123.9,301.8,124.8,300.7,124.8z M286.7,120.8h12v-28h-12V120.8z"/>
		</g>
		<g>
			<path fill="#010101" d="M333.6,128.6c-5,0-10.5-1.9-20.4-5.4c-3.7-1.3-8-2.8-13.1-4.5c-1-0.3-1.6-1.5-1.3-2.5
				c0.3-1,1.5-1.6,2.5-1.3c5.2,1.7,9.5,3.3,13.2,4.5c20.4,7.2,20.4,7.2,40.1-3.4c4.9-2.6,10.8-5.8,18.5-9.7c-3-2.3-5.3-2.4-7.9-1.6
				l-17.7,5.9c-1,0.3-2.2-0.2-2.5-1.3c-0.3-1,0.2-2.2,1.3-2.5l17.7-5.9c5.3-1.5,9.3-0.2,14,4.5c0.5,0.5,0.7,1.1,0.6,1.7
				c-0.1,0.6-0.5,1.2-1.1,1.5c-8.9,4.5-15.6,8.1-21,11C345,125.8,339.7,128.6,333.6,128.6z"/>
		</g>
		<g>
			<path fill="#010101" d="M342.7,112.8h-22c-1.1,0-2-0.9-2-2s0.9-2,2-2h22c2.1,0,2.8-1.1,2.8-2s-0.7-2-2.8-2h-12
				c-0.5,0-1-0.2-1.4-0.6c-2.2-2.2-8.3-7.4-16.6-7.4h-12c-1.1,0-2-0.9-2-2s0.9-2,2-2h12c9.1,0,15.8,5.2,18.8,8h11.2
				c4.4,0,6.8,3,6.8,6S347.2,112.8,342.7,112.8z"/>
		</g>
		<g>
			<path fill="#010101" d="M355.1,96.9c-0.7,0-1.3-0.3-1.7-1c-0.6-0.9-0.3-2.2,0.7-2.7c9-5.4,14.7-15.3,14.7-25.8
				c0-16.5-13.5-30-30-30s-30,13.5-30,30c0,4.7,1.1,9.3,3.2,13.5c0.5,1,0.1,2.2-0.9,2.7c-1,0.5-2.2,0.1-2.7-0.9
				c-2.4-4.8-3.6-9.9-3.6-15.3c0-18.7,15.3-34,34-34c18.7,0,34,15.3,34,34c0,11.9-6.4,23.1-16.6,29.2
				C355.8,96.8,355.4,96.9,355.1,96.9z"/>
		</g>
		<g>
			<path fill="#010101" d="M335.9,91.6c-3.2,0-6.2-7.3-6.2-9c0-1.2,0.5-2.2,0.9-3c0.2-0.4,0.5-1,0.5-1.2c-0.1-0.3-1.2-1.7-2.2-2.8
				c-0.4-0.4-0.6-0.9-0.6-1.4c0-1-0.2-1.7-0.4-2c-0.5-0.5-2.2-0.4-3.7-0.3c-0.7,0-1.5,0.1-2.2,0.1c-4.9,0-6.2-4.9-6.2-7.6
				c0-0.5,0.1-11.4,8.6-13.1c3.8-0.8,6.4-0.5,8,0.8c0.5,0.4,0.9,0.9,1.1,1.4c1.3,0.8,3.8,0.2,5.8-0.3c0.6-0.1,1.2-0.3,1.8-0.4
				c0.2-1.6,0.2-3.3,0.1-4.3c-1.6,0.5-3.2,0.4-4.5-0.3c-1.6-0.9-2.5-2.5-2.7-4.6c-0.5-5.7,10.4-8.4,13.7-9.1
				c1.1-0.2,2.1,0.5,2.4,1.6c0.2,1.1-0.5,2.1-1.6,2.4c-5.8,1.2-10.7,3.7-10.6,4.8c0,0.4,0.2,1.2,0.7,1.4c0.4,0.2,1.2,0.2,2-0.3
				c1-0.5,2.1-0.5,3,0.2c1.7,1.2,2.1,4.6,1.3,10.3c-0.1,1-1,1.7-2,1.7c-0.6,0-1.6,0.2-2.7,0.5c-3,0.7-7.1,1.7-9.9-1.1
				c-0.3-0.3-0.4-0.6-0.5-0.9c-0.3-0.1-1.5-0.5-4.6,0.1c-5.3,1.1-5.4,9.1-5.4,9.2c0,0.1,0.1,3.6,2.2,3.6c0.7,0,1.4,0,2-0.1
				c2.4-0.1,4.9-0.3,6.6,1.4c1,0.9,1.5,2.3,1.7,4c1.2,1.3,2.8,3.3,2.8,5c0,1.2-0.5,2.2-0.9,3c-0.2,0.4-0.5,1-0.5,1.2
				c0.1,0.9,1.7,4.1,2.6,5c5.9-0.2,5.9-3.8,5.9-5c0-0.9,0.6-1.6,1.4-1.9c0,0,1.6-0.6,3.2-2.1c0,0-0.1-0.1-0.1-0.1
				c-0.7-0.6-1.7-1.5-1.7-2.9c0-1.2,0.9-2.2,2.5-3.8c1.1-1.1,3.2-3.3,3.7-4.8c-1.3,0.2-3,0.2-4.2-1.1c-0.3-0.3-0.4-0.6-0.5-0.9
				c-0.4-1.7-1.1-3.5-1.5-4.2c-0.6-0.2-1.1-0.6-1.3-1.1c-0.3-0.7-0.1-1.8,0.4-2.4c1.4-1.7,6.2-4.1,11-3.2c4.1-2.5,5.3-8.6,5.3-8.7
				c0.2-1.1,1.2-1.8,2.3-1.6c1.1,0.2,1.8,1.2,1.6,2.3c-0.1,0.4-1.6,8.7-8,11.9c-0.4,0.2-0.9,0.3-1.4,0.2c-2.5-0.6-4.9,0.1-6.4,0.9
				c0.5,0.9,1.1,2.2,1.6,4.2c0.4,0,1-0.2,1.6-0.4c0.8-0.4,1.7-0.2,2.3,0.4c3.8,3.8-1,8.8-3.6,11.5c-0.3,0.3-0.7,0.7-1,1
				c0.7,0.6,1.6,1.5,1.6,2.9c0,1-0.4,1.9-1.3,2.8c-1.4,1.4-2.7,2.2-3.7,2.7C345.6,88.8,341.9,91.6,335.9,91.6z"/>
		</g>
	</g>
	<g>
		<g>
			<path fill="#010101" d="M556.6,246.3c-3,0-6.4-1.5-10.2-4.6c-6,1.2-10.4,0.5-13.1-2.2c-2.6-2.6-3.3-6.7-2-11.9v0
				c1.3-5.6,5.1-9.2,9.1-12.9c3.5-3.3,7.1-6.7,9.2-11.8c0.2-0.6,0.7-1,1.3-1.1c0.6-0.2,1.2-0.1,1.7,0.3c9.6,6.8,15.9,24.9,13.7,34
				c-1.3,5.5-3.7,8.8-7.1,10C558.3,246.2,557.5,246.3,556.6,246.3z M546.9,237.5c0.5,0,0.9,0.2,1.3,0.5c4.1,3.4,7.5,4.9,9.7,4.1
				c2.5-0.8,3.8-4.3,4.5-7.1c1.7-7-3.1-21.5-10.3-28.3c-2.5,4.5-5.9,7.8-9,10.8c-3.7,3.5-6.9,6.6-7.9,11c-0.5,2.2-1.1,6.1,1,8.2
				c1.7,1.8,5.3,2.1,10.3,0.9C546.6,237.5,546.7,237.5,546.9,237.5z"/>
		</g>
		<g>
			<path fill="#010101" d="M559,273.5h-20c-1.1,0-2-0.9-2-2s0.9-2,2-2h20c1.1,0,2,0.9,2,2S560.1,273.5,559,273.5z"/>
		</g>
		<g>
			<path fill="#010101" d="M559,281.5h-20c-1.1,0-2-0.9-2-2s0.9-2,2-2h20c1.1,0,2,0.9,2,2S560.1,281.5,559,281.5z"/>
		</g>
		<g>
			<path fill="#010101" d="M549,285.5c-1.1,0-2-0.9-2-2v-4c0-1.1,0.9-2,2-2s2,0.9,2,2v4C551,284.6,550.1,285.5,549,285.5z"/>
		</g>
		<g>
			<path fill="#010101" d="M549,265.5c-0.9,0-1.8-0.7-2-1.6c-0.3-1.3-6.3-32.4,2.4-46.1c0.6-0.9,1.8-1.2,2.8-0.6
				c0.9,0.6,1.2,1.8,0.6,2.8c-7.8,12.4-1.9,42.9-1.8,43.2c0.2,1.1-0.5,2.1-1.6,2.4C549.3,265.5,549.1,265.5,549,265.5z"/>
		</g>
		<g>
			<path fill="#010101" d="M559,265.5h-20c-1.1,0-2-0.9-2-2v-3.9c-15.4-4.9-26-18.7-26-34.1c0-19.8,17-36,38-36s38,16.2,38,36
				c0,15.5-10.6,29.3-26,34.1v3.9C561,264.6,560.1,265.5,559,265.5z M541,261.5h16v-3.4c0-0.9,0.6-1.7,1.5-1.9
				c14.4-3.9,24.5-16.6,24.5-30.7c0-17.6-15.3-32-34-32s-34,14.4-34,32c0,14.1,10.1,26.8,24.5,30.7c0.9,0.2,1.5,1,1.5,1.9V261.5z"/>
		</g>
	</g>
	<g>
		<g>
			<path fill="#010101" d="M91,197.5c-1.1,0-2-0.9-2-2v-4c0-1.1,0.9-2,2-2s2,0.9,2,2v4C93,196.6,92.1,197.5,91,197.5z"/>
		</g>
		<g>
			<path fill="#010101" d="M67,205.4c-0.5,0-1-0.2-1.4-0.6l-4-4c-0.8-0.8-0.8-2,0-2.8s2-0.8,2.8,0l4,4c0.8,0.8,0.8,2,0,2.8
				C68,205.2,67.5,205.4,67,205.4z"/>
		</g>
		<g>
			<path fill="#010101" d="M115,205.4c-0.5,0-1-0.2-1.4-0.6c-0.8-0.8-0.8-2,0-2.8l4-4c0.8-0.8,2-0.8,2.8,0s0.8,2,0,2.8l-4,4
				C116,205.2,115.5,205.4,115,205.4z"/>
		</g>
		<g>
			<path fill="#010101" d="M59,229.5h-4c-1.1,0-2-0.9-2-2s0.9-2,2-2h4c1.1,0,2,0.9,2,2S60.1,229.5,59,229.5z"/>
		</g>
		<g>
			<path fill="#010101" d="M68.3,237.2c-0.8,0-1.6-0.5-1.9-1.3c-1-2.7-1.4-5.6-1.4-8.5c0-14.3,11.7-26,26-26
				c7.4,0,14.5,3.2,19.4,8.8c0.7,0.8,0.7,2.1-0.2,2.8c-0.8,0.7-2.1,0.7-2.8-0.2c-4.2-4.7-10.2-7.4-16.4-7.4c-12.1,0-22,9.9-22,22
				c0,2.5,0.4,4.9,1.2,7.2c0.4,1-0.2,2.2-1.2,2.6C68.8,237.2,68.6,237.2,68.3,237.2z"/>
		</g>
		<g>
			<path fill="#010101" d="M147,265.5H63c-0.7,0-1.4-0.4-1.7-1c-0.4-0.6-0.4-1.4,0-2l20-36c0.4-0.6,1-1,1.7-1h44
				c0.7,0,1.4,0.4,1.7,1l20,36c0.3,0.6,0.3,1.4,0,2C148.4,265.2,147.7,265.5,147,265.5z M66.4,261.5h77.2l-17.8-32H84.2L66.4,261.5z
				"/>
		</g>
		<g>
			<path fill="#010101" d="M111,285.5H99c-1.1,0-2-0.9-2-2v-20c0-1.1,0.9-2,2-2h12c1.1,0,2,0.9,2,2v20
				C113,284.6,112.1,285.5,111,285.5z M101,281.5h8v-16h-8V281.5z"/>
		</g>
		<g>
			<path fill="#010101" d="M89,265.5c-0.1,0-0.3,0-0.4,0c-1.1-0.2-1.8-1.3-1.5-2.4l8-36c0.2-1.1,1.3-1.7,2.4-1.5
				c1.1,0.2,1.8,1.3,1.5,2.4l-8,36C90.7,264.9,89.9,265.5,89,265.5z"/>
		</g>
		<g>
			<path fill="#010101" d="M121,265.5c-0.9,0-1.7-0.6-2-1.6l-8-36c-0.2-1.1,0.4-2.1,1.5-2.4c1.1-0.2,2.1,0.4,2.4,1.5l8,36
				c0.2,1.1-0.4,2.1-1.5,2.4C121.3,265.5,121.1,265.5,121,265.5z"/>
		</g>
		<g>
			<rect x="76.3" y="237.5" fill="#010101" width="57.3" height="4"/>
		</g>
		<g>
			<rect x="69.7" y="249.5" fill="#010101" width="70.7" height="4"/>
		</g>
	</g>
	<g>
		<g>
			<path fill="#010101" d="M288.8,257.7c-1,0-2-0.4-2.8-1.2c-1-1-0.9-2.2-0.9-3c0-8.6,2.8-14.8,8.2-18.9c8.7-6.6,22.4-5.9,32.3-3.1
				l-1.1,3.8c-8.5-2.4-21.2-3.3-28.8,2.4c-4.4,3.3-6.6,8.5-6.6,15.4l0,0.5l34.9-13l1.4,3.8l-35.4,13.1
				C289.7,257.6,289.2,257.7,288.8,257.7z"/>
		</g>
		<g>
			<path fill="#010101" d="M338.8,232.4l-3.5-2c2.1-3.6,8.5-16.2,4.8-26.1c-1.8-4.8-5.8-8.2-11.9-10.3l-0.5-0.2
				c-0.1,0-0.1-0.1-0.2-0.1c-0.1,0.1-0.3,0.2-0.4,0.3v37.6h-4v-38c0-1.9,1.9-3.3,3-3.7c1.3-0.6,2.4-0.1,3.1,0.2
				c7.6,2.6,12.4,6.9,14.7,12.8C348,214.1,341.7,227.3,338.8,232.4z"/>
		</g>
		<g>
			<path fill="#010101" d="M358.8,261.3c-0.3,0-0.5,0-0.8,0c-10.1-0.4-18.4-8.6-22.4-13.4l3.1-2.6c3.6,4.3,11,11.6,19.5,12
				c4.7,0.2,9.3-1.9,13.5-6.1l0.4-0.4l-35.7-16.3l1.7-3.6l36,16.6c1.4,0.6,2.3,2,2.2,3.6c0,1.4-0.9,2.2-1.5,2.7
				C369.7,258.8,364.4,261.3,358.8,261.3z"/>
		</g>
		<g>
			<path fill="#010101" d="M377.1,285.4h-91.9c-1.1,0-2-0.9-2-2s0.9-2,2-2h91.9c1.1,0,2,0.9,2,2S378.2,285.4,377.1,285.4z"/>
		</g>
		<g>
			<path fill="#010101" d="M337.1,285.4h-12c-1.1,0-2-0.9-2-2v-51.7c0-4.4,3.6-8,8-8s8,3.6,8,8v51.7
				C339.1,284.5,338.2,285.4,337.1,285.4z M327.1,281.4h8v-49.7c0-2.2-1.8-4-4-4s-4,1.8-4,4V281.4z"/>
		</g>
	</g>
	<g>
		<g>
			<g>
				<g>
					<path fill="#010101" d="M294.8,376.3c-0.5,0-0.9,0-1.4-0.1c-4.1-0.6-7.6-3.7-10.2-9.3c-5.7-2.6-9.1-6.1-10.1-10.2
						c-1-4.4,0.7-9.3,5.1-14.4l0,0c4.1-4.8,9.7-6.5,15.5-8.3c5.2-1.6,10.6-3.2,15.3-7.2c0.5-0.4,1.1-0.6,1.7-0.4
						c0.6,0.1,1.1,0.5,1.4,1c6.1,11.6,3.3,32.8-3.5,40.7C304.1,373.5,299.2,376.3,294.8,376.3z M281.3,344.9
						c-2.4,2.9-5.1,7.1-4.3,10.9c0.7,3,3.6,5.6,8.5,7.8c0.5,0.2,0.8,0.6,1,1c2.1,4.7,4.6,7.2,7.5,7.6c3.3,0.5,7.5-2,11.6-6.8
						c5.4-6.4,8-23.5,4-34c-4.8,3.4-10,5-14.7,6.4C289.4,339.5,284.6,340.9,281.3,344.9L281.3,344.9z"/>
				</g>
				<g>
					<path fill="#010101" d="M273.1,392.8c-0.1,0-0.3,0-0.4,0c-1.1-0.2-1.8-1.3-1.5-2.4c0.2-1.1,6.1-27.2,28.7-47.5
						c0.8-0.7,2.1-0.7,2.8,0.1c0.7,0.8,0.7,2.1-0.1,2.8c-21.7,19.5-27.4,45.2-27.5,45.4C274.8,392.2,274,392.8,273.1,392.8z"/>
				</g>
			</g>
			<g>
				<path fill="#010101" d="M272.7,401.8c-5.7,0-24.4-0.5-24.4-6.5s18.7-6.5,24.4-6.5c5.7,0,24.4,0.5,24.4,6.5
					S278.5,401.8,272.7,401.8z M253,395.3c2.4,1.1,9.1,2.5,19.7,2.5c10.6,0,17.3-1.4,19.7-2.5c-2.4-1.1-9.1-2.5-19.7-2.5
					C262.2,392.8,255.4,394.2,253,395.3z"/>
			</g>
			<g>
				<path fill="#010101" d="M272.7,410.8c-5.7,0-24.4-0.5-24.4-6.5v-9c0-1.1,0.9-2,2-2s2,0.9,2,2v8.6c1.4,1.1,8.5,2.9,20.4,2.9
					c12,0,19-1.8,20.4-2.9v-8.6c0-1.1,0.9-2,2-2s2,0.9,2,2v9C297.2,410.3,278.5,410.8,272.7,410.8z"/>
			</g>
			<g>
				<path fill="#010101" d="M272.7,419.7c-5.7,0-24.4-0.5-24.4-6.5v-9c0-1.1,0.9-2,2-2s2,0.9,2,2v8.6c1.4,1.1,8.5,2.9,20.4,2.9
					c12,0,19-1.8,20.4-2.9v-8.6c0-1.1,0.9-2,2-2s2,0.9,2,2v9C297.2,419.3,278.5,419.7,272.7,419.7z"/>
			</g>
			<g>
				<path fill="#010101" d="M272.7,428.7c-5.7,0-24.4-0.5-24.4-6.5v-9c0-1.1,0.9-2,2-2s2,0.9,2,2v8.6c1.4,1.1,8.5,2.9,20.4,2.9
					c12,0,19-1.8,20.4-2.9v-8.6c0-1.1,0.9-2,2-2s2,0.9,2,2v9C297.2,428.2,278.5,428.7,272.7,428.7z"/>
			</g>
			<g>
				<path fill="#010101" d="M272.7,437.7c-5.7,0-24.4-0.5-24.4-6.5v-9c0-1.1,0.9-2,2-2s2,0.9,2,2v8.6c1.4,1.1,8.5,2.9,20.4,2.9
					c12,0,19-1.8,20.4-2.9v-8.6c0-1.1,0.9-2,2-2s2,0.9,2,2v9C297.2,437.2,278.5,437.7,272.7,437.7z"/>
			</g>
			<g>
				<path fill="#010101" d="M272.7,446.7c-5.7,0-24.4-0.5-24.4-6.5v-9c0-1.1,0.9-2,2-2s2,0.9,2,2v8.6c1.4,1.1,8.5,2.9,20.4,2.9
					c12,0,19-1.8,20.4-2.9v-8.6c0-1.1,0.9-2,2-2s2,0.9,2,2v9C297.2,446.2,278.5,446.7,272.7,446.7z"/>
			</g>
		</g>
		<g>
			<g>
				<path fill="#010101" d="M395.8,415.2h-22.4c-1.1,0-2-0.9-2-2s0.9-2,2-2h21.8l26.4-17.6c0.9-0.6,2.2-0.4,2.8,0.6
					c0.6,0.9,0.4,2.2-0.6,2.8l-26.9,17.9C396.6,415.1,396.2,415.2,395.8,415.2z"/>
			</g>
			<g>
				<path fill="#010101" d="M395.8,424.2h-22.4c-1.1,0-2-0.9-2-2s0.9-2,2-2h21.8l26.4-17.6c0.9-0.6,2.2-0.4,2.8,0.6
					c0.6,0.9,0.4,2.2-0.6,2.8l-26.9,17.9C396.6,424.1,396.2,424.2,395.8,424.2z"/>
			</g>
			<g>
				<path fill="#010101" d="M395.8,433.2h-22.4c-1.1,0-2-0.9-2-2s0.9-2,2-2h21.8l26.4-17.6c0.9-0.6,2.2-0.4,2.8,0.6
					c0.6,0.9,0.4,2.2-0.6,2.8l-26.9,17.9C396.6,433.1,396.2,433.2,395.8,433.2z"/>
			</g>
			<g>
				<path fill="#010101" d="M395.8,442.2h-22.4c-1.1,0-2-0.9-2-2s0.9-2,2-2h21.8l26.4-17.6c0.9-0.6,2.2-0.4,2.8,0.6
					c0.6,0.9,0.4,2.2-0.6,2.8l-26.9,17.9C396.6,442.1,396.2,442.2,395.8,442.2z"/>
			</g>
			<g>
				<path fill="#010101" d="M373.4,446.7h-31.4c-1.1,0-2-0.9-2-2V402c0-0.6,0.3-1.2,0.8-1.6l26.9-20.2c0.3-0.3,0.8-0.4,1.2-0.4h31.4
					c0.9,0,1.6,0.6,1.9,1.4c0.3,0.8,0,1.7-0.7,2.2L375.4,403v41.6C375.4,445.8,374.5,446.7,373.4,446.7z M343.9,442.7h27.4V402
					c0-0.6,0.3-1.2,0.8-1.6l22.1-16.6h-24.7L343.9,403V442.7z"/>
			</g>
			<g>
				<path fill="#010101" d="M341.9,415.2h-22.4c-1.1,0-2-0.9-2-2s0.9-2,2-2h22.4c1.1,0,2,0.9,2,2S343.1,415.2,341.9,415.2z"/>
			</g>
			<g>
				<path fill="#010101" d="M341.9,424.2h-22.4c-1.1,0-2-0.9-2-2s0.9-2,2-2h22.4c1.1,0,2,0.9,2,2S343.1,424.2,341.9,424.2z"/>
			</g>
			<g>
				<path fill="#010101" d="M341.9,433.2h-22.4c-1.1,0-2-0.9-2-2s0.9-2,2-2h22.4c1.1,0,2,0.9,2,2S343.1,433.2,341.9,433.2z"/>
			</g>
			<g>
				<path fill="#010101" d="M341.9,442.2h-22.4c-1.1,0-2-0.9-2-2s0.9-2,2-2h22.4c1.1,0,2,0.9,2,2S343.1,442.2,341.9,442.2z"/>
			</g>
			<g>
				<path fill="#010101" d="M395.8,406.3h-22.4v-4h21.8l20.9-13.9h-22.6v-4h29.2c0.9,0,1.7,0.6,1.9,1.4s-0.1,1.8-0.8,2.2l-26.9,17.9
					C396.6,406.2,396.2,406.3,395.8,406.3z"/>
			</g>
			<g>
				<path fill="#010101" d="M341.9,406.3h-22.4c-0.9,0-1.7-0.6-1.9-1.4s0.1-1.8,0.8-2.2l26.9-17.9c0.3-0.2,0.7-0.3,1.1-0.3h15.7v4
					H347l-20.9,13.9h15.8V406.3z"/>
			</g>
			<g>
				<path fill="#010101" d="M357.7,439.9c-1.1,0-2-0.9-2-2v-4.5c0-1.1,0.9-2,2-2s2,0.9,2,2v4.5C359.7,439,358.8,439.9,357.7,439.9z"
					/>
			</g>
			<g>
				<path fill="#010101" d="M357.7,408.5c-1.1,0-2-0.9-2-2V402c0-1.1,0.9-2,2-2s2,0.9,2,2v4.5C359.7,407.6,358.8,408.5,357.7,408.5z
					"/>
			</g>
			<g>
				<path fill="#010101" d="M357.7,435.4c-4.8,0-8.7-3.9-8.7-8.7c0-1.1,0.9-2,2-2s2,0.9,2,2c0,2.6,2.1,4.7,4.7,4.7
					c2.6,0,4.7-2.1,4.7-4.7s-2.1-4.7-4.7-4.7c-4.8,0-8.7-3.9-8.7-8.7s3.9-8.7,8.7-8.7c4.8,0,8.7,3.9,8.7,8.7c0,1.1-0.9,2-2,2
					s-2-0.9-2-2c0-2.6-2.1-4.7-4.7-4.7c-2.6,0-4.7,2.1-4.7,4.7s2.1,4.7,4.7,4.7c4.8,0,8.7,3.9,8.7,8.7S362.5,435.4,357.7,435.4z"/>
			</g>
		</g>
	</g>
	<g>
		<path fill="#010101" d="M215.4,405h-88.9c-15.7,0-26.5-9.9-26.5-23.4v-68.7c0-1.1,0.9-2,2-2s2,0.9,2,2v68.7
			c0,11.4,8.9,19.4,22.5,19.4h88.9c1.1,0,2,0.9,2,2S216.5,405,215.4,405z"/>
	</g>
	<g>
		<path fill="#010101" d="M524.3,405h-68.9c-1.1,0-2-0.9-2-2s0.9-2,2-2h68.9c13.6,0,23.7-8,23.7-19.4v-72.7c0-1.1,0.9-2,2-2
			s2,0.9,2,2v72.7C552,395.1,540,405,524.3,405z"/>
	</g>
	<g>
		<path fill="#010101" d="M550,154.9c-1.1,0-2-0.9-2-2v-44.7c0-11.4-10.1-19.2-23.7-19.2H423.4c-1.1,0-2-0.9-2-2s0.9-2,2-2h100.9
			c16,0,27.7,9.5,27.7,23.2v44.7C552,154,551.1,154.9,550,154.9z"/>
	</g>
	<g>
		<path fill="#010101" d="M102,150.9c-1.1,0-2-0.9-2-2v-40.7c0-13.5,10.8-23.2,26.5-23.2h124.9c1.1,0,2,0.9,2,2s-0.9,2-2,2H126.5
			c-13.6,0-22.5,7.9-22.5,19.2v40.7C104,150,103.1,150.9,102,150.9z"/>
	</g>
	<g>
		<g>
			<path fill="#010101" d="M235.4,237h-32c-1.1,0-2-0.9-2-2s0.9-2,2-2h32c1.1,0,2,0.9,2,2S236.5,237,235.4,237z"/>
		</g>
		<g>
			<path fill="#010101" d="M218,250.9c-1.1,0-2-0.9-2-2v-32c0-1.1,0.9-2,2-2s2,0.9,2,2v32C220,250,219.1,250.9,218,250.9z"/>
		</g>
	</g>
	<g>
		<g>
			<path fill="#010101" d="M471.4,237h-32c-1.1,0-2-0.9-2-2s0.9-2,2-2h32c1.1,0,2,0.9,2,2S472.5,237,471.4,237z"/>
		</g>
		<g>
			<path fill="#010101" d="M458,250.9c-1.1,0-2-0.9-2-2v-32c0-1.1,0.9-2,2-2s2,0.9,2,2v32C460,250,459.1,250.9,458,250.9z"/>
		</g>
	</g>
</g>
</svg>
